<?xml version="1.0" encoding="utf-8"?>
<!-- Generator: Adobe Illustrator 23.0.0, SVG Export Plug-In . SVG Version: 6.00 Build 0)  -->
<svg version="1.1" id="Laag_1" xmlns="http://www.w3.org/2000/svg" xmlns:xlink="http://www.w3.org/1999/xlink" x="0px" y="0px"
	 viewBox="0 0 335.7 541.8" style="enable-background:new 0 0 335.7 541.8;" xml:space="preserve">
<style type="text/css">
	.st0{stroke:#000000;stroke-width:0.2436;stroke-miterlimit:10;}
	.st1{fill:none;stroke:#BBBBBB;stroke-width:0.2436;stroke-miterlimit:10;}
	.st2{stroke:#3F3F3F;stroke-width:0.2436;stroke-miterlimit:10;}
</style>
<g>
	<path class="st0" d="M176.2,29.9c-0.1,0.1-1.3,1.1-2,1.8c-1.5,1.5-5.7,1.7-6.2,1.9c-1,0.4-5.8-1.4-6.3-0.2
		c-5.3,9.2,0.9,7.8-3.5,17.5c-0.6,3.5-1.1,7-1.7,10.4c-0.2,1.4-0.5,2.9-0.7,4.3c0,0.1,0.1,0.1,0.1,0.2c1,6.4-1.4,13.2-4.1,19.5
		c-1.4,5.7-3,11.3-4.8,16.8c-2,6-4.5,11.7-7.9,17c-3.6,5.6-7.1,11.7-11.8,16.4c-1,1-2.1,2-3.3,2.9c-1.1,1.9-2.3,3.7-3.6,5.5
		c-5.3,7.3-11.7,14.2-16.2,22.1c-0.8,8.1-2.5,16.1-4,24.1c0.2,1.1,0.4,2.1,0.6,3.2c0.2,0.9,0.3,1.8,0.5,2.7c1.3-1,3-1.2,4.4-2
		c1-0.6,1.7,0.5,1.7,1.4c0.2,2.6,0.9,5.1,0.9,7.8c-0.1,5.2,0.2,10.5,2.8,15.3c1.3-0.6,1.5-2.9,3.3-1.7c1.3,0.9,2.7,0.8,4.1,0.2
		c0.7,1.6-1.2,2.7-0.4,4.2c1.2-0.4,1-1.8,1.9-2.2c0.9,0.7,0,2,1.2,2.8c-0.6-2.7,0.3-4.6,2.2-6c0.6-0.5,0.9-2.1,1.9-1.3
		c0.7,0.6,1.8,1.3,1.6,2.7c-0.3,2.2,0.2,4.4,0.1,6.6c-0.2,2.2-0.6,3.5-3.5,3.2c2.6,1.3,1.9,2.5,0.4,3.2c-5,2.3-6.9,6.7-8.1,11.7
		c-0.6,2.6-1.4,5-0.2,7.9c0.2-0.8,0.4-1.3,0.5-1.9c1.3,0.7,1,2.2,2,3.4c-0.2-1.8-0.4-3.2-0.5-4.7c-0.2-3.4-1-6.9,2.3-9.4
		c1-0.8,2.2-1.4,3.2-1c1.2,0.5,0.3,1.9,0.3,2.9c0,3.1-1.6,5.6-2.5,8.4c-1.1,3.3,1.7,7-1.1,10.5c-0.6,0.7,1.9,3.5,2.3,5.8
		c0.2,1.1,2.6,1.7,1.9,3.3c-0.6,1.5-2.3,1.6-3.8,1.8c-1.3,0.2-2.5,0.5-3.8,0.8c-1.2,0.3-1.2,0.3-2.2,2.1c2.4-0.7,4.6-1.5,7.2-1.2
		c-2,3.5-4.9,5.9-6.4,9.5c-1.3,3.2-3.3,6.1-3.2,9.8c0,0.9-0.1,1.8-0.7,2.6c-2.3,3.3-1.6,7.5-3.4,11.3c1.8-0.4,1.1-2.2,2.3-2.4
		c1.2-0.1,0.7,1.6,1.4,1.8c0.9-1.1-0.5-2.2,0.4-3.3c1.5,0.9,1.6,2.1,1.1,3.7c-0.9,2.5-1.7,4.9-0.2,7.5c0.7,1.1,0.5,3.2-0.6,3.6
		c-2.5,1.1-3.9,3.1-5.5,5c-0.3,0.3-1.3,0.5-0.8,0.8c1.6,1,0.7,2.8,1.5,4.2c1.1,1.8,1.5,4.2-1.3,5.5c-0.7,0.3-0.9,0.9-0.6,1.9
		c1.5-1.5,3.3-0.9,5.3-1.2c-0.9,1.6-0.6,3-0.1,4.1c1.8,3.5-1.9,5.9-1.6,9c0,0.2-0.4,0.4-0.7,0.5c-1,0.4-1.2,1.4-1.1,2.3
		c0.2,2.2-1,3.7-2.3,5.1c-1.2,1.4-2.2,2.9-2.8,4.5c-0.8,2.1-2.1,2.8-4.1,2.6c-6-0.4-12,0.1-17.9,1.5c-2.1,0.5-4.2,1.1-6.4,1.4
		c-10.7,1.5-21.4,2-32.2,2.8c-4.6,0.4-9.3,0.5-13.9,0c-6.4-0.6-12.7-1.2-19.4-1.8c1.1,1,2.2,1.1,3.2,1.3c8.2,1.6,16.4,2.7,24.7,2.8
		c16.3,0.1,32.5-1.5,48.6-4.6c5.4-1.1,10.9-3.7,16.4,0c0.2,0.1,0.6-0.1,0.8-0.2c1.6-1.2,3.3-0.2,4.9-0.4c1.9-0.3,2.5,2,3.8,1.7
		c3.2-0.8,3,1.4,3.3,3.4c1,6.1,2.1,12.2,5.6,17.6c1.8,2.7,3.6,5.5,4.2,8.9c0.4,2.6-0.8,4.7-3.3,5.4c-1.9,0.6-3.2,2.2-2.4,4
		c0.8,1.8,0.6,3.5,0.2,5.2c1.1-0.2,1.7-1.7,2.5-0.9c0.9,0.7-0.1,1.6-0.5,2.4c-0.3,0.7-0.8,1.4-1.2,2.1c-0.9,1.9-2.8,3.1-3.6,5.5
		c2.3-1.5,3.5-3.4,4.6-5.5c1.1-1.9,1.9-4.2,3.7-5.6c0.6-0.8,1.7-1.4,1.2-2.8c-0.5-1.4,1.4-0.8,1.5-1.7c0.8,0.5,1,1.1,0.7,2
		c-0.1,0.3-0.3,0.6-0.5,0.9c3.6,1.8,0.9,3.6,0,5.3c1.2-0.3,2.6-0.4,3.6-1.1c0.5-0.3-1.1-2.1,0.2-2.6c1.2-0.5,0.4,1.9,1.8,1.8
		c0.5-0.1,1.1-0.7,1.5,0c0,1.4-2.1,1.7-1.7,3.3c2-1.8,3,0.2,4,1.3c2.7,3.2-2.6,2-2.2,4c2,0.3,2,0.3,1.4,2.1
		c-2,5.8-4.1,11.7-3.4,18.1c0.2,1.4-0.3,1.7-2.6,2.7c-0.2,0.1-0.3,0.3-0.3,0.5c-0.5,3.8-6.2,5.7-3.5,10.6c0.1,0.1,0,0.4-0.1,0.6
		c-1.3,2.1-1.1,4.5-1.4,6.8c-0.5,3.4-1.6,6.6-3.2,9.9c1.9-0.3,2.7,0.4,2.6,2.2c-0.3,3.4,0.6,6.6,1.8,9.7c1.9,4.7,3.4,9.2,2.4,14.6
		c-1,5.2-2.2,10.2-5.3,14.5c-1.6,2.1-3.5,4-5.2,5.9c1.6,0.6,1.6-0.3,2.1-0.7c0.6-0.5,1.3-1,1.8-1.6c7.4-9.3,11.7-19.2,6.7-31.3
		c-1.5-3.6-2.8-7.3-2.3-11.4c0.5-3.9,1.1-7.7,2.2-11.5c0.6-2.1,0.6-4.2,3.9-3.2c-2.6-3.7,0.9-4.7,2.1-6.6c1.3-2,2.5-0.9,3,0.5
		c1.1,3.2,2.2,6.4,1.6,10c-1.1,7.1-2.4,14-5.4,20.6c-1.6,3.5-1.9,7.5-0.6,11.3c0.9,2.7,0.5,5.4,0,7.9c-0.9,5-2.1,10-2.9,15.1
		c-0.7,4.1-0.6,8.3,0.7,12.4c-0.4-3.5,2.3-5.6,3.3-8.5c-0.1,1.5-0.4,2.9,0,4.5c0.2-0.5,0.4-1.1,0.6-1.1c1.4,0,0,1.8,1.2,2.1
		c0.3-3.6,1.9-6.6,4-9.4c1.7-2.3,6-3.4,7.8-2.3c1.1,0.7,1.4,1.9,2.2,2.8l7.7,12.5c-0.4-3.9-1.3-7.8-2.6-11.5
		c-0.3-0.8-1.8-3.1,1.2-1.9c0.8,0.3,1-0.5,0.8-0.7c-2.3-2.3-0.1-3.1,1.4-4c-0.4-1-1.4-0.7-2-1.3c-1.1-1.1-3-1.5-2.8-3.7
		c-3.7-0.2-1.7-2.7-1.7-4.4c0-0.9,0.4-1.8,0.4-2.7c0.1-2.2,0.1-4.2,3.2-3c0.9,0.3,1.6-0.8,2.4-0.9c1.5-0.1,1.7-3.7,3.9-1.6
		c2.1,2.1-0.9,3-1.2,4.6c2.4,0.5,4.7,3.7,4.5,6c-0.3,3.5-3.7,3.7-5.4,5.7c1.9-0.4,3.7-1.2,5.5-1.2c0.6,0,1.5,0.4,1.8,0.9
		c0.5,0.9-0.6,0.6-0.9,1c-0.4,0.4-0.8,1.1-0.4,1.6c0.6,0.7,1,0,1.4-0.4c0.4-0.3,0.8-0.8,1.2-0.4c1.2,1.2,1.8,0.5,2.8-0.3
		c0.7-0.6,2-0.8,2.9-0.6c0.6,0.2,0.9,1.5,1.2,2.3c0.5,1.1-1.8,0.3-1.1,1.8c1,2.4,1.4,5.2,1.6,7.6c0.2,3.2,4,7-0.7,9.9
		c-0.5,0.3-0.4,1.5-0.6,2.3c-0.1,0.3,0.3,0.6-0.1,1.1c-0.9,1-0.8,1.4,0.4,1.5c2.2,0.1,4.2-0.4,5.8-2.3c1.9-2.3,3.9-4.6,6.3-6.3
		c2-1.4,3.1-4,5.5-4.8c2.7-1,1.6-4.2,3.4-5.8c0.3-0.3,0.4-0.7,0.6-1c0.3-0.4,0.8-0.9,1.2-0.4c1.2,1.7,1.7,0.1,2.7-0.3
		c1.8-0.7,1.2-2.3,1.6-3.5c1-2.4,3.2-3.4,4.9-5.1c-1.2,0.3-2.1,1.1-3.4,1c-0.7-0.1-1.7,0.2-1.4-1.2c0.2-0.9,0.1-2.3,1.6-1.9
		c2.1,0.6,4.5-0.6,6.4,1.5c1.4,1.5,3.8,1.7,4.7,4c1.2,3.2,2,6.5,0.9,10c-0.3,1-0.7,2,0,3.4c2.1-5,3.8-9.7,2.3-14.6
		c-0.9-3.1,0.6-4.4,2.5-6c3-2.6,5.1-5.8,5.9-9.8c-2,2.5-3.1,5.8-5.7,7.9c-0.8,0.7-1.6,1.5-2.5,2.1c-1.2,0.8-2.1,0.7-3-0.7
		c-0.7-1.3-2-2.3-2.7-3.4c-0.9-1.4-0.6-3.9,1-5c2.7-1.8,2.4-4.9,3.4-7.4c0.3-0.7-1.8-2.1,0-2.7c1.7-0.6,3.1-2.8,5.3-1.6
		c1.1,0.6,2,1.1,3.4,0.1c1.3-0.9,1.8,0.5,1.9,1.9c0.2,3.1-1.3,5.9-1.2,8.9c1.9-2.3,1.8-5.3,2-8c0.2-2.3,0.7-3.1,3.1-3.6
		c4.9-1,9.4-3.3,11.7-8.2c1-2.1,1.8-0.1,2.9-0.2c-1-4.4,1.1-7.3,3.8-10.1c0.9-0.9,1.5-1.3,2.7-0.8c0.2,0.1-0.2,1.7,0.6,0.3
		c0.4-0.6,1.9-0.5,1.2-1.6c-0.9-1.6-0.8-2.8,0.9-3.4c1.9-0.7,1.5,1.6,2.4,2.3c0.8-1-0.3-2.2,0.8-3.5c0.5,1.8,0,3.6,1.1,5.8
		c-0.1-1.2-0.2-1.7-0.1-2.2c0.1-0.8-0.5-2.2,0.5-2.4c1.1-0.2,1.5,1.1,1.8,2c0.3,0.9,0.4,2,1.6,1.8c2-0.3,3.1,0.5,3.3,2.6
		c0.1,0.4,0.3,1,1.1,0.7c0.2-2.5-0.8-4.7-1.3-7c-0.1-0.5-0.4-2,0.4-1.5c2.8,1.6,1.1-0.9,1.3-1.4c0.6-2.7-1.1-5.8,1.2-8.3
		c2.3-2.6,1.6-6.1,2.4-9.1c0.7-2.7,2.2-2.3,3.9-2.4c0.3,0,0.5,1.6,0.9,0c0.2-0.8,1.3-1.5,0.6-2.5c-0.4-0.6-1.1-0.1-1.6,0.1
		c-0.9,0.3-1.7,1.2-2.9,1c0.6-1.4,2-1.6,3-2.6c-1.5-0.4-2.6-1.3-2.3-2.8c0.5-3.4-1.1-6.8,0.2-10.2c0.3-0.8,0.2-2.3-0.3-2.9
		c-1.3-1.5-0.7-2.8-0.3-4.2c0.5-1.9,1.3-3.7,1.6-5.6c0.4-2.6,1.4-2.1,2.9-1.1c3.2,2.1,5.5,5.1,7.6,8.6c0.4-1.6,0.2-2.6-0.6-3.5
		c-2-2.1-2.8-5.1-4.9-7.2c-1.9-2-2.7-4.7-2.7-7.9c2.3,2,2.2,5.1,4.2,7.3c-0.1-2.6-1.3-4.4-2.2-6.3c-2.3-5.1-3.8-10.1-0.4-15.5
		c1.5-2.3,2.6-4.9,3.9-7.4c0.5-0.2,0.9-0.3,1.3,0.1c2.5,2.1,0.6,4.2-0.3,5.9c-1.1,2.3-0.2,3.9,0.9,5.7c-0.1-3.9,1.1-7.4,2.6-10.8
		c1.3,0.7-0.3,2.3,1.3,3c0.1-2.5,3.1-3.9,2.2-7c-1.5,0.7-0.6,2.9-2.5,3c0-1.5,0.3-2.8,1.4-3.5c1.8-1.2,2.5-2.9,2.9-4.9
		c1.3-6.6,2.3-13-1.8-19.2c-1.8-2.7-2.4-6.2-3.9-9.2c-3.5-7.2-6.1-14.6-6.6-22.7c-0.2-3.9-0.5-7.8-0.8-12.1
		c-1.3,1.1-0.5,2.4-1.2,3.5c-1.4-1.9-2.8-3.5-1.1-5.8c-2.2-4.3-0.8-9.6-3.8-13.7c-0.4-0.5-0.8-2.1,0.2-1.8c2.3,0.7,0.9-0.8,0.8-1.1
		c-2.6-5.3-3.7-11-4.3-16.8c-0.1-1.5,0.3-3.5-0.4-4.6c-2.7-3.7-1.6-7.8-1.5-11.7c0.1-4.8-0.8-8.7-4.2-11.9c-0.8,0.5,0.2,1.7-1.2,2.1
		c-0.2-1.1-0.8-2.2-0.2-3.4c0.4-0.8,0.4-1.7,0.2-2.6c-1.2-4.4-4-7.6-7.7-10c-3-1.9-7-2.4-8.9-6c-0.1-0.2-0.8-0.3-1.1-0.2
		c-1.2,0.4-1.3-0.5-1.8-1.3c-0.8-1.1-0.6-2.9-1.4-3.5c-2.2-1.6-2.1-1.5-2.5-3.1c-1.7-6.7-1.9-14-7.3-19.2c-0.2-0.2-0.4-0.5-0.6-0.7
		c-3-5.1-3.3-11-3.1-16.6c0.1-3.8,0.4-7.8,1-11.7c1.2-7.5-1.8-13.1-7.5-17.6c-1.9-1.5-3.4-3.4-4.4-5.6c-2.3-5.4-3.4-11.2-3.2-17
		c0.3-8.2-0.6-15.9-5.9-22.6c-1.1-1.3-1.1-3.2-2.5-4.6c-3.1-3.2-5.9-6.7-7.3-11.1c-1.4-4.5-2.9-9-4.3-13.5
		c-2.1-6.7-4.4-13.3-4.4-20.5c0-1.7,0-3.5-0.7-5.3c-1.5-3.5-3.5-6.7-4.9-10.2c-2-4.6,0.8-8.1-2-12.2c-0.6-1.1-1.4-2.6-2.3-3.3
		c0.5,2.7-0.9,7.2-0.3,10.6 M113,305.1c1.8,2.5,2.9,5.1,1.4,8.7C113.8,310.6,113.4,307.9,113,305.1z M114.8,327.3
		c-1,1-1.7,2.1-1.3,3.7c-2.3-2-0.1-3.5,0.4-5.1c0.1-0.4,0.7-0.3,1,0.1C115.3,326.4,115.2,326.9,114.8,327.3z M122.4,377.7
		c-1.2-3.5-1.5-7-0.1-11.1C123.9,370.6,123,374.1,122.4,377.7z M127.5,388.3c1-2-4.9-3.5-0.2-6.2c0.1,1.3-1,2.3,0.2,3.3
		C128.6,386.2,128.2,387.3,127.5,388.3z M138.2,430.1c-0.5,1.1-1.1,2.1-1.8,3.1c-0.7,0.9,0.5,2.3-0.8,3c-2.6-3.4-2-10.4,1.4-15
		c0.9,2,1.5,3.8-1.2,5.2C139,426.4,139.5,427.3,138.2,430.1z M138.7,508.6c-0.8-0.8,0.7-1.6-0.3-2.3c-2.3,5.3-5.7,10-8.4,15.5
		c-0.8-5.6,0.9-10.4,2-15.2c0.5-2.2,1.5-4.4,1.4-6.8c0-0.5,0.4-1.1,0.8-1.5c0.1-0.1,1.2,0.4,1.2,0.6c-0.2,3.1,3.1,3.9,4.1,6.2
		C140,506.7,140.1,507.7,138.7,508.6z M142.6,460c0-1.9-0.3-3.5,1-4.7C143.6,456.7,145,458.6,142.6,460z M170.2,501.7
		c-0.8-1.8-1.5-3.2-2.2-4.8C171.7,498,171.7,498,170.2,501.7z M174.8,490.2c-0.2,1.6-0.3,3.2-0.5,4.8c-0.1,0.6,0.1,1.3-0.8,1.3
		c-0.4,0-1-0.2-1.3-0.5c-1.8-2.1-1.7-6.7,0.3-9.2c-0.3,1.9-0.5,3.4-0.7,5c2.4-1,1-3.5,2.2-4.9C175.5,487.7,175,489,174.8,490.2z
		 M179.9,529.1c-0.8,0.3-1-0.4-1.1-1c-0.1-1-0.7-2.1,0.1-2.9c0.7-0.7,1,0.6,1.6,0.8c-1.6,0.5-0.2,1.1,0,1.6
		C180.7,528.3,180.5,528.9,179.9,529.1z M186.1,518.4c0.8,4.6-2.4,6.1-5.6,7.6c0,0,0,0,0,0c-1-5.1-2-10.3-3.2-16.2
		c2.7,2.7,3.8,5.9,7,6.8c0.4-0.7,0-1-0.4-1.3c-2-1.7-3.1-3.4-0.6-5.6c0.8-0.7,1.5-1.6,1-2.9c-0.5-1.5-0.2-3.4,1.3-3.2
		c1.4,0.2,3.6,1.6,3.4,3.4c-0.3,3.7,0.1,7.7-2.8,10.7C186,517.8,186,518.2,186.1,518.4z M191.3,517.1c-0.1,0.6-0.6,1.1-1.3,0.9
		c-0.4-0.1-1.1-0.3-1-0.9c0.8-3.6,1.7-7.1,2.6-11.1C194.8,510.4,191.6,513.6,191.3,517.1z M222.1,160.9c-0.9-4.6-1.6-9.1-1.7-13.7
		C223.7,149.5,224.6,156.7,222.1,160.9z M225.8,165.6c-0.2-4.2,1-8.4,0.3-12.6C227.3,157.3,226.8,161.4,225.8,165.6z M232.2,463.8
		c-1,2.9-2,5.3-3.7,8.2C228.2,468.1,229.3,465.8,232.2,463.8z M242.3,468.4c-0.8,3.3-2.3,6.2-5.2,8.1c-1.6,1.1-3.5,1.8-5.3,2.5
		c-1.1,0.4-2.3,1.2-3.3,0.4c-1.2-0.9-0.5-2.4-0.5-3.7c0-0.7,0.3-1.4,0.9-1.8c4.4-3,5.4-8.2,7.6-12.6c1.1-2.1,0.9-4.4,1.8-7.1
		c3.2,4.7,1.3,9.5,2.6,13.9c0.2-0.3,0.4-1.1,0.7-1.1C242.5,467.1,242.4,467.9,242.3,468.4z M250.6,453.1c-0.6,1.2-1.4,1.2-2.3,0.2
		c0.8,3.2,2.5,6.5-1.3,9c-0.6,0.4-1,1-1.8,0.7c-0.7-0.2-0.5-0.9-0.7-1.5c-0.6-2.5-1.8-4.7-1.5-7.4c0.1-1.4,1.6-2.2,1-3.7
		c-2.2,0.2-1.5-1.9-2-3c-0.4-0.8-0.1-2-0.2-3.8c1.3,2.5,3.2,4,2.2,6.5c1.8,0.4,3,1.7,4.2,3c-0.4-1.1-0.9-2.2-1.3-3.3
		c-0.3-1.1,0.2-1.5,1.2-1.4c-1.2-1.7-2.7-3.1-3.2-5.3c-0.7-2.7-0.1-4.7,1.8-6.8c1.5,3.9,4.3,7.3,1.7,11.6c1.1-1.2,2.2-1.9,3.7-1.1
		c0.6,0.9-2.2,1.7,0.2,2.9C253.5,450.4,251.2,452,250.6,453.1z M253.4,224.4c4.4,1.7,4.6,5.5,5.7,8.8
		C256.8,230.8,255,228,253.4,224.4z M265.3,247.9c-1.2-2.7-2.1-4.8-2.9-6.9c-0.2-0.6-1.6-1.6,0-2.1c1.1-0.4,2.2,0.1,2.4,1.5
		C265.1,242.6,265.9,244.8,265.3,247.9z M273.8,401.1c-0.7,0.2-1.3,0.2-1.9-0.4c-1.1-1.3-2.1-8.3-1.3-10.2c2.7,2.5,2.5,6.1,3.7,9.1
		C274.5,400.1,274.6,400.9,273.8,401.1z M275,371.4c-0.7-4.1,0-7.3,1.2-10.5C276.9,364.3,278,367.7,275,371.4z M283.4,337
		c0.6-0.5,1.2,0,1.4,0.6c1.1,2.5,2.2,5,3.3,7.6c-0.2,0.1-0.5,0.2-0.7,0.3c-1.3-2.3-3.1-4.4-3.9-7C283.3,337.9,282.9,337.4,283.4,337
		z M283.6,367.2c-1.1,0.6-1.6,2.5-2.4,3.9c-1.9,0.5-2.9,0-2.2-2.2c2.3-6.9,1.9-14.2,3.8-21.2c0.4-1.5,0.8-1.7,1.9-0.7
		c2.5,2.3,4.2,5.3,4,8.7c-0.1,1.5,0.9,2.5,0.4,4C288,362.9,286.9,365.6,283.6,367.2z M285.3,371.5c-2.2-4.3,1.7-4.7,2.8-6.6
		C286.9,366.7,286.4,368.8,285.3,371.5z"/>
	<path class="st0" d="M62.6,157.1"/>
</g>
<g>
	<path class="st1" d="M311.3,369.5c1.8-1.2,2.5-2.9,2.9-4.9c1.3-6.6,2.3-13-1.8-19.2c-1.8-2.7-2.4-6.2-3.9-9.2
		c-3.5-7.2-6.1-14.6-6.6-22.7c-0.2-3.9-0.5-7.8-0.8-12.1c-1.3,1.1-0.5,2.4-1.2,3.5c-1.4-1.9-2.8-3.5-1.1-5.8
		c-2.2-4.3-0.8-9.6-3.8-13.7c-0.4-0.5-0.8-2.1,0.2-1.8c2.3,0.7,0.9-0.8,0.8-1.1c-2.6-5.3-3.7-11-4.3-16.8c-0.1-1.5,0.3-3.5-0.4-4.6
		c-2.7-3.7-1.6-7.8-1.5-11.7c0.1-4.8-0.8-8.7-4.2-11.9c-0.8,0.5,0.2,1.7-1.2,2.1c-0.2-1.1-0.8-2.2-0.2-3.4c0.4-0.8,0.4-1.7,0.2-2.6
		c-1.2-4.4-4-7.6-7.7-10c-3-1.9-7-2.4-8.9-6c-0.1-0.2-0.8-0.3-1.1-0.2c-1.2,0.4-1.3-0.5-1.8-1.3c-0.8-1.1-0.6-2.9-1.4-3.5
		c-2.2-1.6-2.1-1.5-2.5-3.1c-1.7-6.7-1.9-14-7.3-19.2c-0.2-0.2-0.4-0.5-0.6-0.7c-3-5.1-3.3-11-3.1-16.6c0.1-3.8,0.4-7.8,1-11.7
		c1.2-7.5-1.8-13.1-7.5-17.6c-1.9-1.5-3.4-3.4-4.4-5.6c-2.3-5.4-3.4-11.2-3.2-17c0.3-8.2-0.6-15.9-5.9-22.6
		c-1.1-1.3-1.1-3.2-2.5-4.6c-3.1-3.2-5.9-6.7-7.3-11.1c-1.4-4.5-2.9-9-4.3-13.5c-2.1-6.7-4.4-13.3-4.4-20.5c0-1.7,0-3.5-0.7-5.3
		c-1.5-3.5-3.5-6.7-4.9-10.2c-2-4.6-4.2-9-7-13c-0.8,0-1.5,0-2.2,0.2c2.9,2.3,4.3,4.7,4.9,8c-3.5-1.4-3.6-4.7-5.2-8
		c-0.3,0.1-0.6,0.1-0.8,0.2c-0.1,0.1-0.2,0.3-0.3,0.4c0.1,0.5,0,1-0.4,1.4c-0.3,0.3-0.7,0.6-1,0.9c-5.3,9.2-8.2,19.5-12.6,29.3
		c-0.6,3.5-1.1,7-1.7,10.4c-0.2,1.4-0.5,2.9-0.7,4.3c0,0.1,0.1,0.1,0.1,0.2c1,6.4-1.4,13.2-4.1,19.5c-1.4,5.7-3,11.3-4.8,16.8
		c-2,6-4.5,11.7-7.9,17c-3.6,5.6-7.1,11.7-11.8,16.4c-1,1-2.1,2-3.3,2.9c-1.1,1.9-2.3,3.7-3.6,5.5c-5.3,7.3-11.7,14.2-16.2,22.1
		c-0.8,8.1-2.5,16.1-4,24.1c0.2,1.1,0.4,2.1,0.6,3.2c0.2,0.9,0.3,1.8,0.5,2.7c1.3-1,3-1.2,4.4-2c1-0.6,1.7,0.5,1.7,1.4
		c0.2,2.6,0.9,5.1,0.9,7.8c-0.1,5.2,0.2,10.5,2.8,15.3c1.3-0.6,1.5-2.9,3.3-1.7c1.3,0.9,2.7,0.8,4.1,0.2c0.7,1.6-1.2,2.7-0.4,4.2
		c1.2-0.4,1-1.8,1.9-2.2c0.9,0.7,0,2,1.2,2.8c-0.6-2.7,0.3-4.6,2.2-6c0.6-0.5,0.9-2.1,1.9-1.3c0.7,0.6,1.8,1.3,1.6,2.7
		c-0.3,2.2,0.2,4.4,0.1,6.6c-0.2,2.2-0.6,3.5-3.5,3.2c2.6,1.3,1.9,2.5,0.4,3.2c-5,2.3-6.9,6.7-8.1,11.7c-0.6,2.6-1.4,5-0.2,7.9
		c0.2-0.8,0.4-1.3,0.5-1.9c1.3,0.7,1,2.2,2,3.4c-0.2-1.8-0.4-3.2-0.5-4.7c-0.2-3.4-1-6.9,2.3-9.4c1-0.8,2.2-1.4,3.2-1
		c1.2,0.5,0.3,1.9,0.3,2.9c0,3.1-1.6,5.6-2.5,8.4c-1.1,3.3,1.7,7-1.1,10.5c-0.6,0.7,1.9,3.5,2.3,5.8c0.2,1.1,2.6,1.7,1.9,3.3
		c-0.6,1.5-2.3,1.6-3.8,1.8c-1.3,0.2-2.5,0.5-3.8,0.8c-1.2,0.3-1.2,0.3-2.2,2.1c2.4-0.7,4.6-1.5,7.2-1.2c-2,3.5-4.9,5.9-6.4,9.5
		c-1.3,3.2-3.3,6.1-3.2,9.8c0,0.9-0.1,1.8-0.7,2.6c-2.3,3.3-1.6,7.5-3.4,11.3c1.8-0.4,1.1-2.2,2.3-2.4c1.2-0.1,0.7,1.6,1.4,1.8
		c0.9-1.1-0.5-2.2,0.4-3.3c1.5,0.9,1.6,2.1,1.1,3.7c-0.9,2.5-1.7,4.9-0.2,7.5c0.7,1.1,0.5,3.2-0.6,3.6c-2.5,1.1-3.9,3.1-5.5,5
		c-0.3,0.3-1.3,0.5-0.8,0.8c1.6,1,0.7,2.8,1.5,4.2c1.1,1.8,1.5,4.2-1.3,5.5c-0.7,0.3-0.9,0.9-0.6,1.9c1.5-1.5,3.3-0.9,5.3-1.2
		c-0.9,1.6-0.6,3-0.1,4.1c1.8,3.5-1.9,5.9-1.6,9c0,0.2-0.4,0.4-0.7,0.5c-1,0.4-1.2,1.4-1.1,2.3c0.2,2.2-1,3.7-2.3,5.1
		c-1.2,1.4-2.2,2.9-2.8,4.5c-0.8,2.1-2.1,2.8-4.1,2.6c-6-0.4-12,0.1-17.9,1.5c-2.1,0.5-4.2,1.1-6.4,1.4c-10.7,1.5-21.4,2-32.2,2.8
		c-4.6,0.4-9.3,0.5-13.9,0c-6.4-0.6-12.7-1.2-19.4-1.8c1.1,1,2.2,1.1,3.2,1.3c8.2,1.6,16.4,2.7,24.7,2.8c16.3,0.1,32.5-1.5,48.6-4.6
		c5.4-1.1,10.9-3.7,16.4,0c0.2,0.1,0.6-0.1,0.8-0.2c1.6-1.2,3.3-0.2,4.9-0.4c1.9-0.3,2.5,2,3.8,1.7c3.2-0.8,3,1.4,3.3,3.4
		c1,6.1,2.1,12.2,5.6,17.6c1.8,2.7,3.6,5.5,4.2,8.9c0.4,2.6-0.8,4.7-3.3,5.4c-1.9,0.6-3.2,2.2-2.4,4c0.8,1.8,0.6,3.5,0.2,5.2
		c1.1-0.2,1.7-1.7,2.5-0.9c0.9,0.7-0.1,1.6-0.5,2.4c-0.3,0.7-0.8,1.4-1.2,2.1c-0.9,1.9-2.8,3.1-3.6,5.5c2.3-1.5,3.5-3.4,4.6-5.5
		c1.1-1.9,1.9-4.2,3.7-5.6c0.6-0.8,1.7-1.4,1.2-2.8c-0.5-1.4,1.4-0.8,1.5-1.7c0.8,0.5,1,1.1,0.7,2c-0.1,0.3-0.3,0.6-0.5,0.9
		c3.6,1.8,0.9,3.6,0,5.3c1.2-0.3,2.6-0.4,3.6-1.1c0.5-0.3-1.1-2.1,0.2-2.6c1.2-0.5,0.4,1.9,1.8,1.8c0.5-0.1,1.1-0.7,1.5,0
		c0,1.4-2.1,1.7-1.7,3.3c2-1.8,3,0.2,4,1.3c2.7,3.2-2.6,2-2.2,4c2,0.3,2,0.3,1.4,2.1c-2,5.8-4.1,11.7-3.4,18.1
		c0.2,1.4-0.3,1.7-2.6,2.7c-0.2,0.1-0.3,0.3-0.3,0.5c-0.5,3.8-6.2,5.7-3.5,10.6c0.1,0.1,0,0.4-0.1,0.6c-1.3,2.1-1.1,4.5-1.4,6.8
		c-0.5,3.4-1.6,6.6-3.2,9.9c1.9-0.3,2.7,0.4,2.6,2.2c-0.3,3.4,0.6,6.6,1.8,9.7c1.9,4.7,3.4,9.2,2.4,14.6c-1,5.2-2.2,10.2-5.3,14.5
		c-1.6,2.1-3.5,4-5.2,5.9c1.6,0.6,1.6-0.3,2.1-0.7c0.6-0.5,1.3-1,1.8-1.6c7.4-9.3,11.7-19.2,6.7-31.3c-1.5-3.6-2.8-7.3-2.3-11.4
		c0.5-3.9,1.1-7.7,2.2-11.5c0.6-2.1,0.6-4.2,3.9-3.2c-2.6-3.7,0.9-4.7,2.1-6.6c1.3-2,2.5-0.9,3,0.5c1.1,3.2,2.2,6.4,1.6,10
		c-1.1,7.1-2.4,14-5.4,20.6c-1.6,3.5-1.9,7.5-0.6,11.3c0.9,2.7,0.5,5.4,0,7.9c-0.9,5-2.1,10-2.9,15.1c-0.7,4.1-0.6,8.3,0.7,12.4
		c-0.4-3.5,2.3-5.6,3.3-8.5c-0.1,1.5-0.4,2.9,0,4.5c0.2-0.5,0.4-1.1,0.6-1.1c1.4,0,0,1.8,1.2,2.1c0.3-3.6,1.9-6.6,4-9.4
		c1.7-2.3,6-3.4,7.8-2.3c1.1,0.7,1.4,1.9,2.2,2.8l7.7,12.5c-0.4-3.9-1.3-7.8-2.6-11.5c-0.3-0.8-1.8-3.1,1.2-1.9
		c0.8,0.3,1-0.5,0.8-0.7c-2.3-2.3-0.1-3.1,1.4-4.1c-0.4-1-1.4-0.7-2-1.3c-1.1-1.1-3-1.5-2.8-3.7c-3.7-0.2-1.7-2.7-1.7-4.4
		c0-0.9,0.4-1.8,0.4-2.7c0.1-2.2,0.1-4.2,3.2-3c0.9,0.3,1.6-0.8,2.4-0.9c1.5-0.1,1.7-3.7,3.9-1.6c2.1,2.1-0.9,3-1.2,4.6
		c2.4,0.5,4.7,3.7,4.5,6c-0.3,3.5-3.7,3.7-5.4,5.7c1.9-0.4,3.7-1.2,5.5-1.2c0.6,0,1.5,0.4,1.8,0.9c0.5,0.9-0.6,0.6-0.9,1
		c-0.4,0.4-0.8,1.1-0.4,1.6c0.6,0.7,1,0,1.4-0.4c0.4-0.3,0.8-0.8,1.2-0.4c1.2,1.2,1.8,0.5,2.8-0.3c0.7-0.6,2-0.8,2.9-0.6
		c0.6,0.2,0.9,1.5,1.2,2.3c0.5,1.1-1.8,0.3-1.1,1.8c1,2.4,1.4,5.2,1.6,7.6c0.2,3.2,4,7-0.7,9.9c-0.5,0.3-0.4,1.5-0.6,2.3
		c-0.1,0.3,0.3,0.6-0.1,1.1c-0.9,1-0.8,1.4,0.4,1.5c2.2,0.1,4.2-0.4,5.8-2.3c1.9-2.3,3.9-4.6,6.3-6.3c2-1.4,3.1-4,5.5-4.8
		c2.7-1,1.6-4.2,3.4-5.8c0.3-0.3,0.4-0.7,0.6-1c0.3-0.4,0.8-0.9,1.2-0.4c1.2,1.7,1.7,0.1,2.7-0.3c1.8-0.7,1.2-2.3,1.6-3.5
		c1-2.4,3.2-3.4,4.9-5.1c-1.2,0.3-2.1,1.1-3.4,1c-0.7-0.1-1.7,0.2-1.4-1.2c0.2-0.9,0.1-2.3,1.6-1.9c2.1,0.6,4.5-0.6,6.4,1.5
		c1.4,1.5,3.8,1.7,4.7,4c1.2,3.2,2,6.5,0.9,10c-0.3,1-0.7,2,0,3.4c2.1-5,3.8-9.7,2.3-14.6c-0.9-3.1,0.6-4.4,2.5-6
		c3-2.6,5.1-5.8,5.9-9.8c-2,2.5-3.1,5.8-5.7,7.9c-0.8,0.7-1.6,1.5-2.5,2.1c-1.2,0.8-2.1,0.7-3-0.7c-0.7-1.3-2-2.3-2.7-3.4
		c-0.9-1.4-0.6-3.9,1-5c2.7-1.8,2.4-4.9,3.4-7.4c0.3-0.7-1.8-2.1,0-2.7c1.7-0.6,3.1-2.8,5.3-1.6c1.1,0.6,2,1.1,3.4,0.1
		c1.3-0.9,1.8,0.5,1.9,1.9c0.2,3.1-1.3,5.9-1.2,8.9c1.9-2.3,1.8-5.3,2-8c0.2-2.3,0.7-3.1,3.1-3.6c4.9-1,9.4-3.3,11.7-8.2
		c1-2.1,1.8-0.1,2.9-0.2c-1-4.4,1.1-7.3,3.8-10.1c0.9-0.9,1.5-1.3,2.7-0.8c0.2,0.1-0.2,1.7,0.6,0.3c0.4-0.6,1.9-0.5,1.2-1.6
		c-0.9-1.6-0.8-2.8,0.9-3.4c1.9-0.7,1.5,1.6,2.4,2.3c0.8-1-0.3-2.2,0.8-3.5c0.5,1.8,0,3.6,1.1,5.8c-0.1-1.2-0.2-1.7-0.1-2.2
		c0.1-0.8-0.5-2.2,0.5-2.4c1.1-0.2,1.5,1.1,1.8,2c0.3,0.9,0.4,2,1.6,1.8c2-0.3,3.1,0.5,3.3,2.6c0.1,0.4,0.3,1,1.1,0.7
		c0.2-2.5-0.8-4.7-1.3-7c-0.1-0.5-0.4-2,0.4-1.5c2.8,1.6,1.1-0.9,1.3-1.4c0.6-2.7-1.1-5.8,1.2-8.3c2.3-2.6,1.6-6.1,2.4-9.1
		c0.7-2.7,2.2-2.3,3.9-2.4c0.3,0,0.5,1.6,0.9,0c0.2-0.8,1.3-1.5,0.6-2.5c-0.4-0.6-1.1-0.1-1.6,0.1c-0.9,0.3-1.7,1.2-2.9,1
		c0.6-1.4,2-1.6,3-2.6c-1.5-0.4-2.6-1.3-2.3-2.8c0.5-3.4-1.1-6.8,0.2-10.2c0.3-0.8,0.2-2.3-0.3-2.9c-1.3-1.5-0.7-2.8-0.3-4.2
		c0.5-1.9,1.3-3.7,1.6-5.6c0.4-2.6,1.4-2.1,2.9-1.1c3.2,2.1,5.5,5.1,7.6,8.6c0.4-1.6,0.2-2.6-0.6-3.5c-2-2.1-2.8-5.1-4.9-7.2
		c-1.9-2-2.7-4.7-2.7-7.9c2.3,2,2.2,5.1,4.2,7.3c-0.1-2.6-1.3-4.4-2.2-6.3c-2.3-5.1-3.8-10.1-0.4-15.5c1.5-2.3,2.6-4.9,3.9-7.4
		c0.5-0.2,0.9-0.3,1.3,0.1c2.5,2.1,0.6,4.2-0.3,5.9c-1.1,2.3-0.2,3.9,0.9,5.7c-0.1-3.9,1.1-7.4,2.6-10.8c1.3,0.7-0.3,2.3,1.3,3
		c0.1-2.5,3.1-3.9,2.2-7c-1.5,0.7-0.6,2.9-2.5,3C309.9,371.6,310.2,370.2,311.3,369.5z M135.9,307.1c1.8,2.5,2.9,5.1,1.4,8.7
		C136.8,312.6,136.4,309.9,135.9,307.1z M137.8,329.3c-1,1-1.7,2.1-1.3,3.7c-2.3-2-0.1-3.5,0.4-5.1c0.1-0.4,0.7-0.3,1,0.1
		C138.2,328.4,138.1,328.9,137.8,329.3z M145.3,379.7c-1.2-3.5-1.5-7-0.1-11.1C146.8,372.6,146,376.2,145.3,379.7z M150.5,390.3
		c1-2-4.9-3.5-0.2-6.2c0.1,1.3-1,2.3,0.2,3.3C151.6,388.2,151.2,389.3,150.5,390.3z M161.1,432.1c-0.5,1.1-1.1,2.1-1.8,3.1
		c-0.7,0.9,0.5,2.3-0.8,3c-2.6-3.4-2-10.4,1.4-15c0.9,2,1.5,3.8-1.2,5.2C161.9,428.4,162.4,429.3,161.1,432.1z M161.6,510.6
		c-0.8-0.8,0.7-1.6-0.3-2.3c-2.3,5.3-5.7,10-8.4,15.5c-0.8-5.6,0.9-10.4,2-15.2c0.5-2.2,1.5-4.4,1.4-6.8c0-0.5,0.4-1.1,0.8-1.5
		c0.1-0.1,1.2,0.4,1.2,0.6c-0.2,3.1,3.1,3.9,4.1,6.2C163,508.7,163,509.7,161.6,510.6z M165.6,462c0-1.9-0.3-3.5,1-4.7
		C166.6,458.7,168,460.6,165.6,462z M193.2,503.7c-0.8-1.8-1.5-3.2-2.2-4.8C194.7,500,194.7,500,193.2,503.7z M197.7,492.2
		c-0.2,1.6-0.3,3.2-0.5,4.8c-0.1,0.6,0.1,1.3-0.8,1.3c-0.4,0-1-0.2-1.3-0.5c-1.8-2.1-1.7-6.7,0.3-9.2c-0.3,1.9-0.5,3.4-0.7,5
		c2.4-1,1-3.5,2.2-4.9C198.5,489.7,197.9,491,197.7,492.2z M202.9,531.1c-0.8,0.3-1-0.4-1.1-1c-0.1-1-0.7-2.1,0.1-2.9
		c0.7-0.7,1,0.6,1.6,0.8c-1.6,0.5-0.2,1.1,0,1.6C203.6,530.3,203.5,530.9,202.9,531.1z M209,520.4c0.8,4.6-2.4,6.1-5.6,7.6
		c0,0,0,0,0,0c-1-5.1-2-10.3-3.2-16.2c2.7,2.7,3.8,5.9,7,6.8c0.4-0.7,0-1-0.4-1.3c-2-1.7-3.1-3.4-0.6-5.6c0.8-0.7,1.5-1.6,1-2.9
		c-0.5-1.5-0.2-3.4,1.3-3.2c1.4,0.2,3.6,1.6,3.4,3.4c-0.3,3.7,0.1,7.7-2.8,10.7C209,519.8,209,520.2,209,520.4z M214.2,519.1
		c-0.1,0.6-0.6,1.1-1.3,0.9c-0.4-0.1-1.1-0.3-1-0.9c0.8-3.6,1.7-7.1,2.6-11.1C217.7,512.4,214.6,515.6,214.2,519.1z M245,162.9
		c-0.9-4.6-1.6-9.1-1.7-13.7C246.6,151.5,247.5,158.7,245,162.9z M248.8,167.6c-0.2-4.2,1-8.4,0.3-12.6
		C250.3,159.3,249.8,163.4,248.8,167.6z M255.2,465.8c-1,2.9-2,5.3-3.7,8.2C251.2,470.1,252.3,467.8,255.2,465.8z M265.2,470.4
		c-0.8,3.3-2.3,6.2-5.2,8.1c-1.6,1.1-3.5,1.8-5.3,2.5c-1.1,0.4-2.3,1.2-3.3,0.4c-1.2-0.9-0.5-2.4-0.5-3.7c0-0.7,0.3-1.4,0.9-1.8
		c4.4-3,5.4-8.2,7.6-12.6c1.1-2.1,0.9-4.4,1.8-7.1c3.2,4.7,1.3,9.5,2.6,13.9c0.2-0.3,0.4-1.1,0.7-1.1
		C265.4,469.1,265.4,469.9,265.2,470.4z M273.6,455.1c-0.6,1.2-1.4,1.2-2.3,0.2c0.8,3.2,2.5,6.5-1.3,9c-0.6,0.4-1,1-1.8,0.7
		c-0.7-0.2-0.5-0.9-0.7-1.5c-0.6-2.5-1.8-4.7-1.5-7.4c0.1-1.4,1.6-2.2,1-3.7c-2.2,0.2-1.5-1.9-2-3c-0.4-0.8-0.1-2-0.2-3.8
		c1.3,2.5,3.2,4,2.2,6.5c1.8,0.4,3,1.7,4.2,3c-0.4-1.1-0.9-2.2-1.3-3.3c-0.3-1.1,0.2-1.5,1.2-1.4c-1.2-1.7-2.7-3.1-3.2-5.3
		c-0.7-2.7-0.1-4.7,1.8-6.8c1.5,3.9,4.3,7.3,1.7,11.6c1.1-1.2,2.2-1.9,3.7-1.1c0.6,0.9-2.2,1.7,0.2,2.9
		C276.4,452.4,274.2,454,273.6,455.1z M276.4,226.4c4.4,1.7,4.6,5.5,5.7,8.8C279.8,232.8,278,230,276.4,226.4z M288.3,249.9
		c-1.2-2.7-2.1-4.8-2.9-6.9c-0.2-0.6-1.6-1.6,0-2.1c1.1-0.4,2.2,0.1,2.4,1.5C288.1,244.6,288.9,246.8,288.3,249.9z M296.8,403.1
		c-0.7,0.2-1.3,0.2-1.9-0.4c-1.1-1.3-2.1-8.3-1.3-10.2c2.7,2.5,2.5,6.1,3.7,9.1C297.5,402.1,297.6,402.9,296.8,403.1z M298,373.4
		c-0.7-4.1,0-7.3,1.2-10.5C299.9,366.3,300.9,369.7,298,373.4z M306.4,339c0.6-0.5,1.2,0,1.4,0.6c1.1,2.5,2.2,5,3.3,7.6
		c-0.2,0.1-0.5,0.2-0.7,0.3c-1.3-2.3-3.1-4.4-3.9-7C306.3,339.9,305.9,339.4,306.4,339z M306.6,369.2c-1.1,0.6-1.6,2.5-2.4,3.9
		c-1.9,0.5-2.9,0-2.2-2.2c2.3-6.9,1.9-14.2,3.8-21.2c0.4-1.5,0.8-1.7,1.9-0.7c2.5,2.3,4.2,5.3,4,8.7c-0.1,1.5,0.9,2.5,0.4,4
		C311,364.9,309.8,367.6,306.6,369.2z M308.2,373.5c-2.2-4.3,1.7-4.7,2.8-6.6C309.9,368.7,309.4,370.9,308.2,373.5z"/>
	<path class="st2" d="M85.6,159.1"/>
</g>
<g>
	<path class="st1" d="M172.7,9.9c-0.3,0.3-0.7,0.6-1,0.9c-5.3,9.2-8.2,19.5-12.6,29.3c-0.6,3.5-1.1,7-1.7,10.4
		c-0.2,1.4-0.5,2.9-0.7,4.3c0,0.1,0.1,0.1,0.1,0.2c1,6.4-1.4,13.2-4.1,19.5c-1.4,5.7-3,11.3-4.8,16.8c-2,6-4.5,11.7-7.9,17
		c-3.6,5.6-7.1,11.7-11.8,16.4c-1,1-2.1,2-3.3,2.9c-1.1,1.9-2.3,3.7-3.6,5.5c-5.3,7.3-11.7,14.2-16.2,22.1c-0.8,8.1-2.5,16.1-4,24.1
		c0.2,1.1,0.4,2.1,0.6,3.2c0.2,0.9,0.3,1.8,0.5,2.7c1.3-1,3-1.2,4.4-2c1-0.6,1.7,0.5,1.7,1.4c0.2,2.6,0.9,5.1,0.9,7.8
		c-0.1,5.2,0.2,10.5,2.8,15.3c1.3-0.6,1.5-2.9,3.3-1.7c1.3,0.9,2.7,0.8,4.1,0.2c0.7,1.6-1.2,2.7-0.4,4.2c1.2-0.4,1-1.8,1.9-2.2
		c0.9,0.7,0,2,1.2,2.8c-0.6-2.7,0.3-4.6,2.2-6c0.6-0.5,0.9-2.1,1.9-1.3c0.7,0.6,1.8,1.3,1.6,2.7c-0.3,2.2,0.2,4.4,0.1,6.6
		c-0.2,2.2-0.6,3.5-3.5,3.2c2.6,1.3,1.9,2.5,0.4,3.2c-5,2.3-6.9,6.7-8.1,11.7c-0.6,2.6-1.4,5-0.2,7.9c0.2-0.8,0.4-1.3,0.5-1.9
		c1.3,0.7,1,2.2,2,3.4c-0.2-1.8-0.4-3.2-0.5-4.7c-0.2-3.4-1-6.9,2.3-9.4c1-0.8,2.2-1.4,3.2-1c1.2,0.5,0.3,1.9,0.3,2.9
		c0,3.1-1.6,5.6-2.5,8.4c-1.1,3.3,1.7,7-1.1,10.5c-0.6,0.7,1.9,3.5,2.3,5.8c0.2,1.1,2.6,1.7,1.9,3.3c-0.6,1.5-2.3,1.6-3.8,1.8
		c-1.3,0.2-2.5,0.5-3.8,0.8c-1.2,0.3-1.2,0.3-2.2,2.1c2.4-0.7,4.6-1.5,7.2-1.2c-2,3.5-4.9,5.9-6.4,9.5c-1.3,3.2-3.3,6.1-3.2,9.8
		c0,0.9-0.1,1.8-0.7,2.6c-2.3,3.3-1.6,7.5-3.4,11.3c1.8-0.4,1.1-2.2,2.3-2.4c1.2-0.1,0.7,1.6,1.4,1.8c0.9-1.1-0.5-2.2,0.4-3.3
		c1.5,0.9,1.6,2.1,1.1,3.7c-0.9,2.5-1.7,4.9-0.2,7.5c0.7,1.1,0.5,3.2-0.6,3.6c-2.5,1.1-3.9,3.1-5.5,5c-0.3,0.3-1.3,0.5-0.8,0.8
		c1.6,1,0.7,2.8,1.5,4.2c1.1,1.8,1.5,4.2-1.3,5.5c-0.7,0.3-0.9,0.9-0.6,1.9c1.5-1.5,3.3-0.9,5.3-1.2c-0.9,1.6-0.6,3-0.1,4.1
		c1.8,3.5-1.9,5.9-1.6,9c0,0.2-0.4,0.4-0.7,0.5c-1,0.4-1.2,1.4-1.1,2.3c0.2,2.2-1,3.7-2.3,5.1c-1.2,1.4-2.2,2.9-2.8,4.5
		c-0.8,2.1-2.1,2.8-4.1,2.6c-6-0.4-12,0.1-17.9,1.5c-2.1,0.5-4.2,1.1-6.4,1.4c-10.7,1.5-21.4,2-32.2,2.8c-4.6,0.4-9.3,0.5-13.9,0
		c-6.4-0.6-12.7-1.2-19.4-1.8c1.1,1,2.2,1.1,3.2,1.3c8.2,1.6,16.4,2.7,24.7,2.8c16.3,0.1,32.5-1.5,48.6-4.6c5.4-1.1,10.9-3.7,16.4,0
		c0.2,0.1,0.6-0.1,0.8-0.2c1.6-1.2,3.3-0.2,4.9-0.4c1.9-0.3,2.5,2,3.8,1.7c3.2-0.8,3,1.4,3.3,3.4c1,6.1,2.1,12.2,5.6,17.6
		c1.8,2.7,3.6,5.5,4.2,8.9c0.4,2.6-0.8,4.7-3.3,5.4c-1.9,0.6-3.2,2.2-2.4,4c0.8,1.8,0.6,3.5,0.2,5.2c1.1-0.2,1.7-1.7,2.5-0.9
		c0.9,0.7-0.1,1.6-0.5,2.4c-0.3,0.7-0.8,1.4-1.2,2.1c-0.9,1.9-2.8,3.1-3.6,5.5c2.3-1.5,3.5-3.4,4.6-5.5c1.1-1.9,1.9-4.2,3.7-5.6
		c0.6-0.8,1.7-1.4,1.2-2.8c-0.5-1.4,1.4-0.8,1.5-1.7c0.8,0.5,1,1.1,0.7,2c-0.1,0.3-0.3,0.6-0.5,0.9c3.6,1.8,0.9,3.6,0,5.3
		c1.2-0.3,2.6-0.4,3.6-1.1c0.5-0.3-1.1-2.1,0.2-2.6c1.2-0.5,0.4,1.9,1.8,1.8c0.5-0.1,1.1-0.7,1.5,0c0,1.4-2.1,1.7-1.7,3.3
		c2-1.8,3,0.2,4,1.3c2.7,3.2-2.6,2-2.2,4c2,0.3,2,0.3,1.4,2.1c-2,5.8-4.1,11.7-3.4,18.1c0.2,1.4-0.3,1.7-2.6,2.7
		c-0.2,0.1-0.3,0.3-0.3,0.5c-0.5,3.8-6.2,5.7-3.5,10.6c0.1,0.1,0,0.4-0.1,0.6c-1.3,2.1-1.1,4.5-1.4,6.8c-0.5,3.4-1.6,6.6-3.2,9.9
		c1.9-0.3,2.7,0.4,2.6,2.2c-0.3,3.4,0.6,6.6,1.8,9.7c1.9,4.7,3.4,9.2,2.4,14.6c-1,5.2-2.2,10.2-5.3,14.5c-1.6,2.1-3.5,4-5.2,5.9
		c1.6,0.6,1.6-0.3,2.1-0.7c0.6-0.5,1.3-1,1.8-1.6c7.4-9.3,11.7-19.2,6.7-31.3c-1.5-3.6-2.8-7.3-2.3-11.4c0.5-3.9,1.1-7.7,2.2-11.5
		c0.6-2.1,0.6-4.2,3.9-3.2c-2.6-3.7,0.9-4.7,2.1-6.6c1.3-2,2.5-0.9,3,0.5c1.1,3.2,2.2,6.4,1.6,10c-1.1,7.1-2.4,14-5.4,20.6
		c-1.6,3.5-1.9,7.5-0.6,11.3c0.9,2.7,0.5,5.4,0,7.9c-0.9,5-2.1,10-2.9,15.1c-0.7,4.1-0.6,8.3,0.7,12.4c-0.4-3.5,2.3-5.6,3.3-8.5
		c-0.1,1.5-0.4,2.9,0,4.5c0.2-0.5,0.4-1.1,0.6-1.1c1.4,0,0,1.8,1.2,2.1c0.3-3.6,1.9-6.6,4-9.4c1.7-2.3,6-3.4,7.8-2.3
		c1.1,0.7,1.4,1.9,2.2,2.8l7.7,12.5c-0.4-3.9-1.3-7.8-2.6-11.5c-0.3-0.8-1.8-3.1,1.2-1.9c0.8,0.3,1-0.5,0.8-0.7
		c-2.3-2.3-0.1-3.1,1.4-4.1c-0.4-1-1.4-0.7-2-1.3c-1.1-1.1-3-1.5-2.8-3.7c-3.7-0.2-1.7-2.7-1.7-4.4c0-0.9,0.4-1.8,0.4-2.7
		c0.1-2.2,0.1-4.2,3.2-3c0.9,0.3,1.6-0.8,2.4-0.9c1.5-0.1,1.7-3.7,3.9-1.6c2.1,2.1-0.9,3-1.2,4.6c2.4,0.5,4.7,3.7,4.5,6
		c-0.3,3.5-3.7,3.7-5.4,5.7c1.9-0.4,3.7-1.2,5.5-1.2c0.6,0,1.5,0.4,1.8,0.9c0.5,0.9-0.6,0.6-0.9,1c-0.4,0.4-0.8,1.1-0.4,1.6
		c0.6,0.7,1,0,1.4-0.4c0.4-0.3,0.8-0.8,1.2-0.4c1.2,1.2,1.8,0.5,2.8-0.3c0.7-0.6,2-0.8,2.9-0.6c0.6,0.2,0.9,1.5,1.2,2.3
		c0.5,1.1-1.8,0.3-1.1,1.8c1,2.4,1.4,5.2,1.6,7.6c0.2,3.2,4,7-0.7,9.9c-0.5,0.3-0.4,1.5-0.6,2.3c-0.1,0.3,0.3,0.6-0.1,1.1
		c-0.9,1-0.8,1.4,0.4,1.5c2.2,0.1,4.2-0.4,5.8-2.3c1.9-2.3,3.9-4.6,6.3-6.3c2-1.4,3.1-4,5.5-4.8c2.7-1,1.6-4.2,3.4-5.8
		c0.3-0.3,0.4-0.7,0.6-1c0.3-0.4,0.8-0.9,1.2-0.4c1.2,1.7,1.7,0.1,2.7-0.3c1.8-0.7,1.2-2.3,1.6-3.5c1-2.4,3.2-3.4,4.9-5.1
		c-1.2,0.3-2.1,1.1-3.4,1c-0.7-0.1-1.7,0.2-1.4-1.2c0.2-0.9,0.1-2.3,1.6-1.9c2.1,0.6,4.5-0.6,6.4,1.5c1.4,1.5,3.8,1.7,4.7,4
		c1.2,3.2,2,6.5,0.9,10c-0.3,1-0.7,2,0,3.4c2.1-5,3.8-9.7,2.3-14.6c-0.9-3.1,0.6-4.4,2.5-6c3-2.6,5.1-5.8,5.9-9.8
		c-2,2.5-3.1,5.8-5.7,7.9c-0.8,0.7-1.6,1.5-2.5,2.1c-1.2,0.8-2.1,0.7-3-0.7c-0.7-1.3-2-2.3-2.7-3.4c-0.9-1.4-0.6-3.9,1-5
		c2.7-1.8,2.4-4.9,3.4-7.4c0.3-0.7-1.8-2.1,0-2.7c1.7-0.6,3.1-2.8,5.3-1.6c1.1,0.6,2,1.1,3.4,0.1c1.3-0.9,1.8,0.5,1.9,1.9
		c0.2,3.1-1.3,5.9-1.2,8.9c1.9-2.3,1.8-5.3,2-8c0.2-2.3,0.7-3.1,3.1-3.6c4.9-1,9.4-3.3,11.7-8.2c1-2.1,1.8-0.1,2.9-0.2
		c-1-4.4,1.1-7.3,3.8-10.1c0.9-0.9,1.5-1.3,2.7-0.8c0.2,0.1-0.2,1.7,0.6,0.3c0.4-0.6,1.9-0.5,1.2-1.6c-0.9-1.6-0.8-2.8,0.9-3.4
		c1.9-0.7,1.5,1.6,2.4,2.3c0.8-1-0.3-2.2,0.8-3.5c0.5,1.8,0,3.6,1.1,5.8c-0.1-1.2-0.2-1.7-0.1-2.2c0.1-0.8-0.5-2.2,0.5-2.4
		c1.1-0.2,1.5,1.1,1.8,2c0.3,0.9,0.4,2,1.6,1.8c2-0.3,3.1,0.5,3.3,2.6c0.1,0.4,0.3,1,1.1,0.7c0.2-2.5-0.8-4.7-1.3-7
		c-0.1-0.5-0.4-2,0.4-1.5c2.8,1.6,1.1-0.9,1.3-1.4c0.6-2.7-1.1-5.8,1.2-8.3c2.3-2.6,1.6-6.1,2.4-9.1c0.7-2.7,2.2-2.3,3.9-2.4
		c0.3,0,0.5,1.6,0.9,0c0.2-0.8,1.3-1.5,0.6-2.5c-0.4-0.6-1.1-0.1-1.6,0.1c-0.9,0.3-1.7,1.2-2.9,1c0.6-1.4,2-1.6,3-2.6
		c-1.5-0.4-2.6-1.3-2.3-2.8c0.5-3.4-1.1-6.8,0.2-10.2c0.3-0.8,0.2-2.3-0.3-2.9c-1.3-1.5-0.7-2.8-0.3-4.2c0.5-1.9,1.3-3.7,1.6-5.6
		c0.4-2.6,1.4-2.1,2.9-1.1c3.2,2.1,5.5,5.1,7.6,8.6c0.4-1.6,0.2-2.6-0.6-3.5c-2-2.1-2.8-5.1-4.9-7.2c-1.9-2-2.7-4.7-2.7-7.9
		c2.3,2,2.2,5.1,4.2,7.3c-0.1-2.6-1.3-4.4-2.2-6.3c-2.3-5.1-3.8-10.1-0.4-15.5c1.5-2.3,2.6-4.9,3.9-7.4c0.5-0.2,0.9-0.3,1.3,0.1
		c2.5,2.1,0.6,4.2-0.3,5.9c-1.1,2.3-0.2,3.9,0.9,5.7c-0.1-3.9,1.1-7.4,2.6-10.8c1.3,0.7-0.3,2.3,1.3,3c0.1-2.5,3.1-3.9,2.2-7
		c-1.5,0.7-0.6,2.9-2.5,3c0-1.5,0.3-2.8,1.4-3.5c1.8-1.2,2.5-2.9,2.9-4.9c1.3-6.6,2.3-13-1.8-19.2c-1.8-2.7-2.4-6.2-3.9-9.2
		c-3.5-7.2-6.1-14.6-6.6-22.7c-0.2-3.9-0.5-7.8-0.8-12.1c-1.3,1.1-0.5,2.4-1.2,3.5c-1.4-1.9-2.8-3.5-1.1-5.8
		c-2.2-4.3-0.8-9.6-3.8-13.7c-0.4-0.5-0.8-2.1,0.2-1.8c2.3,0.7,0.9-0.8,0.8-1.1c-2.6-5.3-3.7-11-4.3-16.8c-0.1-1.5,0.3-3.5-0.4-4.6
		c-2.7-3.7-1.6-7.8-1.5-11.7c0.1-4.8-0.8-8.7-4.2-11.9c-0.8,0.5,0.2,1.7-1.2,2.1c-0.2-1.1-0.8-2.2-0.2-3.4c0.4-0.8,0.4-1.7,0.2-2.6
		c-1.2-4.4-4-7.6-7.7-10c-3-1.9-7-2.4-8.9-6c-0.1-0.2-0.8-0.3-1.1-0.2c-1.2,0.4-1.3-0.5-1.8-1.3c-0.8-1.1-0.6-2.9-1.4-3.5
		c-2.2-1.6-2.1-1.5-2.5-3.1c-1.7-6.7-1.9-14-7.3-19.2c-0.2-0.2-0.4-0.5-0.6-0.7c-3-5.1-3.3-11-3.1-16.6c0.1-3.8,0.4-7.8,1-11.7
		c1.2-7.5-1.8-13.1-7.5-17.6c-1.9-1.5-3.4-3.4-4.4-5.6c-2.3-5.4-3.4-11.2-3.2-17c0.3-8.2-0.6-15.9-5.9-22.6
		c-1.1-1.3-1.1-3.2-2.5-4.6c-3.1-3.2-5.9-6.7-7.3-11.1c-1.4-4.5-2.9-9-4.3-13.5c-2.1-6.7-4.4-13.3-4.4-20.5c0-1.7,0-3.5-0.7-5.3
		c-1.5-3.5-3.5-6.7-4.9-10.2c-2-4.6-4.2-9-7-13c-0.8,0-1.5,0-2.2,0.2c2.9,2.3,0.4,0,0.9,3.3 M113.9,294.4c1.8,2.5,2.9,5.1,1.4,8.7
		C114.8,299.8,114.4,297.1,113.9,294.4z M115.8,316.5c-1,1-1.7,2.1-1.3,3.7c-2.3-2-0.1-3.5,0.4-5.1c0.1-0.4,0.7-0.3,1,0.1
		C116.2,315.7,116.2,316.1,115.8,316.5z M123.4,366.9c-1.2-3.5-1.5-7-0.1-11.1C124.8,359.8,124,363.4,123.4,366.9z M128.5,377.5
		c1-2-4.9-3.5-0.2-6.2c0.1,1.3-1,2.3,0.2,3.3C129.6,375.4,129.2,376.5,128.5,377.5z M139.1,419.3c-0.5,1.1-1.1,2.1-1.8,3.1
		c-0.7,0.9,0.5,2.3-0.8,3c-2.6-3.4-2-10.4,1.4-15c0.9,2,1.5,3.8-1.2,5.2C139.9,415.6,140.5,416.5,139.1,419.3z M139.6,497.8
		c-0.8-0.8,0.7-1.6-0.3-2.3c-2.3,5.3-5.7,10-8.4,15.5c-0.8-5.6,0.9-10.4,2-15.2c0.5-2.2,1.5-4.4,1.4-6.8c0-0.5,0.4-1.1,0.8-1.5
		c0.1-0.1,1.2,0.4,1.2,0.6c-0.2,3.1,3.1,3.9,4.1,6.2C141,495.9,141,496.9,139.6,497.8z M143.6,449.2c0-1.9-0.3-3.5,1-4.7
		C144.6,445.9,146,447.8,143.6,449.2z M171.2,490.9c-0.8-1.8-1.5-3.2-2.2-4.8C172.7,487.2,172.7,487.2,171.2,490.9z M175.8,479.4
		c-0.2,1.6-0.3,3.2-0.5,4.8c-0.1,0.6,0.1,1.3-0.8,1.3c-0.4,0-1-0.2-1.3-0.5c-1.8-2.1-1.7-6.7,0.3-9.2c-0.3,1.9-0.5,3.4-0.7,5
		c2.4-1,1-3.5,2.2-4.9C176.5,476.9,175.9,478.2,175.8,479.4z M180.9,518.3c-0.8,0.3-1-0.4-1.1-1c-0.1-1-0.7-2.1,0.1-2.9
		c0.7-0.7,1,0.6,1.6,0.8c-1.6,0.5-0.2,1.1,0,1.6C181.7,517.5,181.5,518.1,180.9,518.3z M187.1,507.7c0.8,4.6-2.4,6.1-5.6,7.6
		c0,0,0,0,0,0c-1-5.1-2-10.3-3.2-16.2c2.7,2.7,3.8,5.9,7,6.8c0.4-0.7,0-1-0.4-1.3c-2-1.7-3.1-3.4-0.6-5.6c0.8-0.7,1.5-1.6,1-2.9
		c-0.5-1.5-0.2-3.4,1.3-3.2c1.4,0.2,3.6,1.6,3.4,3.4c-0.3,3.7,0.1,7.7-2.8,10.7C187,507,187,507.4,187.1,507.7z M192.2,506.3
		c-0.1,0.6-0.6,1.1-1.3,0.9c-0.4-0.1-1.1-0.3-1-0.9c0.8-3.6,1.7-7.1,2.6-11.1C195.7,499.6,192.6,502.8,192.2,506.3z M223.1,150.1
		c-0.9-4.6-1.6-9.1-1.7-13.7C224.6,138.7,225.5,145.9,223.1,150.1z M226.8,154.8c-0.2-4.2,1-8.4,0.3-12.6
		C228.3,146.5,227.8,150.6,226.8,154.8z M233.2,453c-1,2.9-2,5.3-3.7,8.2C229.2,457.3,230.3,455,233.2,453z M243.2,457.6
		c-0.8,3.3-2.3,6.2-5.2,8.1c-1.6,1.1-3.5,1.8-5.3,2.5c-1.1,0.4-2.3,1.2-3.3,0.4c-1.2-0.9-0.5-2.4-0.5-3.7c0-0.7,0.3-1.4,0.9-1.8
		c4.4-3,5.4-8.2,7.6-12.6c1.1-2.1,0.9-4.4,1.8-7.1c3.2,4.7,1.3,9.5,2.6,13.9c0.2-0.3,0.4-1.1,0.7-1.1
		C243.5,456.3,243.4,457.1,243.2,457.6z M251.6,442.3c-0.6,1.2-1.4,1.2-2.3,0.2c0.8,3.2,2.5,6.5-1.3,9c-0.6,0.4-1,1-1.8,0.7
		c-0.7-0.2-0.5-0.9-0.7-1.5c-0.6-2.5-1.8-4.7-1.5-7.4c0.1-1.4,1.6-2.2,1-3.7c-2.2,0.2-1.5-1.9-2-3c-0.4-0.8-0.1-2-0.2-3.8
		c1.3,2.5,3.2,4,2.2,6.5c1.8,0.4,3,1.7,4.2,3c-0.4-1.1-0.9-2.2-1.3-3.3c-0.3-1.1,0.2-1.5,1.2-1.4c-1.2-1.7-2.7-3.1-3.2-5.3
		c-0.7-2.7-0.1-4.7,1.8-6.8c1.5,3.9,4.3,7.3,1.7,11.6c1.1-1.2,2.2-1.9,3.7-1.1c0.6,0.9-2.2,1.7,0.2,2.9
		C254.5,439.7,252.2,441.2,251.6,442.3z M254.4,213.6c4.4,1.7,4.6,5.5,5.7,8.8C257.8,220,256,217.3,254.4,213.6z M266.3,237.1
		c-1.2-2.7-2.1-4.8-2.9-6.9c-0.2-0.6-1.6-1.6,0-2.1c1.1-0.4,2.2,0.1,2.4,1.5C266.1,231.8,266.9,234,266.3,237.1z M274.8,390.3
		c-0.7,0.2-1.3,0.2-1.9-0.4c-1.1-1.3-2.1-8.3-1.3-10.2c2.7,2.5,2.5,6.1,3.7,9.1C275.5,389.3,275.6,390.1,274.8,390.3z M276,360.6
		c-0.7-4.1,0-7.3,1.2-10.5C277.9,353.5,279,356.9,276,360.6z M284.4,326.2c0.6-0.5,1.2,0,1.4,0.6c1.1,2.5,2.2,5,3.3,7.6
		c-0.2,0.1-0.5,0.2-0.7,0.3c-1.3-2.3-3.1-4.4-3.9-7C284.3,327.1,283.9,326.6,284.4,326.2z M284.6,356.4c-1.1,0.6-1.6,2.5-2.4,3.9
		c-1.9,0.5-2.9,0-2.2-2.2c2.3-6.9,1.9-14.2,3.8-21.2c0.4-1.5,0.8-1.7,1.9-0.7c2.5,2.3,4.2,5.3,4,8.7c-0.1,1.5,0.9,2.5,0.4,4
		C289,352.1,287.8,354.8,284.6,356.4z M286.2,360.7c-2.2-4.3,1.7-4.7,2.8-6.6C287.9,355.9,287.4,358.1,286.2,360.7z"/>
	<path class="st2" d="M63.6,146.3"/>
</g>
<g>
	<path class="st1" d="M178.4,10.4c-5,9.4-7.5,19.8-11.6,29.7c-0.5,3.5-0.9,7-1.3,10.5c-0.2,1.4-0.4,2.9-0.6,4.3
		c0,0.1,0.1,0.1,0.1,0.2c1.2,6.4-0.9,13.2-3.4,19.6c-1.2,5.7-2.6,11.4-4.2,17c-1.8,6-4.1,11.9-7.3,17.3c-3.4,5.7-6.7,11.9-11.2,16.9
		c-1,1.1-2,2.1-3.2,3c-1.1,1.9-2.2,3.8-3.4,5.6c-5,7.5-11.2,14.6-15.4,22.7c-0.5,8.1-1.9,16.2-3.1,24.2c0.2,1.1,0.5,2.1,0.7,3.2
		c0.2,0.9,0.4,1.8,0.6,2.7c1.2-1,3-1.3,4.3-2.2c1-0.6,1.7,0.4,1.8,1.4c0.3,2.6,1.1,5.1,1.2,7.8c0.1,5.2,0.6,10.5,3.3,15.2
		c1.3-0.7,1.4-3,3.2-1.8c1.4,0.9,2.8,0.7,4.1,0c0.7,1.6-1.1,2.8-0.2,4.2c1.2-0.4,0.9-1.8,1.8-2.3c0.9,0.6,0.1,2,1.3,2.8
		c-0.7-2.7,0.1-4.6,1.9-6.1c0.6-0.5,0.9-2.1,1.9-1.3c0.7,0.6,1.9,1.2,1.7,2.6c-0.2,2.2,0.4,4.4,0.3,6.6c-0.1,2.2-0.5,3.5-3.4,3.3
		c2.7,1.2,2,2.4,0.5,3.1c-5,2.5-6.7,6.9-7.7,12c-0.5,2.6-1.2,5.1,0.1,7.9c0.2-0.8,0.3-1.4,0.5-1.9c1.3,0.6,1,2.2,2.1,3.3
		c-0.3-1.8-0.5-3.2-0.7-4.7c-0.3-3.4-1.3-6.8,1.9-9.5c1-0.8,2.2-1.5,3.2-1.1c1.2,0.5,0.3,1.9,0.4,2.9c0.1,3.1-1.4,5.7-2.2,8.5
		c-1,3.3,2,7-0.7,10.6c-0.6,0.7,2,3.5,2.5,5.7c0.2,1.1,2.6,1.6,2,3.3c-0.5,1.5-2.3,1.7-3.7,1.9c-1.3,0.2-2.5,0.5-3.7,0.9
		c-1.2,0.3-1.2,0.4-2.1,2.1c2.3-0.8,4.5-1.6,7.1-1.5c-1.9,3.6-4.7,6.1-6,9.7c-1.2,3.3-3.1,6.2-2.9,9.9c0.1,0.9-0.1,1.8-0.6,2.6
		c-2.2,3.4-1.4,7.5-3,11.5c1.8-0.5,1-2.3,2.3-2.5c1.2-0.2,0.8,1.5,1.5,1.7c0.8-1.1-0.6-2.2,0.3-3.3c1.5,0.9,1.7,2.1,1.2,3.6
		c-0.8,2.5-1.5,5,0.1,7.5c0.7,1.1,0.6,3.2-0.4,3.6c-2.4,1.1-3.8,3.2-5.3,5.2c-0.2,0.3-1.3,0.5-0.7,0.9c1.6,1,0.8,2.8,1.6,4.1
		c1.1,1.8,1.7,4.2-1.1,5.5c-0.7,0.3-0.9,0.9-0.5,1.9c1.5-1.5,3.2-1,5.3-1.4c-0.8,1.7-0.5,3.1,0.1,4.1c1.9,3.4-1.7,5.9-1.3,9.1
		c0,0.2-0.4,0.4-0.7,0.6c-1,0.5-1.1,1.5-1,2.3c0.3,2.2-0.9,3.7-2.1,5.1c-1.2,1.4-2.1,3-2.7,4.6c-0.7,2.1-2,2.8-4,2.8
		c-6.1-0.1-12,0.6-17.8,2.2c-2.1,0.6-4.2,1.3-6.3,1.7c-10.6,1.9-21.3,2.8-32,4.1c-4.6,0.5-9.2,0.8-13.9,0.6
		c-6.4-0.4-12.8-0.7-19.5-1.1c1.2,0.9,2.2,1,3.3,1.2c8.2,1.3,16.5,2.1,24.8,1.9c16.3-0.5,32.4-2.7,48.4-6.4
		c5.3-1.3,10.8-4.1,16.4-0.6c0.2,0.1,0.6-0.1,0.8-0.3c1.5-1.3,3.3-0.3,4.9-0.6c1.9-0.3,2.5,1.9,3.9,1.6c3.2-0.9,3,1.3,3.4,3.3
		c1.3,6.1,2.5,12.1,6.2,17.4c1.9,2.6,3.8,5.4,4.5,8.8c0.5,2.6-0.7,4.7-3.1,5.5c-1.9,0.7-3.2,2.3-2.3,4.1c0.9,1.8,0.7,3.4,0.4,5.2
		c1.1-0.2,1.6-1.7,2.5-1c0.9,0.7-0.1,1.6-0.4,2.4c-0.3,0.7-0.8,1.4-1.1,2.1c-0.9,1.9-2.7,3.2-3.4,5.7c2.2-1.6,3.3-3.6,4.4-5.7
		c1-2,1.7-4.2,3.5-5.7c0.6-0.9,1.7-1.5,1.1-2.9c-0.6-1.4,1.3-0.8,1.4-1.8c0.8,0.4,1.1,1.1,0.8,1.9c-0.1,0.3-0.3,0.6-0.5,0.9
		c3.6,1.7,1,3.5,0.2,5.3c1.2-0.4,2.6-0.5,3.6-1.2c0.5-0.3-1.1-2,0.2-2.6c1.1-0.5,0.5,1.9,1.9,1.7c0.5-0.1,1-0.8,1.5,0
		c0.1,1.4-2,1.8-1.5,3.4c2-1.8,3.1,0.1,4,1.2c2.8,3.1-2.5,2.1-2,4c2,0.2,2,0.2,1.5,2.1c-1.8,5.9-3.7,11.8-2.7,18.2
		c0.2,1.4-0.2,1.7-2.5,2.8c-0.2,0.1-0.3,0.3-0.3,0.5c-0.4,3.8-6,5.9-3.1,10.7c0.1,0.1,0,0.4-0.1,0.6c-1.3,2.1-0.9,4.5-1.2,6.8
		c-0.3,3.4-1.4,6.7-2.9,10c1.9-0.4,2.7,0.3,2.6,2.1c-0.2,3.4,0.8,6.6,2.2,9.7c2,4.6,3.7,9.1,2.9,14.5c-0.8,5.3-1.8,10.3-4.8,14.7
		c-1.5,2.2-3.3,4.1-5,6.1c1.6,0.5,1.6-0.4,2.1-0.8c0.6-0.5,1.2-1,1.7-1.7c7.1-9.5,11-19.6,5.6-31.5c-1.6-3.6-3.1-7.2-2.7-11.3
		c0.4-3.9,0.9-7.8,1.7-11.6c0.5-2.1,0.5-4.2,3.8-3.3c-2.8-3.6,0.7-4.7,1.9-6.6c1.2-2,2.5-1,3,0.4c1.2,3.2,2.4,6.3,2,10
		c-0.9,7.1-1.9,14.1-4.6,20.8c-1.5,3.6-1.6,7.6-0.2,11.3c1,2.7,0.7,5.4,0.3,7.9c-0.7,5.1-1.8,10.1-2.4,15.2
		c-0.5,4.2-0.3,8.3,1.1,12.4c-0.5-3.5,2.1-5.7,3-8.6c0,1.5-0.3,2.9,0.2,4.5c0.2-0.5,0.4-1.1,0.5-1.1c1.4,0,0.1,1.8,1.3,2
		c0.1-3.6,1.7-6.7,3.7-9.5c1.7-2.4,5.8-3.6,7.7-2.6c1.1,0.6,1.5,1.9,2.3,2.7l8.2,12.2c-0.5-3.9-1.6-7.7-3-11.4c-0.3-0.8-1.9-3,1.2-2
		c0.8,0.3,1-0.6,0.8-0.8c-2.4-2.2-0.2-3.1,1.2-4.1c-0.5-1-1.4-0.6-2-1.2c-1.2-1.1-3-1.4-2.9-3.5c-3.8,0-1.8-2.6-1.8-4.3
		c0-0.9,0.3-1.8,0.3-2.7c0-2.2-0.1-4.2,3.1-3.1c0.9,0.3,1.6-0.9,2.4-1c1.5-0.2,1.6-3.8,3.8-1.7c2.1,2-0.8,3.1-1,4.7
		c2.4,0.4,4.8,3.5,4.7,5.8c-0.1,3.5-3.6,3.8-5.2,5.9c1.9-0.4,3.6-1.4,5.5-1.4c0.6,0,1.5,0.3,1.8,0.8c0.6,0.9-0.6,0.7-0.9,1
		c-0.4,0.4-0.8,1.1-0.3,1.6c0.6,0.7,1-0.1,1.4-0.5c0.4-0.4,0.8-0.9,1.2-0.4c1.2,1.2,1.8,0.4,2.8-0.4c0.7-0.6,2-0.9,2.9-0.7
		c0.6,0.1,0.9,1.4,1.3,2.2c0.6,1.1-1.8,0.4-1.1,1.8c1.1,2.4,1.6,5.1,1.8,7.6c0.4,3.2,4.3,6.8-0.3,9.9c-0.5,0.3-0.4,1.5-0.5,2.3
		c-0.1,0.3,0.3,0.6-0.1,1.1c-0.9,1.1-0.7,1.4,0.5,1.5c2.2,0,4.1-0.5,5.7-2.5c1.8-2.3,3.7-4.7,6.1-6.5c2-1.5,2.9-4.1,5.3-5
		c2.7-1.1,1.5-4.3,3.1-5.9c0.3-0.3,0.4-0.7,0.6-1c0.3-0.4,0.8-1,1.2-0.5c1.3,1.6,1.7,0,2.7-0.4c1.8-0.8,1.1-2.4,1.5-3.5
		c0.9-2.4,3.1-3.5,4.7-5.3c-1.2,0.3-2.1,1.2-3.4,1.1c-0.7-0.1-1.7,0.2-1.5-1.2c0.2-0.9,0-2.3,1.5-2c2.1,0.5,4.5-0.7,6.4,1.2
		c1.4,1.4,3.9,1.6,4.8,3.8c1.3,3.2,2.3,6.4,1.2,9.9c-0.3,1-0.6,2,0.2,3.4c1.9-5,3.5-9.8,1.8-14.7c-1.1-3.1,0.4-4.4,2.2-6.1
		c2.9-2.7,4.9-6,5.6-10c-1.9,2.6-2.9,5.9-5.4,8.1c-0.8,0.7-1.6,1.5-2.5,2.1c-1.1,0.8-2.1,0.7-3-0.6c-0.8-1.2-2-2.2-2.9-3.3
		c-1-1.3-0.8-3.8,0.8-5c2.6-1.9,2.2-5,3.1-7.5c0.3-0.7-1.9-2-0.1-2.7c1.7-0.7,3-2.9,5.3-1.8c1.1,0.5,2,1.1,3.4,0
		c1.3-1,1.8,0.4,2,1.8c0.3,3.1-1.1,5.9-0.9,8.9c1.8-2.4,1.6-5.3,1.7-8c0.2-2.4,0.6-3.1,3-3.7c4.9-1.2,9.3-3.7,11.4-8.6
		c0.9-2.1,1.8-0.1,2.9-0.3c-1.2-4.3,0.8-7.4,3.4-10.3c0.8-0.9,1.5-1.3,2.6-0.9c0.2,0.1-0.1,1.7,0.6,0.3c0.3-0.6,1.9-0.5,1.2-1.6
		c-1-1.6-0.9-2.7,0.8-3.4c1.9-0.8,1.5,1.6,2.5,2.2c0.7-1-0.4-2.2,0.6-3.5c0.6,1.8,0.2,3.6,1.3,5.7c-0.1-1.2-0.2-1.7-0.2-2.2
		c0.1-0.8-0.6-2.1,0.4-2.4c1.1-0.3,1.5,1.1,1.9,1.9c0.4,0.8,0.5,2,1.6,1.8c2-0.4,3.1,0.4,3.4,2.4c0.1,0.4,0.3,1,1.1,0.7
		c0.1-2.5-1-4.6-1.6-7c-0.1-0.5-0.5-2,0.4-1.5c2.8,1.5,1.1-0.9,1.2-1.4c0.5-2.8-1.3-5.8,0.9-8.3c2.2-2.7,1.4-6.1,2.1-9.2
		c0.6-2.7,2.2-2.4,3.8-2.6c0.3,0,0.6,1.6,0.9,0c0.2-0.8,1.2-1.6,0.6-2.5c-0.4-0.6-1.1,0-1.6,0.2c-0.9,0.4-1.6,1.3-2.9,1.1
		c0.6-1.4,1.9-1.6,3-2.8c-1.5-0.4-2.6-1.2-2.4-2.7c0.4-3.4-1.3-6.7-0.1-10.2c0.3-0.8,0.1-2.3-0.4-2.9c-1.3-1.4-0.8-2.8-0.5-4.2
		c0.4-1.9,1.2-3.7,1.4-5.6c0.3-2.6,1.3-2.1,2.9-1.2c3.3,2,5.7,4.9,7.9,8.3c0.4-1.6,0.1-2.6-0.7-3.5c-2.1-2.1-3-5-5.1-7.1
		c-1.9-1.9-2.9-4.6-2.9-7.8c2.4,1.9,2.4,5,4.5,7.1c-0.2-2.6-1.4-4.3-2.4-6.2c-2.5-5-4.2-10-1-15.4c1.4-2.4,2.4-5,3.6-7.6
		c0.4-0.2,0.9-0.3,1.3,0.1c2.5,2,0.7,4.1,0,5.9c-1,2.3-0.1,3.9,1.1,5.6c-0.3-3.9,0.8-7.4,2.2-10.9c1.3,0.7-0.2,2.3,1.4,3
		c0.1-2.5,3-4,2-7.1c-1.4,0.8-0.5,2.9-2.4,3.1c0-1.5,0.2-2.8,1.3-3.6c1.7-1.3,2.4-3,2.7-5c1-6.6,1.8-13.1-2.5-19.1
		c-1.9-2.7-2.7-6.1-4.2-9.1c-3.8-7-6.6-14.3-7.4-22.4c-0.4-3.9-0.8-7.8-1.2-12c-1.2,1.2-0.4,2.5-1.1,3.5c-1.4-1.9-3-3.4-1.3-5.7
		c-2.3-4.2-1.1-9.6-4.3-13.5c-0.4-0.5-0.9-2.1,0.2-1.8c2.3,0.6,0.9-0.8,0.7-1.2c-2.7-5.2-4.1-10.8-4.9-16.7
		c-0.2-1.5,0.2-3.5-0.6-4.5c-2.8-3.6-1.9-7.8-1.9-11.6c0-4.8-1.1-8.6-4.6-11.7c-0.8,0.5,0.3,1.7-1.1,2.1c-0.3-1.1-0.9-2.1-0.3-3.4
		c0.4-0.8,0.4-1.7,0.1-2.6c-1.4-4.4-4.3-7.5-8-9.7c-3.1-1.8-7.1-2.1-9.1-5.7c-0.1-0.2-0.8-0.3-1.1-0.2c-1.2,0.5-1.3-0.5-1.9-1.2
		c-0.8-1.1-0.7-2.8-1.6-3.4c-2.3-1.5-2.2-1.4-2.6-3c-1.9-6.6-2.4-14-8-18.9c-0.2-0.2-0.4-0.4-0.6-0.7c-3.1-5-3.7-10.9-3.7-16.4
		c0-3.8,0.1-7.8,0.6-11.7c1-7.5-2.3-13-8.1-17.3c-1.9-1.4-3.6-3.2-4.6-5.4c-2.5-5.3-3.8-11-3.8-16.9c0-8.2-1.2-15.9-6.7-22.3
		c-1.1-1.3-1.2-3.2-2.6-4.5c-3.2-3-6.1-6.4-7.7-10.9c-1.5-4.5-3.2-8.9-4.8-13.3c-2.4-6.6-4.8-13.1-5.2-20.3
		c-0.1-1.7-0.1-3.5-0.9-5.3c-1.6-3.5-3.7-6.6-5.3-10c-2.1-4.5-4.5-8.8-7.4-12.7c-0.8,0-1.5,0.1-2.2,0.2c2.9,2.2,0,5.6,0.7,8.9
		 M130.8,296c1.9,2.4,3.1,5,1.7,8.7C131.8,301.4,131.3,298.7,130.8,296z M133.4,318.1c-1,1-1.7,2.2-1.2,3.8
		c-2.3-1.9-0.3-3.5,0.2-5.1c0.1-0.4,0.7-0.3,1,0C133.8,317.2,133.8,317.7,133.4,318.1z M142.8,368.2c-1.3-3.4-1.8-7-0.5-11.1
		C144,361,143.3,364.6,142.8,368.2z M148.3,378.6c0.9-2.1-5-3.3-0.4-6.2c0.2,1.3-1,2.4,0.3,3.3C149.3,376.4,148.9,377.5,148.3,378.6
		z M160.4,419.9c-0.5,1.1-1,2.2-1.7,3.2c-0.6,1,0.5,2.3-0.7,3c-2.8-3.3-2.4-10.3,0.9-15c1,1.9,1.7,3.7-1,5.2
		C161.1,416.2,161.6,417.1,160.4,419.9z M163.7,498.4c-0.8-0.7,0.7-1.6-0.4-2.3c-2.1,5.4-5.3,10.2-7.9,15.8
		c-1-5.6,0.5-10.4,1.5-15.3c0.4-2.3,1.3-4.4,1.2-6.8c0-0.5,0.4-1.1,0.7-1.6c0.1-0.1,1.2,0.3,1.2,0.5c-0.1,3.1,3.2,3.7,4.3,6.1
		C165,496.4,165.1,497.4,163.7,498.4z M166,449.6c0-1.9-0.4-3.4,0.8-4.8C166.8,446.3,168.3,448.1,166,449.6z M195,490.3
		c-0.9-1.8-1.6-3.2-2.4-4.7C196.4,486.5,196.4,486.5,195,490.3z M199.2,478.6c-0.2,1.6-0.2,3.2-0.3,4.8c0,0.6,0.2,1.3-0.7,1.3
		c-0.4,0-1-0.1-1.3-0.5c-1.9-2-2-6.6,0-9.2c-0.2,1.9-0.3,3.4-0.5,5.1c2.4-1.1,0.9-3.5,2-5C199.8,476.1,199.3,477.4,199.2,478.6z
		 M205.7,517.3c-0.8,0.3-1-0.4-1.1-1c-0.2-1-0.8-2.1,0-2.9c0.7-0.7,1,0.5,1.6,0.8c-1.6,0.6-0.1,1.1,0.1,1.6
		C206.4,516.4,206.3,517.1,205.7,517.3z M211.5,506.4c1,4.6-2.2,6.2-5.3,7.8c0,0,0,0,0,0c-1.2-5.1-2.4-10.2-3.8-16.1
		c2.8,2.6,4,5.7,7.2,6.6c0.4-0.7-0.1-1-0.4-1.3c-2.1-1.6-3.2-3.3-0.8-5.6c0.8-0.8,1.4-1.6,0.9-2.9c-0.6-1.5-0.3-3.4,1.2-3.3
		c1.4,0.1,3.6,1.4,3.5,3.3c-0.2,3.7,0.3,7.7-2.4,10.8C211.4,505.8,211.4,506.1,211.5,506.4z M216.6,504.9c0,0.6-0.5,1.1-1.3,0.9
		c-0.4-0.1-1.2-0.3-1.1-0.8c0.7-3.6,1.4-7.1,2.2-11.2C219.9,498,216.8,501.4,216.6,504.9z M234.6,147.8c-1.1-4.6-1.9-9-2.1-13.6
		C235.8,136.3,237,143.4,234.6,147.8z M238.6,152.3c-0.4-4.2,0.7-8.4-0.1-12.6C239.7,143.9,239.4,148.1,238.6,152.3z M255.6,450
		c-0.9,2.9-1.8,5.4-3.4,8.3C251.8,454.5,252.8,452.2,255.6,450z M265.8,454.3c-0.7,3.3-2.1,6.3-4.9,8.3c-1.6,1.2-3.4,2-5.2,2.7
		c-1.1,0.4-2.2,1.3-3.3,0.5c-1.2-0.9-0.6-2.4-0.6-3.7c0-0.7,0.3-1.4,0.9-1.9c4.2-3.2,5.1-8.4,7.1-12.8c1-2.1,0.8-4.4,1.5-7.1
		c3.3,4.5,1.7,9.4,3.1,13.8c0.2-0.3,0.4-1.1,0.7-1.1C266,452.9,265.9,453.8,265.8,454.3z M273.6,438.7c-0.5,1.2-1.4,1.3-2.3,0.3
		c0.9,3.2,2.8,6.4-1,9.1c-0.6,0.4-1,1-1.8,0.8c-0.7-0.2-0.6-0.9-0.7-1.5c-0.7-2.4-1.9-4.6-1.8-7.4c0.1-1.4,1.6-2.3,0.9-3.7
		c-2.2,0.3-1.6-1.9-2.2-2.9c-0.5-0.8-0.2-2-0.3-3.8c1.4,2.4,3.3,3.9,2.4,6.4c1.8,0.3,3.1,1.6,4.3,2.8c-0.5-1.1-1-2.1-1.4-3.2
		c-0.4-1,0.1-1.5,1.1-1.4c-1.3-1.6-2.8-3-3.4-5.2c-0.8-2.6-0.3-4.7,1.6-6.8c1.7,3.8,4.6,7.1,2.1,11.6c1-1.2,2.2-1.9,3.7-1.2
		c0.6,0.9-2.1,1.8,0.4,2.9C276.4,435.9,274.2,437.5,273.6,438.7z M268.2,210.1c4.5,1.5,4.8,5.3,6,8.5
		C271.9,216.2,270,213.6,268.2,210.1z M281,233.1c-1.3-2.7-2.3-4.7-3.2-6.8c-0.3-0.6-1.6-1.5-0.1-2.1c1.1-0.4,2.2,0,2.4,1.4
		C280.5,227.8,281.4,230,281,233.1z M294.9,385.8c-0.7,0.2-1.3,0.2-1.9-0.4c-1.2-1.2-2.4-8.2-1.7-10.1c2.7,2.4,2.7,6,4,9
		C295.6,384.8,295.7,385.6,294.9,385.8z M295.1,356.1c-0.8-4.1-0.3-7.3,0.8-10.6C296.8,348.9,297.9,352.3,295.1,356.1z M302.2,321.4
		c0.6-0.5,1.2,0,1.4,0.5c1.2,2.5,2.4,4.9,3.6,7.4c-0.2,0.1-0.5,0.2-0.7,0.3c-1.4-2.3-3.3-4.3-4.2-6.9
		C302.2,322.3,301.7,321.8,302.2,321.4z M303.5,351.6c-1.1,0.6-1.5,2.6-2.2,4c-1.9,0.6-2.9,0.1-2.3-2.1c2.1-6.9,1.4-14.3,3-21.3
		c0.4-1.6,0.8-1.7,1.8-0.8c2.6,2.2,4.4,5.1,4.3,8.6c-0.1,1.5,1,2.5,0.6,4C307.8,347.1,306.7,349.9,303.5,351.6z M305.3,355.8
		c-2.3-4.2,1.5-4.8,2.6-6.7C306.8,351,306.4,353.1,305.3,355.8z"/>
	<path class="st2" d="M75.1,150"/>
</g>
</svg>
