<svg id="Laag_1" data-name="Laag 1" xmlns="http://www.w3.org/2000/svg" viewBox="0 0 301.59 522.14"><defs><style>.cls-1{fill:#1d1d1b;stroke:#1d1d1b;}.cls-1,.cls-2,.cls-3{stroke-miterlimit:10;}.cls-1,.cls-2{stroke-width:0.23px;}.cls-2{fill:none;stroke:#bbb;}.cls-3,.cls-4{fill:#fff;}.cls-3{stroke:#fff;stroke-width:0.29px;}</style></defs><title>Tekengebied 8ldpi</title><path class="cls-1" d="M166.35,27.4c-.09.14-1.26,1.09-1.87,1.69-1.47,1.43-5.42,1.57-6,1.78-.94.36-5.55-1.34-6-.24-5.05,8.73.89,7.45-3.37,16.71-.57,3.31-1.1,6.63-1.64,9.94-.22,1.37-.45,2.73-.69,4.1a1.55,1.55,0,0,1,.07.23c.93,6.09-1.34,12.58-3.93,18.57-1.32,5.41-2.82,10.77-4.6,16a72.5,72.5,0,0,1-7.54,16.21c-3.45,5.34-6.76,11.12-11.22,15.67a32.67,32.67,0,0,1-3.11,2.75c-1.08,1.78-2.21,3.52-3.42,5.2-5,7-11.15,13.54-15.44,21.1-.76,7.68-2.36,15.32-3.81,23q.29,1.51.6,3.09c.17.87.32,1.74.46,2.61,1.21-.94,2.86-1.14,4.16-1.9,1-.56,1.6.47,1.67,1.37.17,2.48.87,4.86.84,7.42,0,5,.19,10,2.62,14.6,1.25-.62,1.41-2.78,3.12-1.58a3.64,3.64,0,0,0,3.87.19c.62,1.52-1.11,2.61-.35,4,1.12-.35.94-1.71,1.81-2.11.85.64,0,1.87,1.13,2.68a5.12,5.12,0,0,1,2-5.74c.61-.44.9-2,1.82-1.2.66.56,1.74,1.22,1.57,2.54-.26,2.1.22,4.19.06,6.33s-.59,3.29-3.32,3c2.51,1.21,1.85,2.34.36,3-4.81,2.16-6.58,6.38-7.74,11.19-.59,2.43-1.35,4.77-.16,7.55.22-.79.36-1.28.51-1.78,1.22.65.92,2.09,1.91,3.24-.19-1.72-.4-3.08-.49-4.45-.2-3.22-1-6.56,2.16-9,1-.76,2.11-1.37,3.07-.93,1.15.51.27,1.83.27,2.8,0,2.94-1.53,5.36-2.39,8-1,3.13,1.64,6.71-1.06,10.05-.55.69,1.8,3.38,2.16,5.54.18,1.06,2.44,1.66,1.84,3.18s-2.21,1.52-3.61,1.72a36.19,36.19,0,0,0-3.59.72c-1.15.28-1.14.32-2,2a16.71,16.71,0,0,1,6.85-1.16c-1.9,3.34-4.68,5.59-6.08,9.05-1.24,3.08-3.19,5.81-3.07,9.36a3.91,3.91,0,0,1-.65,2.46c-2.21,3.19-1.55,7.13-3.24,10.81,1.76-.42,1.06-2.12,2.24-2.26s.68,1.48,1.38,1.69c.84-1-.46-2.08.39-3.14,1.38.9,1.55,2,1,3.49-.87,2.35-1.62,4.67-.18,7.19.62,1.09.43,3-.55,3.45-2.37,1-3.7,2.93-5.23,4.75-.25.29-1.26.44-.72.79,1.54,1,.64,2.7,1.41,4,1,1.74,1.47,4-1.25,5.2-.67.29-.9.86-.54,1.78,1.45-1.41,3.12-.88,5-1.18a4.07,4.07,0,0,0-.07,4c1.69,3.34-1.82,5.59-1.57,8.59,0,.15-.39.4-.65.5a1.9,1.9,0,0,0-1,2.18c.23,2.09-1,3.52-2.15,4.81a13.59,13.59,0,0,0-2.71,4.32,3.44,3.44,0,0,1-3.89,2.51,57.36,57.36,0,0,0-17.07,1.48c-2,.49-4,1.06-6,1.35-10.16,1.46-20.41,1.91-30.63,2.71a76.14,76.14,0,0,1-13.25,0c-6.06-.57-12.14-1.12-18.52-1.7a5.82,5.82,0,0,0,3.09,1.21A128.6,128.6,0,0,0,33,349.14a229.93,229.93,0,0,0,46.27-4.38c5.13-1,10.42-3.51,15.62,0,.15.1.57-.07.77-.22,1.51-1.19,3.16-.15,4.64-.36,1.86-.26,2.36,1.93,3.64,1.63,3-.72,2.83,1.37,3.15,3.26,1,5.83,2,11.61,5.3,16.75,1.68,2.58,3.45,5.28,4,8.52a4.33,4.33,0,0,1-3.16,5.15c-1.85.57-3.08,2.07-2.3,3.81a7.28,7.28,0,0,1,.17,5c1.06-.15,1.57-1.59,2.4-.9s-.12,1.56-.45,2.3-.76,1.32-1.1,2c-.89,1.78-2.68,3-3.43,5.26a13.81,13.81,0,0,0,4.4-5.22c1-1.85,1.79-4,3.57-5.33.59-.8,1.66-1.35,1.16-2.69s1.31-.74,1.39-1.63a1.39,1.39,0,0,1,.67,1.87,6.74,6.74,0,0,1-.5.85c3.4,1.7.87,3.38,0,5.07a11.69,11.69,0,0,0,3.44-1.05c.44-.29-1-1.95.23-2.45s.38,1.86,1.72,1.71c.48-.06,1-.72,1.47,0,0,1.34-2,1.61-1.58,3.16,2-1.67,2.91.22,3.79,1.26,2.56,3-2.45,1.87-2.08,3.77,1.87.27,1.92.29,1.32,2-2,5.57-3.92,11.11-3.2,17.22.16,1.37-.25,1.59-2.44,2.53a.67.67,0,0,0-.33.44c-.47,3.58-6,5.42-3.36,10.08a.68.68,0,0,1-.11.55c-1.26,2-1,4.26-1.33,6.46a31.23,31.23,0,0,1-3.07,9.46c1.82-.28,2.58.36,2.43,2.1a20.11,20.11,0,0,0,1.76,9.27c1.8,4.46,3.24,8.81,2.27,13.94s-2.1,9.74-5.09,13.82c-1.47,2-3.3,3.76-5,5.63,1.49.55,1.56-.31,2-.7a9.77,9.77,0,0,0,1.69-1.52c7-8.81,11.11-18.3,6.38-29.78-1.43-3.47-2.67-7-2.16-10.9a87.15,87.15,0,0,1,2-11c.52-2,.59-4,3.69-3-2.52-3.51.86-4.46,2-6.26s2.37-.87,2.86.5c1.07,3.06,2.11,6.14,1.55,9.55-1.09,6.73-2.27,13.38-5.12,19.66a14.72,14.72,0,0,0-.6,10.75c.85,2.56.44,5.19,0,7.52-.86,4.8-2,9.57-2.78,14.4a26.47,26.47,0,0,0,.62,11.8c-.4-3.35,2.2-5.37,3.2-8.12a12.13,12.13,0,0,0,0,4.29c.23-.45.4-1.07.56-1.06,1.3,0,0,1.67,1.16,2a16.74,16.74,0,0,1,3.84-9c1.66-2.19,5.69-3.22,7.38-2.2,1.05.63,1.35,1.81,2.11,2.64l7.35,11.91a44.06,44.06,0,0,0-2.51-10.95c-.27-.75-1.7-2.94,1.17-1.83.78.31.93-.5.75-.68-2.19-2.2-.1-3,1.32-3.86-.42-1-1.32-.65-1.89-1.2-1.07-1-2.84-1.43-2.66-3.48-3.57-.16-1.64-2.57-1.58-4.17,0-.86.38-1.7.41-2.56.07-2.06.05-4,3.06-2.82.81.33,1.53-.8,2.3-.87,1.43-.13,1.67-3.54,3.71-1.48s-.87,2.89-1.1,4.4c2.3.43,4.46,3.51,4.3,5.69-.26,3.31-3.54,3.53-5.19,5.43,1.84-.34,3.48-1.17,5.27-1.14a2.26,2.26,0,0,1,1.68.86c.5.89-.58.6-.9.92s-.76,1.05-.35,1.54,1,0,1.36-.4.75-.81,1.18-.35c1.11,1.16,1.75.49,2.72-.31a3.46,3.46,0,0,1,2.78-.53c.54.15.82,1.38,1.17,2.15.49,1.09-1.7.28-1.08,1.69a22.34,22.34,0,0,1,1.49,7.25c.24,3,3.86,6.64-.66,9.43-.45.28-.39,1.43-.55,2.18-.07.32.27.57-.1,1-.86,1-.73,1.34.4,1.4a6.1,6.1,0,0,0,5.48-2.19,34.12,34.12,0,0,1,6-6c1.92-1.37,2.93-3.77,5.23-4.58,2.62-.91,1.55-4,3.2-5.51a5.51,5.51,0,0,0,.61-1c.28-.42.78-.89,1.13-.41,1.16,1.6,1.64.06,2.57-.28,1.76-.66,1.1-2.23,1.54-3.3.94-2.29,3.08-3.24,4.66-4.84-1.16.27-2.05,1.08-3.23.93-.69-.09-1.67.14-1.38-1.17.2-.88.06-2.24,1.5-1.82,2,.59,4.28-.54,6.05,1.4,1.31,1.43,3.64,1.67,4.44,3.79,1.15,3.09,1.92,6.2.83,9.51a3.79,3.79,0,0,0,0,3.28c2-4.72,3.62-9.21,2.18-13.95-.9-3,.53-4.15,2.35-5.73a16.8,16.8,0,0,0,5.66-9.35c-1.92,2.42-3,5.52-5.46,7.51-.81.65-1.56,1.38-2.42,2a1.73,1.73,0,0,1-2.81-.67c-.71-1.21-1.87-2.2-2.6-3.26a3.64,3.64,0,0,1,.91-4.72c2.55-1.75,2.26-4.66,3.25-7,.29-.69-1.71-2,0-2.59s3-2.63,5.08-1.52c1.06.55,1.86,1.09,3.25.1s1.72.44,1.81,1.83c.19,2.93-1.27,5.59-1.12,8.48,1.84-2.2,1.68-5,1.94-7.58.23-2.24.69-3,3-3.42,4.7-.93,8.94-3.17,11.19-7.82.95-2,1.67-.05,2.73-.2-1-4.15,1-7,3.59-9.67.83-.87,1.46-1.2,2.54-.72.21.1-.2,1.65.6.32.35-.57,1.81-.44,1.19-1.51-.9-1.51-.73-2.63.83-3.23,1.82-.7,1.39,1.54,2.3,2.18.75-.94-.27-2.14.72-3.29.49,1.74,0,3.46,1,5.5a16.2,16.2,0,0,1-.11-2.08c.08-.81-.52-2.06.51-2.29s1.42,1.08,1.74,1.92.4,1.89,1.49,1.75c1.94-.27,2.92.48,3.18,2.44,0,.39.28.93,1,.66.21-2.34-.79-4.46-1.24-6.68-.1-.51-.38-1.88.39-1.43,2.65,1.55,1.09-.81,1.2-1.3.59-2.6-1-5.55,1.11-7.92s1.51-5.79,2.27-8.66c.68-2.53,2.13-2.18,3.7-2.33.25,0,.48,1.51.83,0,.18-.8,1.21-1.46.61-2.35-.39-.58-1-.08-1.54.11-.87.31-1.61,1.13-2.77,1,.61-1.34,1.86-1.5,2.9-2.53-1.44-.42-2.47-1.23-2.23-2.68.52-3.23-1-6.47.21-9.71a3.32,3.32,0,0,0-.3-2.76c-1.23-1.38-.66-2.7-.31-4,.46-1.79,1.27-3.51,1.55-5.32.38-2.44,1.3-2,2.8-1a23.75,23.75,0,0,1,7.2,8.2,3.24,3.24,0,0,0-.56-3.33c-1.9-2-2.69-4.83-4.63-6.91a10.27,10.27,0,0,1-2.53-7.49c2.2,1.89,2.07,4.85,4,6.94-.14-2.45-1.22-4.16-2.05-6-2.22-4.84-3.66-9.66-.42-14.74,1.42-2.23,2.46-4.72,3.67-7.09a1.13,1.13,0,0,1,1.26.11c2.34,2,.55,4-.25,5.66-1,2.19-.21,3.71.88,5.39a23.09,23.09,0,0,1,2.5-10.34c1.26.68-.3,2.21,1.24,2.9.14-2.35,3-3.72,2.12-6.67-1.39.71-.6,2.74-2.36,2.84a3.88,3.88,0,0,1,1.36-3.38,6.66,6.66,0,0,0,2.76-4.66c1.2-6.27,2.16-12.38-1.72-18.28-1.72-2.6-2.32-5.94-3.73-8.8-3.38-6.82-5.81-13.89-6.3-21.58-.23-3.73-.5-7.45-.77-11.49-1.23,1.09-.46,2.32-1.12,3.32-1.31-1.82-2.7-3.37-1.06-5.5-2.07-4.08-.72-9.15-3.6-13-.35-.47-.75-2,.21-1.69,2.19.7.9-.72.73-1.07a46.8,46.8,0,0,1-4.09-16c-.14-1.47.31-3.36-.42-4.35-2.59-3.5-1.57-7.47-1.46-11.11.14-4.55-.71-8.25-4-11.31-.81.48.22,1.66-1.12,2-.23-1.08-.8-2-.21-3.23a3.42,3.42,0,0,0,.17-2.52,16.19,16.19,0,0,0-7.33-9.48c-2.89-1.84-6.65-2.25-8.5-5.74-.11-.2-.72-.29-1-.19-1.17.39-1.25-.51-1.75-1.21-.77-1.06-.58-2.73-1.38-3.32-2.12-1.55-2-1.44-2.4-3-1.59-6.39-1.79-13.36-7-18.32a3.09,3.09,0,0,1-.52-.67c-2.83-4.89-3.11-10.49-3-15.79a83.93,83.93,0,0,1,1-11.1c1.17-7.15-1.76-12.5-7.14-16.76a13.73,13.73,0,0,1-4.19-5.35,37.76,37.76,0,0,1-3.05-16.24c.26-7.8-.61-15.18-5.65-21.51-1-1.27-1-3.06-2.37-4.42-3-3-5.63-6.36-6.91-10.62s-2.76-8.55-4.11-12.84c-2-6.36-4.16-12.68-4.24-19.51a13,13,0,0,0-.69-5.05c-1.38-3.35-3.3-6.4-4.7-9.69-1.87-4.37.72-7.75-1.94-11.59a12.23,12.23,0,0,0-2.14-3.13c.49,2.58-.84,6.9-.29,10.06m-62.1,265.4c1.71,2.4,2.79,4.9,1.32,8.3C107,294.83,106.56,292.23,106.15,289.63Zm1.74,21.12a3.59,3.59,0,0,0-1.28,3.54c-2.15-1.9-.13-3.3.41-4.85.13-.35.67-.25,1,.06A.84.84,0,0,1,107.89,310.75Zm7.23,48a15.58,15.58,0,0,1-.09-10.6C116.53,352,115.72,355.37,115.12,358.76ZM120,368.87c.93-1.94-4.64-3.33-.19-5.91.13,1.26-1,2.24.22,3.14C121.06,366.86,120.65,367.89,120,368.87Zm10.15,39.8a22.6,22.6,0,0,1-1.72,3c-.62.9.43,2.19-.77,2.86-2.52-3.2-1.92-9.9,1.37-14.27.87,1.88,1.45,3.61-1.13,4.92C130.92,405.17,131.41,406,130.16,408.67Zm.46,74.82c-.73-.73.71-1.5-.31-2.17-2.21,5.05-5.41,9.53-8,14.79-.77-5.34.87-9.88,1.93-14.49.49-2.14,1.43-4.16,1.37-6.44a2.44,2.44,0,0,1,.77-1.46c.1-.11,1.11.37,1.1.53-.19,3,2.93,3.69,3.86,5.94C131.94,481.69,132,482.61,130.62,483.49Zm3.8-46.36c0-1.8-.3-3.29,1-4.52C135.35,434.05,136.66,435.81,134.42,437.13Zm26.25,39.77c-.78-1.73-1.39-3.09-2.07-4.58C162.11,473.36,162.13,473.4,160.67,476.9ZM165,466c-.22,1.51-.33,3-.47,4.56-.05.55.12,1.27-.73,1.24a1.84,1.84,0,0,1-1.24-.48c-1.72-2-1.65-6.36.31-8.8-.24,1.76-.44,3.21-.67,4.8,2.3-1,1-3.33,2.11-4.64C165.75,463.54,165.21,464.76,165,466ZM169.91,503c-.77.29-.95-.4-1-1-.14-.93-.68-2,.08-2.76s.95.55,1.48.78c-1.51.51-.16,1,0,1.51A1,1,0,0,1,169.91,503Zm5.89-10.18c.75,4.38-2.31,5.8-5.35,7.24h0c-1-4.89-1.95-9.79-3.08-15.46,2.62,2.54,3.64,5.61,6.62,6.49.39-.64,0-1-.36-1.27-1.91-1.59-2.94-3.25-.56-5.33a2.34,2.34,0,0,0,1-2.74c-.49-1.41-.16-3.24,1.28-3.07s3.39,1.49,3.26,3.23c-.28,3.5.05,7.3-2.68,10.18A1,1,0,0,0,175.8,492.84Zm4.95-1.28a.93.93,0,0,1-1.22.84c-.41-.13-1.1-.28-1-.83.76-3.39,1.6-6.75,2.51-10.55C184.07,485.14,181.1,488.26,180.75,491.56ZM210.1,152.22a73.26,73.26,0,0,1-1.58-13C211.61,141.32,212.47,148.19,210.1,152.22Zm3.6,4.47c-.2-4,1-8,.3-12C215.08,148.73,214.64,152.71,213.7,156.69Zm6.06,284.08a41.25,41.25,0,0,1-3.53,7.78C215.93,444.92,217,442.7,219.76,440.77Zm9.58,4.42a12.13,12.13,0,0,1-4.92,7.71,23,23,0,0,1-5.09,2.39c-1.06.38-2.17,1.12-3.14.39-1.15-.87-.5-2.31-.45-3.52a2.2,2.2,0,0,1,.88-1.75c4.14-2.91,5.1-7.79,7.23-12,1-2,.9-4.15,1.7-6.75,3,4.44,1.28,9,2.5,13.24.17-.28.43-1,.69-1C229.53,443.89,229.45,444.72,229.34,445.19Zm8-14.57c-.54,1.12-1.35,1.18-2.16.19.78,3,2.42,6.18-1.26,8.58-.56.37-1,.91-1.69.7s-.5-.89-.63-1.43c-.57-2.33-1.69-4.49-1.43-7.09.13-1.29,1.55-2.1.94-3.5-2.13.19-1.45-1.83-1.95-2.82-.41-.79-.13-1.95-.17-3.65,1.27,2.37,3,3.79,2.1,6.21,1.73.37,2.86,1.63,4,2.85-.42-1.05-.89-2.08-1.25-3.15s.18-1.4,1.14-1.31c-1.15-1.59-2.54-2.95-3.08-5a6.19,6.19,0,0,1,1.76-6.43c1.46,3.67,4.13,7,1.6,11.09,1-1.12,2.13-1.76,3.54-1,.57.87-2.09,1.6.24,2.75C240,428.06,237.84,429.5,237.3,430.62Zm2.64-217.89c4.19,1.63,4.42,5.24,5.44,8.35A29.29,29.29,0,0,1,239.94,212.73ZM251.3,235.1c-1.12-2.6-2-4.55-2.79-6.55-.23-.61-1.48-1.52,0-2a1.62,1.62,0,0,1,2.28,1.41C251.08,230.08,251.85,232.17,251.3,235.1ZM259.38,381a1.56,1.56,0,0,1-1.8-.42c-1.08-1.22-2-7.89-1.23-9.72,2.53,2.39,2.35,5.84,3.5,8.71C260.05,380.09,260.14,380.82,259.38,381Zm1.18-28.26a18.28,18.28,0,0,1,1.13-10C262.38,346,263.36,349.21,260.56,352.78Zm8-32.8c.61-.47,1.11,0,1.34.53,1.09,2.38,2.11,4.79,3.15,7.19l-.66.27c-1.28-2.22-3-4.17-3.76-6.71C268.47,320.82,268.05,320.35,268.53,320Zm.22,28.8c-1.07.53-1.52,2.39-2.25,3.68-1.81.48-2.79,0-2.08-2.11,2.22-6.54,1.86-13.55,3.63-20.18.39-1.47.79-1.57,1.78-.67,2.43,2.22,4,5.06,3.79,8.3-.1,1.39.9,2.38.39,3.82C273,344.61,271.83,347.25,268.75,348.78Zm1.55,4.08c-2.06-4.1,1.62-4.5,2.68-6.29C271.9,348.31,271.39,350.32,270.3,352.86Z"/><path class="cls-2" d="M295.14,350.94a6.65,6.65,0,0,0,2.76-4.66c1.2-6.27,2.16-12.39-1.72-18.28-1.72-2.6-2.32-5.95-3.73-8.8-3.37-6.82-5.8-13.89-6.29-21.59-.24-3.72-.51-7.44-.78-11.48-1.23,1.09-.46,2.32-1.12,3.32-1.31-1.82-2.7-3.37-1.05-5.5-2.08-4.08-.73-9.15-3.61-13-.34-.47-.75-2,.22-1.69,2.18.7.89-.72.72-1.07a47.09,47.09,0,0,1-4.09-16c-.14-1.46.31-3.35-.42-4.34-2.59-3.5-1.56-7.48-1.46-11.11.14-4.55-.71-8.26-4-11.31-.81.48.22,1.66-1.12,2-.23-1.08-.8-2.05-.2-3.24a3.34,3.34,0,0,0,.16-2.51,16.2,16.2,0,0,0-7.33-9.49c-2.88-1.83-6.65-2.24-8.5-5.73-.11-.21-.72-.29-1-.19-1.18.39-1.26-.52-1.76-1.21-.77-1.06-.57-2.73-1.38-3.32-2.12-1.56-2-1.44-2.4-3-1.59-6.39-1.79-13.37-7-18.32a2.85,2.85,0,0,1-.53-.67c-2.83-4.89-3.11-10.49-2.95-15.79a82.54,82.54,0,0,1,1-11.11c1.17-7.14-1.76-12.49-7.14-16.75a13.73,13.73,0,0,1-4.19-5.35,37.91,37.91,0,0,1-3.05-16.24c.27-7.81-.61-15.18-5.65-21.52-1-1.26-1-3-2.37-4.41-3-3-5.63-6.36-6.91-10.62s-2.76-8.56-4.11-12.84c-2-6.36-4.15-12.68-4.24-19.51a12.9,12.9,0,0,0-.69-5.06c-1.38-3.34-3.3-6.4-4.7-9.68a69.67,69.67,0,0,0-6.62-12.39,13.48,13.48,0,0,0-2.12.15,11.82,11.82,0,0,1,4.66,7.64c-3.37-1.35-3.45-4.51-4.94-7.59a7.38,7.38,0,0,0-.78.19l-.27.42a1.39,1.39,0,0,1-.39,1.32c-.31.29-.62.57-.94.84-5,8.73-7.78,18.61-12,27.87-.56,3.31-1.1,6.62-1.64,9.94-.22,1.36-.45,2.73-.69,4.1,0,.08.06.14.08.23.93,6.09-1.35,12.57-3.94,18.57-1.32,5.41-2.82,10.77-4.6,16a72.7,72.7,0,0,1-7.54,16.21c-3.45,5.34-6.76,11.12-11.22,15.66a31.58,31.58,0,0,1-3.11,2.76c-1.08,1.78-2.21,3.52-3.42,5.2-5,7-11.15,13.54-15.44,21.1-.75,7.68-2.36,15.32-3.81,23q.28,1.51.6,3.09c.17.87.33,1.74.46,2.61,1.21-.95,2.86-1.14,4.17-1.9,1-.57,1.59.46,1.66,1.36.18,2.49.87,4.87.84,7.43,0,5,.19,10,2.63,14.6,1.24-.62,1.4-2.79,3.11-1.58a3.64,3.64,0,0,0,3.87.19c.62,1.52-1.11,2.61-.35,4,1.13-.35.94-1.71,1.81-2.11.85.64,0,1.87,1.13,2.68a5.11,5.11,0,0,1,2.06-5.74c.6-.44.9-2,1.81-1.2.66.56,1.74,1.21,1.58,2.54-.26,2.1.21,4.19,0,6.33s-.59,3.29-3.32,3c2.51,1.2,1.85,2.34.36,3-4.81,2.16-6.58,6.37-7.74,11.18-.59,2.44-1.35,4.78-.16,7.56.23-.8.36-1.28.51-1.78,1.22.64.92,2.09,1.91,3.24-.19-1.72-.4-3.08-.49-4.45-.2-3.22-1-6.56,2.16-9,1-.76,2.11-1.37,3.08-.94,1.14.52.26,1.84.26,2.81,0,2.93-1.52,5.36-2.39,8-1,3.13,1.64,6.7-1.06,10.05-.55.69,1.8,3.38,2.16,5.54.18,1.06,2.44,1.66,1.84,3.18s-2.21,1.52-3.61,1.72c-1.21.17-2.4.43-3.59.72s-1.14.31-2.05,2a16.73,16.73,0,0,1,6.85-1.16c-1.9,3.34-4.68,5.59-6.08,9.05-1.24,3.07-3.19,5.8-3.07,9.36a4,4,0,0,1-.64,2.46c-2.22,3.19-1.56,7.13-3.25,10.81,1.76-.42,1.06-2.12,2.24-2.26s.68,1.48,1.38,1.69c.84-1-.46-2.08.39-3.14,1.38.9,1.55,2,1,3.49-.87,2.35-1.62,4.67-.18,7.18.62,1.1.43,3-.55,3.46-2.37,1-3.7,2.93-5.23,4.75-.24.29-1.26.44-.72.79,1.54,1,.64,2.7,1.41,4,1,1.74,1.47,4-1.25,5.2-.66.28-.89.86-.54,1.78,1.45-1.41,3.13-.89,5-1.18a4.07,4.07,0,0,0-.07,3.95c1.7,3.34-1.82,5.59-1.57,8.59,0,.15-.39.4-.64.5a1.89,1.89,0,0,0-1,2.18c.24,2.09-1,3.52-2.15,4.81a13.59,13.59,0,0,0-2.71,4.32,3.45,3.45,0,0,1-3.89,2.51,57.26,57.26,0,0,0-17.06,1.48c-2,.49-4,1.06-6.06,1.35C80.49,347.58,70.24,348,60,348.83a76,76,0,0,1-13.24,0c-6.07-.57-12.14-1.12-18.52-1.7a5.76,5.76,0,0,0,3.08,1.21,129.48,129.48,0,0,0,23.52,2.67,229.93,229.93,0,0,0,46.27-4.38c5.13-1,10.42-3.51,15.62,0,.15.1.57-.07.77-.23,1.52-1.18,3.16-.14,4.64-.35,1.86-.26,2.36,1.93,3.64,1.63,3-.72,2.83,1.37,3.16,3.25,1,5.83,2,11.62,5.29,16.76,1.68,2.58,3.45,5.28,4,8.51a4.34,4.34,0,0,1-3.16,5.16c-1.85.56-3.08,2.07-2.3,3.81a7.28,7.28,0,0,1,.17,5c1.06-.15,1.58-1.59,2.4-.9s-.11,1.56-.44,2.3-.77,1.32-1.11,2c-.89,1.79-2.67,3-3.42,5.27a14,14,0,0,0,4.4-5.22c1-1.85,1.78-4,3.56-5.33.59-.8,1.66-1.35,1.16-2.69s1.31-.74,1.4-1.63a1.38,1.38,0,0,1,.66,1.86,5.57,5.57,0,0,1-.5.85c3.4,1.71.87,3.39,0,5.08a11.59,11.59,0,0,0,3.44-1.05c.44-.29-1-1.95.23-2.45s.38,1.85,1.72,1.7c.48,0,1-.71,1.47,0,0,1.34-2,1.61-1.57,3.16,1.94-1.67,2.9.22,3.78,1.26,2.56,3-2.45,1.86-2.08,3.76,1.87.28,1.92.3,1.32,2-2,5.57-3.92,11.11-3.2,17.22.16,1.37-.25,1.59-2.44,2.53a.67.67,0,0,0-.33.44c-.47,3.58-6,5.42-3.36,10.07a.69.69,0,0,1-.11.56c-1.26,2-1,4.25-1.33,6.46a31,31,0,0,1-3.07,9.46c1.82-.28,2.59.36,2.43,2.09a20.13,20.13,0,0,0,1.76,9.28c1.8,4.46,3.24,8.81,2.28,13.94s-2.11,9.74-5.09,13.82c-1.48,2-3.31,3.76-5,5.63,1.49.54,1.56-.32,2.05-.7a9.81,9.81,0,0,0,1.69-1.52c7-8.82,11.11-18.3,6.38-29.78-1.43-3.47-2.67-7-2.16-10.9a87.64,87.64,0,0,1,2.05-11c.53-2,.59-4,3.69-3-2.51-3.52.86-4.46,2-6.26s2.37-.87,2.86.5c1.07,3.06,2.11,6.13,1.55,9.55-1.09,6.73-2.27,13.38-5.12,19.66a14.77,14.77,0,0,0-.6,10.75c.85,2.56.45,5.19,0,7.51-.86,4.81-2,9.58-2.78,14.41a26.33,26.33,0,0,0,.63,11.8c-.41-3.35,2.2-5.37,3.19-8.12a11.91,11.91,0,0,0,0,4.29c.22-.46.39-1.07.55-1.07,1.31,0,0,1.68,1.17,2a16.65,16.65,0,0,1,3.83-8.95c1.66-2.19,5.69-3.22,7.39-2.21,1,.63,1.34,1.82,2.1,2.65l7.35,11.9a44.26,44.26,0,0,0-2.51-10.95c-.27-.74-1.7-2.93,1.17-1.82.79.3.93-.5.75-.69-2.19-2.19-.1-3,1.32-3.85-.42-.95-1.32-.65-1.88-1.2-1.08-1.05-2.85-1.43-2.67-3.48-3.57-.17-1.64-2.57-1.58-4.17,0-.86.38-1.7.41-2.56.08-2.06.05-4,3.06-2.82.81.33,1.53-.8,2.3-.87,1.43-.13,1.67-3.54,3.71-1.48s-.87,2.88-1.1,4.4c2.3.43,4.46,3.51,4.3,5.69-.26,3.31-3.53,3.53-5.19,5.43,1.85-.35,3.48-1.17,5.27-1.14a2.23,2.23,0,0,1,1.68.86c.5.88-.58.6-.9.92s-.76,1-.35,1.54,1,0,1.36-.4.75-.81,1.19-.35c1.1,1.16,1.74.49,2.71-.31a3.46,3.46,0,0,1,2.78-.53c.54.15.82,1.38,1.17,2.15.49,1.08-1.7.28-1.08,1.68a22.73,22.73,0,0,1,1.5,7.26c.23,3,3.85,6.64-.67,9.43-.45.28-.39,1.43-.55,2.18-.07.31.28.56-.1,1-.86,1-.73,1.33.4,1.4a6.1,6.1,0,0,0,5.48-2.19,33.78,33.78,0,0,1,6-6c1.92-1.37,2.93-3.77,5.24-4.58,2.61-.92,1.54-4,3.19-5.51a5.6,5.6,0,0,0,.61-1c.28-.41.78-.88,1.13-.4,1.16,1.59,1.65.06,2.57-.29,1.76-.65,1.1-2.23,1.54-3.29.95-2.29,3.08-3.25,4.66-4.84-1.16.27-2.05,1.07-3.23.92-.69-.08-1.66.15-1.37-1.17.19-.88,0-2.23,1.49-1.81,2,.58,4.28-.54,6,1.4,1.31,1.43,3.64,1.66,4.44,3.79,1.15,3.09,1.92,6.2.84,9.51a3.77,3.77,0,0,0,0,3.27c2-4.71,3.62-9.2,2.18-13.94-.9-3,.53-4.16,2.35-5.74a16.68,16.68,0,0,0,5.66-9.35c-1.92,2.43-3,5.52-5.46,7.52-.81.65-1.56,1.38-2.41,2a1.74,1.74,0,0,1-2.82-.68c-.71-1.2-1.87-2.19-2.6-3.25a3.63,3.63,0,0,1,.92-4.72c2.54-1.75,2.25-4.66,3.24-7,.29-.7-1.71-2,0-2.59s2.95-2.64,5.09-1.52c1,.55,1.85,1.09,3.24.1s1.72.44,1.81,1.83c.19,2.93-1.27,5.59-1.11,8.48,1.84-2.2,1.67-5,1.93-7.58.23-2.24.7-3,3-3.43,4.7-.92,8.94-3.17,11.19-7.81.95-2,1.67,0,2.73-.2-1-4.15,1-7,3.59-9.67.83-.87,1.46-1.2,2.54-.72.21.09-.2,1.64.6.31.35-.56,1.82-.43,1.19-1.5-.89-1.51-.73-2.63.83-3.23,1.82-.71,1.39,1.54,2.31,2.18.74-.95-.28-2.14.71-3.29.49,1.74,0,3.46,1,5.5a18.39,18.39,0,0,1-.11-2.08c.08-.81-.51-2.06.51-2.29s1.42,1.08,1.74,1.92.4,1.89,1.49,1.74c1.94-.26,2.92.49,3.18,2.44.05.39.29.94,1,.66.21-2.33-.79-4.45-1.24-6.67-.1-.51-.38-1.88.39-1.43,2.65,1.55,1.1-.82,1.2-1.3.59-2.61-1-5.55,1.11-7.92s1.51-5.79,2.27-8.66c.68-2.53,2.14-2.18,3.7-2.33.25,0,.49,1.51.83,0,.18-.81,1.21-1.46.61-2.35-.39-.59-1-.08-1.54.1-.86.32-1.6,1.14-2.77,1,.61-1.33,1.86-1.49,2.91-2.52-1.45-.43-2.47-1.23-2.24-2.68.53-3.23-1-6.47.21-9.71a3.32,3.32,0,0,0-.3-2.76c-1.23-1.39-.65-2.7-.31-4,.46-1.79,1.27-3.51,1.55-5.32.38-2.44,1.3-2,2.8-1a23.55,23.55,0,0,1,7.2,8.2,3.26,3.26,0,0,0-.56-3.34c-1.9-2-2.69-4.82-4.63-6.9a10.29,10.29,0,0,1-2.53-7.49c2.2,1.89,2.07,4.85,4,6.94-.14-2.45-1.21-4.16-2.05-6-2.22-4.84-3.65-9.67-.42-14.74,1.42-2.23,2.46-4.72,3.67-7.09a1.13,1.13,0,0,1,1.26.11c2.34,2,.55,3.95-.25,5.66-1,2.19-.21,3.71.88,5.38a23.08,23.08,0,0,1,2.5-10.33c1.26.68-.3,2.21,1.24,2.9.14-2.35,3-3.73,2.12-6.67-1.38.71-.6,2.73-2.36,2.84A3.87,3.87,0,0,1,295.14,350.94ZM128,291.54c1.71,2.4,2.79,4.89,1.32,8.3C128.86,296.74,128.44,294.14,128,291.54Zm1.75,21.12a3.55,3.55,0,0,0-1.28,3.54c-2.16-1.9-.14-3.3.41-4.86.12-.34.66-.24.94.07A.85.85,0,0,1,129.78,312.66Zm7.22,48a15.6,15.6,0,0,1-.09-10.61C138.41,353.91,137.6,357.28,137,360.67Zm4.89,10.1c.93-1.94-4.64-3.33-.19-5.9.13,1.26-1,2.23.22,3.13C142.94,368.77,142.53,369.8,141.89,370.77ZM152,410.57a22.08,22.08,0,0,1-1.72,3c-.62.89.43,2.19-.77,2.86-2.52-3.2-1.92-9.9,1.37-14.27.87,1.88,1.45,3.61-1.13,4.92C152.81,407.08,153.29,408,152,410.57Zm.46,74.82c-.73-.72.71-1.49-.31-2.16-2.21,5-5.41,9.53-8,14.79-.77-5.34.87-9.88,1.93-14.49.49-2.14,1.43-4.16,1.37-6.44a2.39,2.39,0,0,1,.77-1.46c.1-.11,1.12.37,1.11.53-.2,3,2.92,3.69,3.86,5.94C153.82,483.6,153.85,484.52,152.5,485.39ZM156.3,439c0-1.8-.3-3.29.95-4.52C157.23,436,158.54,437.72,156.3,439Zm26.26,39.76c-.79-1.72-1.4-3.08-2.08-4.58C184,475.27,184,475.31,182.56,478.8Zm4.36-10.93c-.23,1.51-.34,3-.48,4.56-.05.55.12,1.27-.73,1.24a1.89,1.89,0,0,1-1.24-.48c-1.72-2-1.65-6.36.32-8.81-.25,1.77-.45,3.21-.67,4.81,2.29-1,.95-3.33,2.11-4.64C187.63,465.45,187.09,466.67,186.92,467.87Zm4.87,37.06c-.77.28-.95-.41-1-1-.14-.93-.68-2,.08-2.76s.95.55,1.48.78c-1.51.5-.15,1,0,1.51A1,1,0,0,1,191.79,504.93Zm5.89-10.18c.75,4.38-2.31,5.8-5.35,7.23h0c-1-4.89-2-9.79-3.09-15.47,2.62,2.55,3.64,5.62,6.63,6.5.39-.64,0-1-.37-1.27-1.91-1.6-2.94-3.25-.56-5.33a2.33,2.33,0,0,0,1-2.74c-.49-1.41-.16-3.24,1.28-3.07s3.4,1.49,3.26,3.23c-.28,3.5.05,7.3-2.68,10.18A1,1,0,0,0,197.68,494.75Zm4.95-1.28a.93.93,0,0,1-1.22.84c-.41-.13-1.1-.29-1-.84.75-3.38,1.59-6.74,2.5-10.54C206,487.05,203,490.16,202.63,493.47ZM232,154.12a73,73,0,0,1-1.58-13C233.49,143.23,234.35,150.09,232,154.12Zm3.6,4.48c-.2-4,1-8,.3-12C237,150.64,236.52,154.62,235.58,158.6Zm6.06,284.08a40.63,40.63,0,0,1-3.53,7.78C237.81,446.83,238.91,444.61,241.64,442.68Zm9.58,4.42a12.09,12.09,0,0,1-4.92,7.71,22.77,22.77,0,0,1-5.09,2.39c-1.06.38-2.17,1.12-3.13.39-1.15-.87-.5-2.32-.46-3.53a2.23,2.23,0,0,1,.88-1.75c4.15-2.9,5.1-7.79,7.23-12,1-2,.9-4.16,1.7-6.75,3,4.44,1.28,9,2.5,13.23.17-.27.43-1,.69-1C251.42,445.8,251.33,446.63,251.22,447.1Zm8-14.57c-.54,1.12-1.35,1.18-2.16.19.78,3,2.42,6.18-1.25,8.58-.57.37-1,.91-1.7.7s-.5-.89-.63-1.43c-.57-2.34-1.69-4.49-1.43-7.09.13-1.29,1.56-2.1.94-3.5-2.13.19-1.45-1.83-1.95-2.82-.4-.79-.13-2-.17-3.65,1.27,2.37,3,3.79,2.1,6.21,1.73.37,2.86,1.63,4,2.84-.42-1-.89-2.07-1.24-3.14s.17-1.4,1.13-1.31c-1.15-1.59-2.54-3-3.08-5a6.21,6.21,0,0,1,1.76-6.43c1.46,3.67,4.13,7,1.6,11.09,1-1.13,2.13-1.76,3.55-1,.57.87-2.1,1.6.23,2.75C261.9,430,259.72,431.41,259.18,432.53Zm2.64-217.89c4.19,1.63,4.42,5.24,5.44,8.35A29.5,29.5,0,0,1,261.82,214.64ZM273.18,237c-1.12-2.59-2-4.54-2.79-6.54-.23-.61-1.48-1.53,0-2a1.61,1.61,0,0,1,2.27,1.41C273,232,273.73,234.08,273.18,237Zm8.08,146a1.58,1.58,0,0,1-1.8-.42c-1.08-1.22-2-7.89-1.23-9.72,2.53,2.38,2.36,5.84,3.51,8.7C281.93,382,282,382.73,281.26,383Zm1.18-28.26a18.27,18.27,0,0,1,1.13-10C284.26,347.85,285.24,351.11,282.44,354.69Zm8-32.8c.61-.47,1.11,0,1.34.53,1.09,2.38,2.11,4.79,3.15,7.19l-.65.27c-1.29-2.22-3-4.17-3.77-6.71C290.35,322.73,289.93,322.26,290.41,321.89Zm.22,28.79c-1.07.54-1.52,2.4-2.24,3.69-1.82.48-2.8,0-2.08-2.12,2.21-6.53,1.85-13.54,3.62-20.17.39-1.48.79-1.57,1.78-.67,2.43,2.22,4,5.06,3.79,8.3-.1,1.39.9,2.38.39,3.82C294.84,346.52,293.71,349.15,290.63,350.68Zm1.55,4.09c-2.05-4.1,1.62-4.5,2.68-6.29C293.78,350.22,293.27,352.23,292.18,354.77Z"/><path class="cls-2" d="M163.09,8.35c-.3.29-.62.57-.93.84-5.06,8.73-7.79,18.61-12,27.87-.56,3.31-1.09,6.63-1.63,9.94-.23,1.37-.46,2.73-.7,4.1a1.55,1.55,0,0,1,.08.23c.93,6.1-1.35,12.58-3.94,18.57-1.31,5.41-2.82,10.77-4.59,16a72.94,72.94,0,0,1-7.54,16.21c-3.45,5.34-6.76,11.12-11.23,15.67a31.49,31.49,0,0,1-3.11,2.75c-1.08,1.78-2.21,3.52-3.42,5.2-5,7-11.15,13.54-15.44,21.11-.75,7.68-2.35,15.31-3.8,23,.18,1,.38,2,.59,3.09.17.87.33,1.75.47,2.62,1.2-1,2.85-1.15,4.16-1.91,1-.56,1.6.47,1.66,1.37.18,2.48.87,4.86.84,7.42-.05,5,.19,10,2.63,14.6,1.24-.62,1.4-2.78,3.11-1.57a3.66,3.66,0,0,0,3.87.18c.62,1.52-1.11,2.61-.34,4,1.12-.35.94-1.71,1.8-2.11.86.64,0,1.87,1.13,2.68a5.09,5.09,0,0,1,2.06-5.73c.6-.45.9-2,1.82-1.21.65.56,1.73,1.22,1.57,2.55-.26,2.09.22,4.18,0,6.32s-.59,3.3-3.32,3c2.51,1.21,1.86,2.34.36,3-4.81,2.16-6.57,6.38-7.74,11.19-.58,2.43-1.35,4.77-.16,7.55.23-.79.37-1.28.51-1.78,1.22.65.92,2.09,1.91,3.25-.19-1.73-.4-3.09-.48-4.46-.21-3.22-1-6.56,2.15-9,1-.75,2.11-1.37,3.08-.93,1.15.51.27,1.83.27,2.8,0,2.94-1.53,5.37-2.4,8-1,3.13,1.64,6.71-1,10.05-.56.69,1.8,3.38,2.16,5.54.17,1.06,2.43,1.66,1.83,3.19s-2.21,1.51-3.61,1.71c-1.2.17-2.4.43-3.59.72s-1.14.32-2,2a16.78,16.78,0,0,1,6.86-1.16c-1.9,3.34-4.69,5.59-6.08,9.05-1.25,3.08-3.19,5.81-3.07,9.36a4,4,0,0,1-.65,2.46c-2.21,3.19-1.56,7.13-3.24,10.81,1.75-.42,1-2.12,2.23-2.25s.68,1.47,1.38,1.68c.84-1-.46-2.07.39-3.14,1.39.9,1.55,2,1,3.49-.88,2.35-1.63,4.67-.19,7.19.63,1.09.43,3-.55,3.45-2.37,1-3.7,2.93-5.23,4.75-.24.29-1.25.44-.71.79,1.53,1,.64,2.7,1.4,4,1,1.73,1.47,4-1.24,5.19-.67.29-.9.86-.55,1.78,1.45-1.41,3.13-.88,5-1.18a4.07,4.07,0,0,0-.07,3.95c1.7,3.34-1.82,5.59-1.56,8.59,0,.15-.4.4-.65.5a1.9,1.9,0,0,0-1,2.18c.23,2.09-1,3.52-2.16,4.82a13.35,13.35,0,0,0-2.7,4.32,3.47,3.47,0,0,1-3.9,2.51,57,57,0,0,0-17.06,1.47c-2,.49-4,1.06-6.06,1.35-10.16,1.46-20.41,1.92-30.63,2.71a76,76,0,0,1-13.24,0c-6.07-.57-12.14-1.12-18.52-1.7a5.78,5.78,0,0,0,3.08,1.22,129.57,129.57,0,0,0,23.52,2.66,230.64,230.64,0,0,0,46.27-4.37c5.13-1,10.43-3.52,15.63,0,.14.1.56-.06.76-.22,1.52-1.19,3.17-.15,4.65-.36,1.85-.26,2.35,1.94,3.64,1.63,3-.72,2.83,1.37,3.15,3.26,1,5.83,2,11.61,5.29,16.75,1.68,2.58,3.45,5.28,4,8.52a4.34,4.34,0,0,1-3.16,5.15c-1.85.57-3.08,2.07-2.3,3.81a7.33,7.33,0,0,1,.17,5c1.05-.15,1.57-1.59,2.4-.9s-.12,1.57-.45,2.3-.77,1.32-1.11,2c-.89,1.78-2.67,3-3.42,5.26a13.9,13.9,0,0,0,4.4-5.22c1-1.84,1.78-4,3.56-5.33.6-.8,1.66-1.35,1.16-2.69s1.31-.74,1.4-1.63a1.39,1.39,0,0,1,.66,1.87,8.1,8.1,0,0,1-.49.85c3.39,1.7.86,3.38,0,5.08a11.94,11.94,0,0,0,3.43-1.06c.44-.29-1-1.95.23-2.45s.38,1.86,1.72,1.71c.48-.06,1-.72,1.47,0,0,1.34-2,1.61-1.57,3.16,2-1.67,2.9.22,3.79,1.26,2.56,3-2.46,1.87-2.09,3.77,1.87.27,1.92.29,1.32,2-1.94,5.57-3.92,11.11-3.2,17.22.16,1.37-.25,1.59-2.43,2.54a.64.64,0,0,0-.34.43c-.46,3.59-6,5.42-3.36,10.08a.68.68,0,0,1-.11.55c-1.26,2-1,4.26-1.33,6.46a31.11,31.11,0,0,1-3.06,9.46c1.82-.28,2.58.36,2.43,2.1a19.86,19.86,0,0,0,1.76,9.27c1.79,4.46,3.23,8.82,2.27,13.94s-2.1,9.74-5.09,13.82c-1.48,2-3.31,3.76-5,5.63,1.49.55,1.56-.31,2-.69a9.86,9.86,0,0,0,1.69-1.53c7-8.81,11.12-18.29,6.38-29.78-1.43-3.47-2.66-7-2.15-10.9a87.12,87.12,0,0,1,2-11c.53-2,.59-4,3.69-3-2.51-3.51.86-4.46,2-6.25s2.38-.88,2.86.49c1.08,3.06,2.11,6.14,1.56,9.55-1.1,6.73-2.28,13.38-5.13,19.66a14.77,14.77,0,0,0-.59,10.75,15.2,15.2,0,0,1,0,7.52c-.85,4.8-2,9.57-2.78,14.4a26.33,26.33,0,0,0,.63,11.8c-.4-3.35,2.2-5.37,3.19-8.12a12,12,0,0,0,0,4.3c.23-.46.39-1.07.55-1.07,1.31,0,0,1.67,1.17,2a16.68,16.68,0,0,1,3.83-9c1.66-2.19,5.69-3.22,7.39-2.2,1.05.63,1.35,1.81,2.11,2.64L148.83,491a44.49,44.49,0,0,0-2.5-10.95c-.27-.75-1.71-2.94,1.16-1.83.79.31.94-.5.75-.68-2.18-2.2-.1-3,1.32-3.86-.41-.94-1.32-.65-1.88-1.2-1.08-1-2.84-1.43-2.67-3.48-3.57-.16-1.63-2.57-1.58-4.17,0-.85.38-1.7.41-2.56.08-2.06.06-4,3.07-2.82.81.33,1.52-.8,2.3-.87,1.43-.13,1.66-3.54,3.71-1.48s-.87,2.89-1.11,4.4c2.31.43,4.47,3.51,4.3,5.69-.26,3.32-3.53,3.54-5.19,5.43,1.85-.34,3.49-1.17,5.27-1.14a2.22,2.22,0,0,1,1.68.86c.5.89-.58.61-.9.92s-.76,1.06-.35,1.54c.54.64,1,0,1.36-.4s.76-.8,1.19-.35c1.1,1.16,1.74.49,2.71-.3a3.43,3.43,0,0,1,2.78-.54c.55.15.83,1.38,1.17,2.16.49,1.08-1.7.27-1.08,1.68a22.62,22.62,0,0,1,1.5,7.25c.23,3,3.86,6.64-.66,9.43-.45.28-.39,1.43-.55,2.18-.07.32.27.57-.11,1-.85,1-.72,1.34.41,1.4a6.12,6.12,0,0,0,5.48-2.19,34.41,34.41,0,0,1,6-6c1.92-1.37,2.94-3.77,5.24-4.58,2.61-.91,1.54-4,3.2-5.51a5,5,0,0,0,.6-1c.28-.42.78-.89,1.13-.41,1.16,1.6,1.65.06,2.57-.28,1.76-.66,1.1-2.23,1.54-3.3.95-2.29,3.09-3.24,4.66-4.84-1.15.27-2,1.08-3.23.93-.69-.09-1.66.14-1.37-1.17.19-.88.06-2.24,1.49-1.81,2,.58,4.28-.55,6.05,1.39,1.31,1.43,3.65,1.67,4.44,3.79,1.16,3.09,1.93,6.2.84,9.51a3.82,3.82,0,0,0,0,3.28c2-4.72,3.62-9.21,2.18-13.95-.9-3,.53-4.15,2.35-5.73a16.69,16.69,0,0,0,5.66-9.35c-1.92,2.42-3,5.52-5.45,7.51-.81.65-1.57,1.39-2.42,2a1.74,1.74,0,0,1-2.82-.67c-.71-1.21-1.87-2.2-2.6-3.26a3.65,3.65,0,0,1,.92-4.72c2.55-1.75,2.25-4.66,3.25-7,.29-.69-1.72-2,0-2.59s3-2.63,5.09-1.52c1.06.55,1.86,1.09,3.25.11s1.71.43,1.8,1.82c.19,2.93-1.27,5.59-1.11,8.48,1.84-2.2,1.68-5,1.94-7.58.23-2.24.69-3,3-3.42,4.71-.93,8.94-3.17,11.19-7.82,1-2,1.68,0,2.73-.2-1-4.15,1-7,3.6-9.66.83-.88,1.45-1.2,2.53-.73.21.1-.2,1.65.61.32.34-.57,1.81-.44,1.18-1.5-.89-1.52-.72-2.63.83-3.24,1.83-.7,1.39,1.54,2.31,2.18.74-.94-.27-2.14.71-3.29.49,1.74,0,3.46,1,5.51a18.63,18.63,0,0,1-.11-2.09c.08-.8-.51-2.06.51-2.29s1.42,1.09,1.74,1.93.4,1.89,1.49,1.74c1.94-.27,2.92.48,3.18,2.44.06.39.29.94,1,.66.22-2.34-.79-4.46-1.24-6.68-.1-.51-.38-1.88.39-1.43,2.65,1.55,1.1-.81,1.21-1.3.58-2.6-1-5.55,1.11-7.92s1.5-5.79,2.27-8.66c.67-2.53,2.13-2.18,3.69-2.33.25,0,.49,1.51.83,0,.19-.8,1.21-1.46.61-2.35-.39-.58-1-.08-1.53.11-.87.31-1.61,1.13-2.78,1,.61-1.34,1.86-1.5,2.91-2.53-1.44-.42-2.47-1.23-2.24-2.68.53-3.22-1-6.47.21-9.71a3.25,3.25,0,0,0-.3-2.76c-1.23-1.38-.65-2.7-.3-4,.46-1.79,1.27-3.51,1.55-5.31.37-2.44,1.29-2,2.79-1a23.68,23.68,0,0,1,7.21,8.2,3.21,3.21,0,0,0-.57-3.33c-1.9-2-2.68-4.83-4.63-6.9a10.36,10.36,0,0,1-2.53-7.5c2.21,1.89,2.07,4.85,4,6.94-.14-2.45-1.22-4.16-2.05-6-2.23-4.83-3.66-9.66-.43-14.74,1.42-2.23,2.46-4.72,3.67-7.09a1.12,1.12,0,0,1,1.26.11c2.34,2,.56,4-.25,5.66-1,2.19-.2,3.71.88,5.39a23,23,0,0,1,2.51-10.34c1.25.69-.31,2.21,1.24,2.9.13-2.35,3-3.72,2.11-6.67-1.38.71-.6,2.74-2.35,2.84a3.88,3.88,0,0,1,1.36-3.38,6.7,6.7,0,0,0,2.76-4.66c1.2-6.26,2.16-12.38-1.73-18.27-1.72-2.61-2.32-5.95-3.73-8.8-3.37-6.83-5.8-13.9-6.29-21.59-.24-3.73-.5-7.45-.77-11.49-1.24,1.09-.46,2.32-1.13,3.32-1.31-1.82-2.7-3.37-1.05-5.5-2.07-4.08-.73-9.15-3.6-13-.35-.47-.76-2,.21-1.68,2.18.7.89-.73.72-1.08a47,47,0,0,1-4.09-16c-.14-1.47.32-3.36-.42-4.35-2.59-3.5-1.56-7.47-1.45-11.11.13-4.54-.72-8.25-4-11.31-.81.48.22,1.66-1.12,2-.22-1.08-.8-2-.2-3.23a3.36,3.36,0,0,0,.16-2.52,16.18,16.18,0,0,0-7.33-9.48c-2.88-1.84-6.65-2.25-8.5-5.74-.11-.2-.72-.29-1-.19-1.18.39-1.25-.51-1.76-1.21-.77-1.06-.57-2.73-1.38-3.32-2.11-1.55-2-1.43-2.4-3-1.59-6.4-1.79-13.37-7-18.32a2.9,2.9,0,0,1-.53-.68c-2.82-4.89-3.11-10.49-3-15.79a82.39,82.39,0,0,1,1-11.1c1.18-7.15-1.76-12.5-7.13-16.76a13.6,13.6,0,0,1-4.2-5.35,38.06,38.06,0,0,1-3.05-16.24c.27-7.8-.61-15.18-5.65-21.51-1-1.27-1-3-2.37-4.42-2.95-3-5.63-6.36-6.91-10.62s-2.75-8.55-4.11-12.84c-2-6.36-4.15-12.68-4.24-19.51a13,13,0,0,0-.68-5.05c-1.39-3.35-3.31-6.4-4.71-9.69a69.67,69.67,0,0,0-6.62-12.39,13.48,13.48,0,0,0-2.12.15c2.73,2.2.35,0,.9,3.12M107.08,279.35c1.71,2.4,2.79,4.9,1.32,8.31C107.91,284.56,107.5,282,107.08,279.35Zm1.75,21.12a3.58,3.58,0,0,0-1.28,3.54c-2.16-1.9-.13-3.29.41-4.85.12-.35.66-.25.94.06A.84.84,0,0,1,108.83,300.47Zm7.23,48a15.51,15.51,0,0,1-.1-10.6C117.47,341.72,116.65,345.09,116.06,348.48Zm4.88,10.11c.94-1.94-4.63-3.33-.18-5.91.12,1.26-1,2.24.21,3.14C122,356.58,121.58,357.61,120.94,358.59Zm10.15,39.8a21.53,21.53,0,0,1-1.72,3c-.62.9.44,2.19-.77,2.86-2.51-3.2-1.92-9.89,1.38-14.27.86,1.88,1.44,3.61-1.14,4.92C131.86,394.89,132.34,395.76,131.09,398.39Zm.47,74.82c-.74-.73.7-1.5-.31-2.17-2.22,5-5.42,9.54-8,14.8-.77-5.35.87-9.88,1.94-14.5.49-2.14,1.42-4.16,1.36-6.44a2.44,2.44,0,0,1,.77-1.46c.1-.11,1.12.37,1.11.54-.2,3,2.92,3.68,3.86,5.93C132.88,471.41,132.9,472.33,131.56,473.21Zm3.79-46.36c0-1.8-.3-3.29,1-4.52C136.29,423.77,137.6,425.53,135.35,426.85Zm26.26,39.77c-.78-1.73-1.4-3.08-2.08-4.58C163,463.09,163.06,463.12,161.61,466.62ZM166,455.68c-.22,1.51-.33,3-.48,4.56-.05.55.12,1.28-.73,1.24a1.86,1.86,0,0,1-1.24-.48c-1.71-2-1.64-6.36.32-8.8-.25,1.76-.45,3.21-.67,4.8,2.29-1,1-3.33,2.11-4.64C166.68,453.26,166.14,454.48,166,455.68Zm4.87,37.06c-.77.29-.94-.4-1-1-.14-.93-.68-2,.09-2.75s.94.54,1.47.77c-1.5.51-.15,1,0,1.51A1,1,0,0,1,170.84,492.74Zm5.89-10.18c.75,4.39-2.31,5.8-5.34,7.24h0c-1-4.89-1.95-9.79-3.08-15.46,2.61,2.55,3.64,5.61,6.62,6.49.39-.64,0-1-.37-1.27-1.91-1.59-2.94-3.25-.56-5.33a2.33,2.33,0,0,0,1-2.74c-.49-1.41-.15-3.24,1.28-3.06s3.4,1.49,3.26,3.22c-.28,3.51,0,7.31-2.68,10.19A1,1,0,0,0,176.73,482.56Zm5-1.28a.94.94,0,0,1-1.23.84c-.41-.13-1.09-.28-1-.83.75-3.39,1.59-6.75,2.51-10.55C185,474.87,182,478,181.69,481.28ZM211,141.94a73.26,73.26,0,0,1-1.58-13C212.55,131,213.4,137.91,211,141.94Zm3.6,4.47c-.2-4,1-8,.3-12C216,138.45,215.58,142.44,214.63,146.41Zm6.06,284.08a41.2,41.2,0,0,1-3.52,7.78C216.86,434.64,218,432.42,220.69,430.49Zm9.59,4.42a12.12,12.12,0,0,1-4.93,7.71,23.18,23.18,0,0,1-5.08,2.4c-1.07.38-2.17,1.11-3.14.38-1.15-.87-.5-2.31-.45-3.52a2.21,2.21,0,0,1,.87-1.75c4.15-2.91,5.1-7.79,7.23-12,1-2,.9-4.15,1.7-6.75,3,4.45,1.28,9,2.5,13.24.18-.28.43-1,.69-1C230.47,433.61,230.39,434.44,230.28,434.91Zm7.95-14.56c-.54,1.11-1.35,1.17-2.15.18.78,3,2.41,6.18-1.26,8.59-.56.36-1,.9-1.7.69s-.5-.89-.63-1.43c-.57-2.33-1.68-4.49-1.43-7.09.13-1.29,1.56-2.1.94-3.49-2.13.18-1.45-1.84-1.95-2.83-.4-.79-.12-2-.17-3.65,1.27,2.37,3,3.8,2.11,6.21,1.72.37,2.85,1.63,4,2.85-.42-1.05-.89-2.08-1.24-3.15s.18-1.4,1.14-1.31c-1.15-1.59-2.55-2.95-3.09-5a6.21,6.21,0,0,1,1.76-6.43c1.47,3.67,4.13,7,1.6,11.1,1-1.13,2.13-1.77,3.55-1,.57.87-2.1,1.6.24,2.75C241,417.78,238.78,419.22,238.23,420.35Zm2.64-217.89c4.19,1.62,4.42,5.24,5.44,8.34A29.59,29.59,0,0,1,240.87,202.46Zm11.36,22.36c-1.12-2.6-2-4.55-2.79-6.55-.23-.61-1.47-1.52,0-2a1.63,1.63,0,0,1,2.28,1.41C252,219.8,252.79,221.89,252.23,224.82Zm8.08,146a1.56,1.56,0,0,1-1.79-.43c-1.09-1.22-2-7.89-1.23-9.72,2.52,2.39,2.35,5.84,3.5,8.71C261,369.81,261.08,370.54,260.31,370.77Zm1.19-28.27a18.19,18.19,0,0,1,1.12-10C263.32,335.67,264.3,338.93,261.5,342.5Zm8-32.79c.61-.48,1.12,0,1.34.52,1.09,2.38,2.11,4.79,3.16,7.19l-.66.27c-1.29-2.22-3-4.17-3.76-6.71C269.4,310.54,269,310.08,269.46,309.71Zm.23,28.79c-1.08.53-1.53,2.39-2.25,3.69-1.82.47-2.79,0-2.08-2.12,2.21-6.54,1.86-13.55,3.62-20.18.4-1.47.79-1.57,1.79-.66,2.42,2.21,4,5,3.79,8.29-.1,1.39.9,2.38.39,3.83C273.89,334.33,272.76,337,269.69,338.5Zm1.55,4.08c-2.06-4.1,1.62-4.49,2.67-6.29C272.83,338,272.32,340,271.24,342.58Z"/><path class="cls-2" d="M168.46,8.86c-4.73,8.91-7.11,18.89-11,28.31-.45,3.33-.86,6.66-1.28,10-.17,1.37-.36,2.75-.55,4.13a1.12,1.12,0,0,1,.09.22c1.14,6.06-.9,12.62-3.27,18.71-1.12,5.45-2.43,10.86-4,16.17a72.76,72.76,0,0,1-7,16.48c-3.25,5.47-6.35,11.37-10.65,16.08a32.75,32.75,0,0,1-3,2.87c-1,1.82-2.08,3.6-3.23,5.33-4.76,7.14-10.66,13.95-14.68,21.67-.47,7.7-1.8,15.39-3,23.09.22,1,.46,2,.7,3.06.2.87.39,1.74.56,2.6,1.17-1,2.81-1.25,4.09-2.06,1-.6,1.62.41,1.71,1.3.27,2.48,1,4.83,1.11,7.39.12,5,.54,10,3.14,14.49,1.23-.66,1.31-2.83,3.06-1.69a3.63,3.63,0,0,0,3.87,0c.68,1.49-1,2.65-.2,4,1.11-.39.88-1.74,1.73-2.18.88.61.1,1.87,1.22,2.64a5.11,5.11,0,0,1,1.86-5.81c.58-.47.82-2,1.77-1.27.68.53,1.78,1.15,1.66,2.48-.18,2.11.37,4.18.28,6.32s-.47,3.31-3.21,3.13c2.55,1.11,1.94,2.27.47,3-4.73,2.34-6.34,6.62-7.33,11.47-.5,2.45-1.18,4.82.11,7.55.19-.8.32-1.29.44-1.8,1.25.6,1,2.06,2,3.17-.26-1.71-.51-3.06-.65-4.43-.32-3.2-1.2-6.52,1.84-9.06.94-.79,2.06-1.45,3-1.05,1.16.47.33,1.82.36,2.79.11,2.93-1.33,5.42-2.1,8.11-.91,3.16,1.88,6.63-.7,10.08-.53.71,1.92,3.3,2.36,5.45.21,1,2.49,1.57,1.95,3.12s-2.15,1.59-3.55,1.84c-1.2.22-2.38.53-3.56.86s-1.13.36-2,2.05a16.62,16.62,0,0,1,6.81-1.42c-1.78,3.41-4.48,5.76-5.75,9.27-1.13,3.12-3,5.92-2.73,9.47a4.1,4.1,0,0,1-.56,2.49c-2.1,3.27-1.3,7.18-2.86,10.92,1.75-.49,1-2.16,2.16-2.34s.73,1.45,1.44,1.64c.8-1.05-.54-2.06.28-3.16,1.41.84,1.62,2,1.12,3.45-.79,2.38-1.45,4.73.08,7.19.66,1.06.54,3-.43,3.47-2.33,1.09-3.59,3.07-5.06,4.95-.23.29-1.23.48-.68.81,1.57.94.73,2.67,1.54,3.94,1.09,1.69,1.62,4-1,5.24-.66.31-.87.89-.48,1.8,1.4-1.47,3.09-1,5-1.37a4.1,4.1,0,0,0,.07,3.95c1.82,3.27-1.61,5.65-1.25,8.64,0,.15-.39.41-.63.53a1.89,1.89,0,0,0-1,2.21c.31,2.08-.86,3.56-2,4.9a13.72,13.72,0,0,0-2.55,4.41,3.46,3.46,0,0,1-3.8,2.66,57.15,57.15,0,0,0-17,2.12c-2,.56-4,1.21-6,1.58-10.1,1.83-20.33,2.68-30.51,3.86a77.09,77.09,0,0,1-13.24.53c-6.08-.34-12.17-.66-18.57-1a5.85,5.85,0,0,0,3.13,1.1,128.87,128.87,0,0,0,23.6,1.78A229.86,229.86,0,0,0,98.2,337c5.09-1.19,10.29-3.9,15.62-.56.15.1.56-.09.75-.25,1.48-1.25,3.16-.27,4.63-.53,1.85-.33,2.43,1.84,3.7,1.49,3-.84,2.87,1.26,3.26,3.13,1.21,5.79,2.38,11.54,5.9,16.55,1.76,2.51,3.63,5.15,4.27,8.36a4.35,4.35,0,0,1-3,5.27c-1.83.63-3,2.18-2.17,3.89a7.22,7.22,0,0,1,.35,5c1.05-.19,1.52-1.65,2.37-1s-.06,1.57-.36,2.32-.72,1.35-1,2c-.82,1.82-2.56,3.1-3.23,5.39a13.89,13.89,0,0,0,4.21-5.38c1-1.88,1.64-4,3.37-5.46.56-.82,1.61-1.41,1.06-2.73s1.28-.79,1.34-1.68a1.38,1.38,0,0,1,.73,1.84,6,6,0,0,1-.47.86c3.46,1.58,1,3.36.17,5.08a11.93,11.93,0,0,0,3.39-1.18c.43-.31-1.08-1.92.15-2.46s.44,1.84,1.77,1.64c.48-.07,1-.75,1.47,0,.07,1.34-1.91,1.68-1.45,3.22,1.88-1.74,2.91.11,3.83,1.11,2.66,2.92-2.39,2-1.95,3.84,1.87.21,1.93.22,1.39,2-1.75,5.64-3.52,11.25-2.58,17.33.21,1.36-.2,1.6-2.35,2.62a.66.66,0,0,0-.31.45c-.34,3.6-5.75,5.64-3,10.19a.72.72,0,0,1-.09.56c-1.19,2-.88,4.29-1.1,6.51a31.52,31.52,0,0,1-2.72,9.57c1.81-.35,2.59.26,2.5,2a20,20,0,0,0,2.09,9.2c2,4.39,3.55,8.69,2.77,13.84s-1.75,9.82-4.59,14c-1.4,2.07-3.17,3.88-4.77,5.81,1.51.49,1.55-.37,2-.77a9.44,9.44,0,0,0,1.63-1.59c6.72-9.07,10.46-18.7,5.31-30-1.55-3.41-2.91-6.87-2.54-10.81a88.08,88.08,0,0,1,1.65-11.06c.46-2,.45-4,3.58-3.18-2.64-3.41.7-4.48,1.79-6.32s2.34-1,2.87.39c1.18,3,2.33,6.05,1.9,9.48-.86,6.77-1.8,13.45-4.42,19.84a14.72,14.72,0,0,0-.21,10.77c.94,2.53.63,5.17.3,7.5-.69,4.84-1.68,9.65-2.27,14.51a26.37,26.37,0,0,0,1.05,11.76c-.52-3.33,2-5.45,2.9-8.23a12,12,0,0,0,.18,4.29c.21-.47.36-1.09.51-1.09,1.31,0,.07,1.67,1.24,1.91a16.77,16.77,0,0,1,3.51-9.09c1.58-2.25,5.57-3.43,7.3-2.48,1.07.59,1.42,1.76,2.2,2.56l7.77,11.62A44.21,44.21,0,0,0,169.52,480c-.3-.74-1.81-2.87,1.1-1.87.79.27.91-.54.72-.72-2.26-2.11-.21-2.95,1.18-3.9-.45-.93-1.34-.6-1.92-1.13-1.12-1-2.89-1.32-2.79-3.37-3.58,0-1.73-2.51-1.73-4.11,0-.86.32-1.72.32-2.57,0-2.07-.09-4,3-2.94.82.3,1.49-.85,2.27-1,1.42-.19,1.53-3.6,3.65-1.63s-.77,2.92-.95,4.44c2.32.35,4.59,3.34,4.5,5.53-.13,3.32-3.4,3.66-5,5.62,1.84-.41,3.44-1.3,5.23-1.34a2.27,2.27,0,0,1,1.71.8c.53.87-.56.63-.87.95s-.72,1.09-.29,1.56c.56.62,1-.07,1.34-.46s.73-.83,1.17-.39c1.15,1.12,1.76.42,2.71-.41a3.47,3.47,0,0,1,2.76-.64c.55.13.87,1.35,1.24,2.11.53,1.07-1.69.34-1,1.72a22.67,22.67,0,0,1,1.76,7.2c.34,3,4.09,6.49-.33,9.45-.43.29-.34,1.44-.47,2.19-.06.32.3.56-.06,1-.83,1-.68,1.36.45,1.38a6.11,6.11,0,0,0,5.4-2.39,33.89,33.89,0,0,1,5.76-6.18c1.88-1.45,2.8-3.88,5.07-4.78,2.58-1,1.4-4.08,3-5.63a5,5,0,0,0,.57-1c.27-.42.75-.92,1.12-.45,1.21,1.55,1.64,0,2.55-.38,1.74-.72,1-2.27,1.43-3.35.86-2.33,3-3.36,4.48-5-1.15.32-2,1.16-3.19,1.05-.7-.06-1.66.21-1.42-1.11.16-.89,0-2.24,1.43-1.87,2,.51,4.25-.7,6.1,1.17,1.35,1.38,3.7,1.52,4.57,3.62,1.26,3,2.14,6.12,1.17,9.47a3.79,3.79,0,0,0,.15,3.27c1.83-4.79,3.29-9.34,1.68-14-1-2.93.39-4.17,2.14-5.82a16.74,16.74,0,0,0,5.33-9.55c-1.83,2.49-2.77,5.62-5.19,7.71-.78.68-1.51,1.44-2.34,2.05a1.74,1.74,0,0,1-2.84-.57c-.75-1.17-1.95-2.12-2.72-3.15a3.65,3.65,0,0,1,.75-4.75c2.49-1.85,2.09-4.75,3-7.14.27-.71-1.78-1.92-.07-2.59s2.85-2.74,5-1.71c1.07.51,1.89,1,3.25,0,1.21-.93,1.73.37,1.87,1.76.29,2.92-1.07,5.63-.81,8.51,1.76-2.26,1.49-5.09,1.66-7.65.15-2.24.59-3,2.85-3.53,4.67-1.1,8.83-3.5,10.91-8.23.88-2,1.67-.11,2.72-.3-1.15-4.12.79-7,3.24-9.8.8-.9,1.41-1.25,2.51-.82.21.09-.14,1.65.62.3.32-.59,1.79-.51,1.12-1.55-.94-1.48-.81-2.6.72-3.26,1.8-.78,1.45,1.48,2.38,2.09.71-1-.35-2.13.6-3.32.55,1.72.15,3.46,1.23,5.47a19.46,19.46,0,0,1-.18-2.08c.05-.81-.59-2,.43-2.31s1.45,1,1.8,1.86.47,1.87,1.55,1.68c1.93-.34,2.94.38,3.27,2.32.07.39.32.93,1.05.62.13-2.34-1-4.42-1.48-6.62-.12-.51-.45-1.87.34-1.45,2.7,1.45,1.06-.85,1.15-1.34.49-2.63-1.2-5.51.83-8s1.3-5.84,2-8.74c.58-2.55,2.05-2.26,3.61-2.47.24,0,.54,1.5.83,0,.15-.81,1.15-1.5.52-2.37-.41-.57-1,0-1.53.17-.86.34-1.57,1.19-2.74,1.06.56-1.36,1.81-1.57,2.82-2.63-1.46-.37-2.52-1.14-2.33-2.6.41-3.24-1.24-6.42-.14-9.71a3.33,3.33,0,0,0-.4-2.75c-1.28-1.33-.75-2.67-.45-4,.39-1.81,1.14-3.55,1.36-5.37.29-2.46,1.22-2,2.75-1.11a23.6,23.6,0,0,1,7.5,7.92,3.24,3.24,0,0,0-.69-3.31c-2-2-2.85-4.72-4.87-6.72a10.37,10.37,0,0,1-2.8-7.39c2.27,1.8,2.24,4.77,4.26,6.78-.22-2.45-1.36-4.11-2.26-5.89-2.39-4.75-4-9.52-.95-14.72,1.34-2.28,2.29-4.8,3.41-7.22a1.14,1.14,0,0,1,1.27.07c2.41,1.89.69,3.93-.05,5.66-.95,2.23-.07,3.71,1.07,5.35A23.16,23.16,0,0,1,290,338.38c1.28.63-.22,2.22,1.35,2.85.05-2.35,2.86-3.84,1.87-6.75-1.35.76-.5,2.76-2.25,2.93a3.87,3.87,0,0,1,1.24-3.43,6.72,6.72,0,0,0,2.59-4.76c1-6.31,1.71-12.46-2.38-18.2-1.81-2.54-2.53-5.86-4-8.65-3.62-6.69-6.3-13.67-7.07-21.34-.37-3.71-.76-7.42-1.18-11.45-1.19,1.14-.38,2.34-1,3.36-1.38-1.77-2.82-3.26-1.25-5.45-2.22-4-1.05-9.12-4.07-12.88-.36-.46-.82-2,.15-1.69,2.21.61.87-.76.69-1.1A46.79,46.79,0,0,1,270,236c-.2-1.47.19-3.37-.58-4.33-2.71-3.4-1.83-7.41-1.85-11.05,0-4.55-1-8.22-4.38-11.15-.79.51.28,1.65-1,2-.26-1.07-.87-2-.32-3.22a3.37,3.37,0,0,0,.07-2.52,16.17,16.17,0,0,0-7.66-9.21c-2.95-1.72-6.73-2-8.7-5.41-.11-.2-.73-.26-1-.15-1.16.44-1.27-.47-1.8-1.14-.8-1-.67-2.71-1.49-3.27-2.17-1.47-2.08-1.36-2.51-2.87-1.82-6.33-2.27-13.29-7.65-18a2.87,2.87,0,0,1-.55-.65c-3-4.78-3.48-10.36-3.51-15.66a83.66,83.66,0,0,1,.57-11.14c.92-7.19-2.21-12.42-7.73-16.48a13.69,13.69,0,0,1-4.38-5.19,37.89,37.89,0,0,1-3.63-16.11c0-7.81-1.16-15.14-6.42-21.29-1-1.23-1.14-3-2.52-4.32-3.06-2.91-5.86-6.14-7.29-10.35s-3.06-8.45-4.57-12.68c-2.24-6.28-4.6-12.51-4.93-19.34a13.07,13.07,0,0,0-.87-5c-1.5-3.29-3.53-6.27-5.05-9.51a69.87,69.87,0,0,0-7.06-12.13,14.49,14.49,0,0,0-2.11.23c2.8,2.1,0,5.35.64,8.49M123.11,280.91c1.79,2.33,3,4.79,1.62,8.25C124.12,286.08,123.61,283.5,123.11,280.91Zm2.5,21a3.58,3.58,0,0,0-1.15,3.59c-2.23-1.82-.25-3.29.23-4.87.11-.35.66-.27,1,0A.85.85,0,0,1,125.61,302Zm8.94,47.71a15.58,15.58,0,0,1-.47-10.6C135.72,342.85,135,346.25,134.55,349.66Zm5.25,9.91c.86-2-4.75-3.15-.4-5.89.17,1.25-.91,2.27.33,3.12C140.77,357.53,140.4,358.57,139.8,359.57ZM151.36,399a21.05,21.05,0,0,1-1.6,3.05c-.59.92.51,2.17-.67,2.89-2.63-3.11-2.27-9.82.86-14.32.93,1.86,1.57,3.56-1,5C152,395.44,152.52,396.29,151.36,399Zm3.15,74.76c-.76-.7.65-1.52-.39-2.16-2,5.13-5.07,9.74-7.5,15.09-1-5.31.52-9.91,1.42-14.56.41-2.15,1.28-4.21,1.14-6.48a2.32,2.32,0,0,1,.71-1.49c.1-.11,1.13.32,1.12.49-.08,3,3.06,3.57,4.08,5.78C155.77,471.87,155.83,472.79,154.51,473.72Zm2.13-46.47c0-1.8-.42-3.28.79-4.55C157.47,424.13,158.84,425.84,156.64,427.25ZM184.31,466l-2.24-4.5C185.62,462.42,185.63,462.45,184.31,466Zm4-11.1c-.16,1.52-.22,3.06-.31,4.58,0,.55.16,1.27-.69,1.27a1.82,1.82,0,0,1-1.25-.44c-1.79-1.91-1.87-6.29,0-8.8-.18,1.77-.33,3.22-.5,4.82,2.26-1.07.84-3.36,1.94-4.72C188.9,452.46,188.4,453.7,188.27,454.9Zm6.2,36.86c-.76.31-1-.37-1.06-.93-.18-.92-.75-2,0-2.75s1,.51,1.51.72c-1.49.56-.12,1,.06,1.51A1,1,0,0,1,194.47,491.76Zm5.52-10.4c.91,4.36-2.1,5.89-5.08,7.44h0l-3.63-15.34c2.7,2.45,3.83,5.47,6.85,6.24.36-.65-.05-1-.42-1.25-2-1.52-3-3.14-.74-5.31a2.34,2.34,0,0,0,.86-2.77c-.55-1.39-.27-3.24,1.17-3.11s3.44,1.36,3.37,3.1c-.15,3.51.31,7.29-2.31,10.28A1,1,0,0,0,200,481.36Zm4.91-1.46a.94.94,0,0,1-1.2.88c-.41-.11-1.1-.24-1-.79.63-3.41,1.35-6.81,2.13-10.64C208,473.36,205.12,476.58,204.9,479.9Zm17.17-340.22a73,73,0,0,1-2-13C223.19,128.73,224.29,135.56,222.07,139.68Zm3.75,4.33c-.34-4,.7-8-.13-12C226.92,136,226.62,140,225.82,144Zm16.24,283.66a41.27,41.27,0,0,1-3.25,7.91C238.38,432,239.4,429.7,242.06,427.67Zm9.73,4.06a12.13,12.13,0,0,1-4.64,7.89,23,23,0,0,1-5,2.58c-1.05.42-2.13,1.2-3.12.51-1.18-.83-.58-2.3-.58-3.51a2.23,2.23,0,0,1,.81-1.78c4-3.06,4.82-8,6.8-12.23.94-2,.75-4.18,1.46-6.81,3.17,4.33,1.6,9,3,13.13.16-.28.39-1,.65-1.05C251.94,430.42,251.89,431.25,251.79,431.73Zm7.43-14.86c-.5,1.14-1.31,1.23-2.15.27.89,3,2.64,6.09-.95,8.63-.54.38-1,.94-1.67.75s-.53-.86-.68-1.4c-.65-2.31-1.84-4.42-1.68-7,.08-1.3,1.48-2.16.81-3.53-2.12.27-1.51-1.78-2.05-2.75-.43-.78-.19-1.94-.3-3.64,1.36,2.32,3.16,3.68,2.33,6.13,1.74.3,2.91,1.51,4.1,2.69-.45-1-1-2-1.35-3.1s.13-1.4,1.09-1.35c-1.21-1.55-2.65-2.86-3.27-4.91a6.23,6.23,0,0,1,1.53-6.49c1.6,3.61,4.38,6.8,2,11,1-1.16,2.06-1.84,3.51-1.15.6.85-2,1.67.33,2.74C261.85,414.21,259.73,415.73,259.22,416.87ZM254.05,199c4.25,1.47,4.6,5.07,5.74,8.14A29.45,29.45,0,0,1,254.05,199ZM266.2,221c-1.21-2.55-2.18-4.46-3-6.44-.25-.6-1.53-1.46-.06-2a1.62,1.62,0,0,1,2.32,1.33C265.81,215.94,266.66,218,266.2,221ZM279.51,366.5a1.58,1.58,0,0,1-1.81-.36c-1.12-1.18-2.3-7.81-1.58-9.67,2.61,2.29,2.56,5.75,3.81,8.57C280.15,365.52,280.26,366.24,279.51,366.5Zm.17-28.29a18.39,18.39,0,0,1,.76-10.08C281.25,331.31,282.35,334.53,279.68,338.21Zm6.78-33.08c.6-.5,1.12,0,1.36.48,1.18,2.33,2.28,4.71,3.41,7.07l-.64.29c-1.37-2.17-3.14-4.06-4-6.56C286.44,306,286,305.52,286.46,305.13Zm1.26,28.77c-1.05.57-1.44,2.45-2.11,3.77-1.8.54-2.79.08-2.16-2,2-6.62,1.37-13.61,2.9-20.3.34-1.49.74-1.6,1.76-.73,2.5,2.12,4.21,4.9,4.09,8.14-.06,1.4,1,2.35.52,3.81C291.77,329.57,290.74,332.25,287.72,333.9Zm1.7,4c-2.21-4,1.46-4.55,2.44-6.39C290.85,333.31,290.41,335.34,289.42,337.92Z"/><path class="cls-3" d="M201.08,388.77c-.51-3.17-.76-6.32-2-9.53a15.4,15.4,0,0,1-.54-2.4,19.82,19.82,0,0,1-.64-4.9,22.76,22.76,0,0,0-.45-4.76,66.41,66.41,0,0,0-1.48-8.54c-.27-.93-1.13-1.83-.76-2.78-.65-.22-.06.69-.63.52-.17-.48.07-.76.23-1.11.3-.65.62-1.36-.56-2-.53-.29-.58-.68-.21-1s.49-.42.28-.75c-.36-.57-.5.22-1-.1a4.2,4.2,0,0,0-.23-3.68c-.1-.24-.09-.56-.36-.67a1.27,1.27,0,0,1-.83-1.68c-.57-.33-.51.37-.9.24-.51-1.32-.65-1.38-1.56-.76-.31.21-.67.35-1.14.6a1.65,1.65,0,0,1,.43-1.17c.17-.28.72-.25.22-1s-.86-.83-1.33-.68a12.47,12.47,0,0,1-4.86.25c-.6-.06-1.31,0-1.5.74-.07.25-.21.28-.41.22a51.4,51.4,0,0,0-6.61-1.49c-.11,0-.22-.1-.38-.38,1.48.11,3,.21,4.45.33a25.94,25.94,0,0,0,7.28-.22c.92-.19,2.05.14,3-.14.47-.14,1.52-.07.15-1-.19-.13-.29-.22,0-.24.65,0,.11-.42,0-.65-.67-1.23-1.86-2.13-2.39-3.47-.18-.45-.81-.6-.94-.49-.61.52-1.7,0-2.23.61a.42.42,0,0,1-.7,0c-.31-.32.38-.33.11-.64-1.24-.55-1.84.42-2.83.48-2.45.14-4.81.59-7.28.65-2.05,0-5.44-3.55-7.57-3.78.79-.8,4.09,2.58,5.14,2.4,2.43-.41,4.33.18,6.86.1,1.56-.05,1.84-1.24,2.44-2.22.11-.18.12-.44.21-.63.89-1.72,0-3.49-2.08-4.32a4.49,4.49,0,0,0-.94-.35,1.42,1.42,0,0,1-1.26-1.53,1,1,0,0,0-.62-1c-.87-.43-.14.36-.26.5s-.31.11-.47-.11-.35-.61-.72-.72c0,.49.57.68.71,1.15-.35.12-.52-.29-.65-.45-1.58-1.95-3.31-2.05-5.08-2-.06,0-.16.07-.18,0-1.55-1.89-3.33-1.15-5-1.79s-3.52-.88-5.25-1.38c-2.82-.81-5.61-1.27-8.42-2.1a33.91,33.91,0,0,0-4.1-1.16c.39-.39.94-.21,1.43-.09q6,1.49,12,3c6.15,1.58,12.29,3,18.43,4.88,2.46.76,3.46.18,4.25-1.73a51.72,51.72,0,0,1,2.78-6.61,7,7,0,0,1,1.41-1.92,2,2,0,0,0,.92-2.12,29.92,29.92,0,0,1,1.41,3,37.13,37.13,0,0,0,3.87,7.68c.5.79,1,2.1,2.21,1.26.3-.21,1.15.34,1.68.76a7.55,7.55,0,0,0,1.81.88c1,.46.69-.26.52-.73-.24-.67-1.89-1.77-2.24-1.43-.61.6-1.33-.23-2-.12.77-.28.86-1,1-1.76.25-1.12,1.31-1.25,2.25-1.29,1.13,0,1.52-.42,1.17-1.76a4.62,4.62,0,0,0-1-2.58,1.08,1.08,0,0,1-.1-1.36,3.37,3.37,0,0,0,.11-2.32c-.63-3.68-1.22-7.36-1.81-11,0-.19-.11-.43.1-.51h0a35.66,35.66,0,0,1,1.19,6c.17,1.1.54,1.65,1.56,1.87a2.33,2.33,0,0,1,.65.38c-.09.3-.32.14-.48.1-1.27-.27-1.47-.08-.64,1.06,1.2,1.64,1.6,3.46,2.51,5.15.27.5.37.83,1,.82s.85.9,1.2,1.44c1.19-.37.94-1.28.23-2.37s-1.06-2.52-1.7-3.75c-.3-.58-.41-1.25-1-1.7-.17-.12-.45-.4-.15-.58s.42,0,.64.22a3.49,3.49,0,0,1,.58,1.33c.67,1.93,1.39,2.75,2.65,3,1,.18,1.49-.61,2.23-1.26,0,.69-.13,1.07-.53,1.26-.18.09-.45.14-.31.47a.6.6,0,0,0,.64.32c.73-.15,1.93.62,2-.94a1.47,1.47,0,0,1,2.07-.88c.55.28.69-.08.92-.3s.35-.71.91-.83c-1.31,2.32-2.61,4.51-4,6.59-.53.78-1,1.59-1.54,2.39a.84.84,0,0,0,0,1c.28.4.54.15.82.11a19,19,0,0,1,2.52-.25,34,34,0,0,0,4.6-.75,22.62,22.62,0,0,1,5.1-.24,6.47,6.47,0,0,0,3.92-1.15,34.74,34.74,0,0,0,4.38-2.92,31.57,31.57,0,0,1-5.35,4,16.17,16.17,0,0,1-3.53,1.89,3.17,3.17,0,0,1-1.93.3c-1-.19-1.63.65-2.48.93-1.1.37-2.07,1-3.12,1.42a15.71,15.71,0,0,0-5.07,2.84c-.18.17-.72.21-.31.76.22.3.53.67.88.32.12-.13.36-.12.47.19a1.76,1.76,0,0,1,.19.73c0,.3-.26.24-.53,0a.51.51,0,0,0-.72,0,.47.47,0,0,0,0,.44.74.74,0,0,0,.77.23c.61-.07,1.25-.16,1.38,1-.36,0-.6-.92-.93-.47s.26.55.52.79a5,5,0,0,0,2.45,1.11c1.58.36,3.15.31,4.76,1v0c-.16.65-.83.49-1.28.5-1.19.05-2.1.34-2.31,1.65,0,.09-.15.14-.24.17-1.32.46-.26,1,.42,1.62-.36.29-1.08.27-.82,1.1,0,.06-.05.13-.07.2-.2.65-1.3-1.57-1.2.1,0,.45-.08.43-1.46-.21a4.73,4.73,0,0,0,1.75,2.14,38.2,38.2,0,0,1,5.18,5.45,3.08,3.08,0,0,0,1.69,1.37c1,.24.26,1.22.85,1.74a20.22,20.22,0,0,1-4.9-5.24c-.47-.63-.9-1.36-1.73-.85-.44.27-.55-.35-.66-.74-.29-1.08-2.69-3-3.54-2.88-.33.05-.17.45-.17.7a27.28,27.28,0,0,0,1.81,7.82c2.38,7,4.2,14.08,6.11,21.13.63,2.31,1.08,4.63,1.93,6.9a8,8,0,0,1-2.51-3.12,1.44,1.44,0,0,1-.17-1.3,5.41,5.41,0,0,0-.13-4.15c-1.21-3.12-1.52-6.28-2.64-9.39-1-2.79-1.56-5.66-2.95-8.36a37.35,37.35,0,0,1-1.77-5.22c-.06-.16-.14-.41-.23-.45a1.3,1.3,0,0,1-.79-2c-1.21.77-1.41,2.05-2.33,2.62-.31.2-.13.9,0,1,.79.42.59,1,.8,1.56s.26.67-.26.63c-.22,0-.23.36-.14.47.6.72.11,1.27.25,1.91s.1,1,.76,1.32c.14.06.73.73.05.84-.47.07-.36.43-.26.82a14.53,14.53,0,0,0,.39,1.61,9.11,9.11,0,0,1,.79,4,2.23,2.23,0,0,0,.55,1.68c.11.13.29.28.18.43-.84,1.09-.41,2.92.21,3.88,1,1.52.44,2.33.51,3.53a231.64,231.64,0,0,1,0,24.15c0,.42.12.93-.23,1.2l-.68-.86c.62-.85.2-2.06.18-3.13,0-4.19.95-8.09-.09-12.56a.58.58,0,0,1,0-.35c.68-1.3.15-2.9-.19-4.44-.07-.33-.35-.83-.14-.95.79-.47-.05-1.65.41-2.24.08-.11-.09-.49-.29-.54-1.38-.38-.75-.82-.39-1.29.15-.19.35-.49.28-.7-.67-1.8-.22-3.39-.49-5.11-.45-2.89-1.77-5.83-1.84-8.72,0-.51-.08-1.43-.64-1.78a2.18,2.18,0,0,1-1-1.77c.24-1.38-1-1.28-1.21-1.2-.9.36-1.57-.46-2.32-.88-.34-.19-.71-1-1-.33-.19.41-.73.74,0,1.55.55.57.13,1.95-.59,1.81-1.65-.32-1.16.8-.92,1.81.16.67.29,1.34.46,2,0,.22,0,.45.29.68.7.57,1.11,1.69.89,2a3.25,3.25,0,0,0-.11,2.36,73,73,0,0,0,1.31,7.22c.48,1.86,0,3.77,1.54,5.62.2.23.12.71-.07.75-.61.14-.4.73-.34,1.16.28,2.09.59,4.18,1,6.29.47,2.65,1,5.31,1.54,8ZM195,351.51c.52-1.33,1-2.35,1.33-3.41.52-1.5,1.3-1.72,2.93-.71,1.09.68,2.17,1.39,3.39,2.17l-.69-4.3a4.47,4.47,0,0,1,2.78-5.35c.43-.19.95-.4.95-.88,0-1.18.8-1.32,1.6-1.53a12.25,12.25,0,0,0,2.12-.7,7.9,7.9,0,0,0,2.91-1.87c-2.11-.4-4.15-.64-6.19-.88a2,2,0,0,1-1.57-.87c-1.36-1.8-1.61-3.82,0-4.57.63-.3.58-.63-.16-1.21-1.4-1.1-1.54-1.55-1.2-3.11,0-.21.25-.45-.06-.65-.73-.44-1.5-1.29-2.22-.87s-1.13-.16-1.44-.83a15.4,15.4,0,0,1-.55-1.57c.06,1.79.28,3.59.42,5.37.18,2.26-.07,2.43-2.15,1.68l-.48-.15c-1.51-.4-1.81-.21-2,1.27a2.51,2.51,0,0,1-3.77,2c-1.91-.84-3.84-1.47-5.76-2.11-1.37-.45-1.42-.33-1.16,1.18s1.19,2.81,1.5,4.2a2.34,2.34,0,0,0,1.77,2,4.74,4.74,0,0,1,3.06,2.48c.79,1.54,3,2.78,2.05,4.73,0,.05,0,.16.06.24A81.88,81.88,0,0,0,195,351.51Zm-7.38-31.64c1.39-.36.69-1.49.3-2.42-.7-1.67-1.17-1.83-2-.74a4.25,4.25,0,0,1-.46.57c-2.09,1.85-2.77,4.73-3.63,7.48-.12.4,0,1.06.34,1.12a16.31,16.31,0,0,1,3.62,1.19c.23.1.54,0,.82.29,1.23,1.32,2.33.67,3.47.72.17,0,.17-.2.1-.38s-.3-.49-.45-.41c-.89.48-1.3-.8-2-1,.32-.76.93-.66,1.58-.44.29.1.44,0,.51-.23s-.16-.34-.34-.38-.66-.06-.57-.46.46-.27.79-.08.64.68,1.08.6A7.63,7.63,0,0,0,189.2,322a.58.58,0,0,1-.07-.34C189.31,320.48,188.76,320,187.6,319.87Zm15-4.91c.53,1,.93,1.91,1.46,2.74,1.27,2,2,2.09,2.85.46.32-.64.14-1-.59-1.49A11.39,11.39,0,0,0,202.59,315Zm5.83,10c.14-.31.48-.45.41-.88a.41.41,0,0,0-.45-.34,6.31,6.31,0,0,0-2.55.16c-.72.3.14,1.16.11,1.73a1,1,0,0,1,0,.35c-.25.47.22.86.49,1a.5.5,0,0,0,.81-.4C207.32,325.79,207.57,325.11,208.42,325Zm-7.91-4.78c-.33-.59-.72-1-.53-1.21.68-.77,0-1.7-.38-2.52-.43-1-1.22-2-1.72-3C198.3,315.7,198,318,200.51,320.21Zm-21.12,15.23a10.47,10.47,0,0,0,2.38-.18c.64-.06.54-.52.29-.94A8.36,8.36,0,0,0,181,333c-.37-.4-.64-.34-.77.08C179.93,333.82,179.67,334.6,179.39,335.44Zm32-11.94c1.18.41,2.28.87,3.31.4.68-.31,1-1.24,1.94-1.07,0,0,.12-.2.09-.28a.39.39,0,0,0-.5-.25C214.61,322.77,213,323.1,211.36,323.5Zm-35.08,3.07a10.45,10.45,0,0,0,2.4,2.09c.9.49,1.12.26.88-.73a1.51,1.51,0,0,0-.81-1A4.08,4.08,0,0,0,176.28,326.57Zm6.09,5a3.1,3.1,0,0,1,.35,1.51c-.07.38.37,1,.62,1.54.15.32.4.29.61.26s.19-.25.12-.46A6.77,6.77,0,0,0,182.37,331.61Zm12.92-7.88a4.05,4.05,0,0,0,1.62.64c.35.13.65,0,.55-.4s-.5-.65-.74-.52S195.76,323.42,195.29,323.73Z"/><path class="cls-4" d="M166.39,337.5c-1.51.73-3.33.87-4.8,1.68l-.17-.22A6.89,6.89,0,0,1,166.39,337.5Z"/><path class="cls-4" d="M224.51,336.91l8.67,1.85,0,.35c-2.86-.13-5.78-1.19-8.69-1.88Z"/><path class="cls-4" d="M185.67,300.21c1.11.62,2.26,1,2.34,2.62a38.34,38.34,0,0,0,.75,4.32C187.39,304.65,188,302.08,185.67,300.21Z"/><path class="cls-4" d="M195.5,302c-.83-1.42-.76-2.83-1.08-4.25-.13-.6,0-1.22-.72-1.74a.69.69,0,0,1-.18-.91c.33-.38.17-.94.27-1.43a55.26,55.26,0,0,1,1.68,8.32Z"/><path class="cls-4" d="M214.91,335.11a38.68,38.68,0,0,1,6.22,1.14c-.56.66-1.34.22-1.87.05a19.47,19.47,0,0,0-3.6-.64.91.91,0,0,1-.75-.59Z"/><path class="cls-4" d="M178.91,298.36a9.38,9.38,0,0,1,1.13,2.87c0,.23.25.57-.12.51s-.81-.23-.69-.6C179.51,300.24,179,299.28,178.91,298.36Z"/><path class="cls-4" d="M178.64,297.38a5.17,5.17,0,0,1-.33-3.86A26.94,26.94,0,0,0,178.64,297.38Z"/><path class="cls-4" d="M181.72,281.61c-.07,1.41-.07,1.41-1,1.69A1.87,1.87,0,0,1,181.72,281.61Z"/><path class="cls-4" d="M166.7,293.85h2.39C168.33,294.67,167.54,294.45,166.7,293.85Z"/></svg>