<?xml version="1.0" encoding="utf-8"?>
<!-- Generator: Adobe Illustrator 23.0.0, SVG Export Plug-In . SVG Version: 6.00 Build 0)  -->
<svg version="1.1" id="Laag_1" xmlns="http://www.w3.org/2000/svg" xmlns:xlink="http://www.w3.org/1999/xlink" x="0px" y="0px"
	 viewBox="0 0 841.89 595.28" style="enable-background:new 0 0 841.89 595.28;" xml:space="preserve">
<g>
	<path d="M356.6,365.68c-7-4.65-8.99-11.32-8.94-19.47c0.22-36.73,0.09-73.47,0.09-110.2c0-2.63,0-5.26,0-8.63
		c-11.39,0-22.1-0.18-32.8,0.07c-5.91,0.14-8.64-2.05-8.38-8.13c0.26-6.11-0.13-12.25,0.14-18.36c0.6-13.33,10.16-23.33,23.47-23.44
		c35.75-0.31,71.51-0.29,107.26-0.04c12.11,0.08,19.04,7.32,19.08,19.54c0.15,50.69,0.03,101.39,0.09,152.08
		c0.01,7.2-3.18,12.49-8.8,16.6c-2.45,0-4.9,0-7.36,0c-5.64-6.26-11.93-12.05-16.76-18.88c-7.54-10.67-14.09-22.04-21.59-33.96
		c-8.14,12.92-15.18,24.94-23.11,36.34c-4.22,6.06-9.98,11.04-15.05,16.5C361.51,365.68,359.05,365.68,356.6,365.68z M354.04,186.39
		c0.86,9.54,2.33,18.61,2.38,27.7c0.25,44.38,0.05,88.75,0.25,133.13c0.01,3.02,2.03,6.02,3.12,9.03c2.64-1.9,5.45-3.61,7.86-5.77
		c1.41-1.26,2.19-3.22,3.24-4.87c7.86-12.42,15.7-24.85,23.56-37.27c6.92-10.93,8.5-10.96,15.2-0.31
		c8.48,13.48,16.91,26.99,25.47,40.42c1.56,2.45,3.28,5.17,5.64,6.57c1.32,0.79,4.82-0.24,6.02-1.61c1.18-1.35,0.92-4.16,0.92-6.33
		c0.04-49.28,0.05-98.56,0.02-147.84c-0.01-10.21-2.89-13.08-13.13-13.09c-25.5-0.04-51-0.02-76.49,0
		C356.23,186.15,354.37,186.37,354.04,186.39z M348.15,218.13c-0.46-7.44-0.22-14.1-1.43-20.49c-1.38-7.29-8.13-11.61-15.81-11.48
		c-7.5,0.13-14.05,5.04-14.96,12.51c-0.78,6.37-0.16,12.92-0.16,19.46C326.63,218.13,336.79,218.13,348.15,218.13z"/>
</g>
</svg>
