<?xml version="1.0" encoding="utf-8"?>
<!-- Generator: Adobe Illustrator 23.0.0, SVG Export Plug-In . SVG Version: 6.00 Build 0)  -->
<svg version="1.1" id="Laag_1" xmlns="http://www.w3.org/2000/svg" xmlns:xlink="http://www.w3.org/1999/xlink" x="0px" y="0px"
	 viewBox="0 0 154 153.7" style="enable-background:new 0 0 154 153.7;" xml:space="preserve">
<style type="text/css">
	.st0{fill:#E68C3B;}
	.st1{fill:#FEFEFD;}
</style>
<title>iconEen1</title>
<g>
	<path class="st0" d="M72.6,1c0.4,0,0.7,0,1.1,0c2.1,0.3,4.2,0.3,6.3,0c0.4,0,0.7,0,1.1,0c0.2,0.5,0.7,0.3,1.1,0.3
		c2.3,0.3,4.7,0.4,7,0.8c30.9,5.3,54.9,28.7,61.1,59.5c0.5,2.3,0.5,4.7,1.3,7c0,4.9,0,9.9,0,14.8c-0.5,0.3-0.3,0.8-0.4,1.3
		c-2.3,17.7-9.6,32.9-22.6,45.2c-19,17.8-41.6,24.4-67.1,19.2c-39.8-8.1-65.2-46-58.3-86C8.5,31.5,34.1,6.6,65.7,2
		C68,1.7,70.4,1.8,72.6,1z M81,76.2c0-6.6,0-13.3,0-19.9c0-1.1-0.3-1.5-1.5-1.5c-2.4-0.1-4.6,0.2-6.7,1.6c-1,0.7-2.2,1.1-3.2,1.8
		c-3.3,1.9-3.1,0.8-2.1,4.9c0.2,1,0.5,1.1,1.4,0.7c1.6-0.9,3.2-1.7,4.8-2.6c1.4-0.9,1.7-0.5,1.7,1c0,10.4,0,20.8,0,31.2
		c0,3.9,0,3.8,3.8,3.9c1.7,0.1,1.9-0.5,1.9-2C81,88.9,81,82.5,81,76.2z"/>
	<path class="st1" d="M80,1c-2.1,0.3-4.2,0.3-6.3,0C75.8,1,77.9,1,80,1z"/>
	<path class="st1" d="M81,76.2c0,6.3,0,12.7,0,19c0,1.5-0.2,2-1.9,2c-3.8-0.1-3.8,0-3.8-3.9c0-10.4,0-20.8,0-31.2
		c0-1.5-0.2-1.9-1.7-1c-1.5,1-3.2,1.7-4.8,2.6c-0.9,0.5-1.2,0.3-1.4-0.7c-1-4.1-1.2-3,2.1-4.9c1.1-0.6,2.2-1.1,3.2-1.8
		c2-1.4,4.3-1.7,6.7-1.6c1.1,0,1.5,0.4,1.5,1.5C81,62.9,81,69.6,81,76.2z"/>
</g>
</svg>
