<!-- Generated by IcoMoon.io -->
<svg version="1.1" xmlns="http://www.w3.org/2000/svg" width="18" height="32" viewBox="0 0 18 32">
<title>1</title>
<rect fill="#fff" x="0" y="0" width="18" height="32"></rect>
<path d="M10.195 1.679c-0.006 0.009-0.077 0.067-0.115 0.104-0.090 0.088-0.332 0.096-0.368 0.109-0.058 0.022-0.34-0.082-0.368-0.015-0.309 0.535 0.055 0.457-0.207 1.024-0.035 0.203-0.067 0.406-0.101 0.609-0.013 0.084-0.028 0.167-0.042 0.251 0.002 0.004 0.003 0.009 0.004 0.013l0 0.001c0.057 0.373-0.082 0.771-0.241 1.138-0.081 0.332-0.173 0.66-0.282 0.981-0.124 0.379-0.28 0.708-0.473 1.012l0.011-0.018c-0.211 0.327-0.414 0.681-0.688 0.96-0.059 0.059-0.121 0.114-0.186 0.165l-0.004 0.003c-0.066 0.109-0.135 0.216-0.21 0.319-0.306 0.429-0.683 0.83-0.946 1.293-0.047 0.471-0.145 0.939-0.234 1.41q0.018 0.093 0.037 0.189c0.010 0.053 0.020 0.107 0.028 0.16 0.074-0.058 0.175-0.070 0.255-0.116 0.061-0.034 0.098 0.029 0.102 0.084 0.010 0.152 0.053 0.298 0.051 0.455 0 0.306 0.012 0.613 0.161 0.895 0.077-0.038 0.086-0.17 0.191-0.097 0.036 0.025 0.080 0.040 0.128 0.040 0.040 0 0.078-0.011 0.11-0.029l-0.001 0.001c0.038 0.093-0.068 0.16-0.021 0.245 0.069-0.021 0.058-0.105 0.111-0.129 0.052 0.039 0 0.115 0.069 0.164-0.009-0.028-0.014-0.060-0.014-0.093 0-0.107 0.054-0.202 0.136-0.258l0.001-0.001c0.037-0.027 0.055-0.123 0.112-0.074 0.040 0.034 0.107 0.075 0.096 0.156-0.016 0.129 0.013 0.257 0.004 0.388s-0.036 0.202-0.203 0.184c0.154 0.074 0.113 0.143 0.022 0.184-0.295 0.132-0.403 0.391-0.474 0.686-0.036 0.149-0.083 0.292-0.010 0.463 0.013-0.048 0.022-0.078 0.031-0.109 0.075 0.040 0.056 0.128 0.117 0.199-0.012-0.105-0.024-0.189-0.030-0.273-0.012-0.197-0.061-0.402 0.132-0.552 0.061-0.047 0.129-0.084 0.188-0.057 0.070 0.031 0.017 0.112 0.017 0.172 0 0.18-0.094 0.329-0.146 0.49-0.061 0.192 0.101 0.411-0.065 0.616-0.034 0.042 0.11 0.207 0.132 0.34 0.011 0.065 0.15 0.102 0.113 0.195s-0.135 0.093-0.221 0.105c-0.088 0.013-0.162 0.029-0.235 0.048l0.015-0.003c-0.070 0.017-0.070 0.020-0.123 0.123 0.112-0.046 0.241-0.072 0.377-0.072 0.015 0 0.030 0 0.045 0.001l-0.002-0c-0.116 0.205-0.287 0.343-0.373 0.555-0.076 0.189-0.196 0.356-0.188 0.574 0 0.005 0.001 0.011 0.001 0.017 0 0.050-0.015 0.096-0.041 0.134l0.001-0.001c-0.135 0.195-0.095 0.437-0.199 0.663 0.108-0.026 0.065-0.13 0.137-0.139s0.042 0.091 0.085 0.104c0.051-0.061-0.028-0.127 0.024-0.192 0.085 0.055 0.095 0.123 0.061 0.214-0.053 0.144-0.099 0.286-0.011 0.441 0.038 0.067 0.026 0.184-0.034 0.211-0.145 0.061-0.227 0.18-0.321 0.291-0.015 0.018-0.077 0.027-0.044 0.048 0.094 0.061 0.039 0.165 0.086 0.245 0.061 0.107 0.090 0.245-0.077 0.319-0.041 0.018-0.055 0.053-0.033 0.109 0.089-0.086 0.191-0.054 0.306-0.072-0.022 0.036-0.034 0.080-0.034 0.126 0 0.044 0.011 0.084 0.031 0.12l-0.001-0.001c0.104 0.205-0.112 0.343-0.096 0.526 0 0.009-0.024 0.024-0.040 0.031-0.039 0.019-0.065 0.059-0.065 0.104 0 0.010 0.001 0.020 0.004 0.030l-0-0.001c0.014 0.128-0.061 0.216-0.132 0.295-0.069 0.074-0.126 0.162-0.164 0.259l-0.002 0.006c-0.025 0.091-0.107 0.157-0.204 0.157-0.012 0-0.024-0.001-0.036-0.003l0.001 0c-0.067-0.005-0.144-0.007-0.223-0.007-0.292 0-0.576 0.036-0.847 0.103l0.024-0.005c-0.123 0.030-0.245 0.065-0.368 0.083-0.623 0.089-1.251 0.117-1.877 0.166-0.122 0.011-0.263 0.018-0.406 0.018s-0.284-0.006-0.424-0.019l0.018 0.001c-0.371-0.035-0.744-0.069-1.135-0.104 0.052 0.041 0.117 0.068 0.188 0.074l0.001 0c0.43 0.094 0.927 0.152 1.437 0.163l0.008 0c0.029 0 0.063 0 0.097 0 0.969 0 1.916-0.098 2.83-0.284l-0.091 0.015c0.314-0.061 0.639-0.215 0.957 0 0.009 0.006 0.035-0.004 0.047-0.013 0.093-0.073 0.194-0.009 0.284-0.022 0.114-0.016 0.145 0.118 0.223 0.1 0.184-0.044 0.173 0.084 0.193 0.2 0.061 0.357 0.123 0.712 0.325 1.027 0.103 0.158 0.211 0.324 0.245 0.522 0.004 0.018 0.006 0.038 0.006 0.058 0 0.123-0.084 0.227-0.198 0.257l-0.002 0c-0.113 0.035-0.189 0.127-0.141 0.233 0.021 0.050 0.033 0.107 0.033 0.167 0 0.050-0.008 0.097-0.023 0.142l0.001-0.003c0.065-0.009 0.096-0.097 0.147-0.055s-0.007 0.096-0.028 0.141-0.047 0.081-0.067 0.123c-0.055 0.109-0.164 0.184-0.21 0.322 0.114-0.083 0.206-0.19 0.267-0.315l0.002-0.005c0.061-0.113 0.11-0.245 0.219-0.327 0.036-0.049 0.102-0.083 0.071-0.165s0.080-0.045 0.085-0.1c0.030 0.014 0.050 0.043 0.050 0.077 0 0.014-0.003 0.026-0.009 0.038l0-0c-0.010 0.020-0.020 0.037-0.032 0.053l0.001-0.001c0.208 0.104 0.053 0.207 0 0.311 0.079-0.011 0.15-0.034 0.215-0.066l-0.004 0.002c0.027-0.018-0.061-0.119 0.014-0.15s0.023 0.114 0.105 0.105c0.029-0.004 0.061-0.044 0.090 0 0 0.082-0.123 0.099-0.097 0.194 0.123-0.102 0.178 0.013 0.232 0.077 0.157 0.184-0.15 0.115-0.127 0.231 0.115 0.017 0.118 0.018 0.081 0.123-0.123 0.341-0.24 0.681-0.196 1.055 0.010 0.084-0.015 0.097-0.15 0.155-0.010 0.006-0.018 0.015-0.020 0.027l-0 0c-0.029 0.219-0.368 0.332-0.206 0.618 0.001 0.003 0.001 0.006 0.001 0.009 0 0.009-0.003 0.018-0.008 0.024l0-0c-0.077 0.123-0.061 0.261-0.082 0.396-0.034 0.217-0.1 0.412-0.193 0.59l0.005-0.011c0.112-0.017 0.158 0.022 0.149 0.129-0.001 0.018-0.002 0.039-0.002 0.061 0 0.184 0.040 0.358 0.112 0.515l-0.003-0.008c0.11 0.273 0.199 0.54 0.139 0.854s-0.129 0.597-0.312 0.847c-0.090 0.123-0.202 0.23-0.306 0.345 0.091 0.034 0.096-0.019 0.123-0.043 0.039-0.028 0.073-0.058 0.103-0.093l0.001-0.001c0.429-0.54 0.681-1.122 0.391-1.825-0.088-0.213-0.164-0.429-0.132-0.668 0.030-0.259 0.074-0.488 0.131-0.711l-0.008 0.037c0.032-0.123 0.036-0.245 0.226-0.184-0.154-0.215 0.053-0.273 0.123-0.384s0.145-0.053 0.175 0.031c0.066 0.188 0.129 0.376 0.095 0.585-0.067 0.412-0.139 0.82-0.314 1.205-0.052 0.11-0.082 0.24-0.082 0.376 0 0.101 0.017 0.198 0.047 0.289l-0.002-0.006c0.052 0.157 0.027 0.318 0 0.461-0.053 0.294-0.123 0.587-0.17 0.883-0.015 0.084-0.024 0.18-0.024 0.279 0 0.158 0.023 0.311 0.065 0.456l-0.003-0.011c-0.024-0.205 0.135-0.329 0.196-0.498-0.007 0.040-0.012 0.085-0.012 0.131s0.004 0.092 0.012 0.136l-0.001-0.005c0.014-0.028 0.024-0.066 0.034-0.065 0.080 0 0 0.102 0.071 0.123 0.023-0.212 0.108-0.402 0.237-0.553l-0.001 0.002c0.102-0.134 0.349-0.197 0.452-0.135 0.064 0.039 0.083 0.111 0.129 0.162l0.45 0.73c-0.025-0.248-0.079-0.475-0.16-0.69l0.006 0.019c-0.017-0.046-0.104-0.18 0.072-0.112 0.048 0.019 0.057-0.031 0.046-0.042-0.134-0.135-0.006-0.184 0.081-0.237-0.026-0.061-0.081-0.040-0.116-0.074-0.066-0.061-0.174-0.088-0.163-0.213-0.219-0.010-0.101-0.157-0.097-0.256 0-0.053 0.023-0.104 0.025-0.157 0.004-0.126 0.003-0.245 0.188-0.173 0.050 0.020 0.094-0.049 0.141-0.053 0.088-0.008 0.102-0.217 0.227-0.091s-0.053 0.177-0.067 0.27c0.141 0.026 0.273 0.215 0.264 0.349-0.016 0.203-0.217 0.216-0.318 0.333 0.113-0.021 0.213-0.072 0.323-0.070 0.042 0.002 0.079 0.022 0.103 0.052l0 0c0.031 0.055-0.036 0.037-0.055 0.056s-0.047 0.064-0.021 0.094 0.061 0 0.083-0.024 0.046-0.050 0.072-0.021c0.068 0.071 0.107 0.030 0.167-0.019 0.034-0.024 0.076-0.038 0.121-0.038 0.017 0 0.034 0.002 0.050 0.006l-0.001-0c0.033 0.009 0.050 0.085 0.072 0.132 0.030 0.067-0.104 0.017-0.066 0.104 0.052 0.131 0.085 0.283 0.091 0.442l0 0.003c0.015 0.184 0.237 0.407-0.040 0.578-0.028 0.017-0.024 0.088-0.034 0.134-0.004 0.020 0.017 0.035-0.006 0.061-0.053 0.061-0.045 0.082 0.024 0.086 0.014 0.002 0.030 0.003 0.046 0.003 0.116 0 0.22-0.053 0.289-0.136l0.001-0.001c0.108-0.139 0.229-0.259 0.363-0.364l0.005-0.003c0.118-0.084 0.18-0.231 0.321-0.281 0.161-0.056 0.095-0.245 0.196-0.338 0.014-0.018 0.026-0.038 0.037-0.059l0.001-0.002c0.017-0.026 0.048-0.055 0.069-0.025 0.071 0.098 0.101 0.004 0.158-0.017 0.108-0.040 0.067-0.137 0.094-0.202 0.058-0.14 0.189-0.199 0.286-0.297-0.071 0.017-0.126 0.066-0.198 0.057-0.042-0.006-0.102 0.009-0.085-0.072 0.012-0.054 0.004-0.137 0.092-0.112 0.123 0.036 0.262-0.033 0.371 0.086 0.080 0.088 0.223 0.102 0.272 0.232 0.070 0.189 0.118 0.38 0.051 0.583-0.014 0.029-0.023 0.064-0.023 0.101s0.008 0.071 0.023 0.102l-0.001-0.001c0.123-0.289 0.222-0.564 0.134-0.855-0.055-0.184 0.032-0.254 0.144-0.351 0.172-0.144 0.296-0.341 0.346-0.566l0.001-0.007c-0.118 0.148-0.184 0.338-0.335 0.46-0.050 0.040-0.096 0.085-0.148 0.123-0.019 0.018-0.044 0.029-0.073 0.029-0.046 0-0.084-0.029-0.099-0.069l-0-0.001c-0.043-0.074-0.115-0.135-0.159-0.2-0.019-0.032-0.031-0.071-0.031-0.113 0-0.072 0.034-0.135 0.086-0.176l0.001-0c0.156-0.107 0.139-0.286 0.199-0.429 0.018-0.042-0.105-0.123 0-0.159s0.184-0.161 0.311-0.093c0.065 0.034 0.114 0.067 0.199 0.006s0.105 0.027 0.111 0.112c0.012 0.18-0.078 0.343-0.069 0.52 0.113-0.135 0.103-0.306 0.119-0.465 0.014-0.137 0.042-0.184 0.184-0.21 0.288-0.057 0.548-0.194 0.686-0.479 0.058-0.123 0.102-0.003 0.167-0.012-0.061-0.254 0.061-0.429 0.22-0.593 0.051-0.053 0.089-0.074 0.156-0.044 0.013 0.006-0.012 0.101 0.037 0.020 0.021-0.035 0.111-0.027 0.073-0.093-0.055-0.093-0.045-0.161 0.051-0.198 0.112-0.043 0.085 0.094 0.141 0.134 0.046-0.058-0.017-0.131 0.044-0.202 0.030 0.107 0 0.212 0.061 0.337-0.004-0.035-0.007-0.075-0.007-0.116 0-0.004 0-0.008 0-0.012v0.001c0.005-0.050-0.032-0.126 0.031-0.14s0.087 0.066 0.107 0.118 0.024 0.116 0.091 0.107c0.119-0.017 0.179 0.029 0.195 0.15 0 0.024 0.017 0.057 0.061 0.040 0.013-0.143-0.048-0.273-0.076-0.409-0.006-0.031-0.023-0.115 0.024-0.088 0.162 0.095 0.067-0.050 0.074-0.080 0.036-0.159-0.061-0.34 0.068-0.485s0.093-0.355 0.139-0.531c0.042-0.155 0.131-0.134 0.227-0.143 0.015 0 0.029 0.093 0.051 0 0.011-0.049 0.074-0.089 0.037-0.144-0.024-0.036-0.061-0.005-0.094 0.007-0.053 0.019-0.099 0.069-0.17 0.061 0.037-0.082 0.114-0.092 0.178-0.155-0.088-0.026-0.151-0.075-0.137-0.164 0.032-0.198-0.061-0.397 0.013-0.595 0.007-0.019 0.011-0.041 0.011-0.065 0-0.039-0.011-0.075-0.029-0.105l0.001 0.001c-0.075-0.085-0.040-0.165-0.019-0.245 0.028-0.11 0.078-0.215 0.095-0.326 0.023-0.15 0.080-0.123 0.172-0.061 0.183 0.132 0.332 0.3 0.437 0.495l0.004 0.008c0.009-0.022 0.014-0.047 0.014-0.074 0-0.050-0.018-0.096-0.049-0.13l0 0c-0.116-0.123-0.165-0.296-0.284-0.424-0.097-0.11-0.157-0.256-0.157-0.415 0-0.015 0.001-0.031 0.002-0.046l-0 0.002c0.135 0.116 0.127 0.297 0.245 0.425-0.009-0.15-0.075-0.255-0.126-0.368-0.136-0.297-0.224-0.592-0.026-0.903 0.087-0.137 0.151-0.289 0.225-0.435 0.010-0.005 0.021-0.009 0.034-0.009 0.017 0 0.032 0.006 0.044 0.016l-0-0c0.143 0.123 0.034 0.245-0.015 0.347-0.061 0.134-0.013 0.227 0.054 0.33 0.001-0.231 0.058-0.449 0.157-0.642l-0.004 0.008c0.077 0.042-0.018 0.135 0.076 0.178 0.009-0.144 0.184-0.228 0.13-0.409-0.085 0.044-0.037 0.168-0.145 0.174-0.001-0.008-0.001-0.016-0.001-0.025 0-0.073 0.033-0.138 0.084-0.182l0-0c0.092-0.066 0.155-0.167 0.169-0.284l0-0.002c0.074-0.384 0.132-0.759-0.105-1.12-0.105-0.159-0.142-0.364-0.229-0.539-0.207-0.418-0.356-0.851-0.386-1.323-0.014-0.229-0.031-0.457-0.047-0.704-0.075 0.067-0.028 0.142-0.069 0.203-0.080-0.112-0.165-0.207-0.065-0.337-0.127-0.25-0.044-0.561-0.221-0.797-0.021-0.029-0.046-0.123 0.013-0.104 0.134 0.043 0.055-0.044 0.045-0.066-0.134-0.287-0.224-0.62-0.25-0.971l-0.001-0.010c-0.009-0.090 0.019-0.206-0.026-0.267-0.159-0.214-0.096-0.458-0.089-0.681 0.009-0.279-0.043-0.506-0.245-0.693-0.050 0.029 0.013 0.102-0.069 0.123-0.014-0.066-0.049-0.123-0.013-0.198 0.013-0.026 0.020-0.057 0.020-0.090 0-0.023-0.004-0.045-0.010-0.066l0 0.001c-0.073-0.249-0.233-0.452-0.445-0.579l-0.005-0.002c-0.177-0.113-0.408-0.138-0.521-0.352-0.007-0.012-0.044-0.018-0.061-0.012-0.072 0.024-0.077-0.031-0.107-0.074-0.047-0.065-0.036-0.167-0.085-0.203-0.13-0.095-0.123-0.088-0.147-0.184-0.097-0.392-0.11-0.819-0.429-1.123-0.012-0.012-0.023-0.025-0.031-0.040l-0.001-0.001c-0.173-0.3-0.191-0.643-0.184-0.968 0.006-0.245 0.028-0.48 0.065-0.71l-0.004 0.030c0.072-0.438-0.108-0.766-0.438-1.027-0.11-0.086-0.198-0.196-0.255-0.323l-0.002-0.005c-0.119-0.27-0.188-0.584-0.188-0.914 0-0.028 0.001-0.057 0.002-0.085l-0 0.004c0.016-0.478-0.037-0.93-0.346-1.318-0.061-0.078-0.061-0.188-0.145-0.271-0.184-0.184-0.345-0.39-0.424-0.651s-0.169-0.524-0.252-0.787c-0.123-0.39-0.255-0.777-0.26-1.196 0.001-0.015 0.002-0.032 0.002-0.049 0-0.093-0.016-0.183-0.046-0.266l0.002 0.006c-0.085-0.205-0.202-0.392-0.288-0.594-0.115-0.268 0.044-0.475-0.119-0.71-0.035-0.074-0.079-0.137-0.132-0.192l0 0c0.030 0.158-0.051 0.423-0.018 0.617M6.491 17.752c0.105 0.147 0.171 0.3 0.081 0.509-0.014-0.192-0.041-0.351-0.066-0.511zM6.597 19.047c-0.051 0.041-0.083 0.103-0.083 0.172 0 0.016 0.002 0.031 0.005 0.046l-0-0.001c-0.132-0.116-0.008-0.202 0.025-0.297 0.008-0.021 0.041-0.015 0.061 0.004 0.012 0.009 0.020 0.024 0.020 0.041 0 0.013-0.005 0.025-0.013 0.034l0-0zM7.041 21.988c-0.038-0.099-0.060-0.213-0.060-0.332 0-0.114 0.020-0.223 0.056-0.324l-0.002 0.007c0.107 0.234 0.057 0.441 0.020 0.648zM7.354 22.607c0.057-0.119-0.284-0.204-0.012-0.362 0.008 0.077-0.061 0.137 0.013 0.192 0.063 0.047 0.038 0.11-0.002 0.17zM7.976 25.046c-0.034 0.071-0.069 0.131-0.108 0.189l0.003-0.005c-0.038 0.055 0.026 0.134-0.047 0.175-0.154-0.196-0.118-0.607 0.084-0.875 0.053 0.115 0.089 0.221-0.069 0.302 0.185-0.001 0.215 0.050 0.138 0.214zM8.005 29.631c-0.045-0.045 0.043-0.092-0.019-0.133-0.135 0.309-0.332 0.584-0.49 0.906-0.047-0.327 0.053-0.605 0.118-0.888 0.030-0.131 0.088-0.255 0.084-0.395 0.005-0.036 0.022-0.067 0.047-0.089l0-0c0.006-0.007 0.068 0.023 0.067 0.032-0.012 0.184 0.18 0.226 0.237 0.364 0.037 0.092 0.041 0.148-0.043 0.202zM8.237 26.79c0-0.11-0.018-0.202 0.061-0.277-0.004 0.088 0.077 0.196-0.061 0.277zM9.846 29.227c-0.048-0.106-0.085-0.189-0.127-0.281 0.216 0.064 0.217 0.066 0.127 0.281zM10.112 28.559c-0.013 0.093-0.020 0.184-0.029 0.279-0.003 0.034 0.007 0.078-0.045 0.076 0 0-0 0-0 0-0.029 0-0.056-0.011-0.076-0.029l0 0c-0.105-0.123-0.101-0.39 0.019-0.539-0.015 0.108-0.027 0.197-0.041 0.294 0.141-0.061 0.061-0.204 0.129-0.284 0.088 0.053 0.055 0.127 0.042 0.203zM10.413 30.827c-0.047 0.018-0.058-0.024-0.061-0.061-0.009-0.057-0.042-0.123 0.005-0.169s0.058 0.034 0.091 0.048c-0.093 0.031-0.010 0.061 0 0.093 0.005 0.009 0.009 0.020 0.009 0.032 0 0.027-0.018 0.050-0.043 0.058l-0 0zM10.774 30.203c0.046 0.268-0.142 0.355-0.328 0.444v0c-0.061-0.3-0.12-0.6-0.189-0.948 0.161 0.156 0.223 0.344 0.406 0.398 0.024-0.039 0-0.061-0.022-0.078-0.117-0.097-0.18-0.199-0.034-0.327 0.041-0.026 0.069-0.071 0.069-0.122 0-0.016-0.003-0.032-0.008-0.047l0 0.001c-0.030-0.086-0.010-0.199 0.078-0.188s0.208 0.091 0.2 0.198c-0.017 0.215 0.003 0.447-0.164 0.624-0.006 0.009-0.009 0.021-0.009 0.033 0 0.005 0.001 0.009 0.002 0.014l-0-0zM11.078 30.125c-0.001 0.030-0.026 0.054-0.057 0.054-0.006 0-0.012-0.001-0.018-0.003l0 0c-0.025-0.008-0.067-0.017-0.061-0.051 0.047-0.208 0.098-0.414 0.154-0.647 0.186 0.254 0.004 0.445-0.018 0.647zM12.876 9.329c-0.053-0.235-0.088-0.509-0.097-0.79l-0-0.007c0.189 0.129 0.242 0.55 0.097 0.797zM13.097 9.603c-0.012-0.245 0.061-0.49 0.018-0.735 0.066 0.248 0.039 0.492-0.018 0.735zM13.468 27.013c-0.062 0.183-0.135 0.341-0.223 0.488l0.006-0.012c-0.018-0.222 0.047-0.359 0.216-0.477zM14.055 27.284c-0.037 0.196-0.147 0.362-0.299 0.471l-0.002 0.002c-0.090 0.057-0.193 0.107-0.302 0.144l-0.010 0.003c-0.065 0.023-0.133 0.069-0.192 0.024-0.070-0.053-0.031-0.142-0.028-0.216 0-0.044 0.021-0.082 0.054-0.107l0-0c0.254-0.178 0.313-0.477 0.443-0.735 0.061-0.123 0.055-0.254 0.104-0.414 0.184 0.272 0.078 0.552 0.153 0.811 0.010-0.017 0.026-0.061 0.042-0.061 0.048-0.001 0.043 0.050 0.037 0.079zM14.546 26.391c-0.033 0.069-0.083 0.072-0.132 0.012 0.048 0.184 0.148 0.379-0.077 0.526-0.034 0.023-0.061 0.056-0.104 0.043s-0.031-0.055-0.039-0.088c-0.035-0.143-0.104-0.275-0.088-0.435 0.008-0.079 0.095-0.129 0.058-0.215-0.131 0.012-0.089-0.112-0.12-0.173-0.025-0.048-0.008-0.119-0.010-0.224 0.078 0.145 0.184 0.232 0.129 0.381 0.106 0.023 0.175 0.1 0.245 0.175-0.026-0.064-0.055-0.127-0.077-0.193s0.011-0.086 0.070-0.080c-0.070-0.097-0.156-0.181-0.189-0.306-0.011-0.034-0.017-0.072-0.017-0.113 0-0.111 0.048-0.212 0.125-0.281l0-0c0.089 0.225 0.253 0.429 0.098 0.68 0.061-0.069 0.131-0.108 0.217-0.061 0.035 0.053-0.128 0.098 0.015 0.169 0.059 0.028-0.074 0.116-0.107 0.184zM14.707 13.037c0.257 0.1 0.271 0.321 0.333 0.512-0.136-0.145-0.249-0.315-0.331-0.5l-0.005-0.011zM15.401 14.408c-0.069-0.159-0.123-0.279-0.171-0.401-0.014-0.037-0.091-0.093 0-0.123 0.012-0.005 0.026-0.009 0.041-0.009 0.053 0 0.097 0.042 0.099 0.095v0c0.018 0.13 0.065 0.258 0.031 0.438zM15.896 23.35c-0.011 0.005-0.024 0.008-0.038 0.008-0.029 0-0.055-0.013-0.073-0.033l-0-0c-0.066-0.075-0.123-0.484-0.075-0.596 0.155 0.146 0.144 0.358 0.214 0.534 0.012 0.032 0.018 0.077-0.029 0.088zM15.969 21.618c-0.010-0.056-0.015-0.12-0.015-0.186 0-0.154 0.031-0.301 0.087-0.435l-0.003 0.007c0.042 0.2 0.102 0.397-0.069 0.615zM16.459 19.608c0.037-0.029 0.068 0 0.082 0.032 0.067 0.146 0.129 0.294 0.193 0.441l-0.040 0.017c-0.078-0.136-0.184-0.256-0.23-0.411-0.010-0.024-0.036-0.053-0.006-0.075zM16.473 21.373c-0.066 0.032-0.093 0.146-0.138 0.226-0.111 0.029-0.171 0-0.127-0.129 0.136-0.401 0.114-0.83 0.222-1.237 0.024-0.090 0.048-0.096 0.109-0.041 0.149 0.136 0.245 0.31 0.232 0.509-0.006 0.085 0.055 0.146 0.024 0.234-0.064 0.186-0.135 0.348-0.324 0.441zM16.567 21.623c-0.126-0.251 0.099-0.276 0.164-0.386-0.068 0.109-0.099 0.232-0.166 0.388z"></path>
</svg>
