<!-- Generated by IcoMoon.io -->
<svg version="1.1" xmlns="http://www.w3.org/2000/svg" width="18" height="32" viewBox="0 0 18 32">
<title>11</title>
<rect fill="#fff" x="0" y="0" width="18" height="32"></rect>
<path fill="#1d1d1b" d="M10.105 1.894c-0.006 0.009-0.077 0.066-0.115 0.103-0.089 0.088-0.332 0.096-0.365 0.109-0.058 0.022-0.34-0.082-0.368-0.015-0.309 0.535 0.055 0.457-0.207 1.024-0.035 0.203-0.067 0.406-0.101 0.609-0.013 0.084-0.028 0.167-0.042 0.251 0.002 0.004 0.003 0.009 0.004 0.013l0 0.001c0.057 0.374-0.082 0.771-0.241 1.138-0.081 0.332-0.173 0.66-0.282 0.981-0.124 0.379-0.28 0.708-0.473 1.012l0.011-0.018c-0.211 0.327-0.414 0.681-0.688 0.96-0.059 0.059-0.121 0.114-0.186 0.165l-0.004 0.003c-0.066 0.109-0.135 0.216-0.21 0.319-0.306 0.429-0.683 0.83-0.947 1.294-0.046 0.471-0.144 0.938-0.233 1.41 0.012 0.061 0.024 0.123 0.036 0.189 0.011 0.053 0.020 0.107 0.029 0.161 0.074-0.058 0.175-0.070 0.255-0.117 0.061-0.034 0.098 0.029 0.102 0.084 0.010 0.152 0.053 0.298 0.051 0.455-0.004 0.306 0.012 0.613 0.161 0.895 0.077-0.038 0.086-0.17 0.191-0.096 0.035 0.025 0.080 0.040 0.127 0.040 0.040 0 0.078-0.011 0.111-0.029l-0.001 0.001c0.039 0.093-0.067 0.16-0.021 0.245 0.069-0.021 0.058-0.105 0.111-0.129 0.052 0.039 0 0.115 0.069 0.164-0.009-0.028-0.014-0.060-0.014-0.093 0-0.107 0.054-0.201 0.136-0.258l0.001-0.001c0.037-0.028 0.055-0.123 0.112-0.074 0.040 0.034 0.107 0.075 0.096 0.156-0.016 0.129 0.013 0.256 0.004 0.387s-0.036 0.202-0.203 0.184c0.154 0.074 0.113 0.143 0.022 0.184-0.295 0.132-0.403 0.391-0.474 0.686-0.036 0.149-0.083 0.292-0.010 0.463 0.013-0.048 0.022-0.078 0.031-0.109 0.075 0.040 0.056 0.128 0.117 0.199-0.012-0.106-0.024-0.189-0.030-0.273-0.012-0.197-0.061-0.402 0.132-0.552 0.061-0.046 0.129-0.084 0.188-0.057 0.070 0.031 0.017 0.112 0.017 0.172 0 0.18-0.094 0.329-0.147 0.49-0.061 0.192 0.101 0.411-0.061 0.616-0.034 0.042 0.11 0.207 0.132 0.34 0.011 0.065 0.149 0.102 0.113 0.196s-0.135 0.093-0.221 0.105c-0.088 0.013-0.162 0.029-0.235 0.048l0.015-0.003c-0.070 0.017-0.070 0.020-0.126 0.123 0.112-0.046 0.242-0.072 0.378-0.072 0.015 0 0.030 0 0.045 0.001l-0.002-0c-0.116 0.205-0.287 0.343-0.373 0.555-0.076 0.189-0.196 0.356-0.188 0.574 0 0.005 0.001 0.011 0.001 0.018 0 0.050-0.015 0.096-0.041 0.135l0.001-0.001c-0.135 0.195-0.095 0.436-0.199 0.662 0.108-0.026 0.065-0.13 0.137-0.138s0.042 0.090 0.085 0.103c0.051-0.061-0.028-0.127 0.024-0.192 0.085 0.055 0.095 0.123 0.061 0.214-0.053 0.144-0.099 0.286-0.011 0.441 0.038 0.067 0.026 0.184-0.034 0.211-0.145 0.061-0.227 0.18-0.321 0.291-0.015 0.018-0.077 0.027-0.044 0.048 0.094 0.061 0.039 0.165 0.086 0.245 0.061 0.106 0.090 0.245-0.077 0.318-0.041 0.018-0.055 0.053-0.033 0.109 0.089-0.086 0.191-0.054 0.306-0.072-0.021 0.036-0.034 0.079-0.034 0.125 0 0.043 0.011 0.083 0.030 0.119l-0.001-0.001c0.104 0.205-0.112 0.343-0.096 0.526 0 0.009-0.024 0.024-0.040 0.031-0.039 0.019-0.065 0.059-0.065 0.104 0 0.010 0.001 0.020 0.004 0.030l-0-0.001c0.014 0.128-0.061 0.216-0.132 0.295-0.070 0.074-0.126 0.162-0.164 0.259l-0.002 0.006c-0.025 0.091-0.107 0.157-0.205 0.157-0.012 0-0.024-0.001-0.036-0.003l0.001 0c-0.068-0.005-0.147-0.007-0.226-0.007-0.291 0-0.573 0.036-0.843 0.102l0.024-0.005c-0.123 0.030-0.245 0.065-0.368 0.083-0.623 0.089-1.251 0.118-1.877 0.167-0.122 0.011-0.263 0.017-0.406 0.017s-0.284-0.006-0.424-0.019l0.018 0.001c-0.371-0.035-0.744-0.069-1.135-0.104 0.052 0.043 0.117 0.071 0.188 0.078l0.002 0c0.428 0.093 0.925 0.152 1.433 0.163l0.009 0c0.028 0 0.062 0 0.096 0 0.97 0 1.916-0.098 2.831-0.284l-0.091 0.015c0.314-0.061 0.639-0.216 0.957 0 0.009 0.006 0.034-0.004 0.047-0.013 0.093-0.073 0.194-0.009 0.284-0.022 0.114-0.016 0.145 0.119 0.223 0.1 0.184-0.044 0.173 0.084 0.193 0.2 0.061 0.357 0.123 0.712 0.325 1.027 0.102 0.158 0.211 0.324 0.245 0.522 0.004 0.018 0.006 0.038 0.006 0.058 0 0.123-0.084 0.227-0.198 0.257l-0.002 0c-0.113 0.035-0.189 0.127-0.141 0.233 0.021 0.050 0.032 0.107 0.032 0.168 0 0.050-0.008 0.097-0.023 0.142l0.001-0.003c0.065-0.009 0.096-0.097 0.147-0.055s-0.007 0.096-0.028 0.141-0.047 0.081-0.068 0.123c-0.054 0.109-0.164 0.184-0.21 0.322 0.114-0.083 0.206-0.19 0.267-0.315l0.002-0.005c0.061-0.113 0.11-0.245 0.219-0.327 0.036-0.049 0.102-0.083 0.071-0.165s0.080-0.045 0.085-0.1c0.029 0.014 0.049 0.043 0.049 0.077 0 0.014-0.003 0.027-0.009 0.038l0-0c-0.009 0.020-0.019 0.037-0.031 0.053l0.001-0.001c0.208 0.104 0.053 0.207 0 0.311 0.079-0.012 0.15-0.035 0.215-0.067l-0.004 0.002c0.027-0.018-0.061-0.123 0.014-0.15s0.023 0.114 0.105 0.105c0.029-0.004 0.061-0.044 0.090 0 0 0.082-0.123 0.099-0.097 0.194 0.123-0.102 0.178 0.013 0.232 0.077 0.157 0.184-0.15 0.115-0.127 0.231 0.115 0.017 0.118 0.018 0.080 0.123-0.119 0.341-0.24 0.681-0.196 1.055 0.010 0.084-0.015 0.097-0.149 0.156-0.010 0.005-0.018 0.015-0.020 0.026l-0 0c-0.029 0.22-0.368 0.332-0.206 0.618 0.004 0.007 0 0.024-0.007 0.034-0.077 0.123-0.061 0.261-0.082 0.396-0.035 0.217-0.1 0.412-0.193 0.59l0.005-0.011c0.112-0.017 0.158 0.022 0.149 0.129-0.001 0.018-0.002 0.039-0.002 0.061 0 0.184 0.040 0.358 0.112 0.515l-0.003-0.008c0.11 0.273 0.199 0.541 0.139 0.854s-0.129 0.597-0.312 0.847c-0.090 0.123-0.202 0.23-0.306 0.345 0.091 0.034 0.096-0.019 0.123-0.042 0.039-0.028 0.072-0.059 0.102-0.093l0.001-0.001c0.429-0.54 0.681-1.121 0.392-1.825-0.088-0.213-0.164-0.429-0.132-0.668 0.030-0.258 0.073-0.487 0.13-0.71l-0.008 0.036c0.032-0.123 0.036-0.245 0.226-0.184-0.154-0.215 0.053-0.273 0.123-0.383s0.145-0.054 0.175 0.030c0.066 0.188 0.13 0.376 0.096 0.585-0.067 0.412-0.14 0.82-0.314 1.205-0.052 0.11-0.082 0.24-0.082 0.376 0 0.101 0.017 0.198 0.047 0.289l-0.002-0.006c0.052 0.157 0.027 0.318 0 0.461-0.053 0.294-0.123 0.587-0.17 0.883-0.015 0.084-0.024 0.18-0.024 0.279 0 0.158 0.023 0.311 0.065 0.456l-0.003-0.011c-0.024-0.205 0.135-0.329 0.196-0.497-0.007 0.040-0.012 0.085-0.012 0.131s0.004 0.092 0.012 0.136l-0.001-0.005c0.014-0.028 0.024-0.066 0.034-0.066 0.080 0 0 0.102 0.072 0.123 0.023-0.212 0.109-0.402 0.237-0.553l-0.001 0.002c0.102-0.134 0.349-0.197 0.452-0.135 0.064 0.039 0.083 0.111 0.129 0.162l0.45 0.73c-0.025-0.249-0.079-0.477-0.16-0.693l0.006 0.019c-0.017-0.046-0.104-0.18 0.072-0.112 0.048 0.019 0.057-0.031 0.046-0.042-0.134-0.135-0.007-0.184 0.081-0.237-0.026-0.058-0.081-0.040-0.116-0.074-0.066-0.061-0.174-0.088-0.164-0.213-0.218-0.010-0.1-0.157-0.096-0.256 0-0.052 0.023-0.104 0.025-0.157 0.004-0.126 0.003-0.245 0.188-0.173 0.050 0.020 0.094-0.049 0.141-0.053 0.088-0.008 0.102-0.217 0.227-0.091s-0.053 0.177-0.067 0.27c0.141 0.026 0.273 0.215 0.263 0.349-0.015 0.203-0.216 0.217-0.317 0.333 0.113-0.021 0.213-0.072 0.323-0.070 0.042 0.002 0.079 0.022 0.103 0.052l0 0c0.031 0.055-0.036 0.037-0.055 0.056s-0.047 0.065-0.021 0.094c0.033 0.039 0.061 0 0.083-0.024s0.046-0.049 0.072-0.021c0.068 0.071 0.107 0.030 0.167-0.018 0.034-0.024 0.076-0.039 0.122-0.039 0.017 0 0.034 0.002 0.050 0.006l-0.001-0c0.033 0.009 0.050 0.085 0.072 0.132 0.030 0.066-0.104 0.017-0.066 0.103 0.052 0.131 0.085 0.283 0.091 0.442l0 0.003c0.015 0.184 0.237 0.407-0.040 0.578-0.028 0.017-0.024 0.088-0.034 0.134-0.004 0.020 0.017 0.035-0.006 0.061-0.053 0.061-0.045 0.082 0.024 0.086 0.014 0.002 0.030 0.003 0.046 0.003 0.116 0 0.22-0.053 0.289-0.136l0.001-0.001c0.108-0.139 0.229-0.259 0.363-0.364l0.005-0.003c0.118-0.084 0.18-0.231 0.321-0.281 0.161-0.056 0.094-0.245 0.196-0.338 0.014-0.018 0.026-0.038 0.037-0.059l0.001-0.002c0.017-0.026 0.048-0.055 0.069-0.025 0.071 0.098 0.101 0.004 0.157-0.017 0.108-0.040 0.068-0.137 0.095-0.202 0.058-0.14 0.189-0.199 0.286-0.297-0.071 0.017-0.126 0.066-0.198 0.057-0.042-0.006-0.102 0.009-0.085-0.072 0.012-0.054 0.004-0.137 0.092-0.111 0.123 0.036 0.262-0.034 0.371 0.085 0.080 0.088 0.223 0.102 0.272 0.232 0.070 0.189 0.118 0.38 0.051 0.583-0.014 0.029-0.023 0.064-0.023 0.101s0.008 0.071 0.023 0.102l-0.001-0.001c0.123-0.289 0.222-0.564 0.134-0.858-0.055-0.184 0.032-0.254 0.144-0.351 0.172-0.144 0.296-0.341 0.346-0.566l0.001-0.007c-0.118 0.149-0.184 0.338-0.335 0.46-0.050 0.040-0.096 0.085-0.148 0.123-0.019 0.018-0.044 0.029-0.073 0.029-0.046 0-0.084-0.029-0.099-0.069l-0-0.001c-0.043-0.074-0.115-0.135-0.159-0.2-0.019-0.032-0.031-0.071-0.031-0.113 0-0.072 0.034-0.135 0.086-0.176l0.001-0c0.156-0.107 0.139-0.286 0.199-0.429 0.018-0.042-0.105-0.123 0-0.159s0.184-0.161 0.311-0.093c0.065 0.034 0.114 0.067 0.199 0.007s0.105 0.026 0.111 0.112c0.012 0.18-0.078 0.343-0.069 0.52 0.113-0.135 0.103-0.306 0.119-0.465 0.014-0.137 0.042-0.184 0.184-0.21 0.288-0.057 0.548-0.194 0.686-0.479 0.058-0.123 0.102-0.003 0.167-0.012-0.061-0.254 0.061-0.429 0.22-0.592 0.051-0.054 0.089-0.074 0.156-0.045 0.013 0.006-0.012 0.101 0.037 0.020 0.021-0.035 0.111-0.027 0.072-0.092-0.055-0.093-0.044-0.161 0.051-0.199 0.112-0.043 0.085 0.094 0.141 0.134 0.046-0.058-0.017-0.131 0.044-0.202 0.030 0.107 0 0.212 0.061 0.338-0.004-0.035-0.007-0.076-0.007-0.117 0-0.004 0-0.008 0-0.012v0.001c0.005-0.049-0.032-0.126 0.031-0.14s0.087 0.067 0.107 0.118 0.024 0.116 0.091 0.107c0.118-0.017 0.179 0.029 0.195 0.15 0 0.024 0.017 0.058 0.061 0.040 0.013-0.143-0.048-0.273-0.076-0.409-0.006-0.031-0.023-0.115 0.024-0.088 0.162 0.095 0.067-0.050 0.074-0.080 0.036-0.159-0.061-0.34 0.068-0.485s0.093-0.355 0.139-0.531c0.041-0.155 0.131-0.134 0.227-0.143 0.015 0 0.029 0.093 0.051 0 0.011-0.049 0.074-0.089 0.037-0.144-0.024-0.036-0.061-0.005-0.094 0.007-0.053 0.019-0.099 0.069-0.17 0.061 0.037-0.082 0.114-0.092 0.178-0.155-0.088-0.026-0.151-0.075-0.137-0.164 0.032-0.197-0.061-0.397 0.013-0.595 0.007-0.019 0.011-0.041 0.011-0.065 0-0.039-0.011-0.075-0.029-0.105l0.001 0.001c-0.075-0.085-0.040-0.165-0.019-0.245 0.028-0.11 0.078-0.215 0.095-0.325 0.023-0.15 0.080-0.123 0.172-0.061 0.183 0.132 0.332 0.3 0.437 0.495l0.004 0.008c0.009-0.022 0.014-0.047 0.014-0.074 0-0.050-0.019-0.096-0.049-0.13l0 0c-0.116-0.123-0.164-0.296-0.283-0.423-0.097-0.111-0.157-0.256-0.157-0.416 0-0.015 0.001-0.030 0.002-0.045l-0 0.002c0.135 0.116 0.127 0.297 0.245 0.425-0.009-0.15-0.075-0.255-0.123-0.368-0.136-0.296-0.224-0.592-0.026-0.903 0.087-0.137 0.151-0.289 0.225-0.435 0.010-0.005 0.021-0.009 0.034-0.009 0.017 0 0.032 0.006 0.044 0.016l-0-0c0.143 0.123 0.034 0.245-0.015 0.347-0.061 0.134-0.013 0.227 0.054 0.33 0.001-0.231 0.057-0.449 0.157-0.642l-0.004 0.008c0.077 0.042-0.018 0.135 0.076 0.178 0.009-0.144 0.184-0.228 0.13-0.409-0.085 0.044-0.037 0.168-0.145 0.174-0.001-0.008-0.001-0.016-0.001-0.025 0-0.073 0.033-0.138 0.084-0.182l0-0c0.092-0.066 0.155-0.167 0.169-0.284l0-0.002c0.074-0.384 0.132-0.759-0.105-1.12-0.105-0.16-0.142-0.365-0.229-0.539-0.207-0.419-0.356-0.852-0.386-1.323-0.014-0.229-0.031-0.457-0.047-0.704-0.075 0.067-0.028 0.142-0.069 0.203-0.080-0.112-0.165-0.207-0.061-0.337-0.127-0.25-0.044-0.561-0.221-0.797-0.021-0.029-0.046-0.123 0.013-0.103 0.134 0.043 0.055-0.045 0.045-0.066-0.134-0.287-0.224-0.62-0.25-0.971l-0.001-0.009c-0.009-0.090 0.019-0.206-0.026-0.267-0.159-0.214-0.096-0.458-0.089-0.681 0.009-0.278-0.043-0.506-0.245-0.693-0.050 0.029 0.013 0.102-0.069 0.123-0.013-0.066-0.048-0.123-0.012-0.198 0.013-0.026 0.020-0.057 0.020-0.089 0-0.023-0.004-0.046-0.011-0.067l0 0.001c-0.072-0.248-0.233-0.452-0.444-0.579l-0.005-0.002c-0.177-0.113-0.408-0.138-0.521-0.352-0.007-0.012-0.044-0.018-0.061-0.012-0.072 0.024-0.077-0.031-0.107-0.074-0.047-0.061-0.036-0.167-0.085-0.203-0.13-0.095-0.123-0.088-0.147-0.184-0.098-0.392-0.11-0.819-0.429-1.123-0.012-0.012-0.023-0.026-0.031-0.041l-0.001-0.001c-0.173-0.3-0.191-0.643-0.184-0.967 0.006-0.245 0.028-0.481 0.065-0.711l-0.004 0.030c0.072-0.438-0.108-0.766-0.438-1.027-0.111-0.085-0.198-0.196-0.255-0.323l-0.002-0.005c-0.114-0.264-0.18-0.572-0.18-0.894 0-0.035 0.001-0.070 0.002-0.105l-0 0.005c0.016-0.479-0.037-0.931-0.346-1.319-0.061-0.078-0.061-0.187-0.145-0.271-0.184-0.184-0.345-0.39-0.424-0.651s-0.169-0.524-0.252-0.787c-0.123-0.39-0.254-0.777-0.259-1.196 0.001-0.014 0.001-0.030 0.001-0.046 0-0.093-0.016-0.183-0.045-0.266l0.002 0.006c-0.085-0.205-0.202-0.392-0.288-0.594-0.115-0.268 0.043-0.475-0.119-0.71-0.036-0.074-0.080-0.137-0.132-0.192l0 0c0.030 0.158-0.051 0.423-0.018 0.617M6.415 17.965c0.105 0.147 0.171 0.3 0.081 0.509-0.030-0.191-0.056-0.351-0.081-0.511zM6.522 19.26c-0.051 0.041-0.083 0.103-0.083 0.172 0 0.016 0.002 0.031 0.005 0.046l-0-0.001c-0.132-0.116-0.008-0.202 0.025-0.297 0.007-0.021 0.041-0.015 0.061 0.004 0.008 0.009 0.013 0.021 0.013 0.034 0 0.017-0.008 0.032-0.021 0.041l-0 0zM6.965 22.202c-0.038-0.099-0.060-0.213-0.060-0.332 0-0.114 0.020-0.223 0.056-0.324l-0.002 0.007c0.092 0.235 0.042 0.441 0.006 0.649zM7.265 22.821c0.057-0.119-0.284-0.204-0.012-0.362 0.008 0.077-0.061 0.137 0.013 0.192 0.062 0.046 0.037 0.109-0.002 0.169zM7.887 25.26c-0.034 0.071-0.069 0.131-0.108 0.189l0.003-0.005c-0.038 0.055 0.026 0.134-0.047 0.175-0.154-0.196-0.118-0.606 0.084-0.875 0.053 0.116 0.089 0.221-0.069 0.302 0.184-0.001 0.215 0.052 0.138 0.213zM7.915 29.846c-0.045-0.045 0.043-0.092-0.019-0.133-0.135 0.309-0.332 0.585-0.49 0.907-0.047-0.328 0.053-0.605 0.118-0.889 0.030-0.131 0.088-0.255 0.084-0.395 0.005-0.036 0.022-0.066 0.046-0.089l0-0c0.007-0.007 0.069 0.023 0.068 0.033-0.012 0.184 0.18 0.226 0.237 0.363 0.037 0.091 0.039 0.148-0.044 0.203zM8.148 27.005c0-0.11-0.019-0.202 0.061-0.277-0.004 0.088 0.076 0.195-0.058 0.276zM9.757 29.442l-0.127-0.281c0.215 0.064 0.216 0.066 0.127 0.28zM10.024 28.771c-0.013 0.093-0.020 0.184-0.029 0.279-0.003 0.034 0.007 0.078-0.045 0.076-0.030-0-0.056-0.011-0.077-0.029l0 0c-0.105-0.123-0.101-0.39 0.020-0.539-0.015 0.108-0.027 0.197-0.041 0.294 0.14-0.061 0.061-0.204 0.129-0.284 0.086 0.053 0.053 0.129 0.042 0.203zM10.322 31.043c-0.047 0.018-0.058-0.024-0.061-0.061-0.009-0.057-0.042-0.123 0.005-0.169s0.058 0.033 0.091 0.047c-0.093 0.031-0.010 0.061 0 0.093 0.005 0.009 0.008 0.020 0.008 0.031 0 0.027-0.018 0.050-0.042 0.058l-0 0zM10.684 30.419c0.046 0.269-0.142 0.355-0.328 0.444v0c-0.061-0.3-0.12-0.6-0.189-0.948 0.16 0.156 0.223 0.344 0.406 0.398 0.024-0.039 0-0.061-0.022-0.078-0.117-0.097-0.18-0.199-0.034-0.327 0.041-0.026 0.069-0.071 0.069-0.123 0-0.016-0.003-0.032-0.008-0.046l0 0.001c-0.031-0.086-0.010-0.199 0.078-0.188s0.208 0.091 0.2 0.197c-0.017 0.215 0 0.448-0.164 0.625-0.006 0.009-0.009 0.020-0.009 0.032 0 0.004 0 0.008 0.001 0.012l-0-0zM10.987 30.34c-0.001 0.030-0.026 0.054-0.057 0.054-0.006 0-0.012-0.001-0.018-0.003l0 0c-0.026-0.008-0.067-0.017-0.061-0.051 0.047-0.208 0.098-0.414 0.154-0.647 0.186 0.253 0.004 0.443-0.018 0.645zM12.786 9.543c-0.053-0.235-0.088-0.509-0.097-0.79l-0-0.007c0.189 0.128 0.242 0.549 0.097 0.796zM13.006 9.817c-0.012-0.245 0.061-0.49 0.018-0.735 0.067 0.247 0.040 0.492-0.018 0.735zM13.378 27.228c-0.062 0.183-0.135 0.341-0.223 0.488l0.006-0.012c-0.018-0.223 0.049-0.359 0.216-0.477zM13.965 27.499c-0.037 0.196-0.146 0.362-0.299 0.471l-0.002 0.002c-0.090 0.057-0.193 0.107-0.302 0.144l-0.010 0.003c-0.065 0.023-0.133 0.068-0.192 0.023-0.070-0.053-0.031-0.142-0.028-0.216 0-0.044 0.021-0.082 0.054-0.107l0-0c0.254-0.178 0.313-0.477 0.443-0.735 0.061-0.123 0.055-0.254 0.104-0.414 0.184 0.273 0.078 0.552 0.153 0.811 0.010-0.017 0.026-0.061 0.042-0.061 0.048-0.001 0.045 0.050 0.037 0.078zM14.456 26.606c-0.033 0.069-0.083 0.072-0.132 0.011 0.048 0.184 0.148 0.379-0.077 0.526-0.034 0.022-0.061 0.055-0.104 0.042s-0.031-0.055-0.039-0.088c-0.035-0.143-0.104-0.275-0.088-0.435 0.008-0.079 0.095-0.129 0.058-0.214-0.131 0.011-0.089-0.113-0.12-0.173-0.025-0.048-0.008-0.119-0.010-0.224 0.078 0.145 0.184 0.233 0.129 0.381 0.106 0.023 0.175 0.1 0.245 0.175-0.026-0.061-0.055-0.127-0.077-0.193s0.011-0.086 0.070-0.080c-0.070-0.097-0.156-0.181-0.189-0.306-0.011-0.034-0.017-0.073-0.017-0.113 0-0.111 0.048-0.211 0.124-0.281l0-0c0.090 0.225 0.254 0.429 0.099 0.68 0.061-0.069 0.13-0.108 0.217-0.061 0.035 0.053-0.128 0.098 0.015 0.169 0.060 0.026-0.074 0.115-0.107 0.184zM14.617 13.253c0.257 0.099 0.27 0.321 0.333 0.511-0.136-0.145-0.249-0.315-0.331-0.5l-0.005-0.011zM15.314 14.623c-0.069-0.159-0.123-0.279-0.171-0.401-0.014-0.037-0.091-0.093 0-0.123 0.012-0.005 0.026-0.009 0.041-0.009 0.053 0 0.097 0.042 0.099 0.095v0c0.015 0.129 0.063 0.257 0.029 0.437zM15.809 23.571c-0.011 0.005-0.024 0.007-0.037 0.007-0.029 0-0.055-0.013-0.073-0.034l-0-0c-0.066-0.075-0.123-0.484-0.075-0.596 0.155 0.146 0.144 0.358 0.214 0.534 0.010 0.026 0.015 0.070-0.031 0.085zM15.881 21.838c-0.010-0.056-0.015-0.12-0.015-0.186 0-0.154 0.031-0.301 0.087-0.435l-0.003 0.007c0.040 0.191 0.1 0.39-0.072 0.609zM16.371 19.829c0.037-0.029 0.068 0 0.082 0.032 0.067 0.146 0.129 0.294 0.193 0.441l-0.040 0.017c-0.078-0.135-0.184-0.256-0.23-0.411-0.012-0.031-0.038-0.059-0.009-0.081zM16.385 21.593c-0.066 0.032-0.093 0.146-0.138 0.226-0.111 0.029-0.171 0-0.127-0.13 0.136-0.401 0.114-0.83 0.222-1.237 0.024-0.090 0.048-0.096 0.109-0.040 0.148 0.135 0.245 0.309 0.232 0.508-0.006 0.085 0.055 0.146 0.024 0.235-0.069 0.179-0.138 0.341-0.327 0.435zM16.48 21.843c-0.126-0.251 0.099-0.275 0.164-0.386-0.071 0.103-0.102 0.226-0.169 0.382z"></path>
<path fill="#fff" d="M11.040 22.825c-0.056-0.496-0.070-0.991-0.245-1.488-0.030-0.107-0.054-0.234-0.067-0.364l-0.001-0.009c-0.042-0.257-0.090-0.526-0.061-0.768s-0.006-0.496-0.032-0.748c-0.047-0.444-0.058-0.888-0.167-1.335-0.036-0.145-0.167-0.279-0.1-0.433-0.103-0.029-0.015 0.11-0.106 0.088-0.024-0.075 0.018-0.123 0.047-0.178 0.054-0.105 0.112-0.219-0.074-0.313-0.082-0.041-0.088-0.103-0.024-0.15 0.040-0.030 0.082-0.070 0.051-0.123-0.053-0.088-0.082 0.039-0.157-0.007 0.102-0.174 0.074-0.373-0.007-0.58-0.015-0.037-0.010-0.087-0.052-0.103-0.139-0.052-0.156-0.148-0.123-0.258-0.088-0.047-0.086 0.061-0.148 0.047-0.071-0.205-0.093-0.213-0.245-0.107-0.051 0.036-0.111 0.061-0.189 0.104 0.003-0.073 0.033-0.138 0.079-0.188l-0 0c0.031-0.047 0.123-0.046 0.045-0.159-0.066-0.101-0.133-0.123-0.21-0.097-0.249 0.089-0.515 0.091-0.789 0.080-0.097-0.004-0.211 0.016-0.248 0.131-0.003 0.024-0.023 0.042-0.047 0.042-0.007 0-0.014-0.002-0.020-0.005l0 0c-0.352-0.104-0.704-0.123-1.057-0.178-0.018 0-0.036-0.015-0.061-0.057 0.239 0.004 0.478 0.008 0.718 0.014 0.403 0.010 0.797 0 1.178-0.096 0.151-0.038 0.331 0.005 0.483-0.047 0.077-0.026 0.245-0.024 0.034-0.164-0.029-0.019-0.045-0.033 0-0.038 0.106-0.012 0.021-0.067 0-0.102-0.097-0.189-0.283-0.321-0.358-0.527-0.020-0.044-0.064-0.074-0.115-0.074-0.011 0-0.023 0.002-0.033 0.004l0.001-0c-0.104 0.087-0.275 0.007-0.368 0.116-0.026 0.031-0.067 0.061-0.112 0.012s0.061-0.056 0.021-0.102c-0.196-0.077-0.3 0.082-0.461 0.1-0.397 0.043-0.783 0.134-1.182 0.164-0.332 0.024-0.85-0.514-1.193-0.533 0.135-0.134 0.64 0.373 0.811 0.336 0.397-0.086 0.698-0.009 1.108-0.043 0.253-0.021 0.306-0.21 0.413-0.368 0.019-0.029 0.023-0.070 0.040-0.101 0.158-0.279 0.036-0.552-0.3-0.665-0.043-0.020-0.092-0.036-0.144-0.046l-0.005-0.001c-0.108-0.003-0.195-0.091-0.195-0.2 0-0.011 0.001-0.021 0.002-0.031l-0 0.001c0.002-0.008 0.003-0.017 0.003-0.026 0-0.060-0.039-0.11-0.092-0.128l-0.001-0c-0.138-0.061-0.026 0.057-0.046 0.082s-0.052 0.019-0.075-0.013c-0.031-0.043-0.053-0.094-0.111-0.108-0.006 0.078 0.086 0.103 0.105 0.176-0.058 0.021-0.082-0.042-0.101-0.066-0.238-0.295-0.519-0.295-0.805-0.266-0.011 0-0.028 0.012-0.030 0.009-0.235-0.285-0.528-0.154-0.791-0.241s-0.561-0.108-0.838-0.173c-0.448-0.105-0.896-0.153-1.344-0.26-0.216-0.051-0.429-0.127-0.651-0.15 0.066-0.061 0.153-0.040 0.231-0.025 0.64 0.123 1.279 0.245 1.918 0.376 0.981 0.197 1.961 0.368 2.937 0.613 0.392 0.099 0.558 0 0.702-0.306 0.168-0.356 0.294-0.739 0.505-1.068 0.068-0.121 0.149-0.224 0.244-0.313l0.001-0.001c0.087-0.073 0.192-0.169 0.167-0.342 0.066 0.124 0.134 0.275 0.193 0.431l0.009 0.028c0.151 0.449 0.343 0.839 0.579 1.197l-0.012-0.019c0.075 0.123 0.145 0.323 0.346 0.184 0.051-0.037 0.184 0.043 0.266 0.105 0.091 0.069 0.189 0.086 0.284 0.123 0.163 0.064 0.115-0.047 0.092-0.12-0.034-0.104-0.291-0.264-0.352-0.207-0.104 0.099-0.213-0.026-0.318-0.003 0.127-0.051 0.148-0.169 0.18-0.286 0.049-0.179 0.221-0.208 0.373-0.222 0.184-0.017 0.249-0.078 0.205-0.287-0.030-0.139-0.011-0.274-0.135-0.398-0.026-0.029-0.042-0.067-0.042-0.109 0-0.040 0.014-0.076 0.038-0.105l-0 0c0.069-0.105 0.052-0.235 0.036-0.368-0.070-0.574-0.137-1.152-0.199-1.727-0.004-0.030-0.014-0.067 0.021-0.081h-0.006c0.091 0.312 0.109 0.624 0.142 0.935 0.018 0.173 0.073 0.256 0.236 0.282 0.039 0.014 0.073 0.032 0.104 0.055l-0.001-0.001c-0.018 0.049-0.053 0.025-0.079 0.021-0.202-0.033-0.237 0-0.112 0.172 0.18 0.245 0.229 0.532 0.363 0.791 0.039 0.077 0.052 0.129 0.159 0.123s0.13 0.135 0.184 0.217c0.196-0.069 0.162-0.209 0.058-0.376-0.115-0.184-0.15-0.388-0.245-0.577-0.044-0.089-0.057-0.195-0.154-0.26-0.028-0.018-0.070-0.061-0.020-0.090 0.034-0.021 0.067-0.008 0.101 0.029 0.041 0.058 0.071 0.127 0.082 0.202l0 0.003c0.092 0.299 0.202 0.424 0.405 0.447 0.164 0.020 0.245-0.11 0.368-0.218-0.007 0.108-0.029 0.169-0.096 0.203-0.030 0.016-0.074 0.026-0.055 0.076 0.014 0.029 0.044 0.048 0.077 0.048 0.008 0 0.016-0.001 0.024-0.003l-0.001 0c0.123-0.029 0.306 0.083 0.333-0.164 0.007-0.061 0.16-0.237 0.341-0.156 0.087 0.039 0.113-0.019 0.152-0.055s0.061-0.115 0.155-0.139c-0.232 0.378-0.461 0.735-0.71 1.074-0.093 0.127-0.18 0.26-0.27 0.39-0.018 0.023-0.029 0.052-0.029 0.084 0 0.029 0.009 0.056 0.025 0.078l-0-0c0.043 0.061 0.088 0.018 0.134 0.010 0.115-0.026 0.254-0.048 0.397-0.060l0.012-0.001c0.264-0.015 0.499-0.112 0.749-0.157 0.236-0.052 0.508-0.081 0.786-0.081 0.015 0 0.029 0 0.044 0l-0.002-0c0.259 0.010 0.449-0.105 0.643-0.215 0.281-0.164 0.521-0.328 0.749-0.508l-0.014 0.010c-0.265 0.27-0.591 0.459-0.898 0.674-0.169 0.123-0.362 0.233-0.566 0.322l-0.020 0.007c-0.099 0.040-0.184 0.082-0.315 0.061-0.155-0.021-0.268 0.116-0.409 0.169-0.184 0.067-0.342 0.17-0.517 0.25-0.297 0.135-0.602 0.263-0.841 0.49-0.031 0.029-0.119 0.039-0.058 0.123 0.034 0.046 0.081 0.102 0.14 0.043 0.021-0.021 0.058-0.021 0.074 0.026 0.015 0.033 0.025 0.072 0.025 0.113 0 0.001 0 0.001 0 0.002v-0c-0.008 0.047-0.043 0.040-0.085 0.010-0.014-0.011-0.033-0.017-0.052-0.017-0.026 0-0.050 0.012-0.066 0.030l-0 0c-0.004 0.009-0.007 0.020-0.007 0.031 0 0.014 0.004 0.028 0.011 0.039l-0-0c0.021 0.023 0.051 0.037 0.084 0.037 0.014 0 0.027-0.002 0.040-0.007l-0.001 0c0.099-0.016 0.203-0.037 0.214 0.144-0.058 0-0.088-0.141-0.145-0.067s0.037 0.085 0.077 0.123c0.106 0.085 0.238 0.141 0.382 0.155l0.003 0c0.254 0.042 0.507 0.021 0.762 0.117v-0.007c-0.031 0.104-0.138 0.085-0.211 0.091-0.192 0.017-0.343 0.072-0.387 0.279-0.003 0.014-0.025 0.023-0.040 0.028-0.216 0.084-0.050 0.162 0.055 0.252-0.061 0.048-0.178 0.053-0.142 0.184 0 0.010-0.009 0.021-0.013 0.032-0.037 0.104-0.197-0.237-0.196 0.026 0 0.070-0.016 0.068-0.234-0.021 0.042 0.157 0.164 0.238 0.265 0.323 0.293 0.242 0.552 0.506 0.781 0.795l0.008 0.011c0.070 0.090 0.131 0.176 0.261 0.201 0.154 0.030 0.032 0.191 0.123 0.268-0.322-0.193-0.53-0.493-0.748-0.786-0.070-0.095-0.135-0.207-0.273-0.12-0.074 0.047-0.086-0.050-0.101-0.112-0.038-0.167-0.41-0.456-0.552-0.425-0.053 0.012-0.031 0.072-0.032 0.113-0.011 0.408 0.106 0.818 0.226 1.218 0.325 1.090 0.56 2.187 0.811 3.283 0.082 0.359 0.136 0.721 0.254 1.072-0.184-0.099-0.276-0.293-0.38-0.471-0.022-0.033-0.035-0.073-0.035-0.116 0-0.031 0.007-0.061 0.019-0.088l-0.001 0.001c0.047-0.101 0.074-0.219 0.074-0.344 0-0.112-0.022-0.218-0.062-0.316l0.002 0.006c-0.17-0.483-0.193-0.977-0.349-1.459-0.139-0.429-0.204-0.879-0.406-1.294-0.13-0.269-0.158-0.54-0.242-0.808-0.008-0.024-0.018-0.064-0.032-0.070-0.135-0.050-0.196-0.135-0.112-0.306-0.203 0.131-0.245 0.335-0.398 0.433-0.053 0.034-0.029 0.142-0.003 0.155 0.123 0.061 0.086 0.154 0.115 0.24s0.037 0.103-0.047 0.102c-0.036 0-0.040 0.058-0.028 0.074 0.091 0.11 0.009 0.2 0.025 0.3 0.013 0.076 0.007 0.157 0.111 0.201 0.022 0.009 0.113 0.11 0 0.132-0.077 0.016-0.061 0.070-0.048 0.132 0.013 0.097 0.031 0.183 0.054 0.265l-0.003-0.014c0.063 0.15 0.099 0.324 0.099 0.507 0 0.044-0.002 0.088-0.006 0.131l0-0.005c-0.003 0.015-0.004 0.033-0.004 0.051 0 0.080 0.030 0.153 0.079 0.209l-0-0c0.018 0.019 0.045 0.042 0.026 0.066-0.145 0.179-0.090 0.463 0 0.613 0.143 0.232 0.051 0.363 0.053 0.552 0 0.023 0 0.050 0 0.078 0 1.315-0.071 2.614-0.208 3.893l0.014-0.159c-0.007 0.067 0.010 0.145-0.047 0.191l-0.104-0.131c0.108-0.139 0.049-0.326 0.056-0.495 0.028-0.661 0.222-1.284 0.091-1.981-0.001-0.005-0.002-0.011-0.002-0.017 0-0.014 0.003-0.027 0.009-0.038l-0 0.001c0.123-0.211 0.047-0.458 0.007-0.699-0.009-0.051-0.050-0.128-0.016-0.149 0.132-0.080 0.006-0.259 0.085-0.357 0.015-0.018-0.010-0.076-0.042-0.083-0.22-0.048-0.113-0.123-0.051-0.2 0.024-0.031 0.061-0.079 0.050-0.112-0.093-0.279-0.007-0.533-0.036-0.802-0.048-0.453-0.237-0.905-0.224-1.361 0-0.080 0-0.225-0.089-0.275-0.091-0.052-0.152-0.149-0.152-0.261 0-0.004 0-0.008 0-0.012l-0 0.001c0.049-0.219-0.153-0.193-0.187-0.178-0.148 0.061-0.249-0.061-0.368-0.123-0.053-0.027-0.107-0.152-0.162-0.043-0.034 0.067-0.123 0.123-0.008 0.245 0.084 0.086 0.004 0.306-0.111 0.291-0.265-0.036-0.194 0.136-0.164 0.294 0.020 0.104 0.036 0.208 0.057 0.313 0.007 0.036 0 0.072 0.042 0.105 0.108 0.085 0.165 0.257 0.127 0.312-0.082 0.119-0.050 0.245-0.037 0.372 0.040 0.376 0.069 0.755 0.15 1.13 0.061 0.289-0.026 0.594 0.203 0.873 0.029 0.036 0.012 0.112-0.018 0.119-0.1 0.028-0.070 0.118-0.065 0.184 0.029 0.328 0.061 0.656 0.103 0.984 0.054 0.414 0.123 0.829 0.184 1.244zM10.365 16.997c0.095-0.213 0.174-0.378 0.245-0.552 0.097-0.241 0.226-0.282 0.479-0.137 0.171 0.097 0.34 0.201 0.531 0.314-0.027-0.245-0.051-0.458-0.075-0.674-0.050-0.444 0.155-0.706 0.493-0.868 0.072-0.034 0.157-0.070 0.161-0.146 0.011-0.187 0.14-0.215 0.273-0.256 0.135-0.037 0.251-0.081 0.362-0.133l-0.014 0.006c0.172-0.087 0.351-0.167 0.486-0.319-0.338-0.046-0.666-0.067-0.993-0.087-0.004 0-0.008 0-0.012 0-0.096 0-0.182-0.048-0.233-0.122l-0.001-0.001c-0.203-0.272-0.227-0.589 0.032-0.72 0.105-0.053 0.099-0.105-0.015-0.191-0.218-0.162-0.236-0.232-0.168-0.48 0.009-0.032 0.045-0.074-0.005-0.101-0.113-0.061-0.23-0.191-0.351-0.119-0.133 0.080-0.18-0.016-0.226-0.12-0.026-0.066-0.052-0.148-0.073-0.232l-0.003-0.013c-0.005 0.282 0.016 0.564 0.023 0.844 0.010 0.356-0.032 0.385-0.363 0.283-0.025-0.007-0.050-0.013-0.075-0.019-0.241-0.050-0.291-0.018-0.333 0.216-0.032 0.218-0.218 0.384-0.442 0.384-0.067 0-0.13-0.015-0.187-0.041l0.003 0.001c-0.232-0.090-0.537-0.188-0.848-0.27l-0.066-0.015c-0.216-0.061-0.226-0.040-0.197 0.197s0.17 0.433 0.207 0.65c0.032 0.184 0.12 0.267 0.27 0.302 0.211 0.041 0.383 0.179 0.471 0.364l0.002 0.004c0.115 0.237 0.458 0.414 0.291 0.729-0.004 0.009 0.006 0.026 0.008 0.039 0.072 0.412 0.203 0.817 0.343 1.282zM9.438 12.067c0.227-0.069 0.123-0.241 0.069-0.385-0.099-0.258-0.175-0.278-0.322-0.099-0.025 0.034-0.051 0.065-0.079 0.093l0-0c-0.353 0.309-0.49 0.77-0.649 1.212-0.023 0.061-0.006 0.167 0.044 0.173 0.215 0.031 0.409 0.086 0.592 0.163l-0.016-0.006c0.036 0.014 0.087-0.008 0.131 0.039 0.184 0.199 0.368 0.086 0.552 0.085 0.028 0 0.029-0.034 0.020-0.061s-0.045-0.075-0.069-0.061c-0.148 0.083-0.204-0.115-0.32-0.135 0.061-0.123 0.157-0.113 0.26-0.083 0.047 0.013 0.071 0 0.083-0.040 0.016-0.051-0.022-0.053-0.051-0.056-0.043-0.006-0.106-0.004-0.088-0.069 0.012-0.042 0.076-0.045 0.127-0.018s0.098 0.101 0.17 0.085c-0.025-0.197-0.1-0.372-0.211-0.519l0.002 0.003c-0.006-0.011-0.010-0.025-0.010-0.039 0-0.005 0-0.010 0.001-0.015l-0 0.001c0.037-0.184-0.048-0.259-0.237-0.266zM11.902 11.166c0.078 0.154 0.135 0.294 0.214 0.42 0.189 0.306 0.306 0.311 0.456 0.048 0.061-0.104 0.031-0.159-0.082-0.23-0.167-0.111-0.364-0.194-0.575-0.237l-0.010-0.002zM12.76 12.698c0.026-0.050 0.082-0.075 0.073-0.142-0.005-0.043-0.038-0.051-0.070-0.050-0.141 0.004-0.291-0.010-0.413 0.046s0.012 0.184 0 0.273c0 0.003 0 0.006 0 0.009 0 0.017-0.003 0.032-0.007 0.047l0-0.001c-0.045 0.077 0.028 0.134 0.070 0.16 0.013 0.008 0.029 0.013 0.047 0.013 0.047 0 0.085-0.037 0.088-0.083v-0c0.029-0.135 0.076-0.245 0.214-0.271zM11.525 12.012c-0.049-0.090-0.108-0.15-0.076-0.184 0.116-0.127 0.007-0.268-0.040-0.395-0.061-0.159-0.18-0.298-0.252-0.459 0.049 0.344-0.012 0.71 0.369 1.038zM7.981 14.592c0.138-0.002 0.271-0.019 0.399-0.050l-0.012 0.002c0.103-0.016 0.090-0.087 0.054-0.151-0.049-0.078-0.105-0.145-0.167-0.205l-0-0c-0.057-0.061-0.101-0.048-0.123 0.020-0.050 0.126-0.099 0.249-0.151 0.385zM13.252 12.439c0.188 0.055 0.362 0.118 0.532 0.036 0.113-0.055 0.164-0.205 0.322-0.184 0.007 0 0.022-0.032 0.017-0.046-0.009-0.023-0.031-0.039-0.057-0.039-0.008 0-0.015 0.002-0.022 0.004l0-0c-0.261 0.086-0.53 0.153-0.793 0.231zM7.552 13.218c0.104 0.123 0.227 0.226 0.364 0.306l0.007 0.004c0.141 0.070 0.179 0.032 0.148-0.123-0.015-0.067-0.061-0.12-0.121-0.145l-0.001-0.001c-0.132-0.077-0.257-0.048-0.395-0.042zM8.494 13.962c0.021 0.082 0.066 0.146 0.043 0.236-0.015 0.061 0.052 0.158 0.087 0.238 0.022 0.049 0.061 0.043 0.098 0.036s0.031-0.040 0.023-0.074c-0.045-0.172-0.132-0.319-0.251-0.435l-0-0zM10.649 12.614c0.096 0.074 0.179 0.061 0.257 0.088 0.055 0.017 0.105 0 0.093-0.067s-0.076-0.1-0.115-0.076c-0.065 0.037-0.154 0.001-0.233 0.053z"></path>
<path fill="#fff" d="M5.863 15.027c-0.251 0.127-0.545 0.165-0.789 0.306l-0.026-0.032c0.237-0.171 0.495-0.293 0.816-0.274z"></path>
<path fill="#fff" d="M15.263 14.444l1.386 0.219v0.055c-0.462 0.004-0.926-0.139-1.389-0.224z"></path>
<path fill="#fff" d="M9.294 8.982c0.173 0.087 0.356 0.137 0.356 0.393 0 0.201 0.050 0.411 0.085 0.674-0.2-0.382-0.076-0.795-0.441-1.068z"></path>
<path fill="#fff" d="M10.868 9.185c-0.123-0.217-0.1-0.441-0.139-0.661-0.017-0.094 0-0.191-0.103-0.268-0.024-0.019-0.040-0.048-0.040-0.081 0-0.023 0.007-0.044 0.020-0.061l-0 0c0.056-0.061 0.035-0.15 0.055-0.229 0.117 0.433 0.158 0.866 0.202 1.299z"></path>
<path fill="#fff" d="M13.728 14.241c0.363 0.016 0.705 0.062 1.037 0.136l-0.040-0.007c-0.096 0.108-0.219 0.045-0.303 0.024-0.172-0.041-0.37-0.066-0.574-0.072l-0.004-0c-0.054-0.002-0.1-0.037-0.116-0.086l-0-0.001z"></path>
<path fill="#fff" d="M8.216 8.745c0.071 0.147 0.145 0.289 0.159 0.444 0.003 0.035 0.035 0.087-0.024 0.082-0.047-0.004-0.128-0.031-0.107-0.089 0.053-0.145-0.028-0.292-0.028-0.438z"></path>
<path fill="#fff" d="M8.181 8.594c-0.106-0.214-0.078-0.412-0.021-0.607-0.002 0.048-0.003 0.105-0.003 0.161 0 0.157 0.009 0.312 0.026 0.464l-0.002-0.019z"></path>
<path fill="#fff" d="M8.811 6.080c-0.022 0.223-0.022 0.223-0.184 0.274 0.010-0.12 0.081-0.221 0.182-0.273l0.002-0.001z"></path>
<path fill="#fff" d="M6.28 8.138l0.387-0.020c-0.131 0.136-0.255 0.107-0.387 0.020z"></path>
<path fill="#fff" d="M10.5 26.537c-0.037-0.325-0.046-0.65-0.161-0.976-0.021-0.071-0.036-0.154-0.044-0.24l-0-0.005c-0.028-0.122-0.044-0.261-0.044-0.405 0-0.035 0.001-0.069 0.003-0.104l-0 0.005c0.003-0.044 0.005-0.094 0.005-0.145 0-0.122-0.010-0.241-0.028-0.358l0.002 0.013c-0.031-0.292-0.038-0.583-0.11-0.876-0.023-0.095-0.11-0.184-0.066-0.284-0.067-0.019-0.010 0.072-0.069 0.058-0.016-0.050 0.011-0.079 0.030-0.116 0.036-0.069 0.074-0.144-0.048-0.206-0.054-0.027-0.058-0.067-0.017-0.098 0.026-0.020 0.053-0.046 0.033-0.080-0.034-0.058-0.054 0.026-0.102-0.004 0.067-0.114 0.048-0.245-0.005-0.381-0.010-0.024-0.007-0.057-0.034-0.067-0.053-0.015-0.090-0.062-0.090-0.118 0-0.019 0.004-0.036 0.012-0.052l-0 0.001c-0.061-0.031-0.056 0.042-0.097 0.031-0.047-0.134-0.061-0.14-0.161-0.070-0.033 0.021-0.073 0.044-0.115 0.065l-0.008 0.003c0.002-0.048 0.021-0.090 0.052-0.123l-0 0c0.021-0.030 0.078-0.029 0.029-0.104s-0.087-0.081-0.137-0.061c-0.117 0.037-0.252 0.058-0.392 0.058-0.044 0-0.088-0.002-0.13-0.006l0.005 0c-0.061 0-0.139 0.010-0.162 0.086-0.003 0.015-0.016 0.027-0.031 0.027-0.005 0-0.009-0.001-0.013-0.003l0 0c-0.231-0.068-0.462-0.081-0.693-0.117-0.012 0-0.024-0.010-0.039-0.037 0.157 0.003 0.314 0.006 0.471 0.010 0.048 0.003 0.104 0.004 0.16 0.004 0.217 0 0.429-0.024 0.632-0.069l-0.019 0.004c0.099-0.024 0.217 0.004 0.317-0.030 0.051-0.017 0.162-0.016 0.022-0.107-0.019-0.013-0.030-0.022 0-0.025 0.069-0.007 0.013-0.044 0-0.067-0.061-0.123-0.184-0.211-0.235-0.346-0.013-0.029-0.042-0.049-0.075-0.049-0.007 0-0.015 0.001-0.021 0.003l0.001-0c-0.069 0.057-0.181 0.005-0.241 0.075-0.017 0.020-0.043 0.039-0.074 0.008s0.042-0.036 0.014-0.067c-0.128-0.051-0.197 0.053-0.302 0.065-0.26 0.028-0.513 0.088-0.775 0.107-0.218 0.017-0.558-0.337-0.783-0.35 0.088-0.088 0.42 0.245 0.533 0.221 0.26-0.056 0.458-0.006 0.727-0.028 0.165-0.013 0.202-0.138 0.271-0.245 0.012-0.019 0.015-0.045 0.026-0.066 0.104-0.184 0.023-0.362-0.197-0.436-0.028-0.013-0.060-0.024-0.094-0.031l-0.003-0.001c-0.071-0.002-0.128-0.060-0.128-0.131 0-0.007 0.001-0.014 0.002-0.020l-0 0.001c0.001-0.005 0.002-0.011 0.002-0.017 0-0.040-0.026-0.073-0.062-0.084l-0.001-0c-0.091-0.040-0.017 0.037-0.031 0.053s-0.034 0.013-0.049-0.009-0.034-0.061-0.072-0.071c-0.004 0.051 0.056 0.067 0.069 0.116-0.038 0.014-0.054-0.028-0.067-0.044-0.156-0.194-0.34-0.194-0.528-0.175-0.007 0-0.018 0.007-0.020 0.006-0.154-0.188-0.347-0.101-0.519-0.159s-0.368-0.071-0.552-0.113c-0.294-0.069-0.588-0.101-0.882-0.172-0.118-0.037-0.262-0.071-0.41-0.096l-0.019-0.003c0.043-0.043 0.1-0.027 0.151-0.017q0.629 0.123 1.259 0.245c0.642 0.13 1.287 0.242 1.927 0.405 0.257 0.066 0.368 0 0.461-0.202 0.11-0.233 0.192-0.485 0.33-0.7 0.044-0.079 0.097-0.147 0.16-0.206l0-0c0.057-0.048 0.126-0.111 0.109-0.224 0.044 0.082 0.089 0.181 0.127 0.284l0.006 0.018c0.097 0.295 0.222 0.551 0.376 0.786l-0.008-0.013c0.049 0.079 0.095 0.212 0.227 0.119 0.034-0.024 0.123 0.029 0.175 0.069 0.053 0.034 0.114 0.061 0.179 0.080l0.005 0.001c0.107 0.042 0.075-0.030 0.061-0.078-0.022-0.069-0.191-0.173-0.23-0.136-0.068 0.065-0.14-0.017-0.209 0 0.083-0.034 0.097-0.111 0.118-0.188 0.032-0.117 0.145-0.136 0.245-0.145 0.123-0.012 0.164-0.051 0.134-0.189-0.020-0.091-0.007-0.18-0.089-0.261-0.016-0.019-0.026-0.043-0.026-0.070s0.010-0.051 0.026-0.070l-0 0c0.045-0.069 0.034-0.154 0.023-0.241-0.046-0.378-0.089-0.755-0.132-1.133 0-0.020-0.009-0.044 0.015-0.053h-0.004c0.046 0.178 0.079 0.388 0.093 0.602l0.001 0.010c0.012 0.113 0.048 0.168 0.154 0.184 0.026 0.009 0.048 0.021 0.069 0.036l-0.001-0.001c-0.012 0.032-0.036 0.017-0.052 0.014-0.132-0.022-0.155 0-0.074 0.113 0.118 0.163 0.151 0.349 0.238 0.519 0.026 0.050 0.034 0.085 0.105 0.080s0.085 0.088 0.119 0.143c0.129-0.045 0.107-0.138 0.037-0.245-0.075-0.123-0.099-0.255-0.159-0.379-0.029-0.058-0.037-0.127-0.101-0.17-0.018-0.012-0.046-0.039-0.013-0.061 0.023-0.014 0.044-0.006 0.066 0.019 0.027 0.038 0.047 0.083 0.054 0.132l0 0.002c0.061 0.196 0.132 0.278 0.265 0.294 0.108 0.013 0.161-0.072 0.245-0.143-0.005 0.071-0.020 0.111-0.061 0.134-0.020 0.010-0.048 0.017-0.036 0.050 0.009 0.019 0.029 0.032 0.051 0.032 0.006 0 0.011-0.001 0.016-0.002l-0 0c0.078-0.019 0.202 0.055 0.219-0.108 0.024-0.067 0.087-0.114 0.161-0.114 0.023 0 0.044 0.004 0.064 0.012l-0.001-0c0.057 0.025 0.074-0.013 0.099-0.036s0.041-0.075 0.102-0.092c-0.153 0.245-0.302 0.482-0.466 0.705-0.061 0.084-0.118 0.171-0.177 0.256-0.011 0.015-0.018 0.033-0.018 0.053s0.007 0.038 0.018 0.053l-0-0c0.028 0.039 0.057 0.012 0.087 0.006 0.075-0.017 0.167-0.031 0.26-0.039l0.008-0.001c0.173-0.010 0.327-0.074 0.49-0.103 0.156-0.034 0.334-0.053 0.518-0.053 0.009 0 0.018 0 0.027 0h-0.001c0.17 0.007 0.294-0.068 0.421-0.14 0.184-0.107 0.341-0.215 0.49-0.333l-0.009 0.007c-0.174 0.177-0.387 0.301-0.59 0.44-0.111 0.081-0.237 0.153-0.372 0.211l-0.013 0.005c-0.049 0.027-0.107 0.043-0.17 0.043-0.013 0-0.025-0.001-0.038-0.002l0.002 0c-0.102-0.014-0.176 0.077-0.268 0.11-0.119 0.044-0.224 0.112-0.339 0.164-0.195 0.088-0.395 0.172-0.552 0.321-0.020 0.020-0.078 0.026-0.037 0.081 0.022 0.030 0.053 0.067 0.091 0.028 0.014-0.014 0.039-0.014 0.049 0.017 0.010 0.022 0.016 0.048 0.017 0.075v0c-0.006 0.031-0.029 0.026-0.056 0.006-0.009-0.007-0.021-0.011-0.034-0.011-0.017 0-0.033 0.008-0.043 0.020l-0 0c-0.004 0.007-0.006 0.014-0.006 0.023s0.002 0.016 0.006 0.023l-0-0c0.014 0.015 0.033 0.024 0.055 0.024 0.009 0 0.018-0.002 0.026-0.005l-0.001 0c0.064-0.010 0.133-0.024 0.14 0.095-0.038 0-0.058-0.093-0.096-0.044s0.024 0.056 0.051 0.079c0.070 0.056 0.156 0.093 0.251 0.102l0.002 0c0.167 0.028 0.332 0.014 0.499 0.077v-0.004c-0.020 0.069-0.090 0.056-0.139 0.061-0.126 0.010-0.224 0.047-0.253 0.184 0 0.009-0.017 0.015-0.027 0.019-0.142 0.055-0.032 0.106 0.037 0.165-0.040 0.031-0.117 0.034-0.094 0.118 0 0.007-0.006 0.014-0.008 0.021-0.024 0.068-0.129-0.156-0.129 0.017 0 0.046-0.010 0.044-0.153-0.015 0.028 0.103 0.108 0.157 0.174 0.212 0.193 0.161 0.363 0.337 0.514 0.529l0.006 0.008c0.037 0.064 0.097 0.112 0.169 0.132l0.002 0c0.101 0.020 0.021 0.123 0.082 0.176-0.211-0.127-0.348-0.324-0.49-0.516-0.047-0.061-0.089-0.136-0.179-0.078-0.048 0.031-0.056-0.033-0.066-0.073-0.026-0.11-0.27-0.3-0.361-0.279-0.035 0.008-0.020 0.048-0.021 0.074-0.007 0.267 0.070 0.537 0.149 0.797 0.214 0.715 0.368 1.435 0.533 2.155 0.053 0.286 0.111 0.522 0.18 0.754l-0.013-0.051c-0.123-0.065-0.184-0.192-0.25-0.309-0.014-0.021-0.022-0.047-0.022-0.075 0-0.021 0.005-0.041 0.013-0.058l-0 0.001c0.030-0.066 0.048-0.143 0.048-0.225 0-0.074-0.014-0.144-0.041-0.208l0.001 0.004c-0.112-0.317-0.127-0.642-0.23-0.958-0.092-0.283-0.134-0.577-0.267-0.85-0.086-0.177-0.104-0.354-0.16-0.53-0.005-0.016-0.012-0.042-0.021-0.046-0.089-0.033-0.129-0.089-0.073-0.2-0.134 0.086-0.161 0.219-0.262 0.284-0.034 0.022-0.019 0.093 0 0.102 0.081 0.039 0.056 0.101 0.075 0.157s0.024 0.067-0.031 0.067c-0.024 0-0.026 0.039-0.018 0.049 0.061 0.072 0.006 0.131 0.017 0.197 0.009 0.050 0.005 0.104 0.073 0.132 0.015 0.006 0.074 0.072 0 0.087-0.050 0.010-0.040 0.047-0.032 0.086 0.009 0.064 0.020 0.119 0.036 0.174l-0.002-0.009c0.041 0.099 0.065 0.214 0.065 0.334 0 0.028-0.001 0.057-0.004 0.084l0-0.004c-0.002 0.010-0.003 0.022-0.003 0.034 0 0.052 0.019 0.1 0.051 0.137l-0-0c0.012 0.012 0.030 0.028 0.017 0.044-0.095 0.118-0.061 0.306 0 0.401 0.094 0.152 0.034 0.238 0.035 0.362 0 0.012 0 0.027 0 0.042 0 0.866-0.047 1.722-0.139 2.563l0.009-0.104c-0.004 0.044 0.007 0.096-0.031 0.123l-0.068-0.085c0.070-0.091 0.032-0.214 0.037-0.325 0.018-0.434 0.145-0.843 0.061-1.3-0.001-0.004-0.001-0.008-0.001-0.012 0-0.009 0.002-0.017 0.006-0.025l-0 0c0.078-0.139 0.031-0.301 0.004-0.458-0.006-0.034-0.032-0.084-0.010-0.097 0.087-0.053 0.004-0.17 0.056-0.235 0.010-0.012-0.007-0.050-0.028-0.054-0.145-0.032-0.075-0.081-0.034-0.132 0.017-0.020 0.040-0.052 0.033-0.073-0.061-0.184-0.005-0.35-0.024-0.526-0.032-0.297-0.156-0.594-0.147-0.894 0-0.053 0-0.148-0.061-0.181-0.060-0.034-0.1-0.098-0.1-0.171 0-0.002 0-0.005 0-0.007v0c0.032-0.144-0.101-0.127-0.123-0.117-0.097 0.042-0.164-0.039-0.241-0.079-0.034-0.018-0.070-0.101-0.106-0.029-0.023 0.045-0.082 0.081-0.006 0.161 0.055 0.056 0 0.201-0.073 0.191-0.173-0.024-0.127 0.089-0.107 0.192 0.013 0.069 0.024 0.137 0.037 0.205 0.005 0.023 0 0.047 0.028 0.069 0.070 0.056 0.108 0.169 0.083 0.205-0.054 0.078-0.033 0.161-0.024 0.245 0.023 0.283 0.058 0.537 0.106 0.786l-0.007-0.045c0.042 0.19-0.017 0.39 0.134 0.572 0.020 0.024 0.008 0.074-0.012 0.079-0.065 0.018-0.046 0.077-0.042 0.123 0.019 0.215 0.040 0.429 0.068 0.646 0.036 0.271 0.080 0.544 0.123 0.816zM10.055 22.712c0.061-0.14 0.114-0.248 0.159-0.36 0.061-0.157 0.148-0.184 0.314-0.089 0.112 0.061 0.222 0.132 0.348 0.207-0.018-0.16-0.034-0.301-0.050-0.441-0.033-0.291 0.101-0.463 0.324-0.569 0.047-0.022 0.102-0.046 0.105-0.096 0.007-0.123 0.092-0.141 0.178-0.167 0.089-0.025 0.165-0.053 0.238-0.087l-0.009 0.004c0.124-0.051 0.23-0.122 0.319-0.21l-0 0c-0.221-0.030-0.436-0.044-0.651-0.058-0.003 0-0.006 0-0.009 0-0.064 0-0.12-0.032-0.153-0.082l-0-0.001c-0.134-0.178-0.15-0.387 0.021-0.472 0.069-0.035 0.065-0.069-0.010-0.126-0.143-0.106-0.155-0.152-0.11-0.315 0.006-0.021 0.029-0.048 0-0.066-0.074-0.042-0.151-0.123-0.23-0.078s-0.118-0.010-0.148-0.078c-0.017-0.042-0.034-0.095-0.048-0.15l-0.002-0.010c-0.003 0.184 0.010 0.368 0.016 0.552 0.007 0.233-0.021 0.253-0.238 0.184-0.017-0.005-0.033-0.009-0.050-0.012-0.159-0.033-0.191-0.012-0.218 0.142-0.021 0.143-0.142 0.252-0.29 0.252-0.044 0-0.086-0.010-0.123-0.027l0.002 0.001c-0.198-0.077-0.399-0.131-0.599-0.184-0.142-0.039-0.148-0.026-0.129 0.129s0.112 0.284 0.136 0.429c0.005 0.1 0.080 0.181 0.176 0.198l0.001 0c0.138 0.028 0.251 0.117 0.31 0.238l0.001 0.003c0.075 0.156 0.301 0.272 0.192 0.479 0 0.006 0.003 0.017 0.005 0.025 0.070 0.338 0.147 0.62 0.239 0.895l-0.016-0.054zM9.442 19.477c0.15-0.045 0.082-0.159 0.045-0.253-0.065-0.169-0.115-0.184-0.211-0.066-0.017 0.023-0.034 0.043-0.052 0.061l0-0c-0.232 0.203-0.319 0.505-0.425 0.797-0.015 0.042-0.004 0.11 0.029 0.114 0.141 0.021 0.268 0.057 0.388 0.107l-0.010-0.004c0.024 0.009 0.057-0.006 0.086 0.025 0.123 0.131 0.245 0.056 0.363 0.056 0.018 0 0.019-0.022 0.013-0.040s-0.029-0.050-0.045-0.041c-0.097 0.055-0.134-0.075-0.21-0.089 0.039-0.080 0.103-0.074 0.171-0.055 0.030 0.009 0.047 0 0.055-0.027s-0.015-0.034-0.034-0.037c-0.029-0.003-0.070 0-0.058-0.045 0.008-0.028 0.050-0.029 0.083-0.012s0.065 0.067 0.112 0.056c-0.017-0.13-0.068-0.245-0.143-0.34l0.001 0.002c-0.004-0.007-0.006-0.016-0.006-0.025 0-0.003 0-0.007 0.001-0.010l-0 0c0.026-0.121-0.028-0.17-0.151-0.174zM11.059 18.887c0.051 0.102 0.088 0.192 0.14 0.276 0.123 0.199 0.202 0.204 0.299 0.031 0.038-0.068 0.020-0.104-0.054-0.151-0.11-0.072-0.239-0.126-0.377-0.153l-0.007-0.001zM11.623 19.893c0.017-0.033 0.053-0.050 0.048-0.093-0.004-0.028-0.025-0.034-0.046-0.033-0.093 0.003-0.191-0.006-0.271 0.030s0.008 0.119 0 0.179c0 0.002 0 0.004 0 0.005 0 0.011-0.002 0.022-0.005 0.031l0-0.001c-0.029 0.050 0.018 0.088 0.047 0.105 0.009 0.006 0.019 0.009 0.031 0.009 0.031 0 0.056-0.024 0.058-0.055v-0c0.020-0.087 0.050-0.159 0.141-0.176zM10.81 19.441c-0.032-0.061-0.071-0.099-0.050-0.123 0.076-0.083 0.004-0.176-0.027-0.259-0.040-0.104-0.118-0.195-0.166-0.301 0.035 0.23-0.006 0.471 0.245 0.685zM8.487 21.133c0.091-0.001 0.178-0.012 0.262-0.033l-0.008 0.002c0.067-0.010 0.061-0.057 0.036-0.099-0.033-0.051-0.069-0.095-0.11-0.135l-0-0c-0.037-0.039-0.066-0.032-0.082 0.013-0.029 0.085-0.061 0.166-0.096 0.255zM11.943 19.724c0.123 0.036 0.237 0.078 0.349 0.024 0.074-0.036 0.107-0.134 0.211-0.123 0.005 0 0.015-0.021 0.012-0.030-0.005-0.015-0.020-0.026-0.036-0.026-0.006 0-0.011 0.001-0.016 0.003l0-0c-0.169 0.059-0.344 0.101-0.517 0.153zM8.204 20.232c0.069 0.081 0.15 0.148 0.241 0.201l0.004 0.002c0.093 0.047 0.118 0.021 0.097-0.080-0.010-0.043-0.040-0.078-0.079-0.095l-0.001-0c-0.086-0.050-0.169-0.031-0.259-0.027zM8.822 20.723c0.015 0.053 0.043 0.096 0.029 0.154-0.009 0.040 0.034 0.104 0.058 0.156 0.014 0.032 0.041 0.028 0.061 0.023s0.021-0.026 0.015-0.048c-0.028-0.112-0.084-0.209-0.16-0.286l0 0zM10.235 19.837c0.048 0.030 0.105 0.050 0.167 0.057l0.002 0c0.036 0.012 0.068 0 0.061-0.044s-0.050-0.065-0.075-0.050c-0.040 0.026-0.099 0.002-0.151 0.037z"></path>
<path fill="#fff" d="M7.099 21.42c-0.164 0.084-0.357 0.108-0.518 0.2l-0.017-0.021c0.138-0.111 0.315-0.179 0.507-0.179 0.009 0 0.019 0 0.028 0l-0.001-0z"></path>
<path fill="#fff" d="M13.266 21.042l0.909 0.145v0.036c-0.302 0-0.607-0.091-0.911-0.148z"></path>
<path fill="#fff" d="M9.347 17.454c0.114 0.058 0.233 0.091 0.234 0.259 0.011 0.166 0.031 0.318 0.059 0.466l-0.004-0.024c-0.131-0.251-0.050-0.52-0.289-0.701z"></path>
<path fill="#fff" d="M10.38 17.589c-0.081-0.142-0.066-0.289-0.091-0.434-0.011-0.061 0-0.126-0.068-0.176-0.016-0.012-0.026-0.032-0.026-0.053 0-0.015 0.005-0.029 0.013-0.040l-0 0c0.037-0.042 0.023-0.098 0.036-0.15 0.062 0.246 0.11 0.537 0.132 0.835l0.001 0.018z"></path>
<path fill="#fff" d="M12.257 20.908c0.239 0.011 0.463 0.042 0.681 0.090l-0.026-0.005c-0.061 0.071-0.144 0.029-0.199 0.015-0.113-0.027-0.243-0.044-0.377-0.047l-0.002-0c-0.035-0.002-0.065-0.025-0.076-0.056l-0-0.001z"></path>
<path fill="#fff" d="M8.641 17.299c0.049 0.084 0.086 0.182 0.104 0.286l0.001 0.005c0 0.023 0.023 0.057-0.016 0.054s-0.084-0.020-0.070-0.061c0.034-0.092-0.019-0.189-0.019-0.284z"></path>
<path fill="#fff" d="M8.617 17.199c-0.030-0.063-0.047-0.138-0.047-0.216 0-0.065 0.012-0.128 0.034-0.186l-0.001 0.004c-0.001 0.031-0.002 0.067-0.002 0.103 0 0.104 0.006 0.206 0.017 0.307l-0.001-0.012z"></path>
<path fill="#fff" d="M9.029 15.55c-0.015 0.146-0.015 0.146-0.123 0.18 0.006-0.079 0.054-0.146 0.121-0.18l0.001-0.001z"></path>
<path fill="#fff" d="M7.37 16.899l0.254-0.013c-0.086 0.090-0.167 0.070-0.254 0.013z"></path>
</svg>
