<!-- Generated by IcoMoon.io -->
<svg version="1.1" xmlns="http://www.w3.org/2000/svg" width="18" height="32" viewBox="0 0 18 32">
<title>2</title>
<rect fill="#fff" x="0" y="0" width="18" height="32"></rect>
<path fill="#1d1d1b" d="M10.080 1.833c-0.006 0.009-0.078 0.066-0.115 0.103-0.089 0.088-0.332 0.097-0.365 0.109-0.058 0.022-0.34-0.081-0.368-0.014-0.309 0.534 0.055 0.456-0.207 1.024-0.035 0.203-0.067 0.406-0.101 0.609-0.013 0.084-0.028 0.168-0.042 0.252 0.002 0.004 0.003 0.008 0.004 0.013l0 0.001c0.057 0.374-0.083 0.771-0.241 1.138-0.081 0.332-0.173 0.66-0.282 0.981-0.123 0.379-0.278 0.708-0.47 1.013l0.011-0.018c-0.211 0.328-0.414 0.682-0.688 0.96-0.059 0.059-0.121 0.114-0.186 0.165l-0.004 0.003c-0.066 0.109-0.136 0.216-0.21 0.319-0.306 0.429-0.683 0.829-0.947 1.293-0.046 0.471-0.144 0.939-0.233 1.41 0.012 0.061 0.024 0.123 0.036 0.189 0.010 0.054 0.020 0.107 0.029 0.161 0.074-0.061 0.175-0.070 0.255-0.117 0.061-0.034 0.098 0.029 0.102 0.084 0.010 0.152 0.053 0.298 0.051 0.455-0.004 0.306 0.011 0.613 0.161 0.895 0.077-0.037 0.086-0.17 0.191-0.096 0.035 0.025 0.080 0.040 0.127 0.040 0.040 0 0.078-0.011 0.111-0.029l-0.001 0.001c0.038 0.093-0.067 0.16-0.021 0.245 0.069-0.021 0.058-0.104 0.111-0.129 0.052 0.039 0 0.115 0.069 0.164-0.008-0.027-0.013-0.058-0.013-0.091 0-0.108 0.055-0.204 0.138-0.26l0.001-0.001c0.037-0.028 0.055-0.123 0.112-0.074 0.040 0.034 0.107 0.074 0.096 0.156-0.016 0.129 0.013 0.257 0.004 0.388s-0.036 0.202-0.203 0.184c0.153 0.074 0.113 0.143 0.022 0.184-0.295 0.133-0.403 0.391-0.474 0.686-0.036 0.15-0.083 0.292-0.010 0.463 0.013-0.048 0.022-0.078 0.031-0.109 0.075 0.040 0.057 0.128 0.118 0.199-0.012-0.106-0.024-0.189-0.030-0.273-0.013-0.197-0.061-0.401 0.132-0.552 0.061-0.047 0.129-0.084 0.188-0.058 0.070 0.032 0.017 0.113 0.017 0.172 0 0.18-0.094 0.329-0.147 0.49-0.061 0.192 0.101 0.411-0.061 0.613-0.034 0.042 0.11 0.207 0.132 0.34 0.011 0.064 0.149 0.102 0.113 0.195s-0.135 0.093-0.221 0.105c-0.074 0.011-0.148 0.027-0.22 0.044s-0.070 0.020-0.126 0.123c0.112-0.045 0.241-0.071 0.377-0.071 0.015 0 0.031 0 0.046 0.001l-0.002-0c-0.116 0.204-0.287 0.343-0.373 0.552-0.076 0.189-0.196 0.356-0.188 0.574 0 0.005 0.001 0.011 0.001 0.017 0 0.050-0.015 0.097-0.041 0.136l0.001-0.001c-0.135 0.195-0.095 0.436-0.199 0.662 0.108-0.026 0.065-0.129 0.137-0.138s0.042 0.091 0.085 0.104c0.051-0.061-0.028-0.127 0.024-0.192 0.085 0.055 0.094 0.123 0.061 0.213-0.054 0.145-0.1 0.286-0.012 0.441 0.039 0.067 0.027 0.184-0.033 0.211-0.145 0.061-0.227 0.18-0.321 0.292-0.015 0.018-0.077 0.027-0.044 0.048 0.094 0.061 0.039 0.165 0.086 0.245 0.061 0.106 0.090 0.245-0.076 0.318-0.041 0.018-0.055 0.053-0.033 0.109 0.089-0.086 0.191-0.054 0.306-0.072-0.023 0.037-0.036 0.082-0.036 0.13 0 0.043 0.011 0.084 0.030 0.119l-0.001-0.001c0.104 0.205-0.111 0.343-0.096 0.527 0 0.009-0.024 0.024-0.040 0.031-0.039 0.019-0.065 0.059-0.065 0.104 0 0.010 0.001 0.020 0.004 0.030l-0-0.001c0.014 0.128-0.061 0.215-0.132 0.295-0.070 0.074-0.126 0.162-0.164 0.259l-0.002 0.006c-0.025 0.091-0.107 0.157-0.205 0.157-0.012 0-0.024-0.001-0.036-0.003l0.001 0c-0.069-0.005-0.15-0.008-0.231-0.008-0.288 0-0.569 0.035-0.837 0.101l0.024-0.005c-0.123 0.030-0.245 0.065-0.368 0.083-0.623 0.089-1.251 0.117-1.878 0.166-0.122 0.011-0.263 0.017-0.406 0.017s-0.284-0.006-0.424-0.019l0.018 0.001c-0.372-0.036-0.744-0.069-1.135-0.105 0.050 0.042 0.113 0.070 0.182 0.078l0.002 0c0.428 0.093 0.924 0.152 1.432 0.163l0.009 0c0.029 0 0.063 0 0.097 0 0.969 0 1.916-0.098 2.83-0.284l-0.091 0.015c0.314-0.061 0.639-0.215 0.957 0 0.009 0.006 0.034-0.004 0.047-0.014 0.093-0.073 0.194-0.009 0.284-0.021 0.113-0.017 0.145 0.118 0.223 0.099 0.184-0.044 0.173 0.084 0.193 0.2 0.061 0.357 0.123 0.712 0.325 1.027 0.102 0.158 0.211 0.324 0.245 0.522 0.004 0.018 0.007 0.038 0.007 0.059 0 0.124-0.084 0.227-0.198 0.257l-0.002 0c-0.113 0.034-0.189 0.126-0.141 0.233 0.021 0.050 0.032 0.107 0.032 0.168 0 0.050-0.008 0.097-0.023 0.142l0.001-0.003c0.061-0.009 0.096-0.098 0.147-0.056s-0.007 0.096-0.028 0.141-0.047 0.081-0.068 0.123c-0.055 0.109-0.164 0.184-0.21 0.323 0.114-0.083 0.206-0.19 0.267-0.316l0.002-0.005c0.061-0.113 0.109-0.245 0.219-0.326 0.036-0.049 0.102-0.083 0.070-0.165s0.080-0.045 0.086-0.1c0.029 0.014 0.049 0.043 0.049 0.076 0 0.014-0.003 0.027-0.009 0.038l0-0c-0.009 0.020-0.019 0.037-0.031 0.053l0.001-0.001c0.208 0.104 0.053 0.208 0 0.311 0.079-0.012 0.149-0.035 0.215-0.066l-0.004 0.002c0.028-0.018-0.061-0.123 0.015-0.151s0.023 0.114 0.105 0.105c0.030-0.003 0.061-0.044 0.090 0 0 0.081-0.123 0.099-0.096 0.194 0.123-0.102 0.178 0.013 0.232 0.077 0.157 0.184-0.15 0.115-0.127 0.231 0.114 0.017 0.118 0.018 0.080 0.123-0.119 0.341-0.24 0.681-0.196 1.055 0.010 0.084-0.015 0.097-0.149 0.155-0.010 0.005-0.018 0.015-0.020 0.027l-0 0c-0.029 0.219-0.368 0.332-0.206 0.617 0 0.003 0.001 0.005 0.001 0.008 0 0.009-0.003 0.018-0.008 0.026l0-0c-0.078 0.123-0.061 0.261-0.082 0.396-0.035 0.217-0.1 0.412-0.193 0.591l0.005-0.011c0.112-0.017 0.158 0.021 0.149 0.128-0.001 0.019-0.002 0.040-0.002 0.062 0 0.183 0.040 0.358 0.113 0.514l-0.003-0.008c0.11 0.273 0.198 0.54 0.139 0.854s-0.129 0.598-0.312 0.847c-0.090 0.123-0.202 0.231-0.306 0.346 0.091 0.033 0.096-0.020 0.123-0.043 0.039-0.028 0.072-0.059 0.102-0.093l0.001-0.001c0.429-0.54 0.681-1.121 0.391-1.825-0.087-0.212-0.163-0.429-0.132-0.667 0.031-0.259 0.075-0.488 0.134-0.711l-0.008 0.037c0.032-0.123 0.036-0.245 0.226-0.184-0.154-0.215 0.053-0.273 0.123-0.383s0.145-0.053 0.175 0.031c0.066 0.187 0.129 0.376 0.096 0.585-0.067 0.412-0.14 0.819-0.314 1.205-0.052 0.11-0.082 0.24-0.082 0.376 0 0.101 0.017 0.198 0.047 0.289l-0.002-0.006c0.052 0.157 0.027 0.318 0 0.46-0.053 0.294-0.123 0.587-0.17 0.883-0.015 0.084-0.024 0.18-0.024 0.279 0 0.158 0.023 0.311 0.065 0.456l-0.003-0.011c-0.024-0.205 0.135-0.33 0.196-0.498-0.007 0.040-0.011 0.085-0.011 0.131s0.004 0.092 0.012 0.136l-0.001-0.005c0.014-0.028 0.024-0.066 0.034-0.066 0.080 0 0 0.103 0.072 0.123 0.023-0.212 0.108-0.401 0.236-0.553l-0.001 0.002c0.102-0.134 0.349-0.198 0.453-0.135 0.064 0.039 0.083 0.112 0.129 0.162l0.455 0.732c-0.026-0.248-0.080-0.475-0.16-0.69l0.006 0.019c-0.017-0.045-0.104-0.18 0.072-0.112 0.048 0.018 0.057-0.031 0.046-0.042-0.134-0.134-0.007-0.184 0.081-0.237-0.026-0.058-0.081-0.040-0.116-0.073-0.066-0.064-0.174-0.088-0.164-0.213-0.219-0.010-0.1-0.158-0.096-0.256 0-0.053 0.023-0.105 0.025-0.157 0.004-0.126 0.003-0.245 0.188-0.172 0.050 0.020 0.093-0.049 0.141-0.053 0.088-0.008 0.102-0.217 0.227-0.091s-0.053 0.177-0.068 0.27c0.142 0.027 0.274 0.215 0.264 0.349-0.015 0.203-0.216 0.216-0.318 0.333 0.113-0.021 0.214-0.072 0.324-0.070 0.042 0.001 0.079 0.021 0.103 0.052l0 0c0.031 0.054-0.036 0.037-0.055 0.056s-0.047 0.065-0.022 0.094c0.033 0.040 0.061 0 0.084-0.024s0.046-0.049 0.072-0.021c0.068 0.071 0.107 0.030 0.167-0.018 0.034-0.024 0.077-0.038 0.123-0.038 0.017 0 0.033 0.002 0.049 0.006l-0.001-0c0.033 0.010 0.050 0.085 0.072 0.132 0.029 0.066-0.104 0.017-0.067 0.103 0.052 0.131 0.085 0.283 0.092 0.442l0 0.003c0.015 0.184 0.237 0.407-0.040 0.578-0.028 0.017-0.024 0.087-0.034 0.133-0.004 0.020 0.017 0.035-0.006 0.061-0.053 0.061-0.045 0.082 0.024 0.086 0.014 0.002 0.030 0.003 0.047 0.003 0.116 0 0.22-0.053 0.289-0.136l0.001-0.001c0.108-0.139 0.229-0.259 0.363-0.364l0.005-0.003c0.118-0.085 0.18-0.231 0.321-0.281 0.16-0.056 0.094-0.245 0.196-0.338 0.014-0.018 0.026-0.038 0.037-0.059l0.001-0.002c0.017-0.025 0.047-0.055 0.069-0.024 0.071 0.097 0.101 0.003 0.157-0.018 0.108-0.040 0.068-0.137 0.095-0.202 0.058-0.141 0.189-0.199 0.286-0.297-0.071 0.017-0.126 0.066-0.198 0.057-0.042-0.006-0.102 0.009-0.085-0.072 0.012-0.054 0.004-0.137 0.092-0.111 0.123 0.036 0.262-0.033 0.368 0.086 0.080 0.088 0.223 0.102 0.272 0.232 0.070 0.189 0.118 0.379 0.051 0.582-0.014 0.029-0.023 0.064-0.023 0.101s0.008 0.071 0.023 0.102l-0.001-0.001c0.123-0.289 0.222-0.564 0.134-0.854-0.055-0.184 0.032-0.255 0.143-0.352 0.173-0.144 0.296-0.341 0.346-0.566l0.001-0.007c-0.118 0.149-0.184 0.338-0.335 0.46-0.050 0.040-0.096 0.085-0.148 0.123-0.068 0.046-0.123 0.039-0.172-0.041s-0.115-0.134-0.159-0.2c-0.019-0.032-0.031-0.071-0.031-0.113 0-0.072 0.034-0.135 0.086-0.176l0.001-0c0.156-0.107 0.138-0.286 0.199-0.429 0.018-0.042-0.105-0.123 0-0.158s0.184-0.162 0.312-0.094c0.065 0.034 0.114 0.067 0.199 0.007s0.105 0.027 0.111 0.112c0.011 0.179-0.078 0.342-0.069 0.519 0.113-0.134 0.103-0.306 0.119-0.465 0.014-0.137 0.042-0.184 0.184-0.21 0.288-0.056 0.548-0.194 0.686-0.479 0.058-0.123 0.102-0.003 0.167-0.012-0.061-0.255 0.061-0.429 0.22-0.593 0.051-0.054 0.089-0.074 0.155-0.044 0.013 0.006-0.012 0.101 0.037 0.019 0.021-0.035 0.111-0.026 0.072-0.092-0.055-0.093-0.044-0.161 0.051-0.198 0.112-0.044 0.085 0.094 0.141 0.134 0.046-0.058-0.017-0.132 0.044-0.202 0.030 0.107 0 0.212 0.061 0.338-0.004-0.035-0.006-0.075-0.006-0.116 0-0.004 0-0.009 0-0.013v0.001c0.004-0.049-0.032-0.126 0.031-0.14s0.087 0.066 0.107 0.118 0.025 0.116 0.091 0.107c0.119-0.016 0.179 0.030 0.195 0.15 0.003 0.024 0.017 0.058 0.061 0.040 0.013-0.143-0.049-0.273-0.076-0.409-0.006-0.031-0.024-0.116 0.024-0.088 0.162 0.094 0.067-0.050 0.074-0.080 0.036-0.159-0.061-0.34 0.068-0.485s0.093-0.355 0.139-0.531c0.041-0.155 0.131-0.133 0.227-0.143 0.015 0 0.029 0.093 0.051 0 0.011-0.049 0.074-0.089 0.037-0.144-0.024-0.036-0.061-0.005-0.094 0.007-0.053 0.019-0.099 0.069-0.17 0.061 0.037-0.082 0.114-0.092 0.178-0.154-0.088-0.026-0.151-0.075-0.137-0.165 0.032-0.197-0.061-0.396 0.012-0.595 0.007-0.020 0.011-0.042 0.011-0.065 0-0.038-0.011-0.074-0.029-0.105l0.001 0.001c-0.075-0.085-0.040-0.165-0.019-0.245 0.028-0.11 0.078-0.215 0.095-0.325 0.023-0.15 0.079-0.123 0.172-0.061 0.183 0.132 0.332 0.3 0.437 0.495l0.004 0.008c0.009-0.022 0.014-0.047 0.014-0.074 0-0.050-0.019-0.096-0.049-0.131l0 0c-0.116-0.123-0.164-0.295-0.284-0.423-0.097-0.111-0.156-0.258-0.156-0.418 0-0.014 0-0.029 0.001-0.043l-0 0.002c0.135 0.116 0.127 0.297 0.245 0.425-0.009-0.15-0.075-0.254-0.126-0.368-0.136-0.297-0.224-0.593-0.026-0.904 0.087-0.137 0.151-0.289 0.224-0.434 0.010-0.006 0.022-0.009 0.034-0.009 0.017 0 0.032 0.006 0.044 0.016l-0-0c0.143 0.123 0.034 0.242-0.015 0.346-0.061 0.134-0.013 0.227 0.054 0.33 0.001-0.231 0.057-0.449 0.157-0.642l-0.004 0.008c0.077 0.042-0.018 0.135 0.076 0.178 0.008-0.144 0.184-0.229 0.13-0.409-0.085 0.043-0.037 0.167-0.145 0.173-0.001-0.008-0.001-0.016-0.001-0.025 0-0.073 0.033-0.138 0.084-0.181l0-0c0.092-0.066 0.154-0.167 0.169-0.284l0-0.002c0.074-0.384 0.132-0.759-0.106-1.12-0.105-0.159-0.142-0.368-0.228-0.539-0.207-0.418-0.356-0.852-0.386-1.323-0.015-0.228-0.031-0.457-0.047-0.704-0.075 0.067-0.028 0.142-0.069 0.204-0.080-0.112-0.165-0.207-0.064-0.337-0.127-0.25-0.044-0.561-0.221-0.797-0.021-0.029-0.046-0.123 0.013-0.103 0.134 0.043 0.055-0.044 0.044-0.066-0.134-0.287-0.223-0.62-0.249-0.971l-0.001-0.010c-0.009-0.090 0.019-0.206-0.026-0.266-0.159-0.214-0.096-0.458-0.089-0.681 0.009-0.279-0.044-0.506-0.245-0.693-0.050 0.029 0.013 0.101-0.069 0.123-0.013-0.066-0.048-0.126-0.012-0.199 0.013-0.026 0.020-0.057 0.020-0.089 0-0.023-0.004-0.046-0.011-0.066l0 0.001c-0.072-0.249-0.233-0.452-0.444-0.579l-0.005-0.002c-0.177-0.112-0.408-0.138-0.521-0.352-0.007-0.012-0.045-0.018-0.061-0.012-0.072 0.024-0.077-0.031-0.107-0.074-0.047-0.065-0.036-0.168-0.085-0.204-0.13-0.095-0.123-0.088-0.148-0.184-0.097-0.392-0.109-0.819-0.429-1.123-0.012-0.012-0.023-0.026-0.032-0.041l-0.001-0.001c-0.173-0.3-0.19-0.642-0.184-0.967 0.006-0.246 0.028-0.481 0.065-0.711l-0.004 0.030c0.072-0.438-0.108-0.766-0.437-1.027-0.111-0.086-0.198-0.196-0.255-0.323l-0.002-0.005c-0.113-0.264-0.178-0.571-0.178-0.894 0-0.038 0.001-0.075 0.003-0.113l-0 0.005c0.017-0.479-0.037-0.93-0.346-1.319-0.061-0.078-0.061-0.184-0.145-0.271-0.184-0.184-0.345-0.389-0.424-0.65s-0.169-0.525-0.252-0.788c-0.123-0.39-0.254-0.776-0.259-1.196 0.001-0.015 0.002-0.032 0.002-0.049 0-0.093-0.016-0.183-0.046-0.266l0.002 0.006c-0.085-0.205-0.202-0.392-0.288-0.594-0.115-0.268 0.043-0.475-0.119-0.71-0.036-0.073-0.079-0.136-0.132-0.192l0 0c0.030 0.157-0.052 0.422-0.018 0.616M6.39 17.901c0.105 0.147 0.172 0.3 0.082 0.509-0.031-0.188-0.056-0.347-0.082-0.507zM6.496 19.199c-0.051 0.041-0.083 0.102-0.083 0.172 0 0.016 0.002 0.031 0.005 0.046l-0-0.001c-0.132-0.116-0.008-0.202 0.025-0.297 0.007-0.021 0.041-0.015 0.058 0.004 0.009 0.009 0.015 0.022 0.015 0.036 0 0.016-0.008 0.031-0.019 0.040l-0 0zM6.939 22.14c-0.038-0.099-0.060-0.214-0.060-0.334 0-0.113 0.020-0.222 0.056-0.323l-0.002 0.007c0.094 0.236 0.043 0.442 0.007 0.651zM7.239 22.759c0.057-0.119-0.284-0.204-0.012-0.362 0.008 0.077-0.061 0.137 0.013 0.192 0.064 0.047 0.039 0.11 0 0.17zM7.861 25.198c-0.033 0.071-0.068 0.131-0.108 0.188l0.003-0.004c-0.038 0.055 0.026 0.134-0.048 0.175-0.154-0.196-0.117-0.606 0.085-0.875 0.053 0.116 0.089 0.222-0.069 0.302 0.186 0.001 0.216 0.053 0.138 0.215zM7.889 29.784c-0.045-0.044 0.043-0.091-0.019-0.133-0.135 0.309-0.332 0.585-0.49 0.907-0.047-0.327 0.054-0.605 0.119-0.889 0.030-0.131 0.088-0.255 0.084-0.394 0.004-0.036 0.021-0.067 0.046-0.090l0-0c0.006-0.006 0.069 0.023 0.068 0.033-0.012 0.184 0.179 0.226 0.237 0.363 0.037 0.093 0.039 0.15-0.043 0.203zM8.122 26.943c0-0.11-0.019-0.202 0.058-0.276 0 0.088 0.080 0.196-0.057 0.277zM9.732 29.381c-0.048-0.106-0.086-0.189-0.127-0.281 0.216 0.064 0.216 0.066 0.127 0.281zM9.999 28.71c-0.013 0.093-0.020 0.184-0.029 0.28-0.004 0.033 0.007 0.078-0.045 0.076-0.029-0-0.056-0.012-0.076-0.030l0 0c-0.105-0.123-0.101-0.39 0.020-0.539-0.015 0.108-0.028 0.197-0.041 0.295 0.14-0.061 0.061-0.205 0.129-0.285 0.086 0.056 0.053 0.131 0.042 0.203zM10.296 30.982c-0.047 0.017-0.058-0.025-0.061-0.061-0.009-0.057-0.042-0.123 0.005-0.169s0.058 0.033 0.091 0.048c-0.093 0.031-0.010 0.061 0 0.093 0.005 0.009 0.008 0.020 0.008 0.031 0 0.027-0.018 0.050-0.042 0.058l-0 0zM10.658 30.358c0.046 0.268-0.142 0.355-0.328 0.443v0c-0.061-0.299-0.12-0.6-0.189-0.948 0.16 0.156 0.223 0.344 0.406 0.398 0.024-0.040 0-0.061-0.023-0.078-0.116-0.098-0.18-0.199-0.034-0.327 0.040-0.026 0.066-0.070 0.066-0.121 0-0.017-0.003-0.033-0.008-0.048l0 0.001c-0.030-0.086-0.009-0.199 0.079-0.188s0.208 0.091 0.199 0.198c-0.017 0.215 0 0.447-0.164 0.624-0.004 0.008-0.006 0.017-0.006 0.027 0 0.006 0.001 0.012 0.003 0.018l-0-0zM10.961 30.28c-0.002 0.030-0.027 0.054-0.057 0.054-0.007 0-0.013-0.001-0.019-0.003l0 0c-0.025-0.008-0.067-0.017-0.061-0.051 0.047-0.207 0.098-0.414 0.154-0.646 0.188 0.253 0.006 0.443-0.015 0.646zM12.76 9.482c-0.053-0.236-0.088-0.509-0.097-0.79l-0-0.007c0.191 0.129 0.243 0.55 0.099 0.797zM12.98 9.756c-0.012-0.245 0.061-0.49 0.018-0.735 0.069 0.248 0.042 0.492-0.017 0.735zM13.352 27.166c-0.062 0.183-0.135 0.341-0.223 0.489l0.006-0.012c-0.017-0.223 0.051-0.359 0.218-0.477zM13.939 27.438c-0.037 0.196-0.147 0.362-0.3 0.47l-0.002 0.002c-0.089 0.057-0.192 0.107-0.301 0.144l-0.010 0.003c-0.065 0.023-0.133 0.069-0.192 0.024-0.070-0.053-0.031-0.142-0.028-0.216 0-0.044 0.021-0.082 0.054-0.107l0-0c0.254-0.178 0.313-0.477 0.443-0.735 0.061-0.123 0.055-0.254 0.104-0.413 0.184 0.272 0.078 0.552 0.153 0.811 0.011-0.017 0.026-0.061 0.042-0.061 0.051-0.001 0.046 0.050 0.039 0.080zM14.429 26.545c-0.034 0.069-0.083 0.072-0.132 0.011 0.048 0.184 0.148 0.379-0.077 0.526-0.034 0.023-0.061 0.056-0.104 0.042s-0.031-0.055-0.039-0.087c-0.036-0.143-0.104-0.275-0.088-0.435 0.008-0.079 0.095-0.129 0.058-0.214-0.131 0.012-0.089-0.113-0.12-0.173-0.025-0.049-0.008-0.119-0.010-0.224 0.078 0.146 0.184 0.233 0.129 0.381 0.106 0.023 0.175 0.1 0.245 0.175-0.026-0.064-0.055-0.127-0.077-0.192s0.011-0.086 0.070-0.080c-0.070-0.098-0.156-0.184-0.189-0.306-0.011-0.034-0.017-0.072-0.017-0.112 0-0.112 0.048-0.212 0.124-0.282l0-0c0.090 0.225 0.254 0.429 0.098 0.68 0.061-0.069 0.131-0.108 0.218-0.061 0.035 0.053-0.128 0.097 0.015 0.169 0.062 0.028-0.070 0.115-0.105 0.184zM14.59 13.191c0.257 0.099 0.271 0.321 0.333 0.511-0.135-0.145-0.247-0.314-0.329-0.499l-0.005-0.012zM15.287 14.562c-0.069-0.159-0.123-0.278-0.17-0.401-0.015-0.037-0.091-0.093 0-0.123 0.012-0.005 0.025-0.008 0.040-0.008 0.053 0 0.097 0.042 0.1 0.095v0c0.017 0.13 0.066 0.258 0.030 0.438zM15.782 23.509c-0.011 0.005-0.024 0.007-0.037 0.007-0.029 0-0.055-0.013-0.073-0.033l-0-0c-0.066-0.075-0.123-0.484-0.075-0.596 0.155 0.146 0.144 0.357 0.214 0.533 0.012 0.026 0.017 0.071-0.029 0.085zM15.855 21.777c-0.010-0.056-0.016-0.121-0.016-0.187 0-0.154 0.031-0.3 0.087-0.433l-0.003 0.007c0.042 0.191 0.102 0.391-0.069 0.61zM16.345 19.767c0.038-0.029 0.069 0 0.082 0.032 0.067 0.146 0.129 0.294 0.194 0.441l-0.040 0.016c-0.078-0.135-0.184-0.255-0.23-0.411-0.011-0.030-0.037-0.059-0.008-0.081zM16.359 21.532c-0.066 0.033-0.094 0.147-0.138 0.226-0.112 0.029-0.171 0-0.127-0.13 0.135-0.4 0.114-0.83 0.222-1.236 0.024-0.091 0.048-0.097 0.109-0.041 0.148 0.135 0.245 0.31 0.232 0.508-0.006 0.085 0.055 0.146 0.024 0.235-0.068 0.18-0.134 0.341-0.325 0.435zM16.454 21.782c-0.126-0.251 0.099-0.275 0.164-0.386-0.070 0.104-0.101 0.227-0.167 0.382z"></path>
<path fill="#fff" d="M11.423 23.277c-0.054-0.223-0.091-0.443-0.195-0.674-0.019-0.046-0.036-0.103-0.050-0.161l-0.002-0.008c-0.035-0.1-0.062-0.217-0.074-0.337l-0.001-0.006c-0.011-0.123-0.032-0.236-0.064-0.345l0.003 0.012c-0.047-0.24-0.1-0.442-0.164-0.639l0.011 0.037c-0.024-0.067-0.087-0.134-0.069-0.198-0.044-0.019 0 0.048-0.038 0.032-0.004-0.009-0.006-0.019-0.006-0.030 0-0.017 0.005-0.033 0.014-0.046l-0 0c0.015-0.043 0.032-0.090-0.051-0.143-0.036-0.023-0.043-0.051-0.020-0.067s0.029-0.026 0.013-0.051c-0.027-0.042-0.031 0.012-0.065-0.013 0.031-0.070 0.007-0.16-0.040-0.257-0.008-0.017-0.009-0.039-0.028-0.049-0.040-0.016-0.069-0.055-0.069-0.1 0-0.008 0.001-0.016 0.003-0.023l-0 0.001c-0.040-0.026-0.032 0.023-0.058 0.012-0.042-0.095-0.052-0.1-0.108-0.061-0.020 0.011-0.043 0.023-0.068 0.033l-0.004 0.002c-0.001-0.005-0.001-0.010-0.001-0.016 0-0.024 0.008-0.046 0.022-0.063l-0 0c0.010-0.018 0.047-0.012 0.009-0.067s-0.061-0.061-0.093-0.056c-0.038 0.007-0.083 0.011-0.128 0.011-0.069 0-0.135-0.009-0.199-0.026l0.005 0.001c-0.040-0.008-0.086-0.006-0.094 0.042-0.003 0.017-0.012 0.018-0.026 0.012-0.119-0.049-0.268-0.099-0.421-0.139l-0.027-0.006c-0.008 0-0.016-0.009-0.028-0.029l0.298 0.051c0.105 0.024 0.226 0.037 0.35 0.037 0.046 0 0.092-0.002 0.137-0.006l-0.006 0c0.061-0.007 0.137 0.023 0.197 0.010 0.030-0.007 0.101 0.005 0.004-0.070-0.013-0.010-0.021-0.017 0-0.017 0.043 0 0.004-0.029-0.006-0.045-0.052-0.089-0.137-0.16-0.184-0.256-0.015-0.032-0.058-0.047-0.065-0.040-0.037 0.032-0.113-0.014-0.145 0.028-0.009 0.012-0.024 0.021-0.045 0s0.023-0.021 0-0.044c-0.086-0.047-0.119 0.018-0.184 0.015-0.161-0.006-0.315 0.010-0.479 0-0.135-0.010-0.384-0.281-0.526-0.311 0.047-0.051 0.288 0.205 0.357 0.2 0.158-0.013 0.288 0.040 0.455 0.051 0.104 0.007 0.115-0.074 0.148-0.138 0.003-0.011 0.007-0.025 0.009-0.040l0-0.003c0.048-0.113-0.020-0.241-0.166-0.313-0.018-0.011-0.039-0.021-0.062-0.029l-0.003-0.001c-0.053-0.013-0.091-0.059-0.094-0.114v-0c-0.001-0.032-0.020-0.060-0.047-0.074l-0.001-0c-0.061-0.036-0.007 0.024-0.014 0.033s-0.020 0.006-0.032-0.010-0.028-0.045-0.053-0.055c0 0.034 0.042 0.051 0.055 0.085-0.022 0.006-0.037-0.024-0.046-0.036-0.077-0.103-0.199-0.169-0.336-0.169-0.005 0-0.010 0-0.014 0l0.001-0c-0.004 0-0.010 0.004-0.012 0-0.115-0.141-0.228-0.101-0.342-0.156s-0.239-0.083-0.357-0.129c-0.192-0.075-0.381-0.123-0.572-0.2-0.073-0.035-0.166-0.071-0.26-0.102l-0.018-0.005c0.023-0.024 0.061-0.008 0.094 0.004q0.408 0.142 0.817 0.287c0.418 0.15 0.835 0.287 1.254 0.458 0.169 0.069 0.23 0.035 0.271-0.092 0.047-0.147 0.075-0.306 0.142-0.441 0.020-0.048 0.047-0.088 0.081-0.123v0c0.033-0.022 0.054-0.060 0.054-0.102 0-0.014-0.002-0.027-0.007-0.040l0 0.001c0.038 0.072 0.083 0.144 0.113 0.216 0.093 0.214 0.195 0.397 0.314 0.568l-0.007-0.011c0.039 0.061 0.080 0.152 0.154 0.102 0.019-0.013 0.078 0.031 0.116 0.061 0.036 0.027 0.078 0.051 0.122 0.071l0.004 0.002c0.071 0.039 0.045-0.013 0.030-0.047-0.020-0.048-0.137-0.135-0.158-0.113-0.037 0.037-0.090-0.025-0.132-0.021 0.049-0.014 0.050-0.066 0.056-0.115 0.009-0.076 0.078-0.078 0.14-0.075 0.075 0.004 0.098-0.019 0.066-0.115-0.011-0.071-0.040-0.133-0.081-0.185l0.001 0.001c-0.015-0.015-0.024-0.035-0.024-0.057 0-0.014 0.003-0.027 0.009-0.038l-0 0c0.006-0.020 0.010-0.044 0.010-0.068 0-0.033-0.007-0.065-0.019-0.094l0.001 0.002c-0.065-0.259-0.128-0.518-0.191-0.777-0.004-0.013-0.010-0.030 0.004-0.034v0c0.044 0.117 0.085 0.258 0.115 0.404l0.003 0.018c0.006 0.067 0.052 0.121 0.114 0.139l0.001 0c0.018 0.009 0.033 0.019 0.047 0.031l-0-0c-0.004 0.021-0.021 0.008-0.032 0.004-0.085-0.027-0.097-0.015-0.036 0.069 0.090 0.123 0.129 0.25 0.2 0.373 0.021 0.037 0.029 0.061 0.074 0.061s0.061 0.068 0.089 0.108c0.077-0.018 0.053-0.083 0-0.163s-0.087-0.184-0.137-0.27c-0.018-0.048-0.046-0.089-0.080-0.123l-0-0c-0.012-0.010-0.033-0.031-0.014-0.041s0.028 0 0.043 0.019c0.020 0.027 0.036 0.059 0.047 0.094l0.001 0.002c0.057 0.138 0.11 0.2 0.195 0.223 0.069 0.019 0.094-0.033 0.139-0.073 0.004 0.048 0 0.073-0.026 0.084-0.012 0.005-0.029 0.007-0.018 0.030 0.008 0.016 0.024 0.026 0.042 0.026 0.001 0 0.002-0 0.002-0h-0c0.048-0.006 0.132 0.056 0.127-0.051 0.008-0.038 0.041-0.066 0.080-0.066 0.019 0 0.037 0.007 0.051 0.018l-0-0c0.038 0.023 0.045 0 0.061-0.015s0.019-0.047 0.056-0.052c-0.072 0.153-0.145 0.295-0.226 0.429-0.031 0.050-0.061 0.104-0.087 0.156-0.005 0.009-0.008 0.019-0.008 0.030 0 0.016 0.006 0.030 0.016 0.041l-0-0c0.021 0.029 0.037 0.013 0.056 0.013 0.025-0.002 0.054-0.003 0.083-0.003s0.058 0.001 0.087 0.003l-0.004-0c0.106-0 0.21-0.008 0.311-0.023l-0.011 0.001c0.030-0.002 0.066-0.004 0.101-0.004 0.083 0 0.165 0.007 0.244 0.021l-0.009-0.001c0.017 0.003 0.036 0.004 0.055 0.004 0.073 0 0.142-0.022 0.199-0.060l-0.001 0.001c0.103-0.053 0.192-0.111 0.275-0.177l-0.003 0.003c-0.092 0.103-0.215 0.166-0.329 0.241-0.064 0.044-0.137 0.081-0.215 0.107l-0.006 0.002c-0.022 0.010-0.048 0.015-0.074 0.015-0.018 0-0.036-0.003-0.053-0.008l0.001 0c-0.066-0.019-0.104 0.035-0.159 0.049-0.070 0.018-0.131 0.054-0.198 0.078-0.115 0.041-0.233 0.078-0.317 0.164-0.011 0.011-0.047 0.010-0.016 0.051 0.017 0.022 0.040 0.050 0.061 0.028 0.007-0.008 0.023-0.006 0.032 0.017 0.009 0.015 0.015 0.033 0.018 0.051l0 0.001c0 0.020-0.015 0.015-0.035 0-0.006-0.006-0.014-0.011-0.024-0.011s-0.018 0.004-0.024 0.010l-0 0c-0.004 0.004 0 0.023 0.006 0.031 0.010 0.013 0.026 0.022 0.043 0.022 0.003 0 0.006-0 0.009-0.001l-0 0c0.040 0 0.082-0.004 0.098 0.077-0.024-0.004-0.046-0.068-0.065-0.039s0.021 0.040 0.040 0.058c0.046 0.043 0.103 0.075 0.166 0.092l0.003 0.001c0.108 0.034 0.211 0.042 0.322 0.1v-0.003c-0.006 0.044-0.051 0.029-0.082 0.027-0.078-0.005-0.137 0.010-0.143 0.099 0 0.006-0.009 0.008-0.015 0.010-0.085 0.023-0.010 0.068 0.039 0.115-0.023 0.017-0.070 0.012-0.048 0.071 0 0.004 0 0.009 0 0.013-0.009 0.044-0.096-0.118-0.079 0 0.004 0.031 0 0.029-0.098-0.024 0.031 0.064 0.075 0.118 0.129 0.159l0.001 0.001c0.136 0.126 0.26 0.26 0.373 0.404l0.006 0.007c0.029 0.047 0.071 0.083 0.121 0.105l0.002 0.001c0.066 0.023 0.025 0.087 0.068 0.127-0.138-0.113-0.257-0.243-0.354-0.388l-0.004-0.006c-0.036-0.047-0.069-0.101-0.123-0.070-0.028 0.016-0.039-0.028-0.048-0.056-0.026-0.076-0.199-0.227-0.254-0.222-0.021 0-0.009 0.030-0.006 0.048 0.036 0.207 0.095 0.392 0.176 0.565l-0.006-0.014c0.203 0.503 0.368 1.003 0.542 1.504 0.056 0.164 0.102 0.328 0.173 0.49-0.076-0.063-0.138-0.141-0.182-0.228l-0.002-0.004c-0.014-0.018-0.022-0.042-0.022-0.067 0-0.008 0.001-0.017 0.003-0.025l-0 0.001c0.008-0.029 0.012-0.063 0.012-0.098 0-0.070-0.018-0.136-0.049-0.193l0.001 0.002c-0.101-0.224-0.142-0.445-0.236-0.668-0.085-0.2-0.14-0.402-0.249-0.598-0.050-0.1-0.101-0.224-0.145-0.351l-0.007-0.022c-0.005-0.011-0.012-0.029-0.018-0.033-0.043-0.014-0.074-0.053-0.074-0.1 0-0.015 0.003-0.029 0.009-0.042l-0 0.001c-0.075 0.045-0.080 0.132-0.137 0.167-0.020 0.012-0.003 0.061 0.009 0.068 0.055 0.034 0.045 0.074 0.061 0.113s0.022 0.048-0.013 0.042c-0.015 0-0.013 0.023-0.007 0.031 0.045 0.055 0.016 0.089 0.029 0.134 0.004 0.041 0.028 0.076 0.061 0.096l0.001 0c0.010 0.006 0.053 0.056 0.009 0.061-0.031 0-0.021 0.027-0.012 0.055 0.012 0.046 0.024 0.084 0.038 0.121l-0.002-0.007c0.043 0.083 0.071 0.181 0.078 0.284l0 0.002c0.001 0.046 0.019 0.088 0.047 0.12l-0-0c0.009 0.010 0.021 0.021 0.015 0.031-0.048 0.070-0.008 0.199 0.039 0.27 0.074 0.111 0.044 0.164 0.056 0.245 0.086 0.571 0.13 1.126 0.158 1.674 0 0.029 0.013 0.065-0.007 0.081l-0.051-0.064c0.036-0.055 0-0.141-0.008-0.215-0.030-0.291 0.011-0.555-0.087-0.872-0.001-0.004-0.002-0.008-0.002-0.012s0.001-0.008 0.002-0.012l-0 0c0.036-0.086-0.010-0.2-0.042-0.306-0.007-0.023-0.028-0.061-0.015-0.067 0.049-0.027-0.014-0.114 0.012-0.153 0.005-0.007-0.009-0.034-0.023-0.039-0.094-0.035-0.055-0.061-0.034-0.092 0.008-0.012 0.020-0.031 0.013-0.047-0.056-0.129-0.037-0.237-0.066-0.357-0.048-0.203-0.154-0.416-0.178-0.617-0.001-0.050-0.022-0.095-0.055-0.127v0c-0.043-0.030-0.072-0.075-0.080-0.128l-0-0.001c0.001-0.005 0.002-0.010 0.002-0.016 0-0.042-0.034-0.076-0.076-0.076-0.005 0-0.010 0-0.014 0.001l0-0c-0.057 0.019-0.107-0.042-0.159-0.077-0.023-0.015-0.054-0.074-0.070-0.029-0.010 0.028-0.043 0.047 0.012 0.107 0.040 0.044 0.021 0.136-0.028 0.123-0.112-0.032-0.072 0.048-0.050 0.119 0.015 0.047 0.028 0.094 0.043 0.142 0.002 0.019 0.011 0.036 0.024 0.049v0c0.050 0.044 0.085 0.123 0.072 0.146-0.026 0.048-0.006 0.106 0.008 0.162 0.040 0.169 0.076 0.338 0.133 0.509 0.044 0.132 0.027 0.262 0.139 0.399 0.014 0.018 0.012 0.050 0 0.052-0.040 0.006-0.022 0.047-0.015 0.078 0.032 0.146 0.066 0.294 0.105 0.442 0.048 0.187 0.102 0.374 0.153 0.562zM10.777 20.653c0.026-0.088 0.048-0.156 0.066-0.228 0.025-0.101 0.075-0.11 0.19-0.030 0.077 0.054 0.153 0.11 0.239 0.172-0.027-0.11-0.050-0.206-0.074-0.302-0.048-0.199 0.020-0.303 0.15-0.353 0.028-0.010 0.061-0.021 0.058-0.055-0.007-0.082 0.044-0.086 0.096-0.096 0.051-0.008 0.097-0.020 0.141-0.036l-0.005 0.002c0.073-0.021 0.135-0.059 0.184-0.111l0-0c-0.142-0.041-0.279-0.072-0.416-0.101-0.046-0.007-0.085-0.033-0.11-0.070l-0-0.001c-0.101-0.134-0.131-0.275-0.032-0.317 0.040-0.017 0.034-0.040-0.018-0.085-0.1-0.085-0.112-0.118-0.1-0.223 0-0.014 0.014-0.030-0.008-0.045-0.051-0.035-0.108-0.099-0.153-0.075s-0.075-0.018-0.101-0.067c-0.014-0.029-0.030-0.066-0.044-0.104l-0.003-0.008c0.016 0.123 0.042 0.25 0.061 0.374 0.026 0.158 0.010 0.169-0.132 0.103-0.011-0.006-0.022-0.009-0.032-0.013-0.103-0.037-0.123-0.026-0.123 0.075-0.003 0.129-0.108 0.184-0.237 0.113s-0.264-0.126-0.396-0.184c-0.093-0.040-0.096-0.032-0.069 0.075s0.097 0.202 0.127 0.3c0.015 0.070 0.064 0.126 0.129 0.15l0.001 0c0.095 0.036 0.171 0.103 0.218 0.189l0.001 0.002c0.061 0.112 0.216 0.213 0.167 0.341 0 0.003 0.004 0.012 0.006 0.017 0.053 0.189 0.134 0.376 0.221 0.59zM10.083 18.413c0.089-0.017 0.036-0.099 0.004-0.166-0.058-0.123-0.090-0.134-0.14-0.065-0.008 0.014-0.017 0.026-0.027 0.037l0-0c-0.126 0.115-0.153 0.31-0.192 0.495-0.006 0.027 0.008 0.074 0.029 0.080 0.095 0.029 0.177 0.065 0.254 0.109l-0.006-0.003c0.016 0.009 0.035 0 0.056 0.025 0.089 0.1 0.158 0.061 0.234 0.073 0.012 0 0.010-0.013 0.004-0.026s-0.023-0.036-0.032-0.032c-0.056 0.028-0.092-0.061-0.141-0.080 0.017-0.050 0.058-0.040 0.102-0.020 0.020 0.009 0.029 0.004 0.032-0.013s-0.012-0.024-0.024-0.028-0.044-0.009-0.041-0.036c0-0.018 0.029-0.015 0.052 0s0.047 0.051 0.075 0.048c-0.025-0.094-0.067-0.176-0.124-0.247l0.001 0.001c-0.004-0.007-0.006-0.014-0.006-0.023 0-0.001 0-0.001 0-0.002v0c0-0.003 0-0.007 0-0.010 0-0.063-0.050-0.115-0.113-0.116h-0zM11.045 18.168c0.042 0.074 0.075 0.139 0.115 0.2 0.097 0.146 0.147 0.157 0.191 0.050 0.018-0.042 0.003-0.068-0.048-0.107-0.074-0.058-0.159-0.105-0.252-0.138l-0.006-0.002zM11.497 18.904c0.007-0.020 0.029-0.028 0.021-0.058-0.003-0.015-0.016-0.026-0.032-0.026h-0c-0.030-0.008-0.063-0.012-0.098-0.012-0.025 0-0.049 0.002-0.072 0.006l0.002-0c-0.046 0.017 0.017 0.081 0.018 0.123 0 0.008 0.003 0.018 0 0.024-0.013 0.031 0.020 0.061 0.040 0.075 0.029 0.021 0.050 0.006 0.051-0.023 0.001-0.060 0.013-0.105 0.070-0.108zM10.941 18.521c-0.026-0.043-0.055-0.074-0.043-0.087 0.040-0.049-0.014-0.118-0.042-0.177-0.035-0.075-0.094-0.143-0.134-0.219 0.042 0.156 0.040 0.315 0.218 0.484zM9.639 19.441c0.027 0.004 0.059 0.007 0.091 0.007 0.024 0 0.047-0.001 0.069-0.004l-0.003 0c0.042 0 0.032-0.032 0.013-0.061-0.026-0.038-0.053-0.071-0.083-0.102l0 0c-0.027-0.030-0.044-0.028-0.050 0-0.012 0.051-0.024 0.103-0.037 0.159zM11.682 18.82c0.081 0.036 0.157 0.075 0.222 0.050 0.043-0.017 0.055-0.080 0.123-0.061 0.003 0 0.007-0.013 0.004-0.019-0.005-0.012-0.017-0.021-0.031-0.021-0.002 0-0.003 0-0.005 0l0-0c-0.103 0.021-0.21 0.034-0.314 0.051zM9.377 18.805c0.051 0.061 0.107 0.114 0.17 0.159l0.003 0.002c0.061 0.040 0.076 0.025 0.054-0.045-0.011-0.031-0.033-0.056-0.061-0.072l-0.001-0c-0.044-0.027-0.098-0.044-0.155-0.044-0.004 0-0.008 0-0.011 0l0.001-0zM9.813 19.194c0.018 0.031 0.030 0.067 0.033 0.106l0 0.001c0 0.026 0.032 0.074 0.051 0.111 0.006 0.014 0.020 0.023 0.036 0.023 0.003 0 0.005-0 0.008-0.001l-0 0c0.015 0 0.010-0.016 0.005-0.032-0.031-0.081-0.077-0.15-0.134-0.208l0 0zM10.62 18.732c0.032 0.024 0.069 0.043 0.109 0.055l0.002 0.001c0.024 0.011 0.043 0.006 0.034-0.024s-0.037-0.048-0.052-0.040c-0.026 0.013-0.066-0.009-0.095 0.010z"></path>
<path fill="#fff" d="M8.79 19.499c-0.096 0.040-0.215 0.039-0.306 0.085l-0.013-0.016c0.064-0.049 0.145-0.079 0.234-0.079 0.030 0 0.060 0.003 0.088 0.010l-0.003-0z"></path>
<path fill="#fff" d="M12.642 19.833l0.587 0.184 0.004 0.024c-0.191-0.028-0.392-0.119-0.589-0.184z"></path>
<path fill="#fff" d="M9.828 17.038c0.077 0.050 0.156 0.083 0.172 0.197 0.025 0.125 0.052 0.228 0.083 0.329l-0.006-0.022c-0.107-0.183-0.082-0.357-0.249-0.503z"></path>
<path fill="#fff" d="M10.492 17.229c-0.064-0.104-0.069-0.201-0.099-0.302-0.006-0.049-0.028-0.091-0.061-0.122l-0-0c-0.020-0.018-0.028-0.050-0.017-0.061 0.020-0.025 0.005-0.064 0.009-0.098 0.059 0.159 0.116 0.356 0.16 0.558l0.005 0.030z"></path>
<path fill="#fff" d="M11.992 19.647c0.162 0.032 0.303 0.073 0.438 0.126l-0.018-0.006c-0.032 0.042-0.088 0.006-0.123-0.009-0.070-0.028-0.152-0.051-0.237-0.067l-0.008-0.001c-0.024-0.006-0.044-0.023-0.053-0.045l-0-0z"></path>
<path fill="#fff" d="M9.367 16.867c0.038 0.059 0.070 0.128 0.092 0.201l0.002 0.006c0.004 0.016 0.020 0.040-0.005 0.035s-0.055-0.022-0.050-0.047c0.013-0.060-0.029-0.131-0.039-0.195z"></path>
<path fill="#fff" d="M9.343 16.798c-0.034-0.057-0.053-0.126-0.053-0.199 0-0.025 0.002-0.049 0.007-0.073l-0 0.002c0.011 0.103 0.028 0.195 0.050 0.284l-0.003-0.014z"></path>
<path fill="#fff" d="M9.445 15.725c0.004 0.097 0.004 0.097-0.061 0.11-0.001-0.004-0.001-0.009-0.001-0.015 0-0.043 0.025-0.079 0.062-0.096l0.001-0z"></path>
<path fill="#fff" d="M8.528 16.476l0.159 0.015c-0.045 0.052-0.099 0.031-0.159-0.015z"></path>
</svg>
