<!-- Generated by IcoMoon.io -->
<svg version="1.1" xmlns="http://www.w3.org/2000/svg" width="18" height="32" viewBox="0 0 18 32">
<title>4</title>
<rect fill="#fff" x="0" y="0" width="18" height="32"></rect>
<path fill="#1d1d1b" d="M10.235 2.029c-0.006 0.009-0.078 0.067-0.115 0.104-0.089 0.088-0.332 0.096-0.368 0.109-0.058 0.022-0.341-0.082-0.368-0.015-0.31 0.535 0.054 0.457-0.207 1.024-0.034 0.203-0.067 0.406-0.1 0.609-0.014 0.084-0.028 0.167-0.043 0.251 0.002 0.004 0.003 0.009 0.005 0.013l0 0.001c0.057 0.373-0.083 0.771-0.241 1.138-0.080 0.332-0.173 0.66-0.282 0.981-0.124 0.379-0.28 0.708-0.473 1.012l0.011-0.018c-0.211 0.327-0.414 0.681-0.688 0.96-0.059 0.060-0.121 0.115-0.186 0.166l-0.004 0.003c-0.066 0.109-0.135 0.216-0.21 0.319-0.306 0.429-0.683 0.83-0.946 1.293-0.046 0.471-0.144 0.939-0.233 1.41 0.011 0.061 0.023 0.123 0.036 0.189 0.010 0.053 0.020 0.107 0.029 0.16 0.074-0.058 0.175-0.070 0.255-0.116 0.061-0.035 0.098 0.029 0.102 0.084 0.011 0.152 0.053 0.298 0.051 0.455 0 0.306 0.012 0.613 0.161 0.895 0.076-0.038 0.086-0.17 0.191-0.097 0.036 0.025 0.080 0.040 0.128 0.040 0.040 0 0.078-0.011 0.11-0.029l-0.001 0.001c0.038 0.093-0.068 0.16-0.021 0.245 0.069-0.021 0.058-0.105 0.11-0.129 0.053 0.039 0 0.115 0.069 0.164-0.009-0.027-0.013-0.059-0.013-0.091 0-0.108 0.055-0.204 0.139-0.26l0.001-0.001c0.037-0.027 0.055-0.123 0.112-0.074 0.040 0.034 0.106 0.074 0.096 0.156-0.016 0.129 0.013 0.257 0 0.388s-0.036 0.202-0.203 0.184c0.154 0.074 0.114 0.143 0.022 0.184-0.295 0.132-0.403 0.391-0.474 0.685-0.036 0.15-0.083 0.293-0.010 0.463 0.014-0.049 0.023-0.078 0.031-0.109 0.075 0.039 0.056 0.128 0.117 0.199-0.012-0.105-0.024-0.189-0.029-0.273-0.013-0.197-0.061-0.402 0.132-0.552 0.061-0.047 0.129-0.084 0.189-0.058 0.070 0.032 0.017 0.113 0.017 0.172 0 0.18-0.094 0.329-0.147 0.49-0.061 0.192 0.101 0.411-0.061 0.616-0.034 0.042 0.11 0.207 0.132 0.34 0.010 0.065 0.149 0.102 0.112 0.195s-0.135 0.093-0.221 0.105c-0.074 0.010-0.147 0.026-0.22 0.044s-0.070 0.019-0.123 0.123c0.112-0.046 0.242-0.072 0.378-0.072 0.015 0 0.030 0 0.045 0.001l-0.002-0c-0.116 0.205-0.287 0.343-0.373 0.555-0.077 0.189-0.196 0.355-0.188 0.574 0 0.005 0.001 0.010 0.001 0.016 0 0.050-0.015 0.097-0.041 0.136l0.001-0.001c-0.135 0.195-0.096 0.437-0.199 0.663 0.107-0.026 0.064-0.13 0.137-0.139s0.042 0.091 0.085 0.104c0.051-0.061-0.028-0.127 0.024-0.192 0.085 0.055 0.095 0.123 0.061 0.214-0.054 0.144-0.1 0.286-0.012 0.44 0.039 0.067 0.026 0.184-0.034 0.212-0.145 0.061-0.227 0.18-0.321 0.291-0.015 0.018-0.077 0.027-0.043 0.048 0.094 0.061 0.039 0.165 0.086 0.245 0.061 0.107 0.090 0.245-0.076 0.319-0.041 0.018-0.055 0.053-0.034 0.109 0.089-0.086 0.192-0.054 0.306-0.072-0.021 0.036-0.034 0.079-0.034 0.125 0 0.043 0.011 0.083 0.030 0.119l-0.001-0.001c0.104 0.205-0.112 0.343-0.096 0.526 0 0.009-0.024 0.024-0.040 0.031-0.039 0.019-0.065 0.059-0.065 0.104 0 0.010 0.001 0.020 0.004 0.030l-0-0.001c0.014 0.128-0.061 0.216-0.132 0.295-0.069 0.074-0.125 0.162-0.163 0.259l-0.002 0.006c-0.025 0.091-0.107 0.157-0.204 0.157-0.012 0-0.024-0.001-0.036-0.003l0.001 0c-0.067-0.005-0.144-0.007-0.223-0.007-0.292 0-0.576 0.036-0.847 0.103l0.024-0.005c-0.123 0.030-0.245 0.065-0.371 0.083-0.623 0.089-1.251 0.117-1.877 0.166-0.122 0.011-0.263 0.018-0.406 0.018s-0.284-0.006-0.424-0.019l0.018 0.001c-0.369-0.032-0.741-0.066-1.133-0.1 0.052 0.041 0.117 0.068 0.187 0.074l0.001 0c0.428 0.093 0.924 0.152 1.433 0.163l0.009 0c0.029 0 0.063 0 0.097 0 0.969 0 1.916-0.098 2.83-0.284l-0.091 0.015c0.314-0.061 0.639-0.215 0.958 0 0.009 0.006 0.034-0.004 0.047-0.013 0.093-0.073 0.194-0.009 0.285-0.022 0.113-0.016 0.144 0.118 0.223 0.1 0.184-0.044 0.173 0.084 0.193 0.2 0.061 0.357 0.123 0.712 0.324 1.027 0.103 0.158 0.211 0.324 0.245 0.522 0.004 0.017 0.006 0.037 0.006 0.058 0 0.123-0.084 0.227-0.198 0.257l-0.002 0c-0.113 0.035-0.189 0.127-0.142 0.233 0.021 0.049 0.033 0.107 0.033 0.167 0 0.050-0.008 0.098-0.023 0.142l0.001-0.003c0.065-0.009 0.097-0.097 0.148-0.055s-0.007 0.096-0.028 0.141-0.047 0.081-0.068 0.123c-0.055 0.109-0.164 0.184-0.21 0.322 0.114-0.083 0.205-0.19 0.267-0.315l0.002-0.005c0.061-0.113 0.109-0.245 0.218-0.327 0.037-0.049 0.102-0.083 0.071-0.165s0.080-0.045 0.086-0.1c0.029 0.014 0.049 0.043 0.049 0.077 0 0.014-0.003 0.026-0.009 0.038l0-0c-0.010 0.020-0.020 0.037-0.031 0.053l0.001-0.001c0.208 0.105 0.053 0.208 0 0.311 0.078-0.011 0.149-0.034 0.214-0.066l-0.004 0.002c0.027-0.018-0.061-0.119 0.014-0.15s0.023 0.113 0.105 0.104c0.029-0.003 0.061-0.044 0.090 0 0 0.082-0.123 0.099-0.096 0.194 0.123-0.102 0.178 0.013 0.232 0.077 0.157 0.184-0.151 0.115-0.128 0.231 0.115 0.017 0.118 0.018 0.081 0.123-0.119 0.341-0.24 0.681-0.196 1.055 0.010 0.084-0.015 0.097-0.149 0.155-0.010 0.006-0.018 0.015-0.021 0.027l-0 0c-0.029 0.219-0.368 0.332-0.206 0.618 0.001 0.003 0.001 0.006 0.001 0.009 0 0.009-0.003 0.018-0.008 0.024l0-0c-0.077 0.123-0.061 0.26-0.082 0.396-0.034 0.217-0.1 0.412-0.193 0.59l0.005-0.011c0.112-0.017 0.158 0.022 0.149 0.129-0.001 0.019-0.002 0.041-0.002 0.064 0 0.183 0.040 0.356 0.113 0.512l-0.003-0.008c0.11 0.273 0.198 0.54 0.139 0.854s-0.129 0.597-0.312 0.847c-0.091 0.123-0.203 0.23-0.306 0.345 0.091 0.034 0.096-0.019 0.123-0.043 0.039-0.028 0.073-0.058 0.103-0.093l0.001-0.001c0.429-0.541 0.681-1.122 0.391-1.825-0.088-0.213-0.163-0.429-0.132-0.668 0.031-0.259 0.074-0.488 0.131-0.711l-0.008 0.037c0.032-0.123 0.036-0.245 0.226-0.184-0.154-0.215 0.053-0.273 0.123-0.384s0.146-0.053 0.175 0.031c0.066 0.188 0.129 0.376 0.096 0.585-0.067 0.412-0.14 0.82-0.314 1.205-0.052 0.11-0.082 0.239-0.082 0.376 0 0.101 0.017 0.199 0.047 0.29l-0.002-0.006c0.051 0.157 0.027 0.318 0 0.46-0.052 0.295-0.123 0.587-0.17 0.883-0.015 0.084-0.024 0.18-0.024 0.278 0 0.159 0.023 0.312 0.066 0.457l-0.003-0.011c-0.024-0.205 0.135-0.329 0.196-0.498-0.008 0.040-0.012 0.085-0.012 0.131s0.004 0.092 0.013 0.136l-0.001-0.005c0.014-0.028 0.024-0.066 0.034-0.065 0.080 0 0 0.102 0.072 0.123 0.023-0.212 0.108-0.402 0.236-0.553l-0.001 0.002c0.102-0.134 0.349-0.197 0.453-0.135 0.061 0.039 0.083 0.111 0.129 0.162l0.45 0.729c-0.022-0.246-0.074-0.474-0.152-0.688l0.006 0.019c-0.016-0.046-0.104-0.18 0.072-0.112 0.048 0.019 0.058-0.031 0.046-0.042-0.134-0.135-0.006-0.184 0.081-0.237-0.025-0.058-0.081-0.040-0.115-0.074-0.066-0.061-0.174-0.088-0.164-0.213-0.219-0.010-0.1-0.157-0.097-0.256 0-0.053 0.023-0.104 0.025-0.157 0.005-0.126 0.004-0.245 0.188-0.173 0.050 0.020 0.094-0.049 0.142-0.053 0.088-0.008 0.102-0.217 0.227-0.091s-0.053 0.177-0.068 0.27c0.142 0.026 0.274 0.215 0.264 0.349-0.016 0.203-0.216 0.216-0.318 0.333 0.113-0.021 0.214-0.072 0.323-0.070 0.042 0.002 0.079 0.022 0.103 0.052l0 0c0.031 0.055-0.036 0.037-0.055 0.056s-0.047 0.064-0.021 0.094 0.061 0 0.083-0.024 0.047-0.050 0.073-0.021c0.067 0.071 0.107 0.030 0.166-0.019 0.034-0.024 0.076-0.038 0.121-0.038 0.017 0 0.034 0.002 0.050 0.006l-0.001-0c0.034 0.009 0.051 0.085 0.072 0.132 0.030 0.067-0.104 0.017-0.066 0.104 0.052 0.131 0.085 0.283 0.092 0.442l0 0.003c0.014 0.184 0.237 0.407-0.041 0.578-0.027 0.017-0.024 0.088-0.034 0.134-0.004 0.020 0.017 0.034-0.006 0.061-0.052 0.061-0.044 0.081 0.025 0.086 0.014 0.002 0.030 0.003 0.046 0.003 0.116 0 0.221-0.053 0.289-0.136l0.001-0.001c0.108-0.138 0.229-0.259 0.363-0.364l0.005-0.003c0.118-0.084 0.18-0.231 0.321-0.281 0.16-0.056 0.094-0.245 0.196-0.338 0.014-0.018 0.026-0.038 0.036-0.059l0.001-0.002c0.017-0.026 0.048-0.055 0.069-0.025 0.071 0.098 0.101 0.004 0.158-0.017 0.108-0.040 0.067-0.137 0.094-0.202 0.058-0.14 0.189-0.199 0.286-0.297-0.070 0.017-0.123 0.066-0.198 0.057-0.042-0.006-0.102 0.009-0.084-0.072 0.012-0.054 0-0.137 0.091-0.112 0.123 0.036 0.262-0.033 0.368 0.086 0.080 0.088 0.224 0.102 0.272 0.232 0.071 0.189 0.118 0.38 0.051 0.583-0.014 0.029-0.023 0.064-0.023 0.101s0.008 0.071 0.023 0.102l-0.001-0.001c0.123-0.289 0.222-0.564 0.134-0.855-0.055-0.184 0.032-0.254 0.144-0.351 0.172-0.144 0.296-0.341 0.346-0.566l0.001-0.007c-0.118 0.148-0.184 0.338-0.334 0.46-0.050 0.040-0.096 0.085-0.148 0.123-0.019 0.018-0.045 0.029-0.073 0.029-0.046 0-0.085-0.029-0.1-0.069l-0-0.001c-0.043-0.074-0.115-0.134-0.159-0.199-0.019-0.032-0.030-0.071-0.030-0.113 0-0.072 0.034-0.136 0.086-0.176l0.001-0c0.156-0.107 0.138-0.286 0.199-0.429 0.018-0.042-0.105-0.123 0-0.159s0.181-0.161 0.312-0.093c0.065 0.034 0.114 0.067 0.199 0.006 0.076-0.054 0.105 0.027 0.11 0.112 0.012 0.18-0.078 0.343-0.068 0.52 0.113-0.135 0.103-0.306 0.119-0.465 0.013-0.137 0.042-0.184 0.184-0.21 0.289-0.057 0.548-0.194 0.686-0.479 0.058-0.123 0.102-0.003 0.167-0.012-0.061-0.254 0.064-0.429 0.221-0.593 0.050-0.053 0.089-0.074 0.155-0.044 0.013 0.006-0.012 0.101 0.037 0.019 0.021-0.034 0.111-0.026 0.072-0.092-0.055-0.093-0.044-0.161 0.051-0.198 0.112-0.044 0.085 0.094 0.142 0.134 0.045-0.058-0.017-0.131 0.043-0.202 0.030 0.107 0 0.212 0.061 0.337-0.004-0.037-0.007-0.080-0.007-0.123 0-0.002 0-0.003 0-0.005v0c0.005-0.050-0.031-0.126 0.031-0.14s0.087 0.066 0.107 0.118 0.024 0.116 0.091 0.107c0.119-0.017 0.179 0.029 0.195 0.15 0.004 0.024 0.018 0.057 0.061 0.040 0.013-0.143-0.048-0.273-0.076-0.409-0.006-0.031-0.023-0.115 0.024-0.088 0.162 0.095 0.067-0.050 0.074-0.080 0.036-0.16-0.061-0.34 0.067-0.485s0.093-0.355 0.14-0.531c0.041-0.155 0.131-0.134 0.226-0.143 0.015 0 0.030 0.093 0.051 0 0.012-0.049 0.074-0.089 0.037-0.144-0.024-0.036-0.061-0.005-0.094 0.007-0.053 0.019-0.098 0.069-0.17 0.061 0.037-0.082 0.114-0.092 0.178-0.155-0.088-0.026-0.151-0.075-0.137-0.164 0.032-0.198-0.061-0.397 0.013-0.595 0.007-0.019 0.011-0.042 0.011-0.065 0-0.038-0.011-0.074-0.030-0.105l0.001 0.001c-0.075-0.085-0.040-0.165-0.019-0.245 0.031-0.083 0.064-0.192 0.091-0.303l0.005-0.023c0.023-0.15 0.079-0.123 0.171-0.061 0.184 0.131 0.333 0.3 0.438 0.495l0.004 0.008c0.009-0.022 0.014-0.047 0.014-0.074 0-0.050-0.019-0.096-0.049-0.13l0 0c-0.116-0.126-0.164-0.296-0.284-0.424-0.097-0.111-0.157-0.257-0.157-0.416 0-0.015 0.001-0.030 0.002-0.045l-0 0.002c0.135 0.116 0.127 0.297 0.245 0.425-0.009-0.15-0.075-0.255-0.126-0.368-0.137-0.297-0.224-0.593-0.026-0.903 0.087-0.137 0.151-0.289 0.225-0.435 0.010-0.006 0.021-0.009 0.034-0.009 0.017 0 0.032 0.006 0.044 0.016l-0-0c0.143 0.123 0.034 0.245-0.015 0.347-0.061 0.134-0.012 0.227 0.054 0.33 0.001-0.231 0.058-0.449 0.158-0.642l-0.004 0.008c0.077 0.042-0.019 0.135 0.076 0.178 0.008-0.144 0.184-0.229 0.129-0.409-0.085 0.044-0.037 0.167-0.144 0.174-0.001-0.008-0.001-0.017-0.001-0.026 0-0.073 0.033-0.137 0.084-0.181l0-0c0.092-0.066 0.154-0.167 0.169-0.284l0-0.002c0.073-0.384 0.132-0.759-0.106-1.12-0.105-0.159-0.142-0.364-0.229-0.539-0.207-0.418-0.355-0.851-0.386-1.323-0.015-0.229-0.031-0.457-0.048-0.704-0.075 0.067-0.028 0.142-0.069 0.203-0.080-0.112-0.165-0.207-0.064-0.337-0.127-0.25-0.045-0.561-0.221-0.797-0.021-0.029-0.047-0.123 0.013-0.104 0.134 0.043 0.055-0.044 0.044-0.066-0.134-0.287-0.223-0.62-0.25-0.971l-0.001-0.010c-0.009-0.090 0.019-0.206-0.026-0.267-0.159-0.214-0.096-0.458-0.089-0.681 0.008-0.279-0.044-0.506-0.245-0.693-0.050 0.029 0.013 0.102-0.069 0.123-0.014-0.066-0.049-0.123-0.012-0.198 0.013-0.026 0.020-0.057 0.020-0.089 0-0.023-0.004-0.046-0.011-0.067l0 0.001c-0.073-0.249-0.233-0.452-0.445-0.579l-0.005-0.002c-0.177-0.113-0.408-0.138-0.521-0.352-0.007-0.013-0.044-0.018-0.061-0.012-0.072 0.024-0.077-0.031-0.108-0.074-0.047-0.065-0.035-0.167-0.085-0.203-0.129-0.095-0.123-0.088-0.147-0.184-0.097-0.392-0.11-0.819-0.429-1.123-0.013-0.012-0.023-0.025-0.032-0.040l-0-0.001c-0.173-0.3-0.191-0.643-0.181-0.968 0.006-0.245 0.028-0.48 0.065-0.71l-0.004 0.029c0.072-0.438-0.108-0.765-0.437-1.027-0.111-0.085-0.198-0.196-0.255-0.323l-0.002-0.005c-0.119-0.271-0.188-0.586-0.188-0.918 0-0.027 0-0.054 0.001-0.081l-0 0.004c0.017-0.479-0.037-0.93-0.346-1.318-0.061-0.078-0.061-0.188-0.145-0.271-0.184-0.184-0.345-0.39-0.424-0.651s-0.169-0.525-0.252-0.787c-0.123-0.39-0.254-0.777-0.26-1.196 0.001-0.015 0.002-0.033 0.002-0.050 0-0.093-0.016-0.182-0.046-0.265l0.002 0.006c-0.085-0.205-0.202-0.392-0.288-0.594-0.114-0.268 0.044-0.475-0.118-0.71-0.036-0.074-0.080-0.137-0.132-0.192l0 0c0.030 0.158-0.051 0.423-0.017 0.617M6.536 18.105c0.105 0.147 0.171 0.3 0.081 0.509-0.022-0.194-0.047-0.354-0.073-0.513zM6.643 19.399c-0.051 0.040-0.083 0.102-0.083 0.172 0 0.016 0.002 0.032 0.005 0.047l-0-0.001c-0.132-0.116-0.008-0.202 0.025-0.297 0.007-0.021 0.040-0.015 0.058 0.004 0.010 0.009 0.017 0.023 0.017 0.038 0 0.013-0.005 0.025-0.013 0.034l0-0zM7.087 22.341c-0.038-0.099-0.060-0.214-0.060-0.334 0-0.113 0.020-0.222 0.056-0.323l-0.002 0.007c0.101 0.232 0.050 0.439 0.014 0.647zM7.386 22.96c0.058-0.119-0.284-0.205-0.012-0.362 0.008 0.077-0.061 0.137 0.013 0.192 0.070 0.043 0.045 0.106 0.006 0.166zM8.008 25.399c-0.034 0.071-0.069 0.131-0.108 0.188l0.003-0.004c-0.038 0.055 0.027 0.134-0.047 0.175-0.154-0.196-0.118-0.607 0.085-0.875 0.053 0.115 0.088 0.221-0.070 0.302 0.193-0.004 0.22 0.050 0.146 0.21zM8.036 29.985c-0.045-0.045 0.043-0.092-0.019-0.133-0.136 0.309-0.332 0.584-0.49 0.906-0.047-0.327 0.053-0.605 0.119-0.888 0.030-0.131 0.087-0.255 0.083-0.395 0.005-0.036 0.022-0.067 0.047-0.089l0-0c0.006-0.007 0.069 0.023 0.068 0.032-0.012 0.184 0.179 0.226 0.237 0.364 0.044 0.088 0.045 0.145-0.037 0.199zM8.269 27.144c0-0.11-0.018-0.202 0.058-0.277 0.008 0.085 0.088 0.192-0.050 0.273zM9.878 29.58l-0.12-0.286c0.215 0.066 0.216 0.068 0.127 0.282zM10.145 28.911c-0.013 0.093-0.020 0.184-0.029 0.279-0.003 0.034 0.007 0.078-0.045 0.076 0 0-0 0-0 0-0.029 0-0.056-0.011-0.076-0.029l0 0c-0.105-0.123-0.101-0.39 0.020-0.539-0.015 0.108-0.028 0.196-0.041 0.294 0.14-0.061 0.058-0.204 0.129-0.284 0.094 0.051 0.061 0.126 0.050 0.2zM10.444 31.182c-0.047 0.018-0.058-0.024-0.061-0.061-0.009-0.057-0.042-0.123 0.006-0.169s0.058 0.034 0.090 0.048c-0.092 0.031-0.009 0.061 0 0.093 0.005 0.009 0.008 0.020 0.008 0.031 0 0.024-0.014 0.045-0.034 0.055l-0 0zM10.805 30.558c0.046 0.268-0.142 0.355-0.327 0.444v0c-0.061-0.3-0.123-0.6-0.189-0.948 0.16 0.156 0.223 0.344 0.406 0.398 0.024-0.039 0-0.061-0.023-0.078-0.117-0.098-0.18-0.199-0.034-0.327 0.042-0.025 0.069-0.071 0.069-0.122 0-0.016-0.003-0.032-0.008-0.047l0 0.001c-0.030-0.086-0.009-0.199 0.078-0.188s0.208 0.091 0.2 0.198c-0.017 0.215 0.003 0.447-0.164 0.624-0.002 0.006-0.004 0.013-0.004 0.021s0.001 0.014 0.004 0.021l-0-0zM11.108 30.48c-0.001 0.030-0.026 0.054-0.057 0.054-0.006 0-0.012-0.001-0.018-0.003l0 0c-0.025-0.008-0.067-0.018-0.061-0.051 0.046-0.208 0.097-0.414 0.154-0.647 0.194 0.249 0.012 0.442-0.010 0.642zM12.907 9.683c-0.053-0.235-0.088-0.509-0.097-0.79l-0-0.007c0.198 0.123 0.25 0.545 0.105 0.793zM13.127 9.957c-0.012-0.245 0.061-0.49 0.018-0.735 0.075 0.244 0.048 0.488-0.010 0.732zM13.499 27.367c-0.062 0.183-0.135 0.341-0.222 0.488l0.006-0.012c-0.011-0.226 0.056-0.362 0.224-0.48zM14.096 27.634c-0.037 0.196-0.147 0.362-0.3 0.471l-0.002 0.002c-0.089 0.057-0.192 0.107-0.301 0.144l-0.010 0.003c-0.066 0.023-0.133 0.069-0.192 0.024-0.070-0.053-0.031-0.142-0.028-0.216 0-0 0-0.001 0-0.001 0-0.043 0.021-0.082 0.053-0.106l0-0c0.254-0.178 0.313-0.477 0.443-0.735 0.061-0.123 0.055-0.254 0.104-0.414 0.184 0.272 0.078 0.552 0.153 0.811 0.010-0.017 0.026-0.061 0.042-0.061 0.047-0.001 0.042 0.050 0.037 0.079zM14.586 26.741c-0.033 0.069-0.083 0.072-0.132 0.012 0.048 0.184 0.148 0.379-0.077 0.526-0.034 0.023-0.061 0.056-0.104 0.043s-0.031-0.055-0.039-0.088c-0.035-0.143-0.103-0.275-0.088-0.435 0.008-0.079 0.096-0.129 0.058-0.215-0.131 0.012-0.089-0.112-0.12-0.173-0.024-0.048-0.008-0.119-0.010-0.224 0.078 0.145 0.184 0.232 0.129 0.381 0.105 0.023 0.175 0.1 0.245 0.175-0.026-0.064-0.055-0.127-0.076-0.193s0.011-0.086 0.070-0.080c-0.070-0.097-0.156-0.184-0.189-0.306-0.011-0.034-0.017-0.072-0.017-0.112 0-0.112 0.048-0.212 0.124-0.282l0-0c0.090 0.225 0.253 0.429 0.098 0.68 0.061-0.069 0.131-0.108 0.218-0.061 0.035 0.053-0.129 0.098 0.015 0.169 0.057 0.028-0.076 0.116-0.11 0.184zM14.748 13.387c0.257 0.1 0.271 0.321 0.333 0.512-0.137-0.145-0.25-0.315-0.333-0.5l-0.005-0.011zM15.444 14.758c-0.069-0.159-0.123-0.279-0.171-0.401-0.014-0.037-0.090-0.094 0-0.123 0.012-0.005 0.025-0.008 0.040-0.008 0.053 0 0.097 0.042 0.1 0.095v0c0.013 0.13 0.061 0.258 0.027 0.438zM15.934 23.702c-0.011 0.005-0.024 0.008-0.037 0.008-0.029 0-0.055-0.013-0.072-0.033l-0-0c-0.067-0.075-0.123-0.484-0.076-0.596 0.155 0.146 0.145 0.358 0.215 0.534 0.012 0.029 0.018 0.074-0.029 0.088zM16.007 21.971c-0.010-0.056-0.016-0.121-0.016-0.187 0-0.154 0.031-0.3 0.087-0.433l-0.003 0.007c0.042 0.194 0.104 0.393-0.068 0.613zM16.498 19.96c0.037-0.029 0.069 0 0.082 0.032 0.067 0.146 0.129 0.294 0.193 0.441l-0.040 0.017c-0.079-0.136-0.184-0.256-0.23-0.411-0.010-0.027-0.036-0.056-0.007-0.078zM16.512 21.725c-0.066 0.032-0.094 0.146-0.138 0.226-0.112 0.029-0.171 0-0.127-0.13 0.135-0.4 0.113-0.83 0.222-1.236 0.024-0.090 0.048-0.096 0.109-0.041 0.149 0.136 0.245 0.31 0.233 0.509-0.006 0.085 0.055 0.146 0.024 0.234-0.067 0.183-0.136 0.348-0.324 0.439zM16.607 21.975c-0.126-0.251 0.099-0.276 0.164-0.386-0.068 0.105-0.101 0.228-0.165 0.386z"></path>
<path fill="#fff" d="M11.371 23.215c-0.049-0.368-0.067-0.73-0.203-1.098-0.024-0.079-0.043-0.172-0.054-0.268l-0.001-0.007c-0.035-0.189-0.075-0.387-0.061-0.565 0.002-0.034 0.003-0.074 0.003-0.115 0-0.154-0.014-0.305-0.040-0.452l0.002 0.015c-0.042-0.328-0.056-0.654-0.144-0.984-0.028-0.107-0.126-0.208-0.080-0.32-0.075-0.023-0.009 0.080-0.075 0.061-0.019-0.055 0.010-0.088 0.031-0.129 0.037-0.077 0.078-0.159-0.061-0.232-0.061-0.031-0.066-0.077-0.020-0.11 0.029-0.021 0.058-0.050 0.035-0.088-0.040-0.065-0.061 0.028-0.114-0.008 0.071-0.126 0.047-0.272-0.015-0.426-0.011-0.028-0.009-0.064-0.039-0.077-0.061-0.016-0.105-0.071-0.105-0.135 0-0.020 0.004-0.040 0.012-0.057l-0 0.001c-0.065-0.036-0.061 0.046-0.106 0.032-0.056-0.151-0.071-0.158-0.184-0.083-0.037 0.023-0.082 0.048-0.128 0.070l-0.009 0.004c0.001-0.053 0.021-0.101 0.055-0.137l-0 0c0.022-0.034 0.086-0.032 0.030-0.116s-0.099-0.094-0.154-0.075c-0.18 0.061-0.373 0.058-0.572 0.046-0.070-0.004-0.154 0.008-0.178 0.092-0.002 0.017-0.016 0.030-0.034 0.030-0.006 0-0.011-0.001-0.016-0.004l0 0c-0.258-0.082-0.514-0.103-0.771-0.148-0.013 0-0.026-0.012-0.044-0.044 0.174 0.008 0.348 0.014 0.522 0.023 0.073 0.006 0.158 0.010 0.244 0.010 0.217 0 0.43-0.022 0.634-0.064l-0.020 0.003c0.109-0.025 0.241 0.009 0.351-0.026 0.056-0.018 0.18-0.014 0.021-0.123-0.021-0.015-0.033-0.025 0-0.028 0.077-0.007 0.014-0.050 0-0.075-0.074-0.14-0.211-0.241-0.269-0.393-0.015-0.034-0.049-0.056-0.087-0.056-0.008 0-0.015 0.001-0.022 0.003l0.001-0c-0.074 0.061-0.2 0-0.265 0.079-0.008 0.015-0.025 0.025-0.043 0.025-0.016 0-0.029-0.007-0.038-0.019l-0-0c-0.035-0.036 0.046-0.040 0.014-0.075-0.143-0.061-0.217 0.056-0.333 0.066-0.288 0.026-0.567 0.086-0.858 0.101-0.241 0.013-0.627-0.392-0.876-0.411 0.096-0.096 0.472 0.285 0.596 0.26 0.287-0.056 0.508 0.005 0.806-0.013 0.184-0.012 0.221-0.15 0.294-0.266 0.013-0.021 0.015-0.051 0.027-0.073 0.11-0.202 0.017-0.404-0.229-0.494-0.031-0.015-0.067-0.027-0.105-0.036l-0.004-0.001c-0.081-0.005-0.145-0.072-0.145-0.154 0-0.006 0-0.013 0.001-0.019l-0 0.001c0.001-0.005 0.001-0.010 0.001-0.016 0-0.045-0.029-0.084-0.069-0.099l-0.001-0c-0.101-0.047-0.018 0.042-0.032 0.061s-0.037 0.013-0.055-0.011-0.040-0.070-0.083-0.082c0 0.058 0.064 0.078 0.080 0.132-0.042 0.015-0.061-0.032-0.075-0.050-0.178-0.221-0.382-0.226-0.59-0.209-0.008 0-0.020 0.009-0.021 0.006-0.176-0.213-0.387-0.123-0.58-0.191s-0.41-0.088-0.613-0.14c-0.328-0.085-0.655-0.127-0.981-0.213-0.128-0.044-0.289-0.087-0.452-0.119l-0.024-0.004c0.047-0.047 0.111-0.027 0.168-0.015q0.7 0.151 1.402 0.306c0.716 0.162 1.433 0.303 2.145 0.501 0.287 0.080 0.406 0.009 0.506-0.214 0.116-0.259 0.201-0.539 0.349-0.777 0.047-0.087 0.104-0.162 0.172-0.226l0-0c0.061-0.052 0.137-0.123 0.116-0.249 0.049 0.091 0.101 0.203 0.147 0.319l0.008 0.023c0.117 0.334 0.262 0.623 0.438 0.89l-0.009-0.015c0.056 0.090 0.111 0.24 0.254 0.139 0.037-0.026 0.135 0.036 0.196 0.082 0.060 0.039 0.129 0.072 0.203 0.094l0.006 0.002c0.12 0.050 0.083-0.032 0.065-0.086-0.026-0.077-0.216-0.199-0.259-0.158-0.074 0.071-0.156-0.023-0.232-0.008 0.091-0.035 0.104-0.123 0.126-0.207 0.032-0.131 0.158-0.149 0.268-0.158 0.133-0.010 0.18-0.053 0.144-0.208-0.024-0.102-0.012-0.201-0.105-0.295-0.020-0.022-0.032-0.051-0.032-0.082 0-0.028 0.010-0.055 0.026-0.075l-0 0c0.048-0.076 0.034-0.172 0.020-0.269-0.061-0.424-0.117-0.848-0.174-1.272-0.003-0.022-0.012-0.049 0.014-0.061h-0.004c0.055 0.199 0.097 0.434 0.118 0.674l0.001 0.015c0.017 0.127 0.058 0.189 0.176 0.211 0.029 0.011 0.054 0.025 0.077 0.042l-0.001-0.001c-0.012 0.036-0.039 0.017-0.057 0.014-0.148-0.028-0.172-0.004-0.079 0.123 0.135 0.184 0.176 0.395 0.277 0.587 0.030 0.058 0.040 0.096 0.118 0.092s0.097 0.101 0.135 0.162c0.142-0.047 0.115-0.151 0.036-0.275-0.086-0.135-0.116-0.288-0.184-0.429-0.033-0.067-0.045-0.144-0.116-0.194-0.020-0.014-0.052-0.045-0.016-0.066 0.024-0.015 0.049-0.005 0.074 0.023 0.030 0.043 0.052 0.094 0.061 0.149l0 0.002c0.072 0.222 0.154 0.315 0.302 0.336 0.123 0.017 0.177-0.077 0.265-0.154-0.004 0.080-0.019 0.123-0.066 0.148-0.021 0.011-0.053 0.018-0.038 0.055 0.011 0.022 0.033 0.036 0.059 0.036 0.005 0 0.011-0.001 0.015-0.002l-0 0c0.087-0.020 0.226 0.066 0.24-0.115 0.026-0.073 0.094-0.124 0.174-0.124 0.026 0 0.050 0.005 0.073 0.015l-0.001-0c0.061 0.029 0.082-0.012 0.11-0.038s0.043-0.083 0.11-0.101c-0.162 0.274-0.324 0.532-0.499 0.778-0.066 0.092-0.126 0.188-0.189 0.283-0.012 0.016-0.020 0.037-0.020 0.059s0.008 0.043 0.020 0.059l-0-0c0.032 0.045 0.061 0.015 0.097 0.010 0.085-0.018 0.187-0.031 0.29-0.038l0.007-0c0.192-0.007 0.361-0.074 0.542-0.103 0.153-0.030 0.328-0.048 0.508-0.048 0.033 0 0.065 0.001 0.097 0.002l-0.005-0c0.188 0.012 0.325-0.069 0.464-0.148 0.2-0.115 0.372-0.232 0.534-0.36l-0.009 0.007c-0.188 0.194-0.422 0.328-0.643 0.479-0.121 0.088-0.26 0.166-0.407 0.227l-0.014 0.005c-0.056 0.033-0.124 0.053-0.196 0.053-0.010 0-0.020-0-0.030-0.001l0.001 0c-0.113-0.018-0.193 0.082-0.295 0.117-0.131 0.046-0.245 0.123-0.372 0.175-0.214 0.094-0.434 0.184-0.604 0.346-0.022 0.021-0.086 0.027-0.040 0.089 0.025 0.034 0.061 0.076 0.102 0.034 0.015-0.015 0.042-0.015 0.055 0.020 0.012 0.025 0.020 0.054 0.020 0.084v0c-0.006 0.035-0.031 0.029-0.061 0.006-0.010-0.009-0.024-0.014-0.039-0.014-0.018 0-0.035 0.008-0.046 0.021l-0 0c-0.003 0.006-0.005 0.014-0.005 0.022 0 0.011 0.003 0.021 0.008 0.029l-0-0c0.015 0.017 0.038 0.028 0.062 0.028 0.010 0 0.019-0.002 0.028-0.005l-0.001 0c0.071-0.010 0.146-0.023 0.158 0.11-0.042 0-0.067-0.105-0.107-0.051s0.028 0.061 0.061 0.089c0.077 0.064 0.174 0.108 0.28 0.122l0.003 0c0.184 0.036 0.368 0.024 0.556 0.099v-0.005c-0.021 0.076-0.099 0.061-0.153 0.061-0.139 0.009-0.245 0.047-0.277 0.199 0 0.010-0.018 0.016-0.029 0.020-0.156 0.058-0.033 0.118 0.045 0.184-0.044 0.034-0.129 0.036-0.101 0.131 0 0.007-0.006 0.015-0.009 0.023-0.025 0.076-0.147-0.177-0.142 0.016 0 0.052-0.010 0.050-0.171-0.020 0.034 0.116 0.123 0.178 0.199 0.241 0.218 0.185 0.411 0.385 0.582 0.604l0.007 0.009c0.053 0.067 0.098 0.132 0.194 0.152 0.112 0.024 0.026 0.141 0.094 0.199-0.238-0.147-0.394-0.371-0.557-0.59-0.053-0.071-0.102-0.154-0.2-0.093-0.053 0.033-0.061-0.038-0.075-0.083-0.031-0.123-0.306-0.342-0.406-0.322-0.039 0.008-0.021 0.053-0.022 0.083 0 0.3 0.091 0.603 0.184 0.898 0.255 0.807 0.444 1.617 0.644 2.427 0.066 0.265 0.111 0.533 0.202 0.792-0.137-0.075-0.206-0.22-0.284-0.352-0.017-0.025-0.027-0.055-0.027-0.088 0-0.022 0.004-0.043 0.012-0.062l-0 0.001c0.031-0.071 0.048-0.154 0.048-0.24s-0.018-0.169-0.050-0.244l0.002 0.004c-0.132-0.358-0.157-0.722-0.278-1.079-0.108-0.319-0.163-0.65-0.316-0.959-0.099-0.2-0.123-0.399-0.19-0.598-0.006-0.018-0.014-0.048-0.024-0.052-0.099-0.039-0.145-0.102-0.086-0.226-0.146 0.093-0.173 0.242-0.283 0.312-0.038 0.024-0.019 0.104 0 0.114 0.091 0.046 0.065 0.114 0.087 0.178s0.029 0.077-0.032 0.074c-0.026 0-0.029 0.043-0.019 0.055 0.068 0.082 0.010 0.147 0.023 0.221 0.010 0.056 0.008 0.116 0.084 0.15 0.017 0.007 0.084 0.082 0 0.097-0.055 0.010-0.043 0.050-0.033 0.096 0.011 0.072 0.026 0.134 0.044 0.194l-0.003-0.010c0.053 0.119 0.083 0.258 0.083 0.405 0 0.023-0.001 0.047-0.002 0.070l0-0.003c-0.002 0.010-0.002 0.022-0.002 0.033 0 0.061 0.023 0.117 0.060 0.159l-0-0c0.013 0.014 0.034 0.031 0.020 0.049-0.103 0.129-0.058 0.34 0.010 0.449 0.108 0.172 0.043 0.268 0.048 0.406 0.005 0.186 0.007 0.404 0.007 0.624 0 0.765-0.033 1.523-0.096 2.272l0.007-0.098c-0.004 0.048 0.010 0.107-0.031 0.139l-0.077-0.097c0.076-0.101 0.030-0.239 0.032-0.363 0.009-0.485 0.14-0.94 0.034-1.454-0.001-0.005-0.002-0.010-0.002-0.015 0-0.009 0.002-0.018 0.006-0.026l-0 0c0.083-0.153 0.027-0.336-0.007-0.514-0.007-0.038-0.038-0.095-0.013-0.11 0.094-0.057 0-0.191 0.056-0.261 0.010-0.013-0.009-0.056-0.032-0.061-0.161-0.039-0.085-0.092-0.041-0.148 0.018-0.023 0.043-0.058 0.035-0.081-0.072-0.207-0.014-0.392-0.039-0.59-0.043-0.333-0.187-0.669-0.184-1.004 0-0.061-0.004-0.165-0.070-0.203-0.069-0.041-0.115-0.115-0.115-0.2 0-0 0-0.001 0-0.001v0c0.032-0.161-0.114-0.145-0.139-0.134-0.107 0.044-0.184-0.048-0.269-0.094-0.039-0.021-0.080-0.114-0.118-0.034-0.024 0.048-0.089 0.089 0 0.179 0.061 0.065 0.008 0.226-0.077 0.212-0.192-0.031-0.139 0.097-0.114 0.213 0.016 0.077 0.029 0.154 0.047 0.23 0.006 0.026 0 0.053 0.032 0.078 0.080 0.061 0.123 0.192 0.097 0.231-0.058 0.086-0.032 0.18-0.020 0.273 0.033 0.323 0.077 0.607 0.136 0.885l-0.009-0.053c0.051 0.214-0.009 0.436 0.162 0.645 0.022 0.027 0.010 0.082-0.012 0.088-0.072 0.019-0.050 0.086-0.044 0.135 0.026 0.241 0.055 0.483 0.091 0.725 0.047 0.306 0.102 0.613 0.153 0.919zM10.786 18.92c0.066-0.155 0.123-0.275 0.168-0.4 0.066-0.175 0.159-0.203 0.346-0.093 0.126 0.075 0.251 0.153 0.392 0.24-0.024-0.18-0.045-0.338-0.066-0.495-0.043-0.327 0.102-0.517 0.345-0.63 0.051-0.024 0.113-0.049 0.115-0.105 0.005-0.137 0.099-0.156 0.194-0.184 0.097-0.025 0.181-0.056 0.261-0.092l-0.010 0.004c0.123-0.061 0.252-0.117 0.348-0.227-0.245-0.039-0.485-0.061-0.724-0.080-0.001 0-0.003 0-0.005 0-0.074 0-0.14-0.038-0.178-0.095l-0.001-0.001c-0.153-0.203-0.175-0.437 0.012-0.529 0.075-0.037 0.070-0.076-0.015-0.14-0.161-0.123-0.175-0.174-0.13-0.355 0.006-0.024 0.031-0.053-0.005-0.075-0.083-0.048-0.171-0.145-0.258-0.093s-0.131-0.015-0.166-0.091c-0.020-0.048-0.041-0.108-0.059-0.169l-0.003-0.011c0 0.207 0.020 0.415 0.031 0.621 0.013 0.262-0.017 0.282-0.26 0.202-0.014-0.005-0.032-0.010-0.051-0.015l-0.004-0.001c-0.177-0.041-0.213-0.018-0.239 0.153-0.034 0.219-0.235 0.331-0.449 0.245s-0.446-0.156-0.67-0.224c-0.158-0.048-0.165-0.033-0.14 0.141s0.131 0.321 0.161 0.481c0.009 0.113 0.092 0.204 0.2 0.226l0.002 0c0.155 0.035 0.282 0.137 0.349 0.273l0.001 0.003c0.088 0.176 0.34 0.312 0.224 0.541 0 0.006 0.004 0.018 0.006 0.028 0.091 0.385 0.187 0.701 0.298 1.009l-0.020-0.064zM10.031 15.281c0.164-0.047 0.086-0.176 0.044-0.282-0.077-0.191-0.132-0.207-0.237-0.078-0.017 0.025-0.036 0.047-0.056 0.067l0-0c-0.252 0.222-0.341 0.558-0.452 0.88-0.016 0.047 0 0.123 0.035 0.128 0.158 0.026 0.3 0.069 0.433 0.127l-0.012-0.005c0.026 0.011 0.061-0.004 0.096 0.031 0.139 0.149 0.27 0.069 0.404 0.072 0.020 0 0.021-0.024 0.013-0.044s-0.034-0.056-0.051-0.047c-0.106 0.058-0.15-0.088-0.235-0.105 0.040-0.089 0.112-0.080 0.188-0.057 0.034 0.010 0.051 0 0.061-0.029s-0.017-0.039-0.039-0.042c-0.032-0.004-0.077-0.005-0.065-0.052 0.008-0.031 0.055-0.032 0.093-0.011s0.073 0.076 0.123 0.066c-0.023-0.147-0.082-0.277-0.167-0.385l0.001 0.002c-0.005-0.008-0.008-0.019-0.008-0.029 0-0.003 0-0.007 0.001-0.010l-0 0c0.024-0.132-0.038-0.19-0.174-0.197zM11.808 14.66c0.061 0.115 0.103 0.218 0.162 0.313 0.142 0.226 0.229 0.233 0.333 0.042 0.040-0.075 0.020-0.116-0.061-0.17-0.124-0.085-0.27-0.149-0.426-0.184l-0.008-0.002zM12.458 15.801c0.018-0.036 0.058-0.054 0.051-0.103-0.005-0.032-0.029-0.038-0.052-0.038-0.102 0-0.212-0.012-0.3 0.026s0.012 0.134 0.006 0.201c0 0.003 0 0.006 0 0.009 0 0.011-0.002 0.022-0.005 0.032l0-0.001c-0.031 0.055 0.023 0.099 0.054 0.119 0.010 0.007 0.023 0.012 0.036 0.012 0.034 0 0.061-0.027 0.061-0.061 0-0 0-0 0-0v0c0.014-0.099 0.046-0.179 0.147-0.196zM11.546 15.275c-0.037-0.067-0.082-0.113-0.061-0.138 0.083-0.092 0-0.197-0.036-0.291-0.046-0.118-0.136-0.222-0.191-0.342 0.043 0.256 0.005 0.524 0.288 0.771zM9.011 17.114c0.003 0 0.007 0 0.011 0 0.095 0 0.188-0.011 0.278-0.031l-0.008 0.002c0.075-0.010 0.064-0.061 0.037-0.11-0.036-0.058-0.077-0.108-0.123-0.153l-0-0c-0.042-0.045-0.074-0.037-0.091 0.012-0.034 0.091-0.069 0.181-0.105 0.281zM12.811 15.617c0.138 0.043 0.265 0.093 0.388 0.036 0.081-0.038 0.116-0.148 0.231-0.131 0.005 0 0.015-0.024 0.012-0.034-0.006-0.018-0.023-0.031-0.043-0.031-0.007 0-0.013 0.002-0.019 0.004l0-0c-0.188 0.060-0.382 0.105-0.571 0.156zM8.679 16.096c0.078 0.092 0.168 0.17 0.27 0.231l0.005 0.003c0.104 0.054 0.131 0.026 0.106-0.088-0.012-0.049-0.046-0.089-0.090-0.109l-0.001-0c-0.102-0.059-0.192-0.039-0.292-0.037zM9.377 16.659c0.017 0.061 0.050 0.108 0.036 0.174-0.010 0.044 0.040 0.117 0.067 0.176 0.017 0.037 0.047 0.032 0.072 0.028s0.022-0.029 0.016-0.054c-0.036-0.128-0.102-0.237-0.191-0.324l-0-0zM10.922 15.701c0.071 0.056 0.131 0.049 0.188 0.069 0.040 0.013 0.076 0 0.066-0.048s-0.056-0.074-0.085-0.057c-0.050 0.028-0.116 0-0.172 0.037z"></path>
<path fill="#fff" d="M7.477 17.397c-0.18 0.090-0.394 0.112-0.569 0.211l-0.020-0.024c0.146-0.118 0.333-0.189 0.537-0.189 0.018 0 0.036 0.001 0.054 0.002l-0.002-0z"></path>
<path fill="#fff" d="M14.305 17.125l1.011 0.184v0.040c-0.335-0.005-0.674-0.117-1.014-0.188z"></path>
<path fill="#fff" d="M9.873 13.010c0.127 0.067 0.261 0.107 0.265 0.295 0.017 0.19 0.043 0.36 0.077 0.526l-0.005-0.029c-0.151-0.284-0.068-0.584-0.338-0.792z"></path>
<path fill="#fff" d="M11.021 13.186c-0.093-0.161-0.080-0.325-0.112-0.49-0.013-0.069 0-0.14-0.079-0.199-0.019-0.014-0.031-0.036-0.031-0.061 0-0.016 0.005-0.031 0.014-0.043l-0 0c0.040-0.046 0.023-0.11 0.036-0.167 0.074 0.273 0.133 0.599 0.166 0.933l0.002 0.025z"></path>
<path fill="#fff" d="M13.184 16.95c0.269 0.019 0.517 0.058 0.758 0.117l-0.030-0.006c-0.068 0.078-0.158 0.029-0.219 0.012-0.124-0.032-0.268-0.054-0.417-0.061l-0.005-0c-0.040-0.003-0.073-0.029-0.086-0.066l-0-0.001z"></path>
<path fill="#fff" d="M9.084 12.819c0.056 0.095 0.099 0.205 0.121 0.323l0.001 0.007c0 0.026 0.027 0.064-0.017 0.061-0.034-0.004-0.094-0.025-0.079-0.067 0.037-0.107-0.024-0.216-0.027-0.323z"></path>
<path fill="#fff" d="M9.056 12.707c-0.036-0.074-0.058-0.161-0.058-0.254 0-0.069 0.012-0.135 0.034-0.197l-0.001 0.004c-0 0.017-0.001 0.037-0.001 0.057 0 0.137 0.009 0.272 0.027 0.405l-0.002-0.015z"></path>
<path fill="#fff" d="M9.473 10.87c-0.012 0.164-0.012 0.164-0.128 0.199 0.004-0.087 0.054-0.161 0.127-0.199l0.001-0.001z"></path>
<path fill="#fff" d="M7.666 12.341l0.281-0.009c-0.093 0.098-0.184 0.074-0.281 0.009z"></path>
<path fill="#fff" d="M10.775 26.861c-0.055-0.212-0.095-0.42-0.197-0.64-0.019-0.044-0.036-0.098-0.050-0.153l-0.002-0.008c-0.035-0.094-0.062-0.204-0.076-0.319l-0.001-0.007c-0.012-0.117-0.033-0.225-0.064-0.328l0.003 0.012c-0.050-0.23-0.104-0.421-0.168-0.608l0.011 0.037c-0.024-0.061-0.084-0.128-0.068-0.188-0.042-0.019 0 0.045-0.035 0.029-0.004-0.009-0.006-0.019-0.006-0.030 0-0.015 0.004-0.029 0.012-0.041l-0 0c0.013-0.040 0.028-0.084-0.050-0.136-0.034-0.023-0.041-0.050-0.020-0.061 0.011-0.005 0.018-0.016 0.018-0.028 0-0.007-0.003-0.014-0.007-0.020l0 0c-0.026-0.040-0.029 0.011-0.061-0.013 0.028-0.066 0-0.151-0.042-0.245-0.008-0.017-0.010-0.037-0.027-0.047-0.039-0.016-0.066-0.054-0.066-0.099 0-0.006 0.001-0.012 0.002-0.018l-0 0.001c-0.037-0.026-0.028 0.021-0.053 0.009-0.042-0.090-0.051-0.095-0.103-0.061-0.018 0.010-0.039 0.020-0.062 0.029l-0.004 0.002c-0.001-0.005-0.001-0.011-0.001-0.016 0-0.022 0.007-0.041 0.019-0.057l-0 0c0.009-0.017 0.043-0.011 0.007-0.061s-0.061-0.061-0.088-0.055c-0.031 0.005-0.066 0.007-0.103 0.007-0.070 0-0.138-0.010-0.202-0.029l0.005 0.001c-0.037-0.009-0.081-0.008-0.087 0.037 0 0.016-0.011 0.017-0.024 0.011-0.113-0.050-0.253-0.1-0.396-0.141l-0.025-0.006c-0.007 0-0.015-0.009-0.027-0.028l0.279 0.055c0.109 0.027 0.233 0.043 0.361 0.043 0.031 0 0.062-0.001 0.093-0.003l-0.004 0c0.056-0.006 0.128 0.025 0.184 0.014 0.028-0.006 0.094 0.007 0-0.066-0.013-0.010-0.020-0.017 0-0.016 0.040 0 0.004-0.027-0.006-0.043-0.051-0.086-0.132-0.154-0.175-0.245-0.014-0.031-0.055-0.045-0.061-0.040-0.034 0.029-0.106-0.015-0.134 0.023-0.008 0.011-0.022 0.020-0.043 0s0.021-0.019 0-0.042c-0.082-0.045-0.111 0.014-0.172 0.010-0.151-0.009-0.294 0-0.446-0.013-0.127-0.012-0.368-0.273-0.499-0.306 0.043-0.047 0.274 0.2 0.338 0.196 0.148-0.009 0.27 0.044 0.426 0.058 0.097 0.009 0.105-0.067 0.135-0.127 0.006-0.011 0.004-0.028 0.009-0.039 0.042-0.106-0.024-0.229-0.162-0.3-0.017-0.011-0.038-0.021-0.059-0.029l-0.003-0.001c-0.050-0.014-0.086-0.057-0.090-0.109l-0-0c-0.001-0.031-0.020-0.058-0.046-0.071l-0-0c-0.058-0.034-0.006 0.022-0.012 0.031s-0.018 0.004-0.030-0.011-0.026-0.043-0.050-0.053c0.004 0.032 0.040 0.049 0.053 0.081-0.021 0.005-0.035-0.023-0.044-0.034-0.075-0.102-0.195-0.167-0.33-0.167-0 0-0 0-0 0v0c-0.004 0-0.010 0.003-0.011 0-0.11-0.135-0.215-0.101-0.323-0.155s-0.225-0.084-0.336-0.13c-0.184-0.075-0.357-0.126-0.538-0.201-0.070-0.035-0.157-0.072-0.246-0.103l-0.017-0.005c0.021-0.022 0.056-0.006 0.088 0.006q0.384 0.142 0.769 0.289c0.393 0.15 0.785 0.289 1.18 0.459 0.159 0.069 0.216 0.039 0.251-0.080 0.040-0.138 0.061-0.29 0.123-0.412 0.016-0.045 0.040-0.084 0.070-0.117l-0 0c0.030-0.020 0.049-0.053 0.049-0.091 0-0.015-0.003-0.029-0.008-0.041l0 0.001c0.037 0.069 0.081 0.138 0.11 0.207 0.092 0.205 0.191 0.379 0.306 0.543l-0.007-0.011c0.037 0.056 0.078 0.145 0.146 0.099 0.017-0.012 0.074 0.031 0.11 0.061 0.034 0.027 0.074 0.051 0.115 0.070l0.004 0.001c0.067 0.038 0.041-0.012 0.027-0.044-0.020-0.046-0.131-0.131-0.15-0.111-0.034 0.034-0.085-0.025-0.123-0.023 0.046-0.012 0.045-0.061 0.050-0.107 0.007-0.072 0.071-0.072 0.129-0.067 0.070 0.006 0.091-0.016 0.061-0.106-0.012-0.068-0.040-0.128-0.080-0.177l0.001 0.001c-0.015-0.014-0.024-0.034-0.024-0.056 0-0.012 0.003-0.023 0.007-0.033l-0 0c0.005-0.018 0.008-0.039 0.008-0.060 0-0.033-0.007-0.064-0.020-0.093l0.001 0.001c-0.066-0.245-0.131-0.49-0.196-0.735-0.003-0.012-0.010-0.029 0-0.032v0c0.043 0.11 0.084 0.244 0.115 0.382l0.004 0.020c0.008 0.063 0.051 0.115 0.11 0.134l0.001 0c0.017 0.009 0.031 0.019 0.044 0.030l-0-0c-0.004 0.019-0.019 0.007-0.029 0.003-0.080-0.028-0.091-0.017-0.032 0.064 0.087 0.116 0.126 0.239 0.195 0.356 0.021 0.035 0.029 0.058 0.070 0.061s0.061 0.066 0.085 0.104c0.071-0.015 0.048-0.077-0.004-0.154s-0.085-0.173-0.134-0.258c-0.019-0.047-0.045-0.087-0.078-0.121l0 0c-0.012-0.009-0.031-0.029-0.014-0.039s0.026 0 0.041 0.018c0.020 0.026 0.035 0.057 0.045 0.090l0.001 0.002c0.056 0.131 0.107 0.191 0.188 0.215 0.065 0.019 0.087-0.029 0.128-0.066 0.005 0.045 0 0.069-0.023 0.078-0.011 0.005-0.027 0.006-0.016 0.028 0.007 0.015 0.022 0.026 0.040 0.026 0.001 0 0.001 0 0.002-0h-0c0.045-0.004 0.123 0.056 0.118-0.046 0-0.026 0.045-0.088 0.123-0.042 0.036 0.022 0.042 0 0.055-0.013s0.017-0.044 0.051-0.048c-0.072 0.164-0.14 0.295-0.213 0.423l0.011-0.022c-0.027 0.047-0.051 0.097-0.077 0.145-0.004 0.008-0.006 0.017-0.006 0.026 0 0.015 0.006 0.030 0.015 0.040l-0-0c0.021 0.028 0.035 0.013 0.052 0.013 0.023-0.002 0.050-0.003 0.077-0.003s0.054 0.001 0.081 0.003l-0.004-0c0.015 0 0.032 0.001 0.049 0.001 0.081 0 0.161-0.005 0.24-0.016l-0.009 0.001c0.019-0.001 0.040-0.001 0.062-0.001 0.089 0 0.176 0.009 0.261 0.026l-0.008-0.001c0.018 0.003 0.038 0.005 0.059 0.005 0.065 0 0.125-0.019 0.176-0.052l-0.001 0.001c0.095-0.048 0.177-0.1 0.253-0.16l-0.003 0.002c-0.088 0.084-0.187 0.157-0.295 0.216l-0.007 0.004c-0.059 0.041-0.126 0.074-0.199 0.096l-0.005 0.001c-0.019 0.008-0.042 0.013-0.066 0.013-0.019 0-0.036-0.003-0.053-0.008l0.001 0c-0.061-0.020-0.096 0.030-0.146 0.042-0.075 0.024-0.136 0.047-0.195 0.074l0.011-0.005c-0.106 0.036-0.216 0.069-0.292 0.147-0.010 0.010-0.043 0.009-0.014 0.047 0.016 0.022 0.039 0.048 0.057 0.028 0.007-0.007 0.021-0.005 0.031 0.016 0.008 0.014 0.014 0.031 0.017 0.049l0 0.001c0 0.019-0.014 0.013-0.032 0s-0.036-0.013-0.045 0 0 0.021 0.006 0.029c0.010 0.013 0.025 0.021 0.042 0.021 0.002 0 0.005-0 0.007-0l-0 0c0.037 0 0.076 0 0.093 0.075-0.023-0.005-0.044-0.065-0.061-0.038s0.020 0.038 0.039 0.056c0.044 0.041 0.098 0.073 0.157 0.091l0.003 0.001c0.101 0.036 0.197 0.044 0.303 0.102v-0.003c-0.005 0.042-0.048 0.026-0.076 0.024-0.073-0.006-0.127 0.006-0.131 0.090 0 0.006-0.008 0.008-0.013 0.009-0.078 0.020-0.009 0.064 0.039 0.11-0.021 0.016-0.066 0.010-0.043 0.066 0 0.004 0 0.009 0 0.013-0.007 0.041-0.093-0.113-0.074 0 0.005 0.029 0 0.027-0.093-0.025 0.030 0.061 0.071 0.112 0.122 0.153l0.001 0.001c0.13 0.122 0.249 0.251 0.357 0.389l0.006 0.007c0.028 0.044 0.067 0.079 0.114 0.102l0.002 0.001c0.061 0.023 0.025 0.082 0.066 0.123-0.131-0.11-0.245-0.235-0.34-0.374l-0.004-0.006c-0.034-0.044-0.066-0.096-0.114-0.069-0.025 0.015-0.037-0.027-0.046-0.053-0.026-0.073-0.191-0.219-0.245-0.216-0.020 0-0.007 0.028-0.005 0.045 0.039 0.198 0.098 0.375 0.177 0.539l-0.006-0.014c0.201 0.479 0.368 0.954 0.54 1.43 0.056 0.156 0.102 0.312 0.172 0.467-0.073-0.062-0.133-0.136-0.178-0.22l-0.002-0.004c-0.014-0.018-0.022-0.040-0.022-0.064 0-0.008 0.001-0.015 0.002-0.022l-0 0.001c0.006-0.025 0.009-0.054 0.009-0.083 0-0.070-0.018-0.135-0.050-0.192l0.001 0.002c-0.099-0.214-0.142-0.423-0.235-0.635-0.084-0.191-0.14-0.383-0.245-0.571-0.048-0.095-0.098-0.212-0.142-0.332l-0.007-0.023c-0.004-0.012-0.010-0.023-0.018-0.032l0 0c-0.040-0.015-0.068-0.053-0.068-0.097 0-0.013 0.003-0.026 0.007-0.038l-0 0.001c-0.070 0.040-0.072 0.123-0.123 0.154-0.018 0.010 0 0.058 0.010 0.064 0.052 0.034 0.043 0.070 0.061 0.108s0.021 0.046-0.011 0.040c-0.014 0-0.012 0.021-0.006 0.029 0.043 0.052 0.017 0.084 0.031 0.127 0.004 0.039 0.025 0.072 0.056 0.092l0.001 0c0.009 0.006 0.051 0.054 0.010 0.056-0.029 0-0.019 0.025-0.010 0.051 0.013 0.037 0.020 0.073 0.037 0.109 0.042 0.079 0.070 0.171 0.079 0.268l0 0.003c0.002 0.044 0.019 0.084 0.047 0.114l-0-0c0.008 0.009 0.020 0.020 0.014 0.029-0.043 0.065 0 0.188 0.043 0.256 0.071 0.107 0.045 0.156 0.061 0.234 0.093 0.541 0.146 1.065 0.184 1.583 0 0.028 0.014 0.061-0.005 0.077l-0.050-0.061c0.032-0.051 0-0.133-0.012-0.203-0.035-0.275 0-0.523-0.101-0.824-0.001-0.003-0.002-0.007-0.002-0.011s0.001-0.008 0.002-0.012l-0 0c0.032-0.080-0.013-0.189-0.045-0.292-0.007-0.023-0.028-0.057-0.017-0.061 0.046-0.024-0.015-0.108 0.009-0.144 0.004-0.006-0.009-0.032-0.022-0.037-0.088-0.035-0.052-0.061-0.034-0.088 0.007-0.011 0.018-0.029 0.012-0.043-0.055-0.123-0.039-0.224-0.069-0.338-0.050-0.194-0.154-0.396-0.18-0.586-0.002-0.048-0.022-0.091-0.053-0.123v0c-0.040-0.029-0.069-0.072-0.078-0.121l-0-0.001c0.001-0.004 0.001-0.009 0.001-0.014 0-0.041-0.033-0.074-0.074-0.074-0.004 0-0.008 0-0.012 0.001l0-0c-0.053 0.016-0.101-0.042-0.15-0.076-0.023-0.015-0.052-0.071-0.066-0.029-0.009 0.026-0.040 0.043 0.013 0.102 0.039 0.042 0.023 0.129-0.023 0.114-0.105-0.033-0.066 0.044-0.043 0.112 0.015 0.045 0.028 0.090 0.043 0.135 0.003 0.019 0.011 0.035 0.024 0.047v0c0.047 0.043 0.082 0.119 0.070 0.139-0.024 0.045 0 0.1 0.011 0.154 0.042 0.16 0.078 0.321 0.135 0.483 0.044 0.126 0.031 0.245 0.139 0.38 0.014 0.017 0.013 0.047 0 0.048-0.037 0.005-0.019 0.045-0.012 0.074 0.034 0.139 0.068 0.279 0.107 0.419 0.050 0.177 0.104 0.355 0.156 0.533zM10.112 24.372c0.022-0.083 0.042-0.146 0.056-0.213 0.021-0.094 0.068-0.102 0.177-0.024 0.073 0.053 0.145 0.107 0.227 0.168-0.027-0.104-0.051-0.195-0.075-0.287-0.050-0.189 0.012-0.285 0.132-0.33 0.026-0.009 0.056-0.019 0.052-0.050-0.009-0.077 0.040-0.080 0.088-0.088 0.047-0.006 0.090-0.016 0.131-0.031l-0.004 0.001c0.066-0.019 0.122-0.054 0.166-0.1l0-0c-0.134-0.042-0.262-0.074-0.39-0.105-0.044-0.008-0.081-0.034-0.104-0.069l-0-0.001c-0.097-0.128-0.128-0.262-0.037-0.299 0.037-0.015 0.031-0.037-0.019-0.081-0.096-0.083-0.107-0.113-0.098-0.213 0-0.013 0.012-0.028-0.009-0.043-0.048-0.034-0.103-0.096-0.145-0.074s-0.070-0.019-0.096-0.066c-0.018-0.035-0.031-0.071-0.045-0.107 0.017 0.118 0.045 0.237 0.067 0.355 0.028 0.15 0.014 0.159-0.123 0.094-0.008-0.004-0.018-0.008-0.028-0.012l-0.002-0.001c-0.097-0.038-0.115-0.028-0.115 0.067 0 0.123-0.097 0.169-0.219 0.101s-0.249-0.123-0.373-0.184c-0.088-0.040-0.091-0.032-0.061 0.069s0.096 0.193 0.123 0.286c0.015 0.066 0.061 0.119 0.121 0.144l0.001 0c0.090 0.037 0.162 0.101 0.208 0.182l0.001 0.002c0.061 0.107 0.205 0.205 0.162 0.325 0.001 0.006 0.003 0.012 0.006 0.017l-0-0c0.064 0.182 0.143 0.36 0.226 0.564zM9.417 22.247c0.083-0.013 0.032-0.093 0-0.156-0.056-0.115-0.086-0.129-0.132-0.061-0.007 0.013-0.015 0.024-0.024 0.034l0-0c-0.116 0.105-0.136 0.289-0.168 0.463-0.005 0.025 0.009 0.070 0.029 0.076 0.089 0.030 0.167 0.065 0.239 0.108l-0.005-0.003c0.015 0.009 0.033 0 0.053 0.025 0.086 0.096 0.15 0.061 0.221 0.074 0.010 0 0.009-0.012 0.004-0.024s-0.023-0.035-0.031-0.031c-0.051 0.024-0.086-0.061-0.133-0.079 0.014-0.047 0.053-0.036 0.095-0.017 0.019 0.009 0.028 0.005 0.029-0.012s-0.012-0.023-0.024-0.027-0.041-0.009-0.039-0.035 0.026-0.014 0.048 0 0.045 0.049 0.072 0.047c-0.026-0.089-0.067-0.166-0.12-0.232l0.001 0.001c-0.004-0.006-0.007-0.013-0.007-0.021 0-0.001 0-0.001 0-0.002v0c0-0.004 0.001-0.008 0.001-0.012 0-0.062-0.048-0.112-0.109-0.116l-0-0zM10.31 22.039c0.040 0.070 0.072 0.132 0.112 0.191 0.094 0.14 0.141 0.151 0.18 0.051 0.015-0.040 0-0.064-0.048-0.102-0.070-0.058-0.15-0.106-0.238-0.141l-0.006-0.002zM10.748 22.737c0.006-0.019 0.026-0.026 0.018-0.055-0.004-0.014-0.016-0.025-0.031-0.026h-0c-0.030-0.009-0.064-0.014-0.1-0.014-0.020 0-0.040 0.002-0.059 0.005l0.002-0c-0.043 0.015 0.017 0.077 0.020 0.115 0 0.007 0.004 0.017 0 0.023-0.012 0.029 0.020 0.061 0.038 0.072 0.028 0.020 0.048 0.007 0.048-0.020 0.001-0.055 0.012-0.099 0.064-0.099zM10.221 22.364c-0.025-0.041-0.052-0.070-0.042-0.083 0.037-0.045-0.015-0.112-0.043-0.169-0.034-0.071-0.090-0.137-0.129-0.21 0.045 0.148 0.045 0.298 0.214 0.461zM9.026 23.202c0.030 0.005 0.065 0.008 0.101 0.008 0.016 0 0.032-0.001 0.047-0.002l-0.002 0c0.039 0 0.029-0.031 0.010-0.061-0.025-0.036-0.051-0.068-0.079-0.098l0 0c-0.026-0.029-0.042-0.027-0.047 0-0.009 0.050-0.020 0.099-0.031 0.152zM10.919 22.661c0.076 0.036 0.148 0.075 0.208 0.052 0.040-0.015 0.049-0.075 0.112-0.056 0.003 0 0.007-0.012 0.004-0.018-0.005-0.012-0.016-0.020-0.029-0.020-0.001 0-0.003 0-0.004 0h0c-0.094 0.019-0.194 0.028-0.29 0.042zM8.764 22.597c0.048 0.058 0.102 0.109 0.162 0.153l0.002 0.002c0.061 0.039 0.072 0.026 0.049-0.041-0.011-0.029-0.031-0.053-0.056-0.069l-0.001-0c-0.043-0.028-0.095-0.045-0.151-0.045-0.002 0-0.004 0-0.006 0h0zM9.179 22.973c0.018 0.029 0.029 0.064 0.033 0.101l0 0.001c0 0.024 0.031 0.070 0.050 0.105 0.006 0.013 0.019 0.023 0.034 0.023 0.002 0 0.004-0 0.006-0.001l-0 0c0.014 0 0.009-0.015 0.004-0.029-0.030-0.078-0.072-0.144-0.126-0.2l0 0zM9.923 22.553c0.030 0.024 0.065 0.042 0.103 0.053l0.002 0.001c0.022 0.011 0.040 0.007 0.031-0.021s-0.036-0.047-0.050-0.040c-0.020 0.014-0.059-0.007-0.086 0.007z"></path>
<path fill="#fff" d="M8.235 23.238c-0.088 0.037-0.2 0.032-0.285 0.074l-0.012-0.015c0.058-0.043 0.13-0.070 0.209-0.070 0.031 0 0.062 0.004 0.091 0.012l-0.002-0.001z"></path>
<path fill="#fff" d="M11.836 23.64l0.552 0.184 0.004 0.023c-0.178-0.030-0.368-0.123-0.552-0.189z"></path>
<path fill="#fff" d="M9.148 20.942c0.074 0.048 0.148 0.082 0.165 0.189 0.026 0.118 0.053 0.214 0.085 0.309l-0.006-0.021c-0.104-0.174-0.084-0.336-0.245-0.477z"></path>
<path fill="#fff" d="M9.772 21.135c-0.061-0.099-0.069-0.191-0.099-0.286-0.007-0.047-0.029-0.089-0.061-0.119l-0-0c-0.020-0.017-0.028-0.047-0.017-0.061 0.017-0.023 0.003-0.061 0.006-0.092 0.059 0.15 0.116 0.337 0.161 0.528l0.006 0.030z"></path>
<path fill="#fff" d="M11.226 23.449c0.154 0.035 0.286 0.077 0.413 0.129l-0.017-0.006c-0.030 0.039-0.082 0.004-0.116-0.011-0.065-0.027-0.141-0.051-0.221-0.068l-0.009-0.002c-0.023-0.006-0.042-0.023-0.051-0.044l-0-0z"></path>
<path fill="#fff" d="M8.715 20.769c0.037 0.057 0.068 0.122 0.090 0.191l0.002 0.006c0.004 0.015 0.020 0.039-0.004 0.032s-0.051-0.021-0.047-0.044c0.008-0.055-0.031-0.124-0.041-0.185z"></path>
<path fill="#fff" d="M8.691 20.703c-0.034-0.057-0.054-0.125-0.054-0.198 0-0.020 0.002-0.040 0.005-0.059l-0 0.002c0.013 0.099 0.031 0.186 0.054 0.27l-0.003-0.015z"></path>
<path fill="#fff" d="M8.764 19.693c0.007 0.092 0.007 0.092-0.051 0.102-0.001-0.005-0.002-0.012-0.002-0.018 0-0.037 0.021-0.069 0.053-0.084l0.001-0z"></path>
<path fill="#fff" d="M7.923 20.381l0.149 0.018c-0.043 0.048-0.092 0.027-0.149-0.018z"></path>
</svg>
