<!-- Generated by IcoMoon.io -->
<svg version="1.1" xmlns="http://www.w3.org/2000/svg" width="18" height="32" viewBox="0 0 18 32">
<title>5</title>
<rect fill="#fff" x="0" y="0" width="18" height="32"></rect>
<path fill="#1d1d1b" d="M10.045 2.263c-0.006 0.009-0.078 0.067-0.115 0.103-0.089 0.088-0.332 0.097-0.368 0.109-0.058 0.023-0.34-0.082-0.368-0.014-0.31 0.535 0.055 0.457-0.207 1.024-0.034 0.203-0.067 0.406-0.1 0.609-0.013 0.083-0.028 0.167-0.042 0.251 0.002 0.004 0.003 0.009 0.004 0.013l0 0.001c0.057 0.373-0.083 0.77-0.241 1.138-0.081 0.332-0.173 0.66-0.282 0.981-0.124 0.379-0.281 0.708-0.473 1.012l0.011-0.018c-0.211 0.327-0.414 0.682-0.688 0.96-0.059 0.059-0.12 0.115-0.186 0.166l-0.004 0.003c-0.066 0.109-0.136 0.216-0.21 0.319-0.306 0.429-0.683 0.83-0.946 1.293-0.046 0.471-0.144 0.939-0.233 1.41 0.012 0.061 0.024 0.123 0.036 0.189 0.010 0.053 0.020 0.107 0.029 0.16 0.074-0.058 0.175-0.070 0.255-0.116 0.061-0.035 0.098 0.028 0.102 0.083 0.011 0.153 0.053 0.298 0.052 0.455-0.004 0.306 0.011 0.613 0.161 0.895 0.076-0.038 0.086-0.171 0.191-0.097 0.035 0.025 0.080 0.040 0.128 0.040 0.040 0 0.078-0.011 0.11-0.029l-0.001 0.001c0.038 0.093-0.067 0.16-0.021 0.245 0.069-0.021 0.058-0.105 0.111-0.129 0.052 0.039 0 0.115 0.069 0.164-0.008-0.027-0.013-0.058-0.013-0.091 0-0.108 0.055-0.204 0.139-0.26l0.001-0.001c0.037-0.027 0.055-0.123 0.112-0.074 0.040 0.034 0.107 0.074 0.096 0.156-0.016 0.129 0.013 0.257 0 0.388s-0.036 0.202-0.203 0.184c0.153 0.074 0.113 0.143 0.022 0.184-0.295 0.132-0.403 0.39-0.474 0.685-0.036 0.15-0.083 0.293-0.010 0.463 0.013-0.049 0.022-0.078 0.031-0.109 0.075 0.039 0.056 0.128 0.118 0.199-0.012-0.105-0.024-0.189-0.030-0.273-0.013-0.197-0.061-0.402 0.132-0.552 0.061-0.047 0.129-0.084 0.188-0.058 0.070 0.032 0.017 0.113 0.017 0.172 0 0.18-0.094 0.329-0.147 0.49-0.061 0.192 0.101 0.411-0.061 0.616-0.034 0.042 0.11 0.207 0.132 0.34 0.010 0.065 0.149 0.102 0.112 0.195s-0.135 0.093-0.221 0.105c-0.074 0.010-0.147 0.026-0.22 0.044s-0.069 0.019-0.123 0.123c0.112-0.046 0.242-0.072 0.378-0.072 0.015 0 0.030 0 0.045 0.001l-0.002-0c-0.116 0.205-0.287 0.343-0.373 0.555-0.076 0.188-0.196 0.355-0.188 0.574 0 0.005 0.001 0.010 0.001 0.016 0 0.050-0.015 0.097-0.041 0.136l0.001-0.001c-0.135 0.195-0.095 0.437-0.199 0.663 0.108-0.026 0.061-0.13 0.137-0.139s0.042 0.091 0.085 0.104c0.051-0.061-0.028-0.127 0.024-0.192 0.085 0.055 0.094 0.123 0.061 0.214-0.054 0.144-0.1 0.286-0.012 0.44 0.039 0.067 0.027 0.184-0.034 0.212-0.145 0.061-0.226 0.18-0.321 0.291-0.015 0.018-0.077 0.027-0.043 0.048 0.094 0.061 0.039 0.165 0.086 0.245 0.061 0.107 0.090 0.245-0.076 0.319-0.041 0.017-0.055 0.053-0.034 0.109 0.089-0.086 0.192-0.055 0.306-0.072-0.021 0.036-0.033 0.079-0.033 0.125 0 0.043 0.011 0.083 0.029 0.118l-0.001-0.001c0.104 0.205-0.111 0.343-0.096 0.526 0 0.009-0.024 0.024-0.040 0.031-0.039 0.019-0.065 0.059-0.065 0.104 0 0.010 0.001 0.020 0.004 0.030l-0-0.001c0.014 0.128-0.061 0.216-0.132 0.295-0.070 0.074-0.126 0.162-0.164 0.259l-0.002 0.006c-0.025 0.091-0.107 0.157-0.204 0.157-0.012 0-0.024-0.001-0.036-0.003l0.001 0c-0.067-0.005-0.144-0.007-0.223-0.007-0.292 0-0.576 0.036-0.847 0.103l0.024-0.005c-0.123 0.030-0.245 0.065-0.371 0.083-0.623 0.089-1.251 0.117-1.877 0.166-0.122 0.011-0.263 0.018-0.406 0.018s-0.284-0.006-0.424-0.019l0.018 0.001c-0.372-0.035-0.744-0.069-1.135-0.104 0.053 0.042 0.118 0.070 0.191 0.076l0.001 0c0.428 0.093 0.924 0.152 1.432 0.163l0.009 0c0.029 0 0.063 0 0.097 0 0.969 0 1.915-0.098 2.829-0.284l-0.091 0.015c0.314-0.061 0.639-0.215 0.958 0 0.009 0.006 0.034-0.004 0.047-0.014 0.093-0.072 0.194-0.009 0.284-0.021 0.113-0.016 0.145 0.118 0.223 0.1 0.184-0.044 0.173 0.084 0.193 0.199 0.061 0.357 0.123 0.712 0.325 1.027 0.102 0.158 0.211 0.324 0.245 0.522 0.004 0.017 0.006 0.038 0.006 0.058 0 0.124-0.084 0.228-0.198 0.258l-0.002 0c-0.113 0.034-0.189 0.127-0.141 0.233 0.021 0.050 0.032 0.107 0.032 0.168 0 0.050-0.008 0.097-0.023 0.142l0.001-0.003c0.064-0.009 0.096-0.097 0.147-0.055s-0.007 0.096-0.028 0.141-0.047 0.081-0.068 0.123c-0.055 0.11-0.164 0.184-0.21 0.323 0.114-0.083 0.206-0.19 0.267-0.315l0.002-0.005c0.061-0.113 0.109-0.245 0.218-0.327 0.037-0.049 0.102-0.083 0.071-0.165s0.080-0.045 0.086-0.1c0.029 0.014 0.049 0.043 0.049 0.077 0 0.014-0.003 0.026-0.009 0.038l0-0c-0.009 0.020-0.019 0.037-0.031 0.053l0.001-0.001c0.208 0.105 0.053 0.208 0 0.311 0.078-0.011 0.149-0.034 0.214-0.066l-0.004 0.002c0.028-0.018-0.061-0.119 0.015-0.15s0.023 0.113 0.105 0.104c0.029-0.003 0.061-0.044 0.090 0 0 0.082-0.123 0.099-0.096 0.194 0.123-0.102 0.178 0.013 0.232 0.077 0.157 0.184-0.15 0.114-0.128 0.23 0.115 0.017 0.118 0.018 0.081 0.123-0.119 0.341-0.24 0.681-0.196 1.055 0.010 0.084-0.015 0.097-0.149 0.155-0.010 0.006-0.018 0.015-0.020 0.027l-0 0c-0.029 0.219-0.368 0.332-0.207 0.617 0.001 0.003 0.001 0.006 0.001 0.010 0 0.009-0.003 0.018-0.007 0.025l0-0c-0.078 0.123-0.061 0.26-0.082 0.396-0.035 0.217-0.1 0.412-0.193 0.59l0.005-0.011c0.112-0.017 0.158 0.022 0.149 0.128-0.001 0.019-0.002 0.040-0.002 0.062 0 0.183 0.040 0.358 0.113 0.514l-0.003-0.008c0.11 0.273 0.198 0.54 0.139 0.854s-0.129 0.597-0.312 0.847c-0.091 0.123-0.202 0.23-0.306 0.345 0.091 0.033 0.096-0.020 0.123-0.043 0.039-0.028 0.073-0.058 0.103-0.093l0.001-0.001c0.429-0.541 0.681-1.122 0.391-1.825-0.088-0.213-0.163-0.429-0.132-0.668 0.030-0.259 0.073-0.487 0.131-0.711l-0.008 0.036c0.032-0.123 0.036-0.245 0.226-0.184-0.154-0.216 0.052-0.273 0.123-0.384s0.145-0.053 0.175 0.031c0.066 0.188 0.129 0.376 0.096 0.585-0.067 0.412-0.14 0.82-0.314 1.205-0.052 0.11-0.082 0.24-0.082 0.376 0 0.101 0.017 0.198 0.047 0.289l-0.002-0.006c0.051 0.157 0.027 0.318 0 0.46-0.053 0.295-0.123 0.587-0.17 0.883-0.015 0.084-0.024 0.18-0.024 0.279 0 0.158 0.023 0.311 0.065 0.456l-0.003-0.011c-0.024-0.205 0.135-0.329 0.196-0.498-0.007 0.040-0.011 0.085-0.011 0.131s0.004 0.092 0.012 0.136l-0.001-0.005c0.014-0.028 0.024-0.066 0.034-0.066 0.080 0 0 0.103 0.072 0.123 0.024-0.211 0.109-0.399 0.236-0.55l-0.001 0.002c0.102-0.134 0.349-0.197 0.453-0.135 0.061 0.039 0.083 0.112 0.129 0.162l0.45 0.729c-0.026-0.248-0.080-0.475-0.16-0.69l0.006 0.019c-0.017-0.045-0.104-0.18 0.072-0.112 0.048 0.018 0.057-0.031 0.045-0.042-0.134-0.134-0.006-0.184 0.081-0.236-0.025-0.058-0.080-0.040-0.115-0.074-0.066-0.064-0.174-0.088-0.164-0.213-0.219-0.010-0.1-0.157-0.097-0.256 0-0.053 0.023-0.104 0.026-0.157 0.004-0.126 0-0.245 0.188-0.173 0.050 0.020 0.093-0.049 0.141-0.053 0.088-0.008 0.102-0.217 0.227-0.091s-0.053 0.177-0.068 0.27c0.142 0.026 0.274 0.215 0.264 0.349-0.015 0.203-0.216 0.216-0.318 0.333 0.113-0.021 0.214-0.072 0.324-0.070 0.042 0.002 0.079 0.022 0.103 0.052l0 0c0.031 0.054-0.036 0.037-0.055 0.056s-0.047 0.064-0.022 0.094 0.061 0 0.084-0.024 0.046-0.050 0.072-0.021c0.067 0.071 0.107 0.030 0.166-0.019 0.034-0.024 0.076-0.038 0.122-0.038 0.017 0 0.034 0.002 0.050 0.006l-0.001-0c0.033 0.009 0.050 0.085 0.072 0.132 0.029 0.066-0.104 0.017-0.067 0.103 0.052 0.131 0.085 0.283 0.092 0.442l0 0.003c0.014 0.184 0.237 0.407-0.040 0.578-0.028 0.017-0.024 0.088-0.034 0.134-0.004 0.019 0.017 0.034-0.006 0.061-0.053 0.061-0.045 0.081 0.024 0.086 0.014 0.002 0.030 0.003 0.046 0.003 0.116 0 0.221-0.053 0.289-0.136l0.001-0.001c0.108-0.139 0.229-0.259 0.363-0.364l0.005-0.003c0.118-0.084 0.18-0.231 0.321-0.281 0.16-0.056 0.094-0.245 0.196-0.338 0.014-0.018 0.026-0.038 0.036-0.059l0.001-0.002c0.018-0.025 0.048-0.054 0.070-0.024 0.070 0.097 0.101 0.004 0.157-0.018 0.108-0.040 0.068-0.137 0.095-0.202 0.058-0.14 0.189-0.199 0.286-0.297-0.071 0.017-0.126 0.066-0.198 0.056-0.042-0.005-0.102 0.009-0.085-0.072 0.012-0.054 0.004-0.137 0.092-0.111 0.123 0.036 0.262-0.033 0.371 0.086 0.080 0.088 0.223 0.102 0.271 0.232 0.071 0.189 0.118 0.38 0.051 0.583-0.014 0.029-0.023 0.064-0.023 0.1s0.008 0.071 0.023 0.102l-0.001-0.001c0.123-0.289 0.222-0.564 0.134-0.854-0.056-0.184 0.032-0.255 0.143-0.352 0.176-0.141 0.302-0.337 0.356-0.561l0.001-0.007c-0.118 0.149-0.184 0.338-0.335 0.461-0.050 0.040-0.096 0.085-0.148 0.123-0.068 0.045-0.123 0.039-0.172-0.042s-0.115-0.134-0.16-0.199c-0.019-0.032-0.030-0.071-0.030-0.112 0-0.072 0.034-0.136 0.086-0.177l0.001-0c0.156-0.107 0.138-0.286 0.199-0.429 0.018-0.043-0.105-0.123 0-0.159s0.184-0.162 0.312-0.093c0.065 0.034 0.114 0.067 0.199 0.006 0.076-0.054 0.105 0.027 0.111 0.112 0.011 0.18-0.078 0.343-0.069 0.519 0.113-0.134 0.103-0.306 0.119-0.464 0.014-0.137 0.042-0.184 0.184-0.21 0.289-0.056 0.549-0.194 0.686-0.479 0.061-0.123 0.103 0 0.168-0.012-0.061-0.254 0.061-0.429 0.22-0.593 0.051-0.053 0.089-0.074 0.155-0.044 0.013 0.006-0.012 0.101 0.037 0.019 0.021-0.034 0.111-0.026 0.072-0.092-0.055-0.093-0.044-0.161 0.051-0.198 0.112-0.044 0.085 0.094 0.141 0.134 0.046-0.058-0.017-0.131 0.044-0.202 0.030 0.107 0 0.211 0.061 0.337-0.004-0.035-0.006-0.075-0.006-0.115 0-0.004 0-0.008 0-0.013v0.001c0.004-0.050-0.032-0.126 0.031-0.14s0.087 0.066 0.107 0.118 0.024 0.116 0.091 0.107c0.119-0.016 0.179 0.030 0.196 0.15 0.003 0.024 0.017 0.058 0.061 0.040 0.013-0.143-0.049-0.273-0.076-0.409-0.006-0.031-0.024-0.115 0.024-0.088 0.162 0.095 0.067-0.050 0.074-0.080 0.036-0.16-0.061-0.34 0.068-0.485s0.093-0.355 0.139-0.531c0.041-0.155 0.131-0.134 0.227-0.143 0.015 0 0.029 0.093 0.050 0 0.012-0.050 0.075-0.089 0.037-0.144-0.024-0.036-0.061-0.005-0.094 0.006-0.053 0.020-0.099 0.070-0.17 0.061 0.037-0.081 0.113-0.091 0.178-0.154-0.088-0.026-0.151-0.075-0.137-0.164 0.032-0.198-0.061-0.397 0.012-0.595 0.007-0.020 0.011-0.042 0.011-0.066 0-0.038-0.011-0.074-0.029-0.105l0.001 0.001c-0.075-0.085-0.040-0.165-0.019-0.245 0.028-0.11 0.078-0.215 0.095-0.326 0.023-0.15 0.079-0.123 0.171-0.061 0.184 0.131 0.333 0.3 0.438 0.495l0.004 0.008c0.009-0.022 0.014-0.047 0.014-0.074 0-0.050-0.019-0.096-0.049-0.131l0 0c-0.116-0.123-0.164-0.295-0.284-0.423-0.097-0.111-0.156-0.257-0.156-0.418 0-0.015 0.001-0.029 0.001-0.043l-0 0.002c0.135 0.116 0.127 0.297 0.245 0.425-0.009-0.15-0.075-0.255-0.126-0.368-0.136-0.297-0.224-0.593-0.026-0.903 0.087-0.137 0.151-0.289 0.224-0.435 0.010-0.006 0.021-0.009 0.034-0.009 0.017 0 0.032 0.006 0.044 0.016l-0-0c0.144 0.123 0.034 0.242-0.015 0.346-0.061 0.135-0.013 0.228 0.053 0.33 0.001-0.231 0.058-0.449 0.158-0.641l-0.004 0.008c0.077 0.042-0.018 0.135 0.076 0.178 0.008-0.144 0.184-0.229 0.129-0.409-0.085 0.044-0.037 0.167-0.144 0.174-0.001-0.008-0.001-0.017-0.001-0.025 0-0.073 0.033-0.138 0.084-0.181l0-0c0.092-0.066 0.154-0.167 0.169-0.284l0-0.002c0.074-0.384 0.132-0.759-0.106-1.12-0.105-0.159-0.142-0.365-0.228-0.539-0.207-0.418-0.356-0.851-0.386-1.323-0.015-0.228-0.031-0.456-0.047-0.704-0.075 0.067-0.028 0.142-0.069 0.203-0.080-0.112-0.165-0.207-0.064-0.337-0.127-0.25-0.044-0.561-0.221-0.797-0.021-0.029-0.046-0.123 0.013-0.104 0.134 0.043 0.055-0.044 0.044-0.066-0.134-0.287-0.223-0.62-0.249-0.971l-0.001-0.010c-0.009-0.089 0.019-0.205-0.026-0.266-0.159-0.214-0.096-0.458-0.089-0.681 0.009-0.279-0.044-0.506-0.245-0.693-0.050 0.029 0.013 0.102-0.069 0.123-0.013-0.066-0.048-0.123-0.012-0.199 0.013-0.026 0.020-0.057 0.020-0.089 0-0.023-0.004-0.046-0.011-0.066l0 0.001c-0.073-0.249-0.233-0.452-0.444-0.579l-0.005-0.002c-0.177-0.112-0.408-0.137-0.521-0.351-0.007-0.013-0.045-0.018-0.061-0.012-0.072 0.024-0.077-0.032-0.107-0.074-0.047-0.065-0.036-0.167-0.085-0.203-0.13-0.096-0.123-0.088-0.148-0.184-0.097-0.392-0.11-0.819-0.429-1.123-0.012-0.012-0.023-0.025-0.032-0.040l-0.001-0.001c-0.173-0.3-0.19-0.643-0.181-0.968 0.006-0.246 0.028-0.481 0.065-0.711l-0.004 0.030c0.072-0.438-0.108-0.765-0.437-1.027-0.11-0.086-0.198-0.196-0.255-0.323l-0.002-0.005c-0.117-0.269-0.185-0.582-0.185-0.911 0-0.030 0.001-0.059 0.002-0.088l-0 0.004c0.017-0.479-0.037-0.93-0.346-1.319-0.061-0.077-0.061-0.187-0.145-0.27-0.181-0.184-0.345-0.39-0.424-0.651s-0.169-0.525-0.252-0.787c-0.123-0.39-0.254-0.777-0.259-1.196 0.001-0.015 0.001-0.032 0.001-0.049 0-0.094-0.016-0.183-0.046-0.267l0.002 0.006c-0.085-0.205-0.202-0.392-0.289-0.593-0.114-0.268 0.044-0.475-0.118-0.71-0.035-0.074-0.079-0.137-0.131-0.192l0 0c0.029 0.158-0.052 0.423-0.018 0.617M6.356 18.345c0.105 0.147 0.172 0.3 0.082 0.509-0.032-0.2-0.057-0.36-0.083-0.519zM6.463 19.639c-0.051 0.040-0.083 0.102-0.083 0.171 0 0.016 0.002 0.032 0.005 0.047l-0-0.001c-0.132-0.116-0.008-0.202 0.025-0.298 0.007-0.021 0.040-0.015 0.058 0.004 0.006 0.008 0.010 0.019 0.010 0.030 0 0.014-0.006 0.027-0.015 0.036v0zM6.906 22.581c-0.038-0.099-0.060-0.214-0.060-0.334 0-0.113 0.020-0.222 0.056-0.323l-0.002 0.007c0.091 0.226 0.041 0.433 0.005 0.64zM7.206 23.2c0.057-0.119-0.284-0.204-0.012-0.362 0.008 0.077-0.061 0.137 0.013 0.192 0.061 0.037 0.037 0.101-0.002 0.16zM7.827 25.639c-0.033 0.071-0.068 0.131-0.108 0.188l0.003-0.004c-0.038 0.055 0.026 0.134-0.048 0.175-0.154-0.196-0.117-0.607 0.085-0.875 0.053 0.115 0.089 0.221-0.070 0.302 0.184-0.010 0.216 0.044 0.137 0.204zM7.856 30.225c-0.045-0.044 0.043-0.091-0.019-0.132-0.135 0.306-0.332 0.584-0.49 0.906-0.047-0.327 0.054-0.605 0.119-0.888 0.030-0.131 0.088-0.255 0.084-0.395 0.004-0.036 0.021-0.067 0.046-0.089l0-0c0.006-0.007 0.069 0.023 0.068 0.032-0.012 0.184 0.179 0.226 0.237 0.364 0.035 0.082 0.037 0.139-0.046 0.191zM8.090 27.374c0-0.11-0.018-0.202 0.061-0.277-0.006 0.088 0.074 0.196-0.061 0.277zM9.699 29.811l-0.127-0.281c0.213 0.064 0.214 0.067 0.125 0.281zM9.966 29.141c-0.013 0.093-0.020 0.184-0.029 0.279 0 0.034 0.007 0.078-0.045 0.076-0.029-0.001-0.056-0.012-0.076-0.030l0 0c-0.105-0.123-0.101-0.39 0.020-0.54-0.015 0.108-0.028 0.197-0.041 0.295 0.14-0.061 0.061-0.204 0.129-0.284 0.083 0.055 0.051 0.13 0.040 0.203zM10.265 31.412c-0.047 0.017-0.058-0.025-0.061-0.061-0.008-0.057-0.041-0.123 0.006-0.169s0.061 0.034 0.091 0.048c-0.093 0.031-0.010 0.061 0 0.093 0.005 0.009 0.008 0.019 0.008 0.031 0 0.028-0.019 0.052-0.045 0.059l-0 0zM10.626 30.788c0.046 0.268-0.142 0.355-0.328 0.443v0c-0.061-0.3-0.123-0.6-0.189-0.948 0.16 0.156 0.223 0.344 0.406 0.398 0.024-0.039 0-0.061-0.023-0.078-0.117-0.098-0.18-0.199-0.034-0.327 0.040-0.026 0.066-0.070 0.066-0.121 0-0.017-0.003-0.033-0.008-0.048l0 0.001c-0.030-0.086-0.009-0.199 0.079-0.188s0.208 0.091 0.199 0.198c-0.017 0.215 0.003 0.447-0.164 0.624-0.012 0.009-0.010 0.031-0.008 0.045zM10.933 30.71c-0.002 0.030-0.027 0.054-0.057 0.054-0.006 0-0.013-0.001-0.018-0.003l0 0c-0.025-0.008-0.067-0.018-0.061-0.051 0.047-0.207 0.097-0.413 0.154-0.646 0.181 0.253-0.002 0.443-0.023 0.646zM12.732 9.912c-0.053-0.236-0.088-0.509-0.097-0.79l-0-0.007c0.184 0.129 0.235 0.55 0.091 0.797zM12.952 10.187c-0.012-0.245 0.061-0.49 0.018-0.735 0.061 0.248 0.034 0.492-0.024 0.735zM13.324 27.597c-0.062 0.183-0.135 0.341-0.223 0.488l0.006-0.012c-0.024-0.222 0.043-0.359 0.211-0.477zM13.911 27.868c-0.037 0.196-0.147 0.362-0.3 0.471l-0.002 0.002c-0.090 0.058-0.193 0.107-0.302 0.144l-0.010 0.003c-0.066 0.023-0.133 0.069-0.192 0.024-0.070-0.053-0.031-0.142-0.028-0.216 0-0.044 0.021-0.082 0.053-0.107l0-0c0.254-0.178 0.313-0.477 0.443-0.735 0.061-0.123 0.056-0.255 0.104-0.414 0.184 0.272 0.078 0.552 0.153 0.811 0.011-0.017 0.026-0.061 0.042-0.061 0.043 0.001 0.039 0.051 0.032 0.080zM14.401 26.975c-0.034 0.069-0.083 0.072-0.132 0.012 0.048 0.184 0.148 0.379-0.077 0.526-0.034 0.023-0.061 0.056-0.104 0.043s-0.031-0.055-0.039-0.088c-0.036-0.143-0.104-0.275-0.088-0.435 0.008-0.079 0.095-0.129 0.058-0.215-0.131 0.012-0.089-0.112-0.123-0.173-0.024-0.048-0.007-0.119-0.010-0.224 0.078 0.145 0.184 0.232 0.129 0.381 0.106 0.023 0.175 0.1 0.245 0.174-0.025-0.061-0.055-0.127-0.076-0.192s0.011-0.086 0.070-0.080c-0.070-0.097-0.156-0.184-0.189-0.306-0.011-0.033-0.017-0.072-0.017-0.112 0-0.112 0.048-0.212 0.124-0.282l0-0c0.090 0.224 0.254 0.429 0.098 0.68 0.061-0.069 0.131-0.108 0.218-0.061 0.035 0.053-0.128 0.098 0.015 0.169 0.056 0.028-0.077 0.114-0.11 0.184zM14.562 13.621c0.257 0.1 0.271 0.321 0.333 0.512-0.138-0.145-0.252-0.315-0.337-0.5l-0.005-0.011zM15.258 14.992c-0.069-0.159-0.123-0.278-0.17-0.401-0.015-0.037-0.091-0.094 0-0.123 0.012-0.005 0.026-0.009 0.041-0.009 0.053 0 0.097 0.042 0.099 0.095v0c0.009 0.129 0.057 0.258 0.023 0.437zM15.754 23.94c-0.011 0.005-0.024 0.007-0.037 0.007-0.029 0-0.055-0.013-0.073-0.033l-0-0c-0.066-0.075-0.123-0.484-0.075-0.596 0.154 0.146 0.144 0.358 0.214 0.533 0.004 0.027 0.010 0.072-0.037 0.085zM15.827 22.208c-0.010-0.056-0.016-0.121-0.016-0.187 0-0.154 0.031-0.3 0.087-0.434l-0.003 0.007c0.035 0.191 0.095 0.39-0.077 0.61zM16.317 20.198c0.037-0.029 0.069 0 0.082 0.032 0.067 0.146 0.129 0.294 0.194 0.441l-0.040 0.017c-0.078-0.136-0.184-0.256-0.23-0.411-0.020-0.030-0.044-0.059-0.015-0.081zM16.331 21.962c-0.066 0.033-0.094 0.147-0.138 0.226-0.112 0.029-0.171 0-0.127-0.13 0.135-0.4 0.114-0.83 0.222-1.236 0.024-0.091 0.049-0.096 0.11-0.041 0.148 0.136 0.245 0.31 0.232 0.509-0.006 0.085 0.055 0.146 0.024 0.234-0.075 0.18-0.144 0.341-0.333 0.435zM16.426 22.213c-0.126-0.251 0.099-0.276 0.164-0.386-0.077 0.104-0.108 0.227-0.174 0.382z"></path>
<path fill="#fff" d="M11.068 23.307c-0.056-0.435-0.077-0.869-0.237-1.307-0.028-0.094-0.051-0.205-0.064-0.319l-0.001-0.009c-0.041-0.226-0.087-0.462-0.067-0.674 0.002-0.043 0.004-0.094 0.004-0.145 0-0.18-0.016-0.357-0.047-0.529l0.003 0.018c-0.048-0.39-0.064-0.779-0.167-1.172-0.033-0.127-0.15-0.245-0.094-0.381-0.089-0.026-0.010 0.096-0.090 0.075-0.022-0.066 0.013-0.105 0.037-0.154 0.045-0.091 0.094-0.191-0.070-0.276-0.072-0.037-0.078-0.092-0.024-0.132 0.035-0.026 0.070-0.061 0.042-0.105-0.047-0.077-0.070 0.034-0.136-0.009 0.086-0.15 0.058-0.325-0.015-0.507-0.013-0.032-0.010-0.077-0.047-0.091-0.072-0.019-0.124-0.084-0.124-0.16 0-0.025 0.005-0.048 0.015-0.069l-0 0.001c-0.077-0.043-0.073 0.055-0.127 0.038-0.066-0.18-0.084-0.188-0.215-0.097-0.045 0.030-0.096 0.051-0.163 0.088 0.001-0.063 0.026-0.12 0.066-0.163l-0 0c0.026-0.040 0.103-0.038 0.037-0.138-0.061-0.089-0.118-0.111-0.184-0.088-0.214 0.074-0.446 0.071-0.683 0.058-0.085-0.005-0.184 0.010-0.214 0.11-0.002 0.020-0.019 0.036-0.040 0.036-0.007 0-0.013-0.002-0.019-0.005l0 0c-0.306-0.096-0.613-0.119-0.919-0.173-0.016-0.003-0.032-0.014-0.052-0.051 0.207 0.008 0.415 0.015 0.623 0.024 0.082 0.006 0.178 0.010 0.275 0.010 0.264 0 0.521-0.027 0.77-0.079l-0.024 0.004c0.131-0.031 0.287 0.010 0.419-0.032 0.067-0.022 0.214-0.017 0.026-0.143-0.026-0.017-0.040-0.029 0-0.033 0.092-0.008 0.017-0.061 0-0.089-0.088-0.167-0.251-0.286-0.32-0.468-0.019-0.038-0.057-0.064-0.102-0.064-0.009 0-0.018 0.001-0.027 0.003l0.001-0c-0.089 0.075-0.239 0-0.316 0.096-0.022 0.026-0.057 0.050-0.097 0.009s0.055-0.048 0.017-0.089c-0.171-0.070-0.259 0.067-0.398 0.080-0.344 0.031-0.674 0.104-1.023 0.123-0.288 0.016-0.747-0.464-1.042-0.486 0.115-0.115 0.561 0.337 0.71 0.306 0.343-0.069 0.606 0 0.962-0.020 0.219-0.014 0.265-0.179 0.352-0.317 0.016-0.025 0.018-0.061 0.033-0.088 0.132-0.241 0.022-0.482-0.271-0.587-0.037-0.017-0.080-0.032-0.125-0.043l-0.005-0.001c-0.096-0.007-0.172-0.086-0.172-0.183 0-0.007 0-0.014 0.001-0.021l-0 0.001c0.001-0.006 0.002-0.014 0.002-0.021 0-0.054-0.034-0.099-0.082-0.116l-0.001-0c-0.123-0.055-0.022 0.050-0.039 0.070s-0.044 0.016-0.065-0.013c-0.027-0.038-0.047-0.083-0.097-0.097-0.004 0.068 0.076 0.092 0.094 0.156-0.050 0.018-0.072-0.039-0.089-0.061-0.212-0.262-0.455-0.267-0.703-0.245-0.009 0-0.023 0.010-0.026 0.007-0.208-0.254-0.461-0.143-0.691-0.224s-0.49-0.104-0.731-0.165c-0.39-0.099-0.78-0.149-1.171-0.249-0.188-0.048-0.376-0.119-0.568-0.142 0.056-0.056 0.132-0.033 0.2-0.018 0.558 0.118 1.115 0.237 1.672 0.36 0.854 0.189 1.709 0.354 2.56 0.587 0.343 0.094 0.484 0.009 0.605-0.259 0.14-0.306 0.245-0.642 0.42-0.926 0.057-0.104 0.126-0.194 0.206-0.271l0-0c0.075-0.061 0.165-0.145 0.14-0.297 0.059 0.109 0.121 0.242 0.175 0.38l0.009 0.026c0.137 0.398 0.309 0.742 0.518 1.059l-0.011-0.018c0.067 0.107 0.131 0.286 0.303 0.164 0.044-0.031 0.161 0.041 0.233 0.096 0.072 0.046 0.154 0.085 0.242 0.112l0.007 0.002c0.142 0.061 0.099-0.039 0.078-0.104-0.031-0.092-0.257-0.236-0.306-0.184-0.088 0.085-0.184-0.026-0.276-0.008 0.11-0.042 0.126-0.145 0.151-0.245 0.040-0.155 0.189-0.178 0.321-0.188 0.159-0.012 0.215-0.065 0.173-0.245-0.028-0.123-0.015-0.24-0.123-0.351-0.023-0.025-0.037-0.059-0.037-0.096 0-0.033 0.011-0.063 0.030-0.088l-0 0c0.061-0.091 0.042-0.205 0.026-0.321-0.070-0.505-0.136-1.010-0.202-1.515 0-0.026-0.013-0.061 0.018-0.070h-0.005c0.084 0.275 0.105 0.549 0.139 0.821 0.019 0.151 0.068 0.225 0.21 0.251 0.035 0.013 0.065 0.029 0.092 0.050l-0.001-0.001c-0.015 0.043-0.047 0.021-0.069 0.017-0.176-0.032-0.206-0.004-0.095 0.149 0.16 0.221 0.208 0.469 0.329 0.699 0.036 0.068 0.047 0.113 0.14 0.108s0.115 0.123 0.161 0.193c0.169-0.057 0.137-0.184 0.043-0.328-0.102-0.161-0.137-0.343-0.22-0.509-0.040-0.079-0.053-0.171-0.138-0.23-0.024-0.017-0.061-0.053-0.018-0.079 0.029-0.018 0.058-0.006 0.088 0.026 0.037 0.052 0.064 0.114 0.075 0.181l0 0.003c0.085 0.264 0.184 0.374 0.358 0.398 0.143 0.020 0.211-0.092 0.317-0.184-0.004 0.095-0.023 0.148-0.080 0.177-0.026 0.013-0.061 0.021-0.045 0.066 0.013 0.026 0.038 0.043 0.068 0.043 0.007 0 0.013-0.001 0.020-0.003l-0.001 0c0.104-0.024 0.268 0.078 0.287-0.139 0.030-0.087 0.112-0.148 0.207-0.148 0.031 0 0.061 0.007 0.088 0.018l-0.001-0.001c0.077 0.035 0.097-0.015 0.131-0.046s0.053-0.1 0.133-0.12c-0.196 0.327-0.389 0.635-0.599 0.929-0.078 0.11-0.152 0.225-0.227 0.338-0.015 0.019-0.024 0.044-0.024 0.070s0.009 0.051 0.024 0.071l-0-0c0.038 0.053 0.076 0.017 0.115 0.010 0.1-0.021 0.221-0.037 0.345-0.046l0.010-0.001c0.229-0.009 0.429-0.089 0.648-0.123 0.186-0.038 0.399-0.059 0.618-0.059 0.035 0 0.070 0.001 0.104 0.002l-0.005-0c0.224 0.013 0.387-0.084 0.552-0.178 0.24-0.138 0.445-0.278 0.639-0.432l-0.010 0.008c-0.225 0.232-0.505 0.392-0.769 0.574-0.145 0.106-0.311 0.199-0.487 0.272l-0.016 0.006c-0.063 0.034-0.138 0.053-0.217 0.053-0.019 0-0.038-0.001-0.057-0.003l0.002 0c-0.135-0.021-0.232 0.097-0.352 0.14-0.157 0.056-0.294 0.144-0.445 0.211-0.256 0.113-0.519 0.22-0.723 0.415-0.026 0.026-0.102 0.032-0.048 0.107 0.030 0.040 0.072 0.090 0.123 0.040 0.018-0.018 0.050-0.018 0.065 0.024 0.014 0.030 0.023 0.064 0.023 0.101v0c-0.006 0.041-0.037 0.034-0.074 0.007-0.012-0.010-0.028-0.016-0.046-0.016-0.022 0-0.042 0.010-0.056 0.025l-0 0c-0.004 0.008-0.006 0.017-0.006 0.027 0 0.013 0.004 0.025 0.011 0.035l-0-0c0.018 0.021 0.045 0.033 0.075 0.033 0.011 0 0.022-0.002 0.033-0.005l-0.001 0c0.085-0.012 0.175-0.029 0.188 0.13-0.050 0-0.079-0.123-0.127-0.061s0.034 0.075 0.069 0.107c0.092 0.076 0.208 0.127 0.334 0.143l0.003 0c0.221 0.041 0.441 0.027 0.663 0.115v-0.006c-0.025 0.090-0.118 0.072-0.184 0.076-0.167 0.012-0.296 0.057-0.332 0.238 0 0.012-0.021 0.019-0.035 0.024-0.184 0.070-0.040 0.141 0.053 0.222-0.053 0.041-0.154 0.043-0.123 0.156 0 0.009-0.007 0.019-0.010 0.029-0.031 0.090-0.175-0.211-0.169 0.020 0 0.061-0.013 0.061-0.203-0.023 0.039 0.139 0.146 0.212 0.235 0.287 0.259 0.219 0.489 0.457 0.693 0.717l0.008 0.011c0.061 0.080 0.116 0.157 0.23 0.181 0.134 0.029 0.031 0.168 0.112 0.237-0.283-0.174-0.468-0.441-0.662-0.7-0.061-0.084-0.123-0.184-0.239-0.109-0.061 0.040-0.076-0.045-0.089-0.099-0.036-0.147-0.363-0.406-0.484-0.381-0.046 0.010-0.026 0.061-0.026 0.099-0.003 0.357 0.105 0.718 0.216 1.069 0.301 0.96 0.523 1.924 0.758 2.889 0.077 0.316 0.13 0.634 0.238 0.943-0.164-0.089-0.245-0.261-0.338-0.419-0.020-0.029-0.032-0.066-0.032-0.105 0-0.026 0.005-0.051 0.015-0.074l-0 0.001c0.036-0.084 0.058-0.183 0.058-0.286s-0.021-0.202-0.059-0.291l0.002 0.005c-0.156-0.426-0.184-0.858-0.327-1.284-0.128-0.38-0.192-0.774-0.373-1.141-0.118-0.237-0.147-0.475-0.224-0.712-0.007-0.021-0.017-0.057-0.029-0.061-0.118-0.046-0.173-0.123-0.102-0.268-0.174 0.112-0.207 0.289-0.339 0.373-0.045 0.029-0.023 0.123 0 0.135 0.108 0.055 0.077 0.136 0.103 0.212s0.034 0.091-0.038 0.088c-0.032 0-0.035 0.051-0.023 0.065 0.082 0.097 0.011 0.175 0.027 0.263 0.012 0.067 0.009 0.139 0.1 0.178 0.019 0.009 0.099 0.098 0.003 0.116-0.066 0.012-0.053 0.061-0.040 0.115 0.013 0.086 0.029 0.16 0.051 0.233l-0.003-0.012c0.060 0.139 0.094 0.3 0.094 0.47 0 0.030-0.001 0.060-0.003 0.090l0-0.004c-0.002 0.012-0.003 0.026-0.003 0.040 0 0.073 0.027 0.139 0.072 0.19l-0-0c0.015 0.017 0.040 0.037 0.023 0.058-0.123 0.154-0.070 0.404 0.011 0.535 0.127 0.205 0.051 0.319 0.055 0.484 0.004 0.184 0.006 0.4 0.006 0.617 0 0.957-0.042 1.904-0.126 2.839l0.009-0.121c-0.004 0.058 0.012 0.127-0.037 0.165l-0.093-0.116c0.091-0.119 0.037-0.284 0.041-0.432 0.013-0.579 0.172-1.122 0.046-1.734-0.001-0.005-0.002-0.011-0.002-0.016 0-0.011 0.002-0.022 0.007-0.032l-0 0c0.101-0.184 0.034-0.401-0.006-0.613-0.009-0.045-0.045-0.113-0.016-0.131 0.113-0.068 0-0.227 0.068-0.311 0.012-0.015-0.010-0.067-0.038-0.073-0.192-0.046-0.101-0.11-0.048-0.177 0.021-0.027 0.051-0.069 0.042-0.097-0.085-0.245-0.015-0.468-0.044-0.703-0.049-0.398-0.22-0.797-0.216-1.196 0-0.070-0.005-0.197-0.083-0.242-0.082-0.048-0.136-0.136-0.136-0.237 0-0.001 0-0.002 0-0.004v0c0.039-0.191-0.136-0.172-0.165-0.159-0.127 0.053-0.217-0.056-0.321-0.111-0.046-0.024-0.095-0.135-0.142-0.040-0.028 0.061-0.106 0.107 0 0.213 0.074 0.077 0.009 0.269-0.092 0.253-0.23-0.036-0.167 0.116-0.137 0.254 0.019 0.092 0.034 0.184 0.055 0.275 0.007 0.031 0 0.061 0.038 0.093 0.095 0.075 0.147 0.228 0.115 0.275-0.069 0.103-0.040 0.215-0.026 0.325 0.037 0.383 0.090 0.722 0.159 1.054l-0.011-0.062c0.061 0.254-0.013 0.52 0.19 0.767 0.026 0.032 0.013 0.098-0.014 0.105-0.086 0.023-0.061 0.102-0.053 0.161 0.030 0.287 0.061 0.575 0.105 0.864 0.054 0.363 0.119 0.728 0.178 1.092zM10.389 18.192c0.078-0.184 0.145-0.328 0.202-0.477 0.080-0.209 0.191-0.245 0.414-0.112 0.15 0.088 0.298 0.184 0.465 0.284-0.028-0.215-0.051-0.402-0.076-0.59-0.051-0.39 0.123-0.616 0.414-0.752 0.061-0.029 0.135-0.061 0.137-0.126 0.007-0.163 0.118-0.184 0.233-0.219 0.116-0.030 0.215-0.066 0.31-0.111l-0.011 0.005c0.148-0.073 0.303-0.14 0.417-0.271-0.294-0.045-0.579-0.070-0.864-0.093-0.001 0-0.003 0-0.005 0-0.088 0-0.166-0.045-0.212-0.113l-0.001-0.001c-0.181-0.241-0.207-0.52 0.017-0.63 0.089-0.044 0.084-0.090-0.017-0.167-0.192-0.145-0.209-0.207-0.154-0.424 0.007-0.028 0.038-0.061-0.006-0.089-0.099-0.057-0.203-0.171-0.306-0.11-0.114 0.067-0.157-0.017-0.199-0.108-0.023-0.056-0.046-0.128-0.066-0.201l-0.003-0.013c0 0.245 0.023 0.494 0.034 0.739 0.014 0.312-0.022 0.336-0.311 0.242-0.022-0.007-0.044-0.013-0.066-0.018-0.211-0.048-0.253-0.021-0.286 0.184-0.042 0.26-0.282 0.395-0.538 0.292-0.202-0.083-0.467-0.173-0.738-0.25l-0.059-0.014c-0.189-0.056-0.197-0.039-0.168 0.169s0.154 0.382 0.19 0.572c0.031 0.163 0.108 0.236 0.24 0.268 0.185 0.041 0.336 0.162 0.416 0.324l0.002 0.004c0.104 0.21 0.404 0.368 0.265 0.643-0.004 0.007 0.005 0.022 0.007 0.034 0.070 0.362 0.19 0.718 0.319 1.127zM9.503 13.86c0.196-0.057 0.104-0.21 0.054-0.336-0.091-0.228-0.156-0.245-0.282-0.093-0.021 0.030-0.043 0.057-0.067 0.081l0-0c-0.302 0.265-0.411 0.666-0.544 1.050-0.019 0.056 0 0.146 0.041 0.153 0.189 0.031 0.357 0.083 0.516 0.153l-0.013-0.005c0.032 0.013 0.075-0.006 0.114 0.036 0.166 0.177 0.323 0.081 0.482 0.084 0.024 0 0.024-0.029 0.017-0.053s-0.040-0.066-0.061-0.055c-0.127 0.070-0.179-0.104-0.28-0.123 0.049-0.106 0.134-0.096 0.225-0.069 0.040 0.012 0.061 0 0.072-0.034 0.013-0.045-0.020-0.046-0.046-0.050-0.038-0.006-0.092-0.006-0.077-0.061 0.010-0.037 0.065-0.039 0.11-0.013s0.086 0.090 0.148 0.077c-0.027-0.174-0.096-0.329-0.197-0.457l0.002 0.002c-0.005-0.010-0.009-0.021-0.009-0.033 0-0.005 0-0.009 0.001-0.014l-0 0c0.030-0.163-0.044-0.231-0.207-0.238zM11.628 13.112c0.070 0.136 0.123 0.259 0.192 0.371 0.169 0.269 0.273 0.278 0.397 0.049 0.049-0.090 0.024-0.138-0.075-0.202-0.147-0.1-0.319-0.176-0.505-0.216l-0.010-0.002zM12.398 14.468c0.021-0.043 0.069-0.065 0.061-0.123-0.005-0.038-0.034-0.045-0.061-0.045-0.123 0-0.252-0.013-0.357 0.034s0.013 0.159 0.007 0.239c0 0.002 0 0.005 0 0.008 0 0.014-0.002 0.028-0.006 0.041l0-0.001c-0.037 0.066 0.026 0.118 0.061 0.142 0.012 0.008 0.026 0.013 0.042 0.013 0.041 0 0.074-0.033 0.074-0.074v0c0.021-0.115 0.059-0.212 0.179-0.233zM11.312 13.846c-0.044-0.080-0.097-0.134-0.069-0.164 0.099-0.11 0-0.235-0.042-0.347-0.055-0.14-0.161-0.264-0.227-0.406 0.049 0.304 0.001 0.624 0.338 0.917zM8.278 16.047c0.003 0 0.007 0 0.011 0 0.115 0 0.227-0.013 0.335-0.038l-0.010 0.002c0.089-0.012 0.077-0.075 0.044-0.132-0.044-0.069-0.093-0.13-0.149-0.184l-0-0c-0.050-0.053-0.088-0.044-0.108 0.015-0.038 0.111-0.079 0.219-0.123 0.336zM12.817 14.248c0.164 0.051 0.316 0.11 0.463 0.040 0.097-0.046 0.139-0.177 0.276-0.157 0.006 0 0.018-0.028 0.014-0.040-0.008-0.021-0.027-0.036-0.050-0.036-0.007 0-0.014 0.001-0.020 0.004l0-0c-0.224 0.072-0.456 0.126-0.683 0.188zM7.884 14.837c0.092 0.109 0.2 0.202 0.321 0.274l0.006 0.003c0.123 0.061 0.156 0.031 0.126-0.105-0.014-0.058-0.054-0.105-0.107-0.129l-0.001-0c-0.118-0.069-0.226-0.046-0.345-0.043zM8.714 15.505c0.020 0.072 0.061 0.129 0.042 0.207-0.012 0.053 0.048 0.139 0.080 0.21 0.020 0.043 0.055 0.039 0.085 0.033s0.027-0.035 0.020-0.064c-0.042-0.152-0.121-0.282-0.226-0.385l-0-0zM10.563 14.358c0.085 0.066 0.157 0.058 0.224 0.080 0.048 0.016 0.091 0 0.079-0.058s-0.067-0.088-0.101-0.068c-0.056 0.033-0.134-0.001-0.202 0.044z"></path>
<path fill="#fff" d="M6.446 16.393c-0.216 0.108-0.471 0.135-0.68 0.254l-0.023-0.029c0.202-0.145 0.425-0.248 0.704-0.226z"></path>
<path fill="#fff" d="M14.598 16.037l1.207 0.216v0.048c-0.4-0.004-0.806-0.137-1.21-0.219z"></path>
<path fill="#fff" d="M9.325 11.154c0.153 0.079 0.312 0.126 0.316 0.351 0.004 0.176 0.050 0.36 0.084 0.591-0.18-0.336-0.079-0.694-0.4-0.942z"></path>
<path fill="#fff" d="M10.696 11.359c-0.11-0.192-0.094-0.387-0.131-0.582-0.016-0.082 0-0.167-0.094-0.237-0.021-0.017-0.035-0.043-0.035-0.072 0-0.019 0.006-0.036 0.016-0.051l-0 0c0.048-0.055 0.028-0.131 0.044-0.199 0.108 0.381 0.151 0.761 0.196 1.141z"></path>
<path fill="#fff" d="M13.26 15.834c0.319 0.021 0.616 0.067 0.904 0.137l-0.036-0.007c-0.082 0.093-0.189 0.036-0.262 0.015-0.148-0.038-0.32-0.064-0.497-0.072l-0.006-0c-0.048-0.003-0.087-0.034-0.102-0.077l-0-0.001z"></path>
<path fill="#fff" d="M8.386 10.93c0.067 0.113 0.117 0.245 0.144 0.385l0.001 0.008c0 0.031 0.031 0.077-0.020 0.071-0.041-0.004-0.112-0.029-0.094-0.080 0.044-0.126-0.029-0.256-0.031-0.384z"></path>
<path fill="#fff" d="M8.353 10.797c-0.096-0.189-0.075-0.362-0.029-0.531-0 0.021-0.001 0.046-0.001 0.070 0 0.163 0.011 0.323 0.031 0.479l-0.002-0.018z"></path>
<path fill="#fff" d="M8.859 8.606c-0.016 0.195-0.016 0.195-0.154 0.237 0.005-0.104 0.065-0.192 0.152-0.236l0.002-0.001z"></path>
<path fill="#fff" d="M6.695 10.367l0.336-0.011c-0.112 0.117-0.22 0.089-0.336 0.011z"></path>
<path fill="#fff" d="M10.587 27.094c0.011-0.265 0.047-0.533-0.012-0.788-0.005-0.039-0.008-0.084-0.008-0.13 0-0.024 0.001-0.047 0.002-0.071l-0 0.003c-0.002-0.029-0.003-0.063-0.003-0.096 0-0.112 0.013-0.221 0.037-0.326l-0.002 0.010c0.030-0.121 0.047-0.261 0.047-0.404v-0c0.012-0.238 0.045-0.478 0.020-0.712-0.008-0.076-0.073-0.137-0.020-0.227-0.058-0.006-0.018 0.061-0.069 0.057-0.007-0.039 0.021-0.067 0.043-0.101 0.041-0.061 0.085-0.129-0.016-0.164-0.044-0.015-0.042-0.048 0-0.080 0.027-0.020 0.055-0.045 0.040-0.070-0.023-0.043-0.051 0.029-0.091 0.010 0.041-0.056 0.066-0.127 0.066-0.203 0-0.040-0.007-0.078-0.019-0.114l0.001 0.002c-0.005-0.019 0-0.047-0.021-0.051-0.076-0.016-0.078-0.067-0.047-0.129-0.048-0.018-0.056 0.042-0.091 0.038-0.023-0.105-0.036-0.107-0.134-0.036-0.034 0.024-0.070 0.043-0.123 0.074 0.010-0.043 0.031-0.080 0.061-0.109l0-0c0.022-0.028 0.074-0.036 0.040-0.091-0.013-0.027-0.040-0.046-0.072-0.046-0.016 0-0.030 0.005-0.043 0.013l0-0c-0.137 0.059-0.296 0.1-0.463 0.113l-0.005 0c-0.067 0.002-0.125 0.038-0.156 0.092l-0 0.001c-0.005 0.016-0.020 0.027-0.037 0.027-0.002 0-0.004-0-0.006-0l0 0c-0.197-0.026-0.401-0.006-0.602-0.004-0.010 0-0.020-0.005-0.029-0.026 0.14-0.018 0.279-0.038 0.419-0.056 0.259-0.029 0.495-0.084 0.72-0.164l-0.022 0.007c0.092-0.034 0.193-0.026 0.287-0.068 0.048-0.021 0.147-0.035 0.034-0.093-0.015-0.007-0.024-0.013 0-0.020 0.061-0.016 0.018-0.039 0.011-0.056-0.040-0.094-0.137-0.15-0.163-0.256-0.009-0.036-0.066-0.036-0.080-0.025-0.069 0.057-0.162 0.029-0.225 0.096-0.018 0.019-0.044 0.038-0.067 0.017s0.043-0.036 0.022-0.058c-0.108-0.024-0.184 0.072-0.279 0.095-0.236 0.061-0.469 0.143-0.705 0.194-0.197 0.043-0.452-0.204-0.65-0.184 0.090-0.085 0.341 0.146 0.444 0.111 0.24-0.081 0.409-0.067 0.652-0.123 0.15-0.034 0.199-0.142 0.275-0.238 0.013-0.018 0.020-0.040 0.032-0.058 0.117-0.166 0.069-0.303-0.117-0.335-0.024-0.007-0.053-0.012-0.082-0.013l-0.001-0c-0.081 0.004-0.105-0.040-0.092-0.108 0.009-0.044 0-0.065-0.039-0.076-0.075-0.021-0.021 0.034-0.034 0.048s-0.032 0.015-0.043 0-0.022-0.047-0.055-0.049c-0.010 0.043 0.040 0.048 0.046 0.086-0.036 0.017-0.045-0.016-0.053-0.027-0.114-0.139-0.278-0.115-0.447-0.074-0.007 0-0.017 0.009-0.018 0.007-0.112-0.134-0.295-0.037-0.441-0.061s-0.319-0.009-0.475-0.020c-0.253-0.017-0.511-0.004-0.763-0.023-0.108-0.015-0.233-0.023-0.36-0.023-0.003 0-0.006 0-0.008 0h0c0.029-0.023 0.066-0.037 0.106-0.037 0.011 0 0.022 0.001 0.032 0.003l-0.001-0q0.545 0.015 1.089 0.034c0.555 0.021 1.115 0.026 1.663 0.074 0.221 0.020 0.326-0.050 0.438-0.23 0.13-0.208 0.237-0.429 0.39-0.626 0.051-0.072 0.107-0.135 0.169-0.191l0.001-0.001c0.058-0.048 0.128-0.11 0.128-0.202 0.029 0.065 0.056 0.142 0.076 0.223l0.002 0.010c0.044 0.223 0.122 0.421 0.228 0.6l-0.005-0.009c0.033 0.061 0.056 0.163 0.184 0.067 0.033-0.024 0.104 0.008 0.146 0.034 0.045 0.021 0.098 0.036 0.154 0.042l0.002 0c0.089 0.020 0.072-0.036 0.064-0.073-0.010-0.054-0.147-0.118-0.188-0.081-0.069 0.061-0.123 0.005-0.184 0.026 0.079-0.039 0.101-0.105 0.131-0.172 0.045-0.102 0.148-0.132 0.238-0.154 0.108-0.026 0.153-0.065 0.145-0.175-0.006-0.073 0.018-0.148-0.044-0.205-0.030-0.028-0.015-0.075 0.017-0.116 0.034-0.050 0.055-0.112 0.055-0.178 0-0.009-0-0.018-0.001-0.026l0 0.001c0.010-0.306 0.023-0.613 0.036-0.919 0-0.015 0-0.035 0.020-0.046v0c0.008 0.074 0.012 0.161 0.012 0.248s-0.005 0.174-0.013 0.259l0.001-0.011c-0.004 0.093 0.020 0.132 0.113 0.132 0.021 0.004 0.040 0.011 0.057 0.021l-0.001-0c-0.015 0.029-0.034 0.018-0.048 0.018-0.115 0-0.139 0.021-0.081 0.104 0.083 0.119 0.087 0.27 0.142 0.398 0.017 0.039 0.019 0.066 0.083 0.052s0.061 0.061 0.086 0.102c0.123-0.055 0.113-0.128 0.067-0.21s-0.054-0.198-0.091-0.292c-0.018-0.045-0.016-0.101-0.067-0.127-0.014-0.008-0.036-0.026-0.004-0.047 0.007-0.006 0.015-0.009 0.025-0.009 0.013 0 0.024 0.006 0.031 0.016l0 0c0.027 0.028 0.024 0.067 0.031 0.104 0.027 0.155 0.080 0.213 0.197 0.208 0.094-0.004 0.153-0.081 0.235-0.151-0.006 0.050-0.033 0.093-0.073 0.119l-0.001 0c-0.019 0.012-0.046 0.021-0.039 0.047s0.039 0.021 0.055 0.015c0.073-0.027 0.173 0.018 0.21-0.119 0.010-0.035 0.115-0.143 0.214-0.115 0.047 0.013 0.067-0.020 0.093-0.044s0.047-0.068 0.104-0.089c-0.17 0.226-0.335 0.44-0.511 0.647-0.066 0.078-0.128 0.158-0.192 0.237-0.015 0.014-0.025 0.033-0.025 0.055 0 0.012 0.003 0.024 0.008 0.034l-0-0c0.020 0.029 0.050 0 0.077-0.007 0.082-0.025 0.163-0.053 0.245-0.069 0.156-0.031 0.302-0.105 0.452-0.151 0.139-0.049 0.305-0.090 0.475-0.116l0.015-0.002c0.151-0.018 0.272-0.097 0.395-0.174 0.182-0.116 0.336-0.226 0.484-0.344l-0.011 0.009c-0.174 0.153-0.365 0.3-0.565 0.433l-0.019 0.012c-0.108 0.081-0.23 0.158-0.358 0.224l-0.014 0.007c-0.054 0.034-0.119 0.056-0.188 0.061l-0.002 0c-0.089 0-0.167 0.087-0.254 0.127-0.112 0.053-0.215 0.123-0.325 0.184-0.204 0.099-0.38 0.212-0.54 0.345l0.004-0.003c-0.021 0.019-0.073 0.032-0.045 0.072 0.016 0.022 0.039 0.048 0.078 0.011 0.014-0.013 0.036-0.017 0.041 0.008 0.004 0.011 0.007 0.024 0.007 0.038 0 0.008-0.001 0.016-0.003 0.024l0-0.001c-0.009 0.026-0.029 0.025-0.051 0.013-0.007-0.003-0.015-0.004-0.023-0.004-0.019 0-0.036 0.009-0.047 0.022l-0 0c-0.004 0.006-0.007 0.013-0.007 0.021 0 0.006 0.001 0.011 0.004 0.015l-0-0c0.016 0.021 0.042 0.013 0.069 0.006 0.061-0.017 0.123-0.038 0.112 0.061-0.034 0.004-0.039-0.069-0.079-0.023s0.014 0.043 0.035 0.061c0.051 0.033 0.113 0.052 0.18 0.052 0.011 0 0.022-0.001 0.033-0.002l-0.001 0c0.145 0 0.295-0.033 0.435-0.004v-0.004c-0.027 0.061-0.088 0.058-0.132 0.068-0.113 0.026-0.206 0.069-0.251 0.184 0 0.008-0.017 0.014-0.026 0.019-0.134 0.064-0.043 0.093 0.010 0.132-0.040 0.032-0.108 0.044-0.099 0.111 0 0.005-0.007 0.012-0.010 0.019-0.031 0.061-0.094-0.112-0.116 0.031-0.006 0.039-0.015 0.039-0.135 0.009 0.011 0.081 0.075 0.115 0.127 0.152 0.15 0.107 0.279 0.23 0.387 0.37l0.003 0.004c0.026 0.049 0.076 0.083 0.134 0.087l0 0c0.088 0 0 0.101 0.049 0.134-0.172-0.076-0.267-0.221-0.368-0.361-0.033-0.045-0.061-0.101-0.15-0.040-0.047 0.032-0.046-0.020-0.048-0.052-0.007-0.088-0.199-0.212-0.284-0.184-0.032 0.012-0.024 0.042-0.029 0.064-0.042 0.223-0.010 0.436 0.024 0.643 0.094 0.564 0.134 1.14 0.184 1.716 0.007 0.205 0.027 0.398 0.058 0.588l-0.004-0.027c-0.101-0.037-0.136-0.135-0.184-0.223-0.007-0.014-0.011-0.030-0.011-0.047 0-0.023 0.007-0.044 0.020-0.062l-0 0c0.048-0.072 0.077-0.161 0.077-0.256 0-0.036-0.004-0.071-0.012-0.104l0.001 0.003c-0.057-0.245-0.026-0.515-0.075-0.763-0.043-0.222-0.042-0.461-0.123-0.669-0.052-0.135-0.045-0.279-0.070-0.418 0-0.013-0.005-0.034-0.013-0.036-0.075-0.015-0.103-0.056-0.038-0.156-0.131 0.089-0.173 0.204-0.271 0.271-0.034 0.023-0.030 0.080-0.016 0.085 0.067 0.021 0.037 0.076 0.046 0.123s0.013 0.053-0.036 0.061c-0.014 0.004-0.024 0.017-0.024 0.032 0 0.004 0.001 0.007 0.002 0.011l-0-0c0.043 0.052-0.013 0.108-0.012 0.161 0 0.040-0.010 0.085 0.047 0.1 0.012 0.003 0.056 0.050-0.011 0.072-0.046 0.015-0.042 0.044-0.040 0.076-0 0.007-0 0.015-0 0.023 0 0.039 0.003 0.077 0.008 0.114l-0-0.004c0.014 0.050 0.023 0.108 0.023 0.168s-0.008 0.118-0.024 0.172l0.001-0.004c-0.006 0.015-0.010 0.032-0.010 0.050 0 0.032 0.011 0.062 0.030 0.085l-0-0c0.009 0.009 0.023 0.018 0.009 0.034-0.050 0.054-0.080 0.127-0.080 0.207 0 0.045 0.010 0.089 0.028 0.127l-0.001-0.002c0.061 0.113 0 0.193-0.018 0.295-0.138 0.839-0.296 1.544-0.49 2.235l0.034-0.144c-0.009 0.037-0.006 0.078-0.044 0.108l-0.049-0.061c0.075-0.085 0.058-0.184 0.077-0.275 0.075-0.362 0.245-0.718 0.229-1.086-0-0.001-0-0.002-0-0.002 0-0.011 0.003-0.020 0.009-0.029l-0 0c0.089-0.126 0.068-0.254 0.066-0.381 0-0.028-0.017-0.066 0.004-0.080 0.085-0.056 0.026-0.142 0.082-0.202 0.002-0.004 0.004-0.009 0.004-0.014 0-0.013-0.009-0.024-0.021-0.027l-0-0c-0.123-0.007-0.056-0.056-0.013-0.105 0.018-0.019 0.043-0.048 0.039-0.065-0.029-0.143 0.043-0.29 0.050-0.433 0.012-0.242-0.058-0.472-0.010-0.721 0.009-0.044 0.020-0.123-0.028-0.142-0.041-0.018-0.069-0.058-0.069-0.104 0-0.011 0.001-0.021 0.004-0.031l-0 0.001c0.048-0.123-0.072-0.091-0.094-0.080-0.092 0.048-0.14-0.010-0.204-0.033-0.028-0.010-0.049-0.073-0.091-0.009-0.026 0.039-0.084 0.078-0.026 0.133 0.042 0.040-0.024 0.167-0.091 0.169-0.151 0.004-0.126 0.091-0.123 0.174 0 0.055 0 0.11 0.006 0.165 0 0.018-0.007 0.039 0.015 0.053 0.034 0.024 0.057 0.063 0.057 0.108 0 0.018-0.004 0.036-0.011 0.052l0-0.001c-0.035 0.048-0.056 0.108-0.056 0.173 0 0.012 0.001 0.023 0.002 0.034l-0-0.001c-0.011 0.122-0.017 0.265-0.017 0.409 0 0.068 0.001 0.135 0.004 0.202l-0-0.010c0.011 0.152-0.068 0.325 0.041 0.457 0.014 0.017 0 0.061-0.021 0.067-0.061 0.024-0.051 0.070-0.054 0.107-0.012 0.176-0.023 0.352-0.028 0.526-0.005 0.221-0.003 0.441-0.004 0.661zM10.709 23.982c0.075-0.123 0.135-0.221 0.191-0.321 0.078-0.139 0.157-0.173 0.292-0.116 0.091 0.038 0.184 0.079 0.283 0.123 0.006-0.131 0.011-0.245 0.015-0.359 0.010-0.237 0.154-0.398 0.368-0.516 0.045-0.025 0.098-0.053 0.107-0.094 0.023-0.102 0.101-0.129 0.184-0.163 0.085-0.033 0.156-0.067 0.224-0.105l-0.009 0.005c0.119-0.061 0.222-0.133 0.313-0.218l-0.001 0.001c-0.193 0.006-0.383 0.023-0.573 0.041-0.010 0.003-0.022 0.005-0.034 0.005-0.041 0-0.077-0.020-0.099-0.050l-0-0c-0.037-0.044-0.060-0.102-0.060-0.165 0-0.1 0.057-0.187 0.141-0.229l0.001-0.001c0.066-0.038 0.067-0.066 0.007-0.102-0.113-0.069-0.117-0.105-0.055-0.245 0.008-0.018 0.032-0.044 0.006-0.055-0.061-0.024-0.118-0.084-0.195-0.034s-0.104 0.007-0.123-0.045c-0.009-0.035-0.017-0.076-0.022-0.119l-0-0.004c-0.028 0.154-0.041 0.306-0.061 0.457-0.026 0.193-0.053 0.213-0.237 0.184-0.014 0-0.028 0-0.042-0.003-0.137-0.006-0.169 0.015-0.214 0.146-0.048 0.146-0.183 0.249-0.342 0.249-0.019 0-0.038-0.002-0.056-0.004l0.002 0c-0.14-0.030-0.314-0.056-0.49-0.072l-0.019-0.001c-0.123-0.013-0.129 0-0.133 0.123s0.061 0.221 0.061 0.335c0 0.098 0.046 0.135 0.131 0.14 0.003-0 0.007-0 0.011-0 0.105 0 0.195 0.064 0.234 0.155l0.001 0.002c0.046 0.119 0.231 0.184 0.106 0.371-0.004 0.005 0 0.013 0 0.020 0.016 0.247 0.048 0.475 0.094 0.698l-0.006-0.032zM10.603 21.382c0.139-0.058 0.094-0.143 0.075-0.215-0.035-0.132-0.077-0.136-0.18-0.026-0.018 0.019-0.034 0.040-0.055 0.058-0.234 0.2-0.354 0.462-0.49 0.717-0.019 0.037-0.018 0.091 0.010 0.091 0.010-0 0.022-0 0.034-0 0.103 0 0.202 0.013 0.298 0.037l-0.008-0.002c0.020 0.004 0.051-0.012 0.073 0.009 0.092 0.092 0.209 0.014 0.317 0 0.016 0 0.020-0.021 0.017-0.035s-0.020-0.037-0.034-0.028c-0.094 0.058-0.109-0.045-0.175-0.045 0.025-0.044 0.072-0.073 0.126-0.073 0.012 0 0.024 0.002 0.035 0.004l-0.001-0c0.003 0.001 0.006 0.001 0.010 0.001 0.020 0 0.036-0.013 0.042-0.030l0-0c0.014-0.029-0.008-0.026-0.025-0.026s-0.061 0.007-0.045-0.030c0.011-0.016 0.030-0.026 0.050-0.026 0.009 0 0.018 0.002 0.026 0.006l-0-0c0.030 0.011 0.048 0.046 0.092 0.031 0-0.005 0-0.011 0-0.017 0-0.092-0.030-0.178-0.081-0.247l0.001 0.001c-0.002-0.004-0.003-0.009-0.003-0.014s0.001-0.010 0.003-0.014l-0 0c0.043-0.107 0.001-0.14-0.11-0.127zM12.124 20.673c0.030 0.085 0.060 0.154 0.093 0.221l-0.005-0.012c0.083 0.149 0.153 0.142 0.262-0.015 0.043-0.061 0.032-0.089-0.028-0.118-0.093-0.047-0.204-0.076-0.32-0.077h-0.001zM12.492 21.431c0.019-0.029 0.054-0.048 0.055-0.084 0-0.023-0.018-0.024-0.037-0.021-0.090 0.008-0.173 0.030-0.25 0.063l0.005-0.002c-0.075 0.040-0.009 0.098-0.023 0.148-0.001 0.012-0.004 0.022-0.009 0.032l0-0c-0.033 0.045 0.004 0.070 0.027 0.080 0.034 0.015 0.072-0.013 0.085-0.050 0.018-0.078 0.073-0.14 0.145-0.166l0.002-0zM11.828 21.166c-0.021-0.045-0.050-0.072-0.028-0.094 0.080-0.079 0.028-0.146 0.011-0.211-0.021-0.081-0.079-0.146-0.107-0.228 0.001 0.184-0.069 0.388 0.124 0.533zM9.526 22.886c0.088-0.015 0.166-0.036 0.24-0.064l-0.009 0.003c0.061-0.018 0.061-0.055 0.045-0.087-0.022-0.037-0.048-0.069-0.079-0.096l-0-0c-0.028-0.028-0.055-0.018-0.075 0.022-0.037 0.075-0.077 0.145-0.12 0.223zM12.8 21.246c0.105 0.013 0.201 0.032 0.306-0.028 0.070-0.040 0.113-0.126 0.204-0.129 0.004 0 0.016-0.020 0.014-0.026-0.005-0.021-0.026-0.020-0.043-0.012-0.157 0.070-0.32 0.131-0.48 0.195zM9.398 22.175c0.051 0.058 0.114 0.105 0.185 0.135l0.003 0.001c0.077 0.026 0.102 0 0.097-0.080 0-0.040-0.024-0.054-0.058-0.068-0.070-0.030-0.146-0.004-0.227 0.012zM9.883 22.497c0.006 0.042 0.025 0.074 0.005 0.123-0.014 0.034 0.016 0.081 0.029 0.123 0.009 0.025 0.033 0.018 0.054 0.011s0.022-0.024 0.020-0.042c-0.009-0.085-0.048-0.16-0.107-0.214l-0-0zM11.264 21.573c0.036 0.016 0.079 0.026 0.123 0.026 0.007 0 0.014-0 0.021-0.001l-0.001 0c0.030 0.004 0.061-0.010 0.061-0.045-0-0.021-0.018-0.038-0.039-0.038-0.009 0-0.016 0.003-0.023 0.007l0-0c-0.043 0.025-0.092 0.013-0.143 0.051z"></path>
<path fill="#fff" d="M8.25 23.31c-0.158 0.092-0.333 0.138-0.49 0.236l-0.012-0.015c0.138-0.114 0.309-0.193 0.497-0.22l0.005-0.001z"></path>
<path fill="#fff" d="M13.8 22.159l0.791-0.003-0.006 0.030c-0.27 0.043-0.53 0.007-0.793 0z"></path>
<path fill="#fff" d="M10.793 19.715c0.094 0.032 0.196 0.044 0.173 0.184-0.008 0.077-0.012 0.166-0.012 0.257 0 0.036 0.001 0.072 0.002 0.108l-0-0.005c-0.083-0.192 0.026-0.426-0.163-0.544z"></path>
<path fill="#fff" d="M11.695 19.686c-0.052-0.107-0.019-0.23-0.022-0.348 0-0.049 0.017-0.104-0.037-0.137-0.011-0.009-0.017-0.023-0.017-0.038s0.007-0.029 0.017-0.038l0-0c0.039-0.040 0.033-0.085 0.052-0.129 0.010 0.103 0.016 0.223 0.016 0.344s-0.006 0.241-0.017 0.359l0.001-0.015z"></path>
<path fill="#fff" d="M12.919 22.186c0.121-0.015 0.261-0.023 0.403-0.023 0.059 0 0.118 0.001 0.177 0.004l-0.008-0c-0.066 0.067-0.132 0.044-0.179 0.040-0.030-0.002-0.065-0.003-0.101-0.003-0.081 0-0.162 0.006-0.24 0.016l0.009-0.001c-0.004 0.001-0.008 0.002-0.012 0.002-0.024 0-0.043-0.016-0.049-0.038l-0-0z"></path>
<path fill="#fff" d="M10.183 19.683c0.033 0.066 0.053 0.144 0.054 0.227v0c0 0.019 0.012 0.044-0.021 0.047s-0.072-0.006-0.055-0.039c0.044-0.083 0.012-0.156 0.022-0.235z"></path>
<path fill="#fff" d="M10.177 19.603c-0.043-0.107-0.010-0.217 0.041-0.328-0.021 0.096-0.036 0.208-0.041 0.323l-0 0.005z"></path>
<path fill="#fff" d="M10.768 18.179c-0.033 0.123-0.033 0.123-0.131 0.165 0.021-0.072 0.068-0.13 0.13-0.165l0.001-0.001z"></path>
<path fill="#fff" d="M9.105 19.523l0.229-0.045c-0.089 0.086-0.159 0.081-0.229 0.045z"></path>
</svg>
