<!-- Generated by IcoMoon.io -->
<svg version="1.1" xmlns="http://www.w3.org/2000/svg" width="18" height="32" viewBox="0 0 18 32">
<title>6</title>
<rect fill="#fff" x="0" y="0" width="18" height="32"></rect>
<path fill="#1d1d1b" d="M9.966 2.029c-0.006 0.009-0.077 0.066-0.115 0.103-0.090 0.088-0.332 0.097-0.368 0.109-0.058 0.022-0.34-0.082-0.368-0.014-0.306 0.534 0.055 0.457-0.207 1.024-0.034 0.203-0.067 0.406-0.101 0.609-0.013 0.083-0.028 0.167-0.042 0.251 0.002 0.004 0.004 0.009 0.005 0.014l0 0.001c0.057 0.373-0.083 0.77-0.241 1.138-0.081 0.332-0.173 0.659-0.282 0.981-0.124 0.379-0.28 0.707-0.473 1.011l0.011-0.018c-0.211 0.328-0.414 0.682-0.688 0.96-0.059 0.059-0.121 0.114-0.186 0.166l-0.004 0.003c-0.066 0.109-0.135 0.216-0.21 0.319-0.306 0.429-0.683 0.83-0.946 1.293-0.046 0.471-0.144 0.939-0.233 1.41 0.011 0.061 0.023 0.123 0.036 0.189 0.010 0.053 0.020 0.107 0.028 0.16 0.074-0.061 0.175-0.070 0.256-0.116 0.061-0.035 0.098 0.028 0.102 0.083 0.011 0.153 0.053 0.298 0.051 0.455 0 0.306 0.012 0.613 0.161 0.895 0.076-0.038 0.086-0.171 0.191-0.097 0.036 0.025 0.080 0.040 0.128 0.040 0.040 0 0.078-0.011 0.11-0.029l-0.001 0.001c0.038 0.093-0.068 0.16-0.021 0.245 0.069-0.021 0.058-0.104 0.111-0.129 0.052 0.039 0 0.115 0.069 0.164-0.009-0.027-0.013-0.058-0.013-0.091 0-0.108 0.055-0.204 0.139-0.26l0.001-0.001c0.037-0.027 0.055-0.123 0.111-0.074 0.040 0.034 0.107 0.074 0.097 0.156-0.016 0.129 0.013 0.257 0 0.388s-0.036 0.202-0.203 0.184c0.154 0.074 0.113 0.143 0.022 0.184-0.295 0.132-0.403 0.39-0.474 0.685-0.036 0.15-0.083 0.293-0.010 0.463 0.014-0.048 0.023-0.078 0.031-0.108 0.075 0.039 0.056 0.127 0.117 0.199-0.012-0.105-0.024-0.189-0.030-0.273-0.012-0.197-0.061-0.402 0.132-0.552 0.061-0.047 0.129-0.084 0.189-0.058 0.070 0.032 0.016 0.113 0.016 0.172 0 0.18-0.093 0.329-0.146 0.49-0.061 0.192 0.101 0.411-0.065 0.613-0.034 0.042 0.11 0.207 0.132 0.34 0.011 0.064 0.15 0.102 0.113 0.195s-0.135 0.093-0.221 0.105c-0.074 0.010-0.147 0.026-0.22 0.044s-0.070 0.019-0.123 0.123c0.111-0.046 0.241-0.072 0.376-0.072 0.015 0 0.031 0 0.046 0.001l-0.002-0c-0.116 0.205-0.287 0.343-0.373 0.552-0.076 0.189-0.195 0.356-0.188 0.574 0 0.005 0.001 0.011 0.001 0.017 0 0.050-0.015 0.096-0.040 0.135l0.001-0.001c-0.136 0.195-0.096 0.437-0.199 0.662 0.108-0.026 0.065-0.129 0.137-0.138s0.042 0.091 0.085 0.104c0.051-0.061-0.028-0.127 0.024-0.192 0.085 0.055 0.095 0.123 0.061 0.214-0.053 0.144-0.099 0.286-0.011 0.44 0.039 0.067 0.026 0.184-0.034 0.212-0.145 0.061-0.227 0.179-0.321 0.291-0.015 0.018-0.077 0.027-0.044 0.048 0.094 0.061 0.039 0.165 0.086 0.245 0.061 0.107 0.090 0.245-0.076 0.319-0.041 0.017-0.055 0.053-0.034 0.108 0.089-0.086 0.192-0.054 0.306-0.072-0.021 0.036-0.034 0.079-0.034 0.125 0 0.043 0.011 0.083 0.030 0.118l-0.001-0.001c0.104 0.205-0.112 0.343-0.096 0.527 0 0.009-0.024 0.024-0.039 0.031-0.039 0.019-0.065 0.059-0.065 0.104 0 0.010 0.001 0.021 0.004 0.030l-0-0.001c0.015 0.128-0.061 0.215-0.132 0.295-0.069 0.074-0.126 0.162-0.164 0.259l-0.002 0.006c-0.025 0.091-0.107 0.157-0.204 0.157-0.012 0-0.024-0.001-0.035-0.003l0.001 0c-0.067-0.005-0.144-0.007-0.223-0.007-0.292 0-0.576 0.036-0.847 0.103l0.024-0.005c-0.123 0.030-0.245 0.065-0.371 0.083-0.623 0.089-1.251 0.117-1.877 0.166-0.122 0.011-0.263 0.017-0.406 0.017s-0.284-0.006-0.424-0.019l0.018 0.001-1.13-0.094c0.052 0.041 0.117 0.069 0.187 0.075l0.001 0c0.428 0.093 0.924 0.152 1.433 0.163l0.009 0c0.029 0 0.063 0 0.097 0 0.969 0 1.916-0.098 2.83-0.284l-0.091 0.015c0.314-0.061 0.639-0.215 0.957 0 0.009 0.006 0.035-0.004 0.047-0.014 0.093-0.073 0.194-0.009 0.284-0.021 0.114-0.017 0.145 0.118 0.223 0.1 0.184-0.044 0.173 0.084 0.194 0.199 0.061 0.357 0.123 0.712 0.324 1.027 0.103 0.158 0.211 0.324 0.245 0.522 0.004 0.018 0.007 0.038 0.007 0.059 0 0.124-0.084 0.227-0.198 0.257l-0.002 0c-0.113 0.034-0.189 0.126-0.141 0.233 0.021 0.049 0.033 0.107 0.033 0.167 0 0.050-0.008 0.098-0.023 0.142l0.001-0.003c0.065-0.009 0.097-0.097 0.147-0.055s-0.007 0.096-0.027 0.141-0.047 0.081-0.068 0.123c-0.055 0.11-0.164 0.184-0.21 0.323 0.114-0.083 0.206-0.191 0.267-0.316l0.002-0.005c0.061-0.113 0.109-0.245 0.218-0.326 0.036-0.049 0.102-0.083 0.071-0.165s0.080-0.045 0.086-0.1c0.029 0.014 0.049 0.043 0.049 0.077 0 0.014-0.003 0.026-0.009 0.038l0-0c-0.010 0.020-0.020 0.037-0.031 0.053l0.001-0.001c0.208 0.104 0.053 0.208 0 0.311 0.079-0.012 0.15-0.034 0.215-0.066l-0.004 0.002c0.027-0.018-0.061-0.123 0.014-0.15s0.023 0.113 0.105 0.104c0.029-0.003 0.061-0.044 0.090 0 0 0.082-0.123 0.099-0.096 0.194 0.119-0.102 0.178 0.013 0.232 0.077 0.157 0.184-0.15 0.114-0.127 0.23 0.115 0.017 0.118 0.018 0.081 0.123-0.123 0.341-0.24 0.681-0.196 1.055 0.010 0.084-0.015 0.097-0.15 0.155-0.010 0.006-0.017 0.015-0.020 0.027l-0 0c-0.029 0.219-0.368 0.332-0.206 0.617 0.001 0.003 0.001 0.006 0.001 0.010 0 0.009-0.003 0.018-0.008 0.025l0-0c-0.077 0.123-0.061 0.26-0.082 0.396-0.034 0.217-0.1 0.412-0.193 0.59l0.005-0.010c0.112-0.017 0.159 0.022 0.149 0.128-0.001 0.018-0.002 0.039-0.002 0.061 0 0.184 0.040 0.359 0.113 0.516l-0.003-0.008c0.11 0.273 0.199 0.54 0.14 0.854s-0.129 0.598-0.312 0.848c-0.091 0.123-0.203 0.23-0.306 0.345 0.091 0.033 0.096-0.020 0.123-0.043 0.039-0.028 0.073-0.059 0.103-0.093l0.001-0.001c0.429-0.54 0.681-1.121 0.391-1.825-0.088-0.213-0.163-0.429-0.132-0.668 0.032-0.26 0.076-0.488 0.134-0.712l-0.008 0.037c0.032-0.123 0.036-0.245 0.226-0.184-0.154-0.215 0.053-0.273 0.123-0.383s0.145-0.053 0.175 0.031c0.066 0.188 0.129 0.376 0.095 0.585-0.067 0.412-0.139 0.819-0.314 1.205-0.052 0.11-0.082 0.24-0.082 0.376 0 0.101 0.017 0.198 0.047 0.289l-0.002-0.006c0.052 0.157 0.028 0.318 0 0.46-0.053 0.295-0.123 0.587-0.17 0.883-0.015 0.084-0.024 0.18-0.024 0.278 0 0.159 0.023 0.312 0.066 0.457l-0.003-0.011c-0.025-0.205 0.135-0.33 0.196-0.498-0.008 0.040-0.012 0.085-0.012 0.131s0.004 0.092 0.013 0.136l-0.001-0.005c0.013-0.028 0.024-0.066 0.034-0.066 0.080 0 0 0.103 0.072 0.123 0.023-0.212 0.108-0.402 0.236-0.553l-0.001 0.002c0.102-0.134 0.349-0.197 0.453-0.135 0.061 0.039 0.082 0.112 0.129 0.162l0.45 0.729c-0.023-0.248-0.075-0.477-0.154-0.692l0.006 0.019c-0.017-0.045-0.104-0.18 0.072-0.112 0.048 0.018 0.058-0.031 0.046-0.042-0.134-0.134-0.006-0.184 0.081-0.237-0.026-0.058-0.081-0.039-0.115-0.073-0.066-0.064-0.175-0.088-0.164-0.213-0.219-0.010-0.101-0.158-0.097-0.256 0-0.053 0.023-0.104 0.025-0.157 0.005-0.127 0-0.245 0.188-0.173 0.050 0.020 0.094-0.049 0.141-0.053 0.088-0.008 0.102-0.217 0.228-0.091s-0.054 0.177-0.068 0.27c0.141 0.027 0.274 0.216 0.264 0.349-0.016 0.203-0.216 0.216-0.318 0.333 0.113-0.021 0.213-0.072 0.323-0.070 0.042 0.002 0.079 0.022 0.103 0.052l0 0c0.031 0.054-0.036 0.037-0.055 0.056s-0.047 0.064-0.021 0.094 0.061 0 0.083-0.025 0.046-0.049 0.073-0.021c0.067 0.071 0.107 0.030 0.166-0.019 0.034-0.024 0.076-0.038 0.121-0.038 0.017 0 0.034 0.002 0.050 0.006l-0.001-0c0.034 0.009 0.051 0.085 0.072 0.132 0.030 0.066-0.104 0.017-0.066 0.103 0.052 0.131 0.085 0.283 0.092 0.442l0 0.003c0.014 0.184 0.236 0.407-0.041 0.578-0.027 0.017-0.024 0.088-0.034 0.134-0.004 0.019 0.017 0.034-0.006 0.061-0.053 0.061-0.045 0.081 0.024 0.086 0.014 0.002 0.030 0.003 0.046 0.003 0.117 0 0.221-0.053 0.29-0.136l0.001-0.001c0.108-0.139 0.229-0.26 0.363-0.364l0.005-0.003c0.118-0.084 0.18-0.231 0.321-0.281 0.16-0.056 0.094-0.245 0.196-0.338 0.014-0.018 0.026-0.038 0.036-0.059l0.001-0.002c0.017-0.025 0.048-0.054 0.069-0.024 0.071 0.097 0.101 0.004 0.158-0.018 0.108-0.040 0.067-0.137 0.094-0.202 0.061-0.14 0.189-0.199 0.286-0.297-0.070 0.017-0.123 0.066-0.198 0.057-0.042-0.005-0.102 0.009-0.084-0.072 0.012-0.054 0.003-0.137 0.091-0.111 0.123 0.036 0.262-0.033 0.371 0.086 0.080 0.088 0.224 0.102 0.272 0.232 0.070 0.189 0.118 0.38 0.051 0.583-0.014 0.029-0.023 0.064-0.023 0.1s0.008 0.071 0.024 0.102l-0.001-0.001c0.123-0.289 0.222-0.564 0.134-0.854-0.055-0.184 0.032-0.255 0.144-0.352 0.173-0.144 0.296-0.341 0.346-0.566l0.001-0.007c-0.118 0.149-0.184 0.338-0.335 0.461-0.050 0.040-0.096 0.085-0.148 0.123-0.019 0.018-0.045 0.029-0.073 0.029-0.046 0-0.085-0.029-0.1-0.069l-0-0.001c-0.043-0.074-0.115-0.134-0.159-0.199-0.019-0.032-0.031-0.071-0.031-0.113 0-0.072 0.034-0.135 0.087-0.176l0.001-0c0.156-0.107 0.138-0.286 0.199-0.429 0.018-0.043-0.105-0.123 0-0.159s0.184-0.162 0.312-0.093c0.064 0.034 0.114 0.067 0.199 0.006s0.105 0.027 0.111 0.112c0.012 0.18-0.078 0.343-0.068 0.519 0.113-0.134 0.102-0.306 0.118-0.465 0.014-0.137 0.043-0.184 0.184-0.21 0.289-0.056 0.548-0.194 0.686-0.479 0.061-0.123 0.102-0.003 0.167-0.012-0.061-0.255 0.061-0.429 0.221-0.593 0.050-0.053 0.089-0.074 0.155-0.044 0.013 0.006-0.012 0.101 0.037 0.019 0.021-0.035 0.112-0.026 0.073-0.092-0.055-0.093-0.044-0.161 0.051-0.198 0.112-0.044 0.085 0.094 0.142 0.134 0.045-0.058-0.017-0.131 0.043-0.202 0.030 0.107 0 0.211 0.061 0.337-0.004-0.037-0.007-0.080-0.007-0.123 0-0.002 0-0.003 0-0.005v0c0.005-0.050-0.031-0.126 0.031-0.14s0.087 0.066 0.107 0.118 0.024 0.116 0.091 0.107c0.119-0.016 0.179 0.030 0.195 0.15 0.003 0.024 0.018 0.058 0.061 0.040 0.013-0.143-0.048-0.273-0.076-0.409-0.006-0.031-0.023-0.115 0.024-0.088 0.162 0.094 0.067-0.050 0.074-0.080 0.036-0.16-0.061-0.34 0.067-0.485s0.093-0.355 0.14-0.531c0.041-0.155 0.131-0.134 0.226-0.143 0.015 0 0.030 0.093 0.051 0 0.012-0.049 0.074-0.089 0.037-0.144-0.024-0.036-0.061-0.005-0.094 0.007-0.053 0.020-0.098 0.070-0.17 0.061 0.037-0.082 0.114-0.092 0.178-0.154-0.089-0.026-0.151-0.075-0.137-0.164 0.032-0.198-0.061-0.397 0.013-0.595 0.007-0.019 0.011-0.042 0.011-0.065 0-0.038-0.011-0.074-0.030-0.105l0.001 0.001c-0.075-0.085-0.040-0.165-0.019-0.248 0.028-0.109 0.078-0.215 0.095-0.325 0.023-0.15 0.080-0.123 0.172-0.061 0.184 0.131 0.333 0.299 0.438 0.495l0.004 0.008c0.009-0.022 0.014-0.047 0.014-0.074 0-0.050-0.018-0.096-0.049-0.131l0 0c-0.116-0.123-0.165-0.295-0.284-0.423-0.097-0.111-0.156-0.257-0.156-0.417 0-0.015 0.001-0.029 0.002-0.044l-0 0.002c0.135 0.116 0.127 0.297 0.245 0.425-0.009-0.15-0.074-0.255-0.126-0.368-0.136-0.297-0.224-0.593-0.026-0.904 0.087-0.137 0.151-0.289 0.225-0.434 0.010-0.005 0.021-0.009 0.034-0.009 0.017 0 0.032 0.006 0.044 0.016l-0-0c0.143 0.123 0.034 0.242-0.015 0.346-0.061 0.135-0.013 0.227 0.054 0.33 0.001-0.231 0.058-0.449 0.157-0.641l-0.004 0.008c0.077 0.042-0.018 0.135 0.076 0.178 0.009-0.144 0.184-0.229 0.13-0.409-0.085 0.044-0.037 0.167-0.145 0.174-0.001-0.008-0.001-0.017-0.001-0.025 0-0.073 0.033-0.138 0.084-0.181l0-0c0.092-0.066 0.155-0.167 0.169-0.284l0-0.002c0.074-0.384 0.132-0.759-0.105-1.12-0.105-0.159-0.142-0.368-0.229-0.539-0.207-0.418-0.355-0.852-0.386-1.323-0.015-0.228-0.031-0.457-0.048-0.704-0.075 0.067-0.028 0.142-0.069 0.203-0.080-0.112-0.165-0.207-0.061-0.337-0.127-0.25-0.045-0.561-0.221-0.797-0.021-0.029-0.047-0.123 0.013-0.103 0.134 0.043 0.055-0.044 0.044-0.066-0.134-0.287-0.223-0.62-0.25-0.971l-0.001-0.010c-0.009-0.090 0.019-0.205-0.026-0.266-0.159-0.214-0.096-0.458-0.089-0.681 0.009-0.279-0.043-0.506-0.245-0.693-0.050 0.029 0.013 0.102-0.069 0.123-0.014-0.066-0.049-0.126-0.012-0.199 0.013-0.026 0.020-0.057 0.020-0.089 0-0.023-0.004-0.046-0.011-0.066l0 0.001c-0.073-0.249-0.233-0.452-0.445-0.579l-0.005-0.002c-0.177-0.112-0.408-0.137-0.521-0.351-0.007-0.013-0.044-0.018-0.061-0.012-0.072 0.024-0.077-0.032-0.108-0.074-0.047-0.065-0.035-0.167-0.085-0.203-0.13-0.096-0.123-0.088-0.147-0.184-0.097-0.392-0.11-0.819-0.429-1.123-0.013-0.012-0.023-0.025-0.032-0.040l-0-0.001c-0.173-0.3-0.191-0.643-0.181-0.968 0.006-0.245 0.028-0.48 0.065-0.71l-0.004 0.029c0.072-0.438-0.108-0.765-0.438-1.027-0.111-0.086-0.198-0.196-0.255-0.323l-0.002-0.005c-0.119-0.27-0.188-0.585-0.188-0.916 0-0.028 0.001-0.056 0.001-0.083l-0 0.004c0.017-0.479-0.037-0.93-0.346-1.319-0.061-0.077-0.061-0.184-0.145-0.271-0.181-0.184-0.345-0.389-0.424-0.65s-0.169-0.525-0.252-0.787c-0.123-0.39-0.254-0.777-0.26-1.196 0.001-0.015 0.002-0.033 0.002-0.050 0-0.093-0.016-0.182-0.046-0.265l0.002 0.006c-0.085-0.205-0.202-0.392-0.288-0.594-0.114-0.269 0.046-0.476-0.114-0.711-0.036-0.074-0.080-0.137-0.132-0.192l0 0c0.030 0.158-0.051 0.422-0.018 0.616M6.279 18.1c0.105 0.146 0.171 0.3 0.081 0.509-0.032-0.19-0.058-0.349-0.083-0.509zM6.387 19.394c-0.051 0.040-0.083 0.102-0.083 0.171 0 0.016 0.002 0.032 0.005 0.047l-0-0.001c-0.132-0.116-0.008-0.202 0.025-0.298 0.007-0.021 0.040-0.015 0.058 0.004 0.008 0.009 0.014 0.022 0.014 0.035 0 0.017-0.008 0.032-0.020 0.041l-0 0zM6.83 22.336c-0.038-0.099-0.060-0.214-0.060-0.334 0-0.113 0.020-0.222 0.056-0.323l-0.002 0.007c0.089 0.237 0.040 0.443 0.004 0.651zM7.129 22.955c0.057-0.119-0.284-0.204-0.012-0.362 0.008 0.077-0.061 0.137 0.013 0.192 0.060 0.047 0.035 0.11-0.004 0.17zM7.751 25.394c-0.034 0.071-0.069 0.131-0.108 0.188l0.003-0.004c-0.038 0.055 0.026 0.135-0.047 0.176-0.154-0.196-0.118-0.607 0.085-0.875 0.053 0.115 0.088 0.221-0.070 0.301 0.183 0.001 0.212 0.054 0.135 0.215zM7.779 29.979c-0.045-0.044 0.043-0.091-0.019-0.132-0.135 0.309-0.332 0.584-0.49 0.906-0.047-0.327 0.053-0.605 0.118-0.889 0.031-0.131 0.088-0.254 0.084-0.394 0.005-0.036 0.022-0.067 0.047-0.089l0-0c0.006-0.007 0.069 0.022 0.068 0.032-0.012 0.184 0.179 0.226 0.237 0.363 0.034 0.093 0.036 0.15-0.047 0.203zM8.012 27.138c0-0.11-0.018-0.201 0.058-0.276-0.004 0.088 0.077 0.196-0.061 0.277zM9.622 29.576c-0.048-0.105-0.086-0.189-0.127-0.281 0.212 0.064 0.213 0.067 0.127 0.281zM9.889 28.906c-0.013 0.093-0.021 0.187-0.029 0.28-0.003 0.034 0.007 0.078-0.045 0.076-0.029-0-0.056-0.012-0.076-0.030l0 0c-0.105-0.123-0.101-0.389 0.020-0.539-0.015 0.108-0.028 0.197-0.041 0.295 0.14-0.061 0.061-0.204 0.129-0.285 0.082 0.056 0.050 0.131 0.039 0.203zM10.188 31.178c-0.047 0.017-0.061-0.025-0.061-0.061-0.009-0.056-0.042-0.123 0.005-0.169s0.061 0.034 0.091 0.048c-0.093 0.031-0.009 0.061 0 0.093 0.005 0.009 0.008 0.019 0.008 0.030 0 0.028-0.019 0.052-0.045 0.059l-0 0zM10.549 30.554c0.046 0.268-0.142 0.355-0.328 0.443v0c-0.061-0.3-0.123-0.6-0.189-0.948 0.161 0.156 0.223 0.344 0.406 0.398 0.024-0.039 0-0.061-0.023-0.078-0.117-0.098-0.18-0.199-0.034-0.327 0.042-0.026 0.069-0.071 0.069-0.123 0-0.016-0.003-0.032-0.008-0.047l0 0.001c-0.030-0.086-0.009-0.198 0.078-0.188s0.208 0.091 0.2 0.198c-0.017 0.215 0 0.447-0.164 0.624-0.007 0.010-0.011 0.022-0.011 0.035 0 0.004 0 0.007 0.001 0.010l-0-0zM10.855 30.475c-0.001 0.030-0.026 0.054-0.057 0.054-0.006 0-0.012-0.001-0.018-0.003l0 0c-0.025-0.009-0.067-0.018-0.061-0.051 0.046-0.207 0.097-0.413 0.153-0.646 0.18 0.253-0.002 0.446-0.024 0.646zM12.654 9.678c-0.053-0.235-0.088-0.509-0.097-0.79l-0-0.007c0.183 0.128 0.236 0.55 0.091 0.797zM12.874 9.952c-0.012-0.245 0.061-0.49 0.018-0.735 0.061 0.248 0.033 0.492-0.023 0.735zM13.238 27.362c-0.061 0.183-0.135 0.341-0.223 0.488l0.006-0.011c-0.017-0.223 0.051-0.359 0.216-0.477zM13.825 27.633c-0.036 0.196-0.146 0.362-0.299 0.47l-0.002 0.002c-0.090 0.058-0.193 0.108-0.302 0.144l-0.010 0.003c-0.066 0.023-0.133 0.069-0.192 0.024-0.070-0.053-0.031-0.142-0.028-0.216 0-0 0-0 0-0 0-0.044 0.021-0.082 0.053-0.107l0-0c0.254-0.178 0.313-0.477 0.443-0.735 0.061-0.123 0.055-0.254 0.104-0.413 0.184 0.272 0.078 0.552 0.153 0.811 0.010-0.017 0.026-0.061 0.042-0.061 0.051 0 0.046 0.050 0.039 0.080zM14.315 26.74c-0.033 0.069-0.083 0.072-0.132 0.012 0.047 0.184 0.148 0.379-0.077 0.526-0.034 0.023-0.061 0.056-0.104 0.043s-0.031-0.055-0.039-0.088c-0.035-0.143-0.104-0.275-0.088-0.435 0.008-0.079 0.096-0.129 0.058-0.215-0.131 0.012-0.089-0.112-0.123-0.173-0.024-0.049-0.008-0.119-0.010-0.224 0.078 0.146 0.184 0.233 0.129 0.381 0.106 0.023 0.175 0.099 0.245 0.174-0.026-0.061-0.055-0.127-0.076-0.192s0.010-0.086 0.069-0.080c-0.070-0.098-0.156-0.184-0.189-0.306-0.011-0.034-0.017-0.072-0.017-0.112 0-0.112 0.048-0.212 0.124-0.282l0-0c0.090 0.224 0.253 0.429 0.098 0.68 0.061-0.069 0.131-0.108 0.218-0.061 0.035 0.053-0.129 0.098 0.014 0.169 0.065 0.028-0.068 0.115-0.102 0.184zM14.477 13.387c0.257 0.099 0.271 0.321 0.333 0.512-0.135-0.146-0.247-0.315-0.329-0.5l-0.005-0.012zM15.173 14.757c-0.069-0.159-0.123-0.278-0.171-0.401-0.014-0.037-0.091-0.094 0-0.123 0.012-0.005 0.026-0.009 0.041-0.009 0.053 0 0.096 0.042 0.099 0.094v0c0.018 0.13 0.065 0.259 0.031 0.438zM15.668 23.705c-0.011 0.005-0.024 0.007-0.037 0.007-0.029 0-0.055-0.013-0.073-0.033l-0-0c-0.066-0.075-0.123-0.484-0.075-0.596 0.155 0.146 0.145 0.358 0.215 0.533 0.011 0.027 0.017 0.071-0.030 0.085zM15.741 21.973c-0.010-0.056-0.015-0.12-0.015-0.186 0-0.154 0.031-0.301 0.088-0.435l-0.003 0.007c0.042 0.191 0.102 0.39-0.070 0.61zM16.231 19.963c0.037-0.029 0.068 0 0.082 0.032 0.067 0.145 0.129 0.294 0.193 0.441l-0.040 0.017c-0.079-0.136-0.184-0.256-0.23-0.411-0.011-0.030-0.037-0.059-0.007-0.081zM16.245 21.727c-0.066 0.033-0.093 0.147-0.137 0.226-0.112 0.029-0.172 0-0.127-0.13 0.135-0.4 0.113-0.83 0.222-1.236 0.024-0.091 0.048-0.096 0.109-0.041 0.149 0.135 0.245 0.31 0.233 0.509-0.007 0.085 0.055 0.146 0.023 0.234-0.067 0.18-0.136 0.341-0.326 0.435zM16.34 21.977c-0.126-0.251 0.1-0.275 0.164-0.386-0.069 0.104-0.1 0.226-0.167 0.382z"></path>
<path fill="#fff" d="M10.754 22.776c-0.061-0.589-0.077-1.176-0.283-1.766-0.050-0.142-0.054-0.295-0.077-0.442-0.049-0.306-0.105-0.623-0.070-0.911 0.035-0.297-0.004-0.589-0.035-0.887-0.053-0.528-0.061-1.054-0.192-1.584-0.041-0.172-0.197-0.33-0.116-0.513-0.123-0.033-0.018 0.131-0.126 0.105-0.028-0.089 0.021-0.143 0.056-0.211 0.064-0.126 0.134-0.261-0.087-0.371-0.097-0.048-0.104-0.123-0.029-0.178 0.049-0.036 0.098-0.084 0.061-0.145-0.061-0.103-0.097 0.047-0.184-0.007 0.123-0.207 0.089-0.442-0.005-0.688-0.017-0.044-0.012-0.104-0.061-0.123-0.165-0.061-0.184-0.175-0.142-0.306-0.105-0.055-0.102 0.077-0.175 0.056-0.084-0.245-0.11-0.252-0.292-0.123-0.061 0.043-0.132 0.073-0.226 0.123 0-0.115 0.058-0.167 0.096-0.224s0.142-0.055 0.055-0.188c-0.078-0.119-0.158-0.146-0.249-0.114-0.296 0.107-0.613 0.111-0.938 0.1-0.115-0.004-0.252 0.020-0.296 0.156-0.006 0.028-0.031 0.048-0.060 0.048-0.008 0-0.015-0.001-0.021-0.004l0 0c-0.419-0.123-0.837-0.143-1.256-0.206-0.021-0.003-0.042-0.017-0.070-0.067 0.284 0.004 0.569 0.007 0.854 0.013 0.479 0.010 0.949-0.006 1.402-0.123 0.18-0.046 0.393 0.004 0.575-0.058 0.092-0.032 0.294-0.030 0.040-0.195-0.035-0.023-0.054-0.039 0-0.045 0.126-0.015 0.025-0.081 0.004-0.123-0.115-0.224-0.335-0.38-0.423-0.624-0.024-0.052-0.076-0.088-0.137-0.088-0.014 0-0.027 0.002-0.039 0.005l0.001-0c-0.123 0.105-0.328 0.011-0.437 0.14-0.031 0.037-0.080 0.070-0.134 0.015s0.077-0.066 0.026-0.123c-0.232-0.090-0.358 0.099-0.552 0.123-0.473 0.054-0.932 0.164-1.41 0.201-0.395 0.031-1.009-0.605-1.416-0.626 0.161-0.159 0.759 0.439 0.963 0.395 0.472-0.104 0.83-0.015 1.319-0.058 0.3-0.026 0.368-0.252 0.493-0.443 0.023-0.034 0.027-0.083 0.048-0.12 0.189-0.332 0.045-0.654-0.353-0.788-0.051-0.023-0.11-0.042-0.172-0.054l-0.006-0.001c-0.167-0.017-0.234-0.126-0.227-0.271 0.002-0.010 0.003-0.021 0.003-0.032 0-0.071-0.046-0.13-0.109-0.151l-0.001-0c-0.164-0.070-0.032 0.068-0.055 0.097-0.032 0.038-0.061 0.023-0.089-0.015-0.036-0.051-0.061-0.112-0.131-0.128-0.007 0.093 0.101 0.123 0.123 0.208-0.069 0.026-0.098-0.050-0.123-0.077-0.282-0.349-0.616-0.348-0.956-0.311-0.013 0-0.032 0.014-0.036 0.010-0.278-0.338-0.628-0.18-0.94-0.282-0.322-0.105-0.667-0.123-0.995-0.2-0.533-0.123-1.065-0.177-1.597-0.301-0.257-0.061-0.512-0.149-0.775-0.173 0.079-0.077 0.184-0.049 0.275-0.032q1.14 0.213 2.28 0.436c1.164 0.229 2.329 0.425 3.493 0.714 0.466 0.116 0.663-0.004 0.837-0.368 0.201-0.424 0.354-0.879 0.606-1.27 0.081-0.144 0.178-0.267 0.291-0.373l0.001-0.001c0.105-0.087 0.23-0.202 0.201-0.407 0.080 0.184 0.184 0.359 0.238 0.545 0.174 0.532 0.398 0.994 0.675 1.419l-0.014-0.023c0.088 0.143 0.17 0.383 0.41 0.213 0.061-0.043 0.219 0.051 0.316 0.123 0.108 0.081 0.224 0.101 0.338 0.145 0.193 0.075 0.137-0.056 0.11-0.142-0.039-0.123-0.345-0.312-0.417-0.245-0.123 0.118-0.253-0.030-0.379 0 0.152-0.061 0.177-0.201 0.216-0.341 0.061-0.212 0.265-0.245 0.446-0.265 0.218-0.022 0.297-0.095 0.245-0.342-0.034-0.165-0.012-0.325-0.158-0.473-0.072-0.073-0.057-0.173-0.004-0.254 0.083-0.123 0.061-0.279 0.045-0.436-0.080-0.683-0.153-1.365-0.228-2.048-0.004-0.036-0.017-0.080 0.026-0.097h-0.006c0.106 0.368 0.126 0.74 0.164 1.109 0.021 0.205 0.085 0.306 0.279 0.333 0.047 0.017 0.087 0.039 0.124 0.065l-0.001-0.001c-0.022 0.058-0.061 0.030-0.094 0.025-0.24-0.038-0.282 0-0.135 0.205 0.213 0.294 0.27 0.63 0.429 0.936 0.047 0.091 0.061 0.153 0.189 0.143s0.154 0.159 0.214 0.257c0.233-0.082 0.194-0.249 0.070-0.446-0.135-0.215-0.177-0.46-0.286-0.683-0.051-0.106-0.067-0.23-0.184-0.306-0.032-0.021-0.083-0.069-0.023-0.107 0.041-0.025 0.080-0.010 0.119 0.034 0.066 0.073 0.073 0.159 0.098 0.245 0.107 0.355 0.237 0.502 0.478 0.529 0.196 0.022 0.292-0.131 0.441-0.261-0.009 0.129-0.036 0.201-0.115 0.245-0.036 0.018-0.088 0.031-0.065 0.090 0.017 0.034 0.051 0.057 0.091 0.057 0.010 0 0.019-0.001 0.028-0.004l-0.001 0c0.143-0.036 0.368 0.097 0.398-0.197 0.008-0.075 0.191-0.282 0.407-0.188 0.103 0.045 0.134-0.023 0.18-0.066s0.075-0.137 0.184-0.167c-0.279 0.45-0.552 0.874-0.851 1.28-0.112 0.152-0.215 0.31-0.322 0.465-0.022 0.027-0.036 0.062-0.036 0.1 0 0.034 0.011 0.066 0.029 0.092l-0-0c0.051 0.071 0.104 0.021 0.158 0.011 0.136-0.031 0.302-0.058 0.471-0.074l0.016-0.001c0.314-0.019 0.594-0.135 0.892-0.19 0.294-0.067 0.631-0.106 0.977-0.106 0.005 0 0.009 0 0.014 0h-0.001c0.306 0.010 0.534-0.127 0.765-0.259 0.334-0.196 0.62-0.392 0.891-0.607l-0.016 0.012c-0.316 0.322-0.705 0.552-1.072 0.802-0.202 0.147-0.432 0.279-0.676 0.385l-0.023 0.009c-0.118 0.047-0.219 0.097-0.374 0.077-0.184-0.025-0.32 0.139-0.487 0.202-0.216 0.081-0.408 0.205-0.617 0.3-0.354 0.162-0.719 0.315-1.004 0.586-0.037 0.035-0.142 0.047-0.069 0.146 0.040 0.054 0.096 0.123 0.166 0.050 0.025-0.025 0.070-0.026 0.088 0.031 0.019 0.040 0.029 0.086 0.029 0.136 0 0 0 0 0 0v-0c-0.010 0.056-0.052 0.047-0.102 0.012-0.017-0.012-0.038-0.019-0.061-0.019-0.032 0-0.060 0.014-0.079 0.036l-0 0c-0.005 0.011-0.008 0.023-0.008 0.037 0 0.017 0.005 0.032 0.013 0.045l-0-0c0.024 0.027 0.060 0.044 0.099 0.044 0.017 0 0.032-0.003 0.047-0.009l-0.001 0c0.118-0.020 0.241-0.045 0.254 0.17-0.069 0-0.104-0.167-0.173-0.079s0.043 0.101 0.091 0.143c0.14 0.123 0.296 0.156 0.458 0.184 0.302 0.048 0.602 0.023 0.906 0.134v-0.008c-0.037 0.123-0.164 0.101-0.252 0.11-0.228 0.021-0.408 0.086-0.462 0.333-0.004 0.017-0.029 0.027-0.048 0.034-0.257 0.101-0.061 0.192 0.064 0.299-0.074 0.058-0.212 0.061-0.17 0.215 0.003 0.012-0.010 0.026-0.015 0.039-0.045 0.123-0.233-0.281-0.233 0.032 0 0.084-0.019 0.080-0.278-0.024 0.050 0.184 0.194 0.283 0.314 0.382 0.348 0.289 0.656 0.605 0.927 0.951l0.010 0.013c0.083 0.107 0.155 0.208 0.309 0.238 0.184 0.034 0.037 0.226 0.146 0.317-0.383-0.227-0.628-0.583-0.885-0.928-0.084-0.113-0.16-0.245-0.325-0.141-0.088 0.056-0.102-0.061-0.118-0.132-0.045-0.199-0.485-0.539-0.651-0.501-0.061 0.015-0.037 0.086-0.039 0.134-0.015 0.484 0.123 0.971 0.262 1.444 0.382 1.293 0.655 2.593 0.946 3.893 0.096 0.426 0.158 0.858 0.297 1.271-0.222-0.116-0.328-0.346-0.45-0.557-0.025-0.038-0.041-0.086-0.041-0.136 0-0.038 0.008-0.074 0.023-0.106l-0.001 0.002c0.056-0.121 0.089-0.263 0.089-0.412 0-0.131-0.025-0.256-0.072-0.371l0.002 0.007c-0.2-0.572-0.224-1.16-0.407-1.73-0.164-0.512-0.238-1.042-0.476-1.532-0.153-0.319-0.184-0.64-0.284-0.958-0.009-0.029-0.021-0.077-0.039-0.083-0.161-0.061-0.232-0.159-0.13-0.361-0.245 0.157-0.294 0.399-0.477 0.517-0.061 0.040-0.036 0.169-0.005 0.184 0.146 0.070 0.101 0.184 0.135 0.284s0.044 0.123-0.055 0.123c-0.043 0-0.049 0.070-0.034 0.089 0.108 0.129 0.009 0.237 0.029 0.355 0.015 0.091 0.007 0.188 0.131 0.238 0.026 0.011 0.133 0.13 0 0.157-0.091 0.019-0.074 0.084-0.058 0.156 0.014 0.114 0.035 0.215 0.062 0.313l-0.004-0.015c0.089 0.253 0.141 0.498 0.107 0.75-0.003 0.018-0.005 0.040-0.005 0.062 0 0.094 0.035 0.18 0.093 0.245l-0-0c0.021 0.023 0.054 0.049 0.030 0.078-0.173 0.213-0.11 0.552 0 0.725 0.169 0.273 0.061 0.429 0.061 0.654 0.004 1.532-0.105 3.033-0.259 4.526-0.008 0.079 0.012 0.172-0.057 0.226l-0.123-0.154c0.129-0.166 0.061-0.387 0.070-0.588 0.037-0.785 0.271-1.527 0.119-2.353-0.001-0.006-0.002-0.013-0.002-0.020 0-0.017 0.004-0.033 0.011-0.047l-0 0.001c0.143-0.251 0.058-0.544 0.012-0.829-0.010-0.061-0.061-0.151-0.018-0.177 0.158-0.096 0.008-0.306 0.103-0.425 0.018-0.021-0.012-0.090-0.049-0.098-0.262-0.056-0.135-0.145-0.061-0.238 0.029-0.037 0.073-0.094 0.061-0.132-0.108-0.331-0.006-0.633-0.038-0.952-0.055-0.538-0.276-1.074-0.258-1.616 0.003-0.095 0-0.267-0.105-0.326-0.108-0.061-0.179-0.175-0.179-0.306 0-0.005 0-0.011 0-0.016l-0 0.001c0.061-0.26-0.184-0.228-0.221-0.21-0.177 0.076-0.296-0.069-0.436-0.141-0.061-0.032-0.126-0.18-0.192-0.050-0.040 0.080-0.15 0.148-0.011 0.29 0.1 0.102 0.004 0.364-0.134 0.346-0.314-0.041-0.232 0.162-0.197 0.349 0.023 0.123 0.041 0.245 0.066 0.371 0.009 0.042 0 0.085 0.050 0.123 0.128 0.1 0.194 0.306 0.15 0.368-0.099 0.142-0.061 0.293-0.047 0.442 0.046 0.446 0.077 0.895 0.172 1.34 0.073 0.343-0.034 0.705 0.237 1.035 0.035 0.043 0.014 0.132-0.023 0.143-0.119 0.033-0.085 0.14-0.078 0.22 0.032 0.389 0.067 0.778 0.116 1.168 0.061 0.49 0.139 0.984 0.21 1.476zM9.99 15.86c0.115-0.254 0.21-0.45 0.292-0.653 0.116-0.286 0.27-0.336 0.571-0.165 0.203 0.115 0.403 0.237 0.629 0.368-0.031-0.29-0.058-0.544-0.086-0.797-0.057-0.526 0.189-0.838 0.593-1.033 0.085-0.041 0.184-0.085 0.192-0.175 0.014-0.222 0.168-0.256 0.326-0.306 0.162-0.046 0.299-0.098 0.431-0.161l-0.016 0.007c0.205-0.104 0.419-0.2 0.58-0.382-0.401-0.052-0.792-0.076-1.182-0.097-0.005 0-0.011 0-0.017 0-0.115 0-0.216-0.058-0.276-0.146l-0.001-0.001c-0.24-0.322-0.267-0.698 0.042-0.854 0.123-0.061 0.119-0.126-0.017-0.227-0.257-0.191-0.279-0.273-0.197-0.569 0.010-0.039 0.053-0.088-0.006-0.123-0.134-0.075-0.273-0.226-0.417-0.139-0.158 0.096-0.214-0.018-0.268-0.14-0.030-0.077-0.060-0.174-0.084-0.272l-0.003-0.016c-0.007 0.335 0.015 0.669 0.023 1.002 0.010 0.422-0.040 0.457-0.433 0.338-0.030-0.009-0.061-0.016-0.089-0.022-0.287-0.061-0.346-0.020-0.398 0.258-0.065 0.355-0.399 0.545-0.746 0.412-0.276-0.106-0.638-0.22-1.008-0.315l-0.078-0.017c-0.257-0.070-0.269-0.046-0.236 0.235 0.032 0.27 0.199 0.513 0.245 0.77 0.037 0.221 0.141 0.316 0.32 0.357 0.249 0.047 0.453 0.207 0.559 0.424l0.002 0.005c0.135 0.281 0.542 0.49 0.343 0.864-0.005 0.010 0.006 0.030 0.009 0.045 0.080 0.497 0.235 0.974 0.401 1.526zM8.914 10.014c0.271-0.083 0.15-0.288 0.085-0.457-0.116-0.306-0.206-0.329-0.383-0.116-0.030 0.041-0.060 0.077-0.094 0.111l0-0c-0.422 0.368-0.585 0.919-0.779 1.443-0.028 0.076-0.009 0.199 0.051 0.205 0.255 0.036 0.486 0.101 0.703 0.191l-0.019-0.007c0.043 0.017 0.104-0.010 0.155 0.045 0.222 0.235 0.44 0.1 0.659 0.098 0.033 0 0.034-0.040 0.024-0.072s-0.053-0.089-0.082-0.074c-0.177 0.099-0.242-0.135-0.379-0.159 0.070-0.146 0.187-0.135 0.31-0.101 0.055 0.016 0.085 0 0.099-0.049 0.020-0.061-0.026-0.061-0.061-0.066-0.051-0.006-0.126-0.004-0.104-0.082 0.015-0.051 0.091-0.055 0.152-0.022s0.116 0.123 0.202 0.101c-0.045-0.263-0.090-0.371-0.254-0.613-0.007-0.013-0.011-0.028-0.011-0.043 0-0.006 0.001-0.012 0.002-0.018l-0 0.001c0.043-0.22-0.059-0.31-0.279-0.315zM11.852 8.931c0.091 0.184 0.159 0.347 0.252 0.498 0.222 0.36 0.365 0.368 0.542 0.054 0.070-0.123 0.038-0.188-0.096-0.272-0.2-0.132-0.436-0.229-0.688-0.278l-0.012-0.002zM12.865 10.746c0.031-0.061 0.097-0.090 0.088-0.169-0.006-0.051-0.045-0.061-0.083-0.061-0.168 0.006-0.346-0.010-0.49 0.056s0.013 0.216 0 0.324c0 0.003 0 0.006 0 0.009 0 0.020-0.003 0.039-0.009 0.058l0-0.001c-0.054 0.091 0.032 0.159 0.083 0.189 0.016 0.010 0.035 0.016 0.055 0.016 0.056 0 0.102-0.044 0.105-0.099v-0c0.026-0.158 0.082-0.289 0.248-0.321zM11.394 9.936c-0.058-0.107-0.129-0.178-0.090-0.22 0.14-0.152 0.010-0.319-0.046-0.469-0.070-0.189-0.213-0.353-0.297-0.544 0.055 0.411-0.020 0.846 0.432 1.232zM7.165 13.020c0.175 0.008 0.315-0.036 0.462-0.061 0.123-0.020 0.108-0.104 0.065-0.18-0.059-0.093-0.124-0.173-0.198-0.245l-0-0c-0.067-0.070-0.119-0.057-0.15 0.024-0.059 0.154-0.118 0.302-0.181 0.463zM13.446 10.433c0.223 0.061 0.429 0.139 0.633 0.040 0.135-0.066 0.196-0.245 0.384-0.222 0.009 0 0.027-0.039 0.021-0.055-0.010-0.028-0.036-0.047-0.066-0.047-0.010 0-0.020 0.002-0.029 0.006l0-0c-0.313 0.105-0.632 0.186-0.946 0.277zM6.661 11.391c0.135 0.143 0.27 0.283 0.439 0.368s0.213 0.036 0.176-0.146c-0.017-0.079-0.071-0.142-0.142-0.171l-0.002-0.001c-0.159-0.092-0.308-0.057-0.471-0.050zM7.777 12.269c0.025 0.097 0.077 0.173 0.051 0.279-0.018 0.073 0.061 0.188 0.102 0.282 0.025 0.061 0.074 0.051 0.116 0.042s0.037-0.048 0.028-0.088c-0.053-0.204-0.156-0.378-0.297-0.515l-0-0zM10.351 10.653c0.114 0.086 0.212 0.074 0.306 0.102 0.065 0.020 0.123 0 0.11-0.081s-0.089-0.118-0.137-0.089c-0.083 0.048-0.189 0.005-0.283 0.067z"></path>
<path fill="#fff" d="M4.639 13.547c-0.298 0.153-0.649 0.199-0.941 0.368l-0.031-0.039c0.283-0.203 0.59-0.35 0.971-0.329z"></path>
<path fill="#fff" d="M15.827 12.803l1.647 0.251v0.065c-0.552 0.007-1.103-0.159-1.651-0.258z"></path>
<path fill="#fff" d="M8.755 6.352c0.207 0.102 0.424 0.161 0.422 0.465 0 0.238 0.056 0.487 0.096 0.797-0.235-0.45-0.086-0.937-0.518-1.262z"></path>
<path fill="#fff" d="M10.626 6.584c-0.145-0.256-0.116-0.522-0.161-0.784-0.019-0.111 0-0.227-0.123-0.318-0.028-0.023-0.046-0.057-0.046-0.096 0-0.027 0.009-0.052 0.024-0.072l-0 0c0.067-0.076 0.042-0.178 0.066-0.271 0.137 0.514 0.184 1.027 0.232 1.541z"></path>
<path fill="#fff" d="M13.999 12.57c0.386 0.004 0.772 0.072 1.185 0.147-0.115 0.129-0.26 0.055-0.36 0.029-0.204-0.047-0.441-0.076-0.683-0.081l-0.004-0c-0.064-0.002-0.118-0.044-0.138-0.101l-0-0.001z"></path>
<path fill="#fff" d="M7.477 6.077c0.083 0.174 0.17 0.343 0.184 0.526 0.004 0.042 0.041 0.103-0.029 0.097-0.056-0.004-0.153-0.036-0.127-0.105 0.064-0.172-0.032-0.345-0.028-0.519z"></path>
<path fill="#fff" d="M7.433 5.898c-0.123-0.254-0.091-0.49-0.022-0.72-0.003 0.064-0.005 0.138-0.005 0.213 0 0.179 0.010 0.355 0.029 0.528l-0.002-0.021z"></path>
<path fill="#fff" d="M8.197 2.91c-0.028 0.265-0.028 0.265-0.219 0.327 0.012-0.143 0.097-0.264 0.217-0.326l0.002-0.001z"></path>
<path fill="#fff" d="M5.174 5.367l0.464-0.026c-0.16 0.162-0.306 0.128-0.464 0.026z"></path>
<path fill="#fff" d="M10.988 27.462c-0.030-0.368-0.029-0.735-0.15-1.103-0.021-0.081-0.036-0.175-0.042-0.272l-0-0.004c-0.026-0.19-0.056-0.389-0.029-0.57 0.008-0.074 0.012-0.161 0.012-0.248 0-0.109-0.007-0.216-0.021-0.321l0.001 0.012c-0.025-0.33-0.023-0.66-0.095-0.99-0.024-0.107-0.123-0.204-0.066-0.32-0.077-0.019-0.013 0.082-0.082 0.068-0.017-0.056 0.015-0.090 0.039-0.134 0.043-0.080 0.090-0.166-0.049-0.232-0.061-0.029-0.061-0.075-0.015-0.111 0.032-0.023 0.061-0.054 0.042-0.091-0.038-0.061-0.061 0.031-0.118 0 0.081-0.131 0.064-0.279 0.009-0.429-0.010-0.027-0.006-0.064-0.037-0.075-0.104-0.036-0.115-0.107-0.085-0.189-0.066-0.033-0.066 0.050-0.113 0.038-0.049-0.15-0.065-0.156-0.184-0.074-0.040 0.028-0.085 0.048-0.146 0.082 0.005-0.056 0.029-0.105 0.064-0.142l-0 0c0.025-0.035 0.091-0.037 0.038-0.119s-0.097-0.089-0.156-0.067c-0.152 0.052-0.326 0.081-0.508 0.081-0.031 0-0.063-0.001-0.094-0.003l0.004 0c-0.073 0-0.16 0.017-0.191 0.103-0.003 0.018-0.019 0.032-0.038 0.032-0.005 0-0.010-0.001-0.014-0.003l0 0c-0.264-0.069-0.53-0.075-0.797-0.107-0.013 0-0.026-0.010-0.043-0.042 0.18 0 0.361-0.005 0.542-0.006 0.020 0 0.044 0.001 0.068 0.001 0.294 0 0.579-0.037 0.851-0.108l-0.024 0.005c0.115-0.031 0.25-0.004 0.368-0.046 0.061-0.021 0.188-0.023 0.029-0.123-0.021-0.013-0.033-0.023 0-0.028 0.080-0.011 0.017-0.051 0.004-0.076-0.069-0.139-0.207-0.233-0.258-0.384-0.015-0.032-0.046-0.053-0.083-0.053-0.010 0-0.019 0.002-0.028 0.004l0.001-0c-0.080 0.068-0.208 0.012-0.279 0.095-0.020 0.024-0.052 0.045-0.085 0.012s0.050-0.043 0.019-0.077c-0.146-0.053-0.229 0.068-0.351 0.085-0.301 0.042-0.594 0.118-0.897 0.15-0.251 0.026-0.63-0.363-0.889-0.368 0.105-0.102 0.475 0.263 0.606 0.231 0.302-0.073 0.528-0.023 0.838-0.058 0.192-0.022 0.238-0.164 0.321-0.286 0.015-0.022 0.018-0.052 0.032-0.075 0.126-0.212 0.040-0.411-0.211-0.49-0.032-0.014-0.069-0.024-0.108-0.031l-0.003-0c-0.001 0-0.002 0-0.003 0-0.077 0-0.139-0.062-0.139-0.139 0-0.010 0.001-0.019 0.003-0.029l-0 0.001c0.002-0.007 0.003-0.015 0.003-0.023 0-0.043-0.029-0.079-0.068-0.091l-0.001-0c-0.102-0.042-0.021 0.044-0.037 0.061s-0.039 0.015-0.056-0.008-0.037-0.069-0.081-0.078c-0.006 0.058 0.061 0.075 0.075 0.129-0.044 0.017-0.061-0.029-0.075-0.047-0.173-0.214-0.385-0.207-0.602-0.179-0.008 0-0.021 0.009-0.023 0.007-0.171-0.207-0.396-0.102-0.593-0.161s-0.421-0.067-0.629-0.108c-0.336-0.067-0.674-0.093-1.009-0.162-0.135-0.038-0.301-0.072-0.471-0.094l-0.019-0.002c0.051-0.050 0.116-0.034 0.175-0.024q0.721 0.114 1.441 0.234c0.735 0.123 1.474 0.227 2.206 0.389 0.294 0.064 0.421-0.014 0.538-0.245 0.135-0.27 0.24-0.558 0.407-0.807 0.054-0.092 0.117-0.171 0.191-0.239l0.001-0.001c0.068-0.056 0.15-0.131 0.135-0.259 0.046 0.090 0.094 0.202 0.136 0.317l0.007 0.021c0.101 0.329 0.235 0.616 0.404 0.879l-0.008-0.014c0.053 0.088 0.102 0.237 0.257 0.126 0.040-0.028 0.139 0.028 0.199 0.072 0.061 0.036 0.132 0.066 0.207 0.084l0.005 0.001c0.123 0.044 0.088-0.037 0.072-0.091-0.023-0.077-0.214-0.189-0.261-0.145-0.080 0.076-0.16-0.015-0.24 0.005 0.097-0.040 0.115-0.129 0.143-0.218 0.042-0.134 0.172-0.16 0.287-0.174 0.139-0.017 0.191-0.064 0.162-0.219-0.020-0.103 0-0.203-0.093-0.294-0.018-0.021-0.029-0.049-0.029-0.080s0.011-0.058 0.030-0.080l-0 0c0.055-0.080 0.045-0.177 0.036-0.275-0.039-0.429-0.075-0.854-0.11-1.281 0-0.022-0.009-0.050 0.018-0.061h-0.004c0.061 0.23 0.067 0.462 0.085 0.693 0.010 0.129 0.049 0.189 0.172 0.205 0.029 0.009 0.055 0.022 0.077 0.039l-0.001-0.001c-0.015 0.037-0.041 0.020-0.061 0.017-0.152-0.020-0.179 0.006-0.089 0.131 0.13 0.181 0.161 0.391 0.256 0.58 0.028 0.056 0.037 0.094 0.118 0.086s0.096 0.097 0.132 0.157c0.15-0.056 0.127-0.16 0.052-0.281-0.082-0.133-0.104-0.286-0.17-0.424-0.031-0.066-0.039-0.143-0.11-0.189-0.020-0.013-0.051-0.042-0.012-0.067 0.026-0.017 0.051-0.007 0.075 0.019 0.030 0.042 0.050 0.093 0.057 0.148l0 0.002c0.061 0.221 0.142 0.311 0.295 0.324 0.123 0.010 0.188-0.088 0.285-0.172-0.008 0.081-0.027 0.127-0.077 0.154-0.023 0.013-0.056 0.021-0.043 0.058 0.010 0.020 0.031 0.034 0.055 0.034 0.007 0 0.014-0.001 0.020-0.003l-0 0c0.091-0.024 0.231 0.055 0.256-0.13 0.006-0.047 0.126-0.18 0.262-0.123 0.065 0.026 0.085-0.017 0.116-0.045s0.050-0.087 0.123-0.108c-0.184 0.287-0.368 0.558-0.563 0.818-0.074 0.097-0.142 0.198-0.213 0.297-0.015 0.017-0.025 0.040-0.025 0.066 0 0.021 0.007 0.041 0.018 0.057l-0-0c0.031 0.044 0.066 0.012 0.1 0.004 0.086-0.022 0.191-0.041 0.299-0.054l0.012-0.001c0.2-0.017 0.38-0.095 0.57-0.135 0.187-0.046 0.402-0.075 0.624-0.080l0.003-0c0.195 0 0.342-0.088 0.49-0.175 0.216-0.129 0.401-0.257 0.576-0.397l-0.011 0.008c-0.207 0.208-0.457 0.356-0.695 0.522-0.13 0.096-0.278 0.182-0.435 0.253l-0.015 0.006c-0.062 0.035-0.135 0.055-0.213 0.055-0.009 0-0.018-0-0.027-0.001l0.001 0c-0.117-0.013-0.206 0.093-0.313 0.135-0.139 0.054-0.263 0.135-0.397 0.199-0.227 0.108-0.462 0.21-0.648 0.385-0.024 0.023-0.091 0.032-0.046 0.093 0.024 0.034 0.058 0.074 0.104 0.029 0.017-0.016 0.045-0.017 0.055 0.018 0.012 0.023 0.019 0.050 0.020 0.079l0 0c-0.007 0.036-0.034 0.031-0.065 0.009-0.011-0.007-0.023-0.011-0.037-0.011-0.021 0-0.039 0.009-0.052 0.024l-0 0c-0.004 0.007-0.006 0.016-0.006 0.026s0.002 0.018 0.007 0.026l-0-0c0.025 0.031 0.061 0.026 0.091 0.019 0.075-0.014 0.154-0.032 0.159 0.103-0.043 0-0.061-0.103-0.108-0.047s0.026 0.061 0.056 0.088c0.079 0.061 0.179 0.1 0.287 0.107l0.001 0c0.191 0.026 0.382 0.004 0.572 0.069v-0.005c-0.026 0.078-0.106 0.066-0.162 0.072-0.145 0.017-0.26 0.061-0.299 0.218 0 0.010-0.020 0.017-0.031 0.022-0.165 0.067-0.042 0.123 0.036 0.184-0.048 0.037-0.136 0.044-0.112 0.138 0 0.007-0.007 0.017-0.010 0.024-0.031 0.078-0.143-0.172-0.148 0.024 0 0.052-0.013 0.051-0.177-0.011 0.029 0.116 0.118 0.174 0.193 0.235 0.216 0.175 0.406 0.368 0.573 0.581l0.006 0.008c0.051 0.066 0.095 0.128 0.193 0.144 0.115 0.018 0.020 0.142 0.087 0.197-0.24-0.136-0.389-0.355-0.547-0.567-0.051-0.069-0.097-0.151-0.203-0.083-0.057 0.037-0.061-0.035-0.073-0.080-0.025-0.123-0.299-0.33-0.405-0.306-0.040 0.010-0.025 0.055-0.027 0.085-0.018 0.306 0.061 0.607 0.142 0.902 0.221 0.805 0.372 1.616 0.535 2.426 0.053 0.266 0.086 0.534 0.167 0.793-0.139-0.070-0.202-0.212-0.276-0.343-0.015-0.023-0.023-0.051-0.023-0.081 0-0.025 0.006-0.049 0.017-0.070l-0 0.001c0.041-0.080 0.064-0.175 0.064-0.275 0-0.077-0.014-0.151-0.040-0.22l0.001 0.004c-0.117-0.356-0.123-0.724-0.229-1.079-0.095-0.318-0.134-0.65-0.276-0.955-0.092-0.197-0.107-0.398-0.164-0.596-0.006-0.018-0.012-0.048-0.023-0.051-0.101-0.034-0.145-0.096-0.077-0.225-0.157 0.103-0.194 0.256-0.312 0.332-0.016 0.016-0.026 0.037-0.026 0.061 0 0.021 0.007 0.040 0.020 0.055l-0-0c0.092 0.042 0.061 0.112 0.081 0.176s0.026 0.075-0.037 0.077c-0.028 0-0.032 0.045-0.023 0.056 0.067 0.080 0 0.149 0.012 0.222 0.008 0.057 0 0.118 0.079 0.148 0.017 0.006 0.082 0.079 0 0.099-0.061 0.013-0.048 0.054-0.040 0.099 0.007 0.070 0.019 0.132 0.034 0.193l-0.002-0.009c0.040 0.102 0.063 0.221 0.063 0.345 0 0.044-0.003 0.087-0.008 0.129l0.001-0.005c-0.003 0.014-0.005 0.030-0.005 0.046 0 0.056 0.021 0.108 0.055 0.147l-0-0c0.013 0.013 0.034 0.030 0.018 0.048-0.113 0.137-0.078 0.348-0.013 0.455 0.102 0.169 0.031 0.269 0.027 0.409-0.033 1.038-0.119 2.021-0.258 2.986l0.017-0.143c-0.007 0.050 0.005 0.108-0.040 0.143l-0.075-0.095c0.085-0.106 0.045-0.245 0.055-0.368 0.037-0.49 0.198-0.962 0.116-1.478-0.001-0.003-0.001-0.007-0.001-0.011 0-0.011 0.003-0.021 0.007-0.030l-0 0c0.096-0.161 0.047-0.343 0.021-0.521-0.005-0.038-0.034-0.094-0.008-0.11 0.102-0.061 0.010-0.194 0.073-0.268 0.011-0.013-0.007-0.056-0.030-0.061-0.165-0.031-0.083-0.088-0.034-0.148 0.020-0.024 0.048-0.061 0.040-0.085-0.061-0.206 0.007-0.397-0.008-0.596-0.026-0.336-0.158-0.669-0.137-1.009 0.004-0.061 0.005-0.167-0.061-0.203s-0.109-0.104-0.109-0.182c0-0.006 0-0.011 0.001-0.017l-0 0.001c0.042-0.164-0.111-0.14-0.137-0.129-0.113 0.051-0.187-0.038-0.275-0.081-0.039-0.019-0.077-0.111-0.123-0.028-0.027 0.051-0.097 0.096-0.012 0.184 0.061 0.061-0.004 0.229-0.091 0.219-0.199-0.020-0.15 0.106-0.131 0.222 0.012 0.077 0.022 0.154 0.036 0.232 0.004 0.026 0 0.053 0.029 0.078 0.079 0.061 0.118 0.188 0.088 0.229-0.065 0.091-0.044 0.184-0.037 0.278 0.015 0.31 0.046 0.599 0.092 0.882l-0.006-0.044c0.040 0.215-0.034 0.444 0.132 0.645 0.007 0.010 0.011 0.023 0.011 0.036 0 0.022-0.011 0.042-0.027 0.054l-0 0c-0.075 0.023-0.056 0.089-0.053 0.139 0.013 0.245 0.029 0.487 0.054 0.731 0.031 0.306 0.072 0.613 0.108 0.919zM10.62 23.136c0.077-0.161 0.141-0.286 0.197-0.415 0.078-0.184 0.177-0.216 0.368-0.113 0.127 0.069 0.252 0.142 0.393 0.222l-0.040-0.499c-0.028-0.33 0.134-0.53 0.393-0.658 0.055-0.028 0.123-0.057 0.123-0.113 0.013-0.139 0.112-0.164 0.213-0.197 0.104-0.032 0.192-0.067 0.277-0.108l-0.011 0.005c0.132-0.069 0.269-0.132 0.375-0.249-0.254-0.026-0.502-0.034-0.749-0.041-0.005 0-0.011 0.001-0.018 0.001-0.069 0-0.129-0.035-0.166-0.087l-0-0.001c-0.147-0.198-0.158-0.434 0.042-0.537 0.080-0.042 0.077-0.081-0.007-0.142-0.161-0.115-0.173-0.167-0.116-0.353 0.008-0.025 0.036-0.056 0-0.076-0.083-0.044-0.17-0.137-0.262-0.080-0.102 0.061-0.136-0.007-0.168-0.084-0.018-0.049-0.036-0.109-0.049-0.171l-0.002-0.009c-0.010 0.21 0 0.42 0 0.628 0 0.265-0.034 0.287-0.281 0.22-0.018-0.006-0.037-0.009-0.056-0.013-0.184-0.032-0.219-0.006-0.257 0.169-0.031 0.169-0.177 0.295-0.353 0.295-0.046 0-0.090-0.009-0.131-0.025l0.002 0.001c-0.176-0.062-0.405-0.128-0.638-0.181l-0.046-0.009c-0.162-0.040-0.17-0.024-0.154 0.151s0.118 0.319 0.141 0.479c0.020 0.138 0.084 0.196 0.197 0.218 0.156 0.024 0.284 0.123 0.348 0.258l0.001 0.003c0.082 0.174 0.336 0.298 0.203 0.536 0 0.006 0.004 0.019 0.005 0.028 0.066 0.376 0.144 0.694 0.24 1.005l-0.016-0.059zM10.034 19.489c0.173-0.057 0.1-0.184 0.061-0.288-0.069-0.19-0.123-0.203-0.241-0.067-0.020 0.026-0.040 0.049-0.061 0.071l0-0c-0.275 0.239-0.387 0.585-0.519 0.919-0.020 0.048-0.009 0.123 0.029 0.128 0.159 0.018 0.304 0.054 0.441 0.108l-0.012-0.004c0.028 0.009 0.066-0.009 0.098 0.025 0.137 0.144 0.278 0.055 0.417 0.050 0.021 0 0.023-0.026 0.016-0.045s-0.032-0.055-0.050-0.045c-0.113 0.066-0.151-0.081-0.238-0.093 0.047-0.093 0.123-0.088 0.199-0.068 0.035 0.009 0.054 0 0.064-0.032s-0.015-0.039-0.038-0.040c-0.032 0-0.080 0-0.064-0.050 0.010-0.032 0.061-0.036 0.097-0.017s0.072 0.074 0.126 0.061c-0.015-0.145-0.069-0.274-0.152-0.381l0.001 0.002c-0.004-0.008-0.006-0.017-0.006-0.026 0-0.005 0.001-0.009 0.002-0.013l-0 0c0.033-0.144-0.028-0.199-0.168-0.195zM11.918 18.76c0.055 0.113 0.095 0.215 0.152 0.306 0.135 0.222 0.225 0.225 0.343 0.025 0.047-0.079 0.028-0.119-0.056-0.169-0.126-0.081-0.273-0.139-0.432-0.165l-0.007-0.001zM12.531 19.881c0.020-0.038 0.061-0.061 0.058-0.107 0-0.032-0.027-0.037-0.051-0.036-0.107 0.006-0.22 0-0.313 0.044s0.005 0.135-0.005 0.203c0 0.001 0 0.002 0 0.003 0 0.014-0.002 0.027-0.006 0.039l0-0.001c-0.036 0.058 0.017 0.1 0.049 0.118 0.010 0.006 0.021 0.009 0.034 0.009 0.037 0 0.066-0.028 0.070-0.064l0-0c0.021-0.105 0.059-0.188 0.165-0.211zM11.611 19.398c-0.036-0.066-0.079-0.11-0.053-0.137 0.091-0.097 0.012-0.2-0.021-0.293-0.042-0.118-0.129-0.218-0.18-0.336 0.029 0.254-0.026 0.528 0.254 0.763zM8.872 21.405c0.107-0.005 0.207-0.021 0.303-0.047l-0.010 0.002c0.078-0.014 0.070-0.067 0.045-0.114-0.036-0.056-0.076-0.105-0.122-0.149l-0-0c-0.042-0.044-0.075-0.034-0.096 0.017-0.037 0.091-0.078 0.185-0.12 0.287zM12.905 19.673c0.141 0.037 0.271 0.080 0.401 0.015 0.086-0.044 0.129-0.156 0.245-0.146 0.006 0 0.018-0.024 0.014-0.034-0.005-0.017-0.021-0.030-0.040-0.030-0.008 0-0.015 0.002-0.021 0.006l0-0c-0.194 0.071-0.398 0.129-0.599 0.19zM8.58 20.388c0.076 0.089 0.166 0.163 0.267 0.22l0.005 0.003c0.105 0.049 0.135 0.019 0.115-0.095-0.010-0.049-0.043-0.088-0.088-0.105l-0.001-0c-0.098-0.054-0.194-0.029-0.298-0.022zM9.274 20.92c0.015 0.061 0.047 0.107 0.028 0.175-0.013 0.046 0.036 0.116 0.061 0.175 0.015 0.036 0.047 0.031 0.073 0.024s0.025-0.031 0.020-0.056c-0.029-0.126-0.093-0.235-0.18-0.318l-0-0zM10.935 19.863c0.071 0.052 0.134 0.042 0.192 0.061 0.041 0.012 0.079 0 0.072-0.053s-0.055-0.072-0.085-0.053c-0.050 0.029-0.116 0.004-0.177 0.045z"></path>
<path fill="#fff" d="M7.26 21.776c-0.192 0.101-0.416 0.135-0.604 0.245l-0.019-0.024c0.183-0.131 0.381-0.228 0.623-0.221z"></path>
<path fill="#fff" d="M14.379 21.119l1.042 0.131v0.040c-0.349 0.013-0.697-0.081-1.045-0.134z"></path>
<path fill="#fff" d="M9.996 17.191c0.129 0.061 0.266 0.094 0.26 0.285 0.006 0.182 0.023 0.355 0.051 0.524l-0.003-0.023c-0.142-0.28-0.039-0.588-0.308-0.785z"></path>
<path fill="#fff" d="M11.182 17.305c-0.088-0.159-0.065-0.326-0.089-0.49-0.010-0.069 0.006-0.142-0.071-0.197-0.017-0.014-0.029-0.035-0.029-0.058 0-0.018 0.006-0.034 0.016-0.047l-0 0c0.044-0.049 0.030-0.113 0.047-0.172 0.063 0.282 0.107 0.613 0.122 0.951l0 0.012z"></path>
<path fill="#fff" d="M13.222 21.004c0.268 0.003 0.527 0.029 0.779 0.076l-0.028-0.004c-0.075 0.083-0.167 0.039-0.229 0.025-0.127-0.025-0.272-0.040-0.421-0.040-0.005 0-0.010 0-0.015 0h0.001c-0.001 0-0.001 0-0.002 0-0.039 0-0.072-0.025-0.084-0.061l-0-0.001z"></path>
<path fill="#fff" d="M9.187 17.041c0.054 0.094 0.093 0.205 0.109 0.322l0.001 0.005c0 0.026 0.024 0.061-0.020 0.061-0.035 0-0.096-0.020-0.078-0.061 0.044-0.111-0.015-0.219-0.011-0.327z"></path>
<path fill="#fff" d="M9.165 16.928c-0.075-0.157-0.050-0.306 0-0.451-0.005 0.067-0.008 0.146-0.008 0.226s0.003 0.158 0.009 0.236l-0.001-0.010z"></path>
<path fill="#fff" d="M9.7 15.041c-0.022 0.167-0.022 0.167-0.144 0.209 0.011-0.091 0.066-0.168 0.143-0.208l0.001-0.001z"></path>
<path fill="#fff" d="M7.739 16.634l0.294-0.024c-0.102 0.104-0.196 0.085-0.294 0.024z"></path>
</svg>
