<!-- Generated by IcoMoon.io -->
<svg version="1.1" xmlns="http://www.w3.org/2000/svg" width="18" height="32" viewBox="0 0 18 32">
<title>7</title>
<rect fill="#fff" x="0" y="0" width="18" height="32"></rect>
<path fill="#1d1d1b" d="M10.12 1.833c-0.006 0.009-0.078 0.066-0.115 0.103-0.089 0.088-0.332 0.097-0.368 0.109-0.058 0.022-0.341-0.081-0.368-0.014-0.31 0.534 0.054 0.456-0.207 1.024-0.034 0.203-0.067 0.406-0.1 0.609-0.014 0.084-0.028 0.168-0.043 0.252 0.002 0.004 0.004 0.008 0.005 0.013l0 0c0.057 0.374-0.083 0.771-0.241 1.138-0.080 0.332-0.172 0.66-0.281 0.981-0.124 0.379-0.281 0.707-0.473 1.011l0.011-0.018c-0.211 0.328-0.414 0.682-0.688 0.96-0.059 0.059-0.121 0.114-0.186 0.165l-0.004 0.003c-0.066 0.109-0.135 0.216-0.21 0.319-0.306 0.429-0.683 0.829-0.946 1.293-0.046 0.471-0.144 0.939-0.233 1.41 0.011 0.061 0.024 0.123 0.036 0.189 0.010 0.054 0.020 0.107 0.029 0.161 0.074-0.061 0.175-0.070 0.255-0.117 0.061-0.034 0.098 0.029 0.102 0.084 0.011 0.152 0.053 0.298 0.051 0.455 0 0.306 0.012 0.613 0.161 0.895 0.076-0.037 0.086-0.17 0.191-0.096 0.035 0.025 0.080 0.040 0.127 0.040 0.040 0 0.078-0.011 0.111-0.029l-0.001 0.001c0.038 0.093-0.067 0.16-0.021 0.245 0.069-0.021 0.058-0.104 0.111-0.129 0.052 0.039 0 0.115 0.069 0.164-0.008-0.027-0.013-0.058-0.013-0.091 0-0.108 0.055-0.204 0.138-0.26l0.001-0.001c0.037-0.028 0.055-0.123 0.112-0.074 0.040 0.034 0.106 0.074 0.096 0.156-0.016 0.129 0.013 0.257 0.003 0.388s-0.036 0.202-0.203 0.184c0.154 0.074 0.114 0.143 0.022 0.184-0.295 0.133-0.403 0.391-0.474 0.686-0.036 0.15-0.083 0.292-0.010 0.463 0.014-0.048 0.023-0.078 0.031-0.109 0.075 0.040 0.056 0.128 0.118 0.199-0.012-0.106-0.025-0.189-0.030-0.273-0.013-0.197-0.061-0.401 0.132-0.552 0.061-0.047 0.129-0.084 0.189-0.058 0.070 0.032 0.017 0.113 0.017 0.172 0 0.18-0.094 0.329-0.147 0.49-0.061 0.192 0.101 0.411-0.061 0.613-0.034 0.042 0.11 0.207 0.132 0.34 0.010 0.064 0.149 0.102 0.112 0.195s-0.135 0.093-0.221 0.105c-0.074 0.011-0.147 0.027-0.22 0.044s-0.070 0.020-0.123 0.123c0.112-0.045 0.241-0.071 0.377-0.071 0.015 0 0.031 0 0.046 0.001l-0.002-0c-0.116 0.204-0.287 0.343-0.373 0.552-0.077 0.189-0.196 0.356-0.188 0.574 0 0.005 0 0.010 0 0.015 0 0.051-0.015 0.098-0.041 0.137l0.001-0.001c-0.135 0.195-0.095 0.436-0.199 0.662 0.107-0.026 0.061-0.129 0.137-0.138s0.042 0.091 0.085 0.104c0.051-0.061-0.028-0.127 0.024-0.192 0.085 0.055 0.095 0.123 0.061 0.213-0.054 0.145-0.1 0.286-0.012 0.441 0.039 0.067 0.027 0.184-0.034 0.211-0.145 0.061-0.227 0.18-0.321 0.292-0.015 0.018-0.077 0.027-0.043 0.048 0.094 0.061 0.039 0.165 0.086 0.245 0.061 0.106 0.090 0.245-0.076 0.318-0.041 0.018-0.055 0.053-0.034 0.109 0.089-0.086 0.192-0.054 0.306-0.072-0.021 0.036-0.033 0.079-0.033 0.125 0 0.043 0.011 0.083 0.030 0.118l-0.001-0.001c0.104 0.205-0.111 0.343-0.096 0.527 0 0.009-0.024 0.024-0.040 0.031-0.039 0.019-0.065 0.059-0.065 0.104 0 0.010 0.001 0.020 0.004 0.030l-0-0.001c0.014 0.128-0.061 0.215-0.132 0.295-0.069 0.074-0.125 0.162-0.163 0.259l-0.002 0.006c-0.025 0.091-0.107 0.157-0.205 0.157-0.012 0-0.024-0.001-0.036-0.003l0.001 0c-0.068-0.005-0.147-0.007-0.226-0.007-0.291 0-0.573 0.036-0.843 0.102l0.024-0.005c-0.123 0.030-0.245 0.065-0.371 0.083-0.623 0.089-1.251 0.117-1.877 0.166-0.122 0.011-0.263 0.017-0.406 0.017s-0.284-0.006-0.424-0.019l0.018 0.001c-0.372-0.036-0.744-0.069-1.135-0.105 0.051 0.045 0.116 0.076 0.188 0.084l0.002 0c0.428 0.093 0.924 0.152 1.433 0.163l0.009 0c0.027 0 0.058 0 0.090 0 0.971 0 1.92-0.098 2.836-0.285l-0.091 0.015c0.314-0.061 0.639-0.215 0.958 0 0.009 0.006 0.034-0.004 0.047-0.014 0.093-0.073 0.194-0.009 0.285-0.021 0.113-0.017 0.144 0.118 0.223 0.099 0.184-0.044 0.173 0.084 0.193 0.2 0.061 0.357 0.123 0.712 0.325 1.027 0.102 0.158 0.211 0.324 0.245 0.522 0.004 0.018 0.006 0.038 0.006 0.059 0 0.123-0.083 0.227-0.196 0.257l-0.002 0c-0.113 0.034-0.189 0.126-0.141 0.233 0.021 0.050 0.032 0.107 0.032 0.168 0 0.050-0.008 0.097-0.023 0.142l0.001-0.003c0.064-0.009 0.096-0.098 0.147-0.056s-0.007 0.096-0.028 0.141-0.047 0.081-0.068 0.123c-0.055 0.109-0.164 0.184-0.21 0.323 0.114-0.083 0.206-0.19 0.267-0.316l0.002-0.005c0.061-0.113 0.109-0.245 0.218-0.326 0.037-0.049 0.102-0.083 0.071-0.165s0.080-0.045 0.086-0.1c0.029 0.014 0.049 0.043 0.049 0.076 0 0.014-0.003 0.027-0.009 0.038l0-0c-0.010 0.020-0.020 0.037-0.031 0.054l0.001-0.002c0.208 0.104 0.053 0.208 0 0.311 0.079-0.012 0.149-0.035 0.215-0.066l-0.004 0.002c0.027-0.018-0.061-0.123 0.015-0.151s0.023 0.114 0.105 0.105c0.029-0.003 0.061-0.044 0.090 0 0 0.081-0.123 0.099-0.096 0.194 0.123-0.102 0.178 0.013 0.232 0.077 0.157 0.184-0.15 0.115-0.128 0.231 0.115 0.017 0.118 0.018 0.081 0.123-0.119 0.341-0.24 0.681-0.196 1.055 0.010 0.084-0.015 0.097-0.149 0.155-0.011 0.005-0.018 0.015-0.021 0.027l-0 0c-0.028 0.219-0.364 0.332-0.206 0.617 0.001 0.003 0.001 0.006 0.001 0.010 0 0.009-0.003 0.017-0.008 0.024l0-0c-0.077 0.123-0.061 0.261-0.081 0.396-0.035 0.217-0.1 0.412-0.193 0.591l0.005-0.011c0.112-0.017 0.158 0.021 0.149 0.128-0.001 0.019-0.002 0.041-0.002 0.063 0 0.183 0.040 0.357 0.113 0.513l-0.003-0.008c0.11 0.273 0.198 0.54 0.139 0.854s-0.129 0.598-0.312 0.847c-0.091 0.123-0.203 0.231-0.306 0.346 0.091 0.033 0.095-0.020 0.123-0.043 0.039-0.028 0.073-0.059 0.103-0.093l0.001-0.001c0.429-0.54 0.681-1.121 0.391-1.825-0.088-0.212-0.163-0.429-0.132-0.667 0.031-0.259 0.075-0.488 0.134-0.711l-0.008 0.037c0.032-0.123 0.036-0.245 0.226-0.184-0.154-0.215 0.053-0.273 0.123-0.383s0.146-0.053 0.175 0.031c0.066 0.187 0.129 0.376 0.096 0.585-0.067 0.412-0.14 0.819-0.314 1.205-0.052 0.11-0.082 0.239-0.082 0.376 0 0.101 0.017 0.199 0.047 0.29l-0.002-0.006c0.051 0.157 0.027 0.318 0 0.46-0.053 0.294-0.123 0.587-0.17 0.883-0.015 0.084-0.024 0.18-0.024 0.279 0 0.158 0.023 0.311 0.065 0.456l-0.003-0.011c-0.024-0.205 0.135-0.33 0.196-0.498-0.007 0.040-0.012 0.085-0.012 0.131s0.004 0.092 0.012 0.136l-0.001-0.005c0.014-0.028 0.024-0.066 0.034-0.066 0.080 0 0 0.103 0.072 0.123 0.023-0.212 0.108-0.402 0.236-0.553l-0.001 0.002c0.102-0.134 0.349-0.198 0.453-0.135 0.061 0.039 0.083 0.112 0.129 0.162l0.45 0.729c-0.025-0.248-0.079-0.475-0.159-0.69l0.006 0.019c-0.017-0.045-0.105-0.18 0.072-0.112 0.048 0.018 0.057-0.031 0.045-0.042-0.134-0.134-0.006-0.184 0.081-0.237-0.025-0.058-0.081-0.040-0.115-0.073-0.066-0.064-0.174-0.088-0.164-0.213-0.219-0.010-0.1-0.158-0.097-0.256 0-0.053 0.023-0.105 0.025-0.157 0.005-0.126 0.004-0.245 0.188-0.172 0.050 0.020 0.093-0.049 0.141-0.053 0.088-0.008 0.102-0.217 0.227-0.091s-0.053 0.177-0.068 0.27c0.142 0.027 0.274 0.215 0.264 0.349-0.015 0.203-0.216 0.216-0.318 0.333 0.113-0.021 0.214-0.072 0.323-0.070 0.042 0.001 0.079 0.021 0.103 0.052l0 0c0.031 0.054-0.036 0.037-0.055 0.056s-0.047 0.065-0.022 0.094c0.033 0.040 0.061 0 0.084-0.024s0.046-0.049 0.072-0.021c0.067 0.071 0.107 0.030 0.166-0.018 0.034-0.024 0.077-0.038 0.123-0.038 0.017 0 0.034 0.002 0.049 0.006l-0.001-0c0.033 0.010 0.050 0.085 0.071 0.132 0.030 0.066-0.104 0.017-0.066 0.103 0.052 0.131 0.085 0.283 0.092 0.442l0 0.003c0.014 0.184 0.237 0.407-0.040 0.578-0.028 0.017-0.024 0.087-0.034 0.133-0.004 0.020 0.017 0.035-0.007 0.061-0.052 0.061-0.044 0.082 0.025 0.086 0.014 0.002 0.030 0.003 0.047 0.003 0.116 0 0.22-0.053 0.289-0.136l0.001-0.001c0.108-0.139 0.229-0.259 0.363-0.364l0.005-0.003c0.118-0.085 0.18-0.231 0.321-0.281 0.16-0.056 0.094-0.245 0.196-0.338 0.014-0.018 0.026-0.038 0.036-0.059l0.001-0.002c0.018-0.025 0.048-0.055 0.069-0.024 0.071 0.097 0.101 0.003 0.158-0.018 0.108-0.040 0.068-0.137 0.094-0.202 0.061-0.141 0.189-0.199 0.286-0.297-0.070 0.017-0.123 0.066-0.197 0.057-0.043-0.006-0.102 0.009-0.085-0.072 0.012-0.054 0.004-0.137 0.091-0.111 0.123 0.036 0.262-0.033 0.368 0.086 0.080 0.088 0.224 0.102 0.272 0.232 0.071 0.189 0.118 0.379 0.051 0.582-0.014 0.029-0.023 0.064-0.023 0.101s0.008 0.071 0.023 0.102l-0.001-0.001c0.123-0.289 0.222-0.564 0.134-0.854-0.055-0.184 0.032-0.255 0.144-0.352 0.174-0.14 0.299-0.334 0.353-0.556l0.001-0.007c-0.118 0.149-0.184 0.338-0.334 0.46-0.050 0.040-0.096 0.085-0.148 0.123-0.019 0.018-0.044 0.029-0.073 0.029-0.046 0-0.084-0.029-0.099-0.069l-0-0.001c-0.044-0.074-0.115-0.134-0.16-0.2-0.019-0.032-0.030-0.071-0.030-0.112 0-0.072 0.034-0.136 0.086-0.177l0.001-0c0.156-0.107 0.138-0.286 0.199-0.429 0.018-0.042-0.105-0.123 0-0.158s0.181-0.162 0.312-0.094c0.065 0.034 0.114 0.067 0.199 0.007 0.076-0.055 0.105 0.027 0.11 0.112 0.012 0.179-0.077 0.342-0.068 0.519 0.113-0.134 0.103-0.306 0.119-0.465 0.014-0.137 0.042-0.184 0.184-0.21 0.289-0.056 0.549-0.194 0.686-0.479 0.061-0.123 0.103-0.003 0.167-0.012-0.061-0.255 0.064-0.429 0.221-0.593 0.051-0.054 0.089-0.074 0.155-0.044 0.013 0.006-0.012 0.101 0.037 0.019 0.021-0.035 0.111-0.026 0.072-0.092-0.055-0.093-0.044-0.161 0.051-0.198 0.112-0.044 0.085 0.094 0.142 0.134 0.045-0.058-0.017-0.132 0.043-0.202 0.030 0.107 0 0.212 0.061 0.338-0.004-0.070-0.009-0.099-0.007-0.128 0.005-0.049-0.031-0.126 0.031-0.14s0.087 0.066 0.107 0.118 0.024 0.116 0.091 0.107c0.119-0.016 0.179 0.030 0.195 0.15 0.004 0.024 0.018 0.058 0.061 0.040 0.013-0.143-0.048-0.273-0.075-0.409-0.007-0.031-0.024-0.116 0.023-0.088 0.162 0.094 0.067-0.050 0.074-0.080 0.036-0.159-0.061-0.34 0.068-0.485s0.092-0.355 0.139-0.531c0.041-0.155 0.131-0.133 0.226-0.143 0.015 0 0.030 0.093 0.051 0 0.012-0.049 0.074-0.089 0.037-0.144-0.024-0.036-0.061-0.005-0.094 0.007-0.053 0.019-0.099 0.069-0.17 0.061 0.037-0.082 0.114-0.092 0.178-0.154-0.088-0.026-0.151-0.075-0.137-0.165 0.032-0.197-0.061-0.396 0.012-0.595 0.007-0.019 0.011-0.042 0.011-0.065 0-0.038-0.011-0.074-0.030-0.105l0.001 0.001c-0.075-0.085-0.040-0.165-0.018-0.245 0.028-0.11 0.078-0.215 0.095-0.325 0.023-0.15 0.079-0.123 0.171-0.061 0.184 0.132 0.332 0.3 0.438 0.495l0.004 0.008c0.009-0.022 0.014-0.047 0.014-0.074 0-0.050-0.019-0.096-0.049-0.131l0 0c-0.116-0.123-0.164-0.295-0.284-0.423-0.097-0.111-0.156-0.257-0.156-0.417 0-0.015 0.001-0.029 0.002-0.044l-0 0.002c0.135 0.116 0.127 0.297 0.245 0.425-0.009-0.15-0.075-0.254-0.126-0.368-0.137-0.297-0.224-0.593-0.026-0.904 0.087-0.137 0.151-0.289 0.225-0.434 0.010-0.006 0.021-0.009 0.034-0.009 0.017 0 0.032 0.006 0.044 0.016l-0-0c0.143 0.123 0.034 0.242-0.015 0.346-0.061 0.134-0.013 0.227 0.053 0.33 0.001-0.231 0.058-0.449 0.158-0.642l-0.004 0.008c0.077 0.042-0.019 0.135 0.076 0.178 0.008-0.144 0.184-0.229 0.129-0.409-0.085 0.043-0.037 0.167-0.144 0.173-0.001-0.008-0.001-0.016-0.001-0.025 0-0.073 0.033-0.138 0.084-0.181l0-0c0.092-0.066 0.154-0.167 0.169-0.284l0-0.002c0.074-0.384 0.132-0.759-0.106-1.12-0.105-0.159-0.142-0.368-0.229-0.539-0.207-0.418-0.355-0.852-0.386-1.323-0.015-0.228-0.031-0.457-0.047-0.704-0.075 0.067-0.028 0.142-0.069 0.204-0.080-0.112-0.165-0.207-0.064-0.337-0.127-0.25-0.044-0.561-0.221-0.797-0.021-0.029-0.046-0.123 0.013-0.103 0.134 0.043 0.055-0.044 0.044-0.066-0.134-0.287-0.223-0.62-0.25-0.971l-0.001-0.010c-0.009-0.090 0.020-0.206-0.025-0.266-0.159-0.214-0.096-0.458-0.089-0.681 0.008-0.279-0.044-0.506-0.245-0.693-0.050 0.029 0.013 0.101-0.069 0.123-0.013-0.066-0.048-0.126-0.012-0.199 0.013-0.026 0.020-0.057 0.020-0.089 0-0.023-0.004-0.046-0.011-0.066l0 0.001c-0.073-0.249-0.233-0.452-0.444-0.579l-0.005-0.002c-0.177-0.112-0.408-0.138-0.522-0.352-0.006-0.012-0.044-0.018-0.061-0.012-0.072 0.024-0.077-0.031-0.108-0.074-0.047-0.065-0.035-0.168-0.085-0.204-0.129-0.095-0.123-0.088-0.147-0.184-0.097-0.392-0.11-0.819-0.429-1.123-0.012-0.012-0.023-0.026-0.032-0.041l-0.001-0.001c-0.173-0.3-0.191-0.642-0.181-0.967 0.006-0.245 0.028-0.48 0.065-0.71l-0.004 0.030c0.072-0.438-0.108-0.766-0.437-1.027-0.111-0.086-0.199-0.196-0.255-0.323l-0.002-0.005c-0.117-0.269-0.185-0.582-0.185-0.911 0-0.030 0.001-0.059 0.002-0.088l-0 0.004c0.017-0.479-0.037-0.93-0.346-1.319-0.061-0.078-0.061-0.184-0.145-0.271-0.181-0.184-0.345-0.389-0.424-0.65s-0.169-0.525-0.252-0.788c-0.123-0.39-0.254-0.776-0.26-1.196 0.001-0.015 0.002-0.033 0.002-0.050 0-0.093-0.016-0.182-0.045-0.265l0.002 0.006c-0.085-0.205-0.203-0.392-0.289-0.594-0.114-0.268 0.044-0.475-0.118-0.71-0.035-0.073-0.080-0.137-0.132-0.192l0 0c0.030 0.157-0.051 0.422-0.017 0.616M6.43 17.915c0.105 0.147 0.172 0.3 0.082 0.509-0.031-0.201-0.056-0.36-0.082-0.52zM6.537 19.21c-0.051 0.040-0.083 0.102-0.083 0.171 0 0.016 0.002 0.031 0.005 0.046l-0-0.001c-0.132-0.116-0.008-0.202 0.025-0.297 0.007-0.021 0.040-0.015 0.058 0.004 0.006 0.008 0.010 0.019 0.010 0.030 0 0.014-0.005 0.026-0.014 0.035l0-0zM6.98 22.151c-0.038-0.099-0.060-0.214-0.060-0.334 0-0.113 0.020-0.222 0.056-0.323l-0.002 0.007c0.093 0.225 0.042 0.431 0.006 0.64zM7.28 22.77c0.057-0.119-0.284-0.204-0.012-0.362 0.007 0.077-0.061 0.137 0.013 0.192 0.063 0.036 0.037 0.099-0.001 0.159zM7.901 25.209c-0.033 0.071-0.068 0.131-0.108 0.188l0.003-0.004c-0.039 0.055 0.026 0.134-0.048 0.175-0.154-0.196-0.117-0.606 0.085-0.875 0.053 0.116 0.088 0.222-0.070 0.302 0.185-0.010 0.215 0.042 0.138 0.203zM7.93 29.795c-0.045-0.044 0.043-0.091-0.019-0.133-0.136 0.309-0.332 0.585-0.49 0.907-0.047-0.327 0.054-0.605 0.119-0.889 0.030-0.131 0.088-0.255 0.084-0.394 0.004-0.036 0.021-0.067 0.046-0.090l0-0c0.006-0.006 0.069 0.023 0.068 0.033-0.012 0.184 0.179 0.226 0.237 0.363 0.036 0.081 0.038 0.139-0.045 0.192zM8.162 26.954c0-0.11-0.018-0.202 0.061-0.276-0.004 0.077 0.077 0.185-0.061 0.266zM9.771 29.391c-0.048-0.106-0.086-0.189-0.127-0.281 0.216 0.054 0.216 0.056 0.127 0.27zM10.039 28.721c-0.013 0.093-0.020 0.184-0.029 0.28 0 0.033 0.007 0.078-0.045 0.076-0.029-0-0.056-0.012-0.076-0.030l0 0c-0.105-0.123-0.101-0.39 0.020-0.539-0.015 0.108-0.028 0.197-0.041 0.295 0.14-0.061 0.058-0.205 0.129-0.285 0.086 0.045 0.055 0.12 0.042 0.193zM10.337 30.992c-0.047 0.017-0.058-0.025-0.061-0.061-0.009-0.057-0.042-0.123 0.006-0.169s0.058 0.033 0.090 0.048c-0.092 0.031-0.009 0.061 0 0.093 0.003 0.007 0.004 0.014 0.004 0.022 0 0.026-0.016 0.048-0.038 0.057l-0 0zM10.698 30.369c0.046 0.268-0.142 0.355-0.327 0.443v0c-0.061-0.299-0.123-0.6-0.189-0.948 0.16 0.156 0.223 0.344 0.406 0.398 0.024-0.040 0-0.061-0.023-0.078-0.117-0.098-0.18-0.199-0.034-0.327 0.040-0.026 0.066-0.070 0.066-0.121 0-0.017-0.003-0.033-0.008-0.048l0 0.001c-0.030-0.086-0.009-0.199 0.078-0.188s0.208 0.091 0.2 0.198c-0.017 0.215 0.003 0.447-0.164 0.624-0.004 0.008-0.006 0.017-0.006 0.026 0 0.003 0 0.005 0.001 0.008l-0-0zM11.005 30.29c-0.002 0.030-0.027 0.054-0.057 0.054-0.007 0-0.013-0.001-0.019-0.003l0 0c-0.025-0.008-0.067-0.017-0.061-0.051 0.046-0.207 0.097-0.414 0.154-0.646 0.184 0.242 0.001 0.433-0.020 0.636zM12.803 9.493c-0.053-0.235-0.088-0.509-0.097-0.789l-0-0.007c0.188 0.118 0.24 0.539 0.095 0.786zM13.023 9.767c-0.012-0.245 0.061-0.49 0.018-0.735 0.064 0.237 0.037 0.482-0.021 0.725zM13.395 27.177c-0.062 0.183-0.135 0.341-0.223 0.489l0.007-0.012c-0.021-0.233 0.046-0.37 0.214-0.488zM13.982 27.448c-0.037 0.196-0.147 0.362-0.3 0.47l-0.002 0.002c-0.089 0.057-0.192 0.107-0.301 0.144l-0.010 0.003c-0.066 0.023-0.133 0.069-0.192 0.024-0.070-0.053-0.031-0.142-0.028-0.216 0-0.044 0.021-0.082 0.053-0.107l0-0c0.254-0.178 0.313-0.477 0.443-0.735 0.061-0.123 0.055-0.254 0.104-0.413 0.184 0.272 0.078 0.552 0.153 0.811 0.011-0.017 0.026-0.061 0.042-0.061 0.047-0.011 0.042 0.040 0.035 0.069zM14.47 26.555c-0.033 0.069-0.083 0.072-0.132 0.011 0.048 0.184 0.148 0.379-0.077 0.526-0.034 0.023-0.061 0.056-0.104 0.042s-0.030-0.055-0.039-0.087c-0.035-0.143-0.103-0.275-0.087-0.435 0.007-0.079 0.095-0.129 0.057-0.214-0.13 0.012-0.089-0.113-0.123-0.173-0.024-0.049-0.007-0.119-0.010-0.224 0.078 0.146 0.184 0.233 0.129 0.381 0.105 0.023 0.175 0.1 0.245 0.175-0.026-0.064-0.055-0.127-0.076-0.192s0.011-0.086 0.070-0.080c-0.070-0.098-0.156-0.184-0.189-0.306-0.011-0.034-0.017-0.072-0.017-0.113 0-0.112 0.048-0.212 0.125-0.282l0-0c0.090 0.225 0.253 0.429 0.098 0.68 0.061-0.069 0.131-0.108 0.218-0.061 0.035 0.053-0.129 0.097 0.015 0.169 0.062 0.017-0.071 0.105-0.105 0.174zM14.631 13.202c0.257 0.099 0.271 0.321 0.333 0.511-0.137-0.148-0.25-0.321-0.331-0.51l-0.005-0.012zM15.328 14.572c-0.069-0.159-0.123-0.278-0.171-0.401-0.014-0.037-0.090-0.093 0-0.123 0.012-0.005 0.025-0.008 0.040-0.008 0.053 0 0.097 0.042 0.1 0.095v0c0.015 0.12 0.063 0.248 0.029 0.427zM15.823 23.52c-0.011 0.005-0.024 0.007-0.037 0.007-0.029 0-0.055-0.013-0.073-0.033l-0-0c-0.066-0.075-0.123-0.484-0.075-0.596 0.154 0.146 0.144 0.357 0.214 0.533 0.009 0.016 0.015 0.061-0.032 0.075zM15.896 21.787c-0.010-0.056-0.016-0.121-0.016-0.187 0-0.154 0.031-0.3 0.087-0.433l-0.003 0.007c0.040 0.181 0.101 0.381-0.071 0.599zM16.386 19.778c0.037-0.029 0.069 0 0.082 0.032 0.067 0.146 0.129 0.294 0.194 0.441l-0.040 0.016c-0.079-0.135-0.184-0.255-0.23-0.411-0.013-0.040-0.039-0.069-0.010-0.092zM16.4 21.542c-0.066 0.033-0.094 0.147-0.138 0.226-0.112 0.029-0.171 0-0.127-0.13 0.135-0.4 0.114-0.83 0.222-1.236 0.024-0.091 0.048-0.097 0.11-0.041 0.148 0.135 0.245 0.31 0.232 0.508-0.006 0.085 0.055 0.146 0.024 0.235-0.070 0.169-0.139 0.331-0.327 0.425zM16.495 21.792c-0.126-0.251 0.099-0.275 0.164-0.386-0.071 0.093-0.102 0.217-0.169 0.372z"></path>
<path fill="#fff" d="M11.837 23.751c-0.046-0.165-0.099-0.306-0.163-0.441l0.007 0.017c-0.014-0.029-0.027-0.064-0.039-0.101l-0.002-0.006c-0.026-0.061-0.049-0.133-0.064-0.208l-0.001-0.007c-0.014-0.079-0.033-0.148-0.057-0.214l0.003 0.009c-0.040-0.123-0.072-0.245-0.127-0.378-0.018-0.042-0.061-0.088-0.052-0.126-0.027-0.014 0.004 0.029-0.020 0.017-0.004-0.007-0.006-0.014-0.006-0.023s0.002-0.016 0.006-0.023l-0 0c0.006-0.026 0.013-0.053-0.039-0.091-0.023-0.017-0.028-0.034-0.016-0.043s0.016-0.014 0.005-0.030c-0.018-0.027-0.018 0.006-0.039-0.012 0.001-0.009 0.002-0.019 0.002-0.029 0-0.049-0.015-0.094-0.042-0.131l0 0.001c-0.006-0.011-0.008-0.024-0.020-0.032-0.027-0.014-0.046-0.042-0.046-0.074 0-0.002 0-0.003 0-0.005v0c-0.025-0.019-0.017 0.012-0.033 0.003-0.031-0.061-0.037-0.064-0.067-0.045-0.011 0.006-0.024 0.012-0.038 0.016l-0.002 0.001c-0.001-0.005-0.002-0.010-0.002-0.015 0-0.012 0.004-0.022 0.010-0.031l-0 0c0.005-0.011 0.026-0.005 0-0.041s-0.040-0.042-0.058-0.040c-0.008 0.001-0.018 0.001-0.028 0.001-0.058 0-0.113-0.011-0.163-0.031l0.003 0.001c-0.024-0.007-0.051-0.009-0.053 0.020 0 0.010-0.006 0.010-0.014 0.006-0.072-0.037-0.161-0.076-0.253-0.111l-0.018-0.006c-0.008-0.005-0.014-0.011-0.018-0.019l-0-0 0.177 0.050c0.084 0.029 0.181 0.047 0.282 0.050l0.001 0c0.035 0 0.082 0.023 0.116 0.018 0.017 0 0.061 0.009 0-0.043-0.009-0.007-0.013-0.012 0-0.010 0.025 0.004 0-0.017-0.006-0.028-0.036-0.058-0.090-0.107-0.123-0.168-0.011-0.021-0.037-0.032-0.041-0.029-0.020 0.017-0.067-0.016-0.082 0.008-0.005 0.007-0.013 0.012-0.027-0.004s0.012-0.011 0-0.027c-0.053-0.034-0.069 0.004-0.107 0-0.094-0.014-0.184-0.013-0.279-0.031-0.080-0.015-0.245-0.196-0.327-0.223 0.024-0.028 0.184 0.143 0.221 0.145 0.091 0 0.17 0.042 0.269 0.061 0.061 0.010 0.061-0.038 0.078-0.075 0-0.007 0-0.018 0.003-0.025 0.021-0.067-0.026-0.15-0.116-0.202-0.011-0.008-0.024-0.016-0.038-0.022l-0.002-0.001c-0.032-0.013-0.055-0.041-0.061-0.075l-0-0.001c-0.003-0.021-0.015-0.038-0.032-0.048l-0-0c-0.038-0.026 0 0.014-0.006 0.019s-0.012 0-0.020-0.008c-0.008-0.015-0.020-0.028-0.033-0.037l-0-0c0.004 0.021 0.028 0.034 0.037 0.055-0.012 0-0.023-0.017-0.029-0.024-0.050-0.067-0.126-0.113-0.213-0.122l-0.001-0c-0.003 0-0.006 0-0.007 0-0.076-0.094-0.139-0.076-0.21-0.117s-0.145-0.066-0.217-0.102c-0.116-0.058-0.23-0.1-0.346-0.157-0.045-0.026-0.101-0.054-0.158-0.079l-0.012-0.005c0.012-0.013 0.035 0 0.055 0.008q0.245 0.112 0.495 0.227c0.253 0.118 0.505 0.227 0.761 0.359 0.103 0.053 0.137 0.036 0.153-0.040 0.013-0.099 0.033-0.188 0.059-0.273l-0.003 0.012c0.008-0.027 0.021-0.051 0.039-0.071l-0 0c0.017-0.012 0.027-0.031 0.027-0.053 0-0.012-0.003-0.022-0.008-0.032l0 0c0.027 0.047 0.058 0.094 0.080 0.14 0.068 0.139 0.139 0.257 0.219 0.368l-0.005-0.008c0.026 0.038 0.056 0.099 0.097 0.072 0.010-0.007 0.048 0.024 0.072 0.046 0.023 0.019 0.049 0.036 0.076 0.051l0.002 0.001c0.043 0.028 0.025-0.005 0.015-0.027s-0.089-0.091-0.1-0.079-0.054-0.021-0.078-0.021c0.028-0.006 0.026-0.037 0.026-0.067 0-0.046 0.041-0.043 0.078-0.037s0.056-0.006 0.031-0.066c-0.012-0.045-0.032-0.085-0.059-0.119l0 0.001c-0.011-0.010-0.019-0.025-0.019-0.042 0-0.007 0.001-0.013 0.003-0.020l-0 0c0.002-0.008 0.002-0.018 0.002-0.027 0-0.026-0.006-0.051-0.017-0.072l0 0.001c-0.054-0.163-0.107-0.325-0.16-0.49 0-0.009-0.008-0.020 0-0.021v0c0.032 0.071 0.064 0.16 0.091 0.25l0.004 0.016c0.008 0.042 0.037 0.076 0.075 0.092l0.001 0c0.011 0.007 0.020 0.014 0.029 0.022l-0-0c0 0.012-0.012 0.003-0.018 0-0.052-0.022-0.061-0.015-0.017 0.040 0.061 0.080 0.090 0.161 0.14 0.241 0.015 0.024 0.021 0.039 0.047 0.044s0.040 0.046 0.058 0.072c0.044-0.006 0.026-0.047-0.010-0.1s-0.061-0.116-0.097-0.174c-0.014-0.031-0.032-0.058-0.055-0.082l0 0c-0.008-0.007-0.021-0.021-0.010-0.026s0.016 0 0.026 0.014c0.014 0.018 0.025 0.038 0.033 0.060l0.001 0.002c0.042 0.088 0.077 0.129 0.128 0.149 0.042 0.016 0.053-0.014 0.077-0.036 0.005 0.029 0.004 0.045-0.010 0.050s-0.017 0-0.009 0.018c0.005 0.010 0.016 0.017 0.027 0.018h0c0.028 0 0.081 0.043 0.072-0.023 0-0.017 0.024-0.055 0.074-0.021 0.024 0.017 0.026 0 0.034-0.006s0.008-0.028 0.029-0.028c-0.036 0.101-0.071 0.184-0.111 0.264l0.006-0.014c-0.015 0.029-0.028 0.061-0.041 0.090-0.002 0.004-0.003 0.010-0.003 0.015 0 0.011 0.005 0.022 0.012 0.029v0c0.014 0.019 0.023 0.010 0.033 0.011 0.035 0.001 0.068 0.005 0.101 0.010l-0.004-0.001c0.035 0.004 0.076 0.006 0.118 0.006 0.020 0 0.039-0 0.058-0.002l-0.003 0c0.071 0.002 0.139 0.014 0.204 0.033l-0.006-0.001c0.015 0.005 0.033 0.007 0.051 0.007 0.034 0 0.066-0.009 0.094-0.026l-0.001 0c0.057-0.026 0.105-0.056 0.15-0.091l-0.002 0.001c-0.051 0.050-0.109 0.092-0.174 0.125l-0.004 0.002c-0.035 0.024-0.076 0.042-0.12 0.052l-0.002 0c-0.011 0.004-0.024 0.007-0.037 0.007s-0.026-0.003-0.037-0.007l0.001 0c-0.039-0.016-0.061 0.015-0.089 0.020-0.045 0.012-0.082 0.024-0.118 0.038l0.007-0.003c-0.068 0.012-0.127 0.040-0.176 0.081l0.001-0c-0.006 0.006-0.026 0.003-0.006 0.030 0.011 0.015 0.026 0.033 0.037 0.021s0.013 0 0.020 0.012c0.006 0.010 0.010 0.021 0.013 0.032l0 0.001c0 0.013-0.008 0.009-0.020 0s-0.023-0.010-0.028-0.004 0 0.014 0.006 0.020c0.007 0.010 0.019 0.016 0.032 0.016 0 0 0 0 0 0h-0c0.023 0 0.047 0.003 0.061 0.053-0.015-0.004-0.031-0.044-0.040-0.028s0.014 0.026 0.026 0.038c0.029 0.029 0.064 0.052 0.103 0.067l0.002 0.001c0.075 0.024 0.14 0.052 0.201 0.085l-0.007-0.003c0 0.026-0.028 0.014-0.046 0.011-0.046-0.007-0.080 0-0.077 0.052 0 0.004-0.005 0.005-0.008 0.006-0.048 0.009 0 0.041 0.029 0.073-0.012 0.009-0.040 0.003-0.023 0.040 0 0.003 0 0.005 0 0.008 0 0.026-0.061-0.078-0.047-0.006 0.004 0.020 0 0.018-0.061-0.021 0.022 0.042 0.051 0.077 0.085 0.106l0.001 0c0.086 0.085 0.166 0.174 0.241 0.269l0.005 0.006c0.019 0.030 0.045 0.055 0.076 0.072l0.001 0.001c0.040 0.018 0.020 0.055 0.047 0.081-0.088-0.078-0.165-0.165-0.231-0.259l-0.003-0.005c-0.023-0.031-0.047-0.066-0.075-0.050-0.015 0.008-0.024-0.020-0.031-0.037-0.039-0.066-0.094-0.118-0.16-0.152l-0.002-0.001c-0.012 0 0 0.018 0 0.029 0.035 0.134 0.081 0.25 0.138 0.359l-0.004-0.009c0.15 0.321 0.278 0.637 0.411 0.955 0.043 0.104 0.080 0.207 0.131 0.311-0.049-0.044-0.089-0.095-0.121-0.151l-0.002-0.003c-0.011-0.013-0.017-0.030-0.017-0.048 0-0.003 0-0.006 0-0.009l-0 0c0.001-0.010 0.002-0.021 0.002-0.032 0-0.054-0.015-0.105-0.041-0.148l0.001 0.001c-0.073-0.144-0.111-0.282-0.18-0.424-0.061-0.128-0.107-0.256-0.184-0.382-0.049-0.083-0.074-0.159-0.112-0.238-0.003-0.008-0.007-0.015-0.012-0.022l0 0c-0.029-0.012-0.049-0.041-0.049-0.074 0-0.006 0.001-0.012 0.002-0.018l-0 0.001c-0.041 0.023-0.039 0.077-0.070 0.094-0.011 0.006 0 0.037 0.009 0.042 0.034 0.024 0.031 0.048 0.043 0.074s0.016 0.031-0.005 0.025c-0.009 0-0.006 0.013 0 0.018 0.029 0.036 0.015 0.056 0.025 0.084 0.006 0.025 0.021 0.047 0.040 0.061l0 0c0.006 0.004 0.035 0.037 0.009 0.036s-0.010 0.015-0.003 0.033 0.016 0.048 0.028 0.072c0.029 0.052 0.050 0.113 0.061 0.177l0 0.003c0.004 0.030 0.017 0.056 0.035 0.077l-0-0c0.006 0.006 0.014 0.014 0.010 0.020-0.024 0.040 0.008 0.123 0.040 0.168 0.029 0.044 0.047 0.097 0.048 0.155v0c0.085 0.355 0.146 0.698 0.196 1.036 0.003 0.018 0.012 0.040 0 0.049l-0.034-0.042c0.018-0.031-0.009-0.086-0.018-0.133-0.036-0.18-0.028-0.339-0.105-0.539-0.001-0.002-0.001-0.005-0.001-0.008s0-0.005 0.001-0.008l-0 0c0.016-0.050-0.018-0.123-0.043-0.192-0.006-0.015-0.020-0.038-0.013-0.042 0.028-0.013-0.015-0.071 0-0.093 0-0.004-0.007-0.022-0.015-0.026-0.058-0.028-0.036-0.041-0.026-0.058 0.004-0.007 0.010-0.018 0.005-0.028-0.025-0.063-0.046-0.138-0.060-0.215l-0.001-0.008c-0.041-0.128-0.116-0.264-0.143-0.389-0.004-0.032-0.019-0.060-0.040-0.082l0 0c-0.027-0.021-0.046-0.050-0.054-0.083l-0-0.001c0-0.001 0-0.003 0-0.004 0-0.031-0.026-0.057-0.057-0.057-0 0-0.001 0-0.001 0h0c-0.032 0.008-0.065-0.032-0.097-0.057-0.015-0.010-0.036-0.048-0.043-0.022-0.004 0.017-0.023 0.026 0.014 0.067 0.026 0.029 0.021 0.085-0.009 0.073-0.067-0.027-0.039 0.024-0.021 0.070 0.012 0.030 0.022 0.061 0.034 0.090 0.003 0.012 0.009 0.023 0.017 0.031l-0-0c0.032 0.031 0.057 0.081 0.051 0.094-0.013 0.027 0.004 0.064 0.015 0.1 0.034 0.106 0.066 0.212 0.11 0.321 0.034 0.083 0.032 0.162 0.106 0.253 0.009 0.012 0.010 0.031 0.003 0.032-0.023 0-0.010 0.028-0.004 0.047 0.028 0.092 0.057 0.184 0.089 0.278 0.040 0.117 0.083 0.235 0.123 0.354zM11.297 22.104c0.009-0.053 0.018-0.093 0.024-0.135 0.009-0.061 0.037-0.061 0.109-0.007 0.048 0.038 0.096 0.077 0.151 0.123l-0.061-0.19c-0.041-0.123-0.007-0.184 0.066-0.207 0.015-0.005 0.034-0.009 0.030-0.030-0.009-0.050 0.020-0.050 0.050-0.053 0.028-0.001 0.054-0.006 0.079-0.013l-0.002 0.001c0.040-0.008 0.074-0.028 0.099-0.056l0-0c-0.086-0.034-0.168-0.061-0.25-0.088-0.029-0.009-0.052-0.027-0.068-0.050l-0-0c-0.067-0.088-0.094-0.177-0.038-0.196 0.022-0.008 0.017-0.023-0.017-0.053-0.061-0.061-0.072-0.079-0.072-0.143 0-0.009 0.006-0.018-0.008-0.028-0.032-0.025-0.069-0.068-0.094-0.056s-0.045-0.016-0.061-0.047-0.023-0.048-0.034-0.072c0.017 0.077 0.040 0.156 0.061 0.233 0.026 0.099 0.017 0.104-0.071 0.055l-0.020-0.010c-0.061-0.029-0.072-0.024-0.067 0.038 0.006 0.078-0.053 0.105-0.132 0.055s-0.162-0.094-0.245-0.137c-0.057-0.030-0.058-0.025-0.036 0.042s0.069 0.13 0.093 0.192c0.014 0.045 0.044 0.081 0.085 0.1l0.001 0c0.059 0.030 0.107 0.075 0.139 0.13l0.001 0.002c0.043 0.072 0.139 0.143 0.118 0.219 0 0 0.003 0.007 0.004 0.011 0.043 0.116 0.102 0.236 0.166 0.373zM10.753 20.688c0.051-0.005 0.015-0.061-0.008-0.102-0.041-0.077-0.061-0.088-0.086-0.048-0.004 0.008-0.008 0.015-0.014 0.021l0-0c-0.067 0.061-0.070 0.184-0.081 0.292-0 0.001-0 0.002-0 0.003 0 0.019 0.009 0.036 0.022 0.047l0 0c0.058 0.024 0.108 0.052 0.155 0.083l-0.003-0.002c0.010 0.006 0.021 0.003 0.034 0.018 0.061 0.067 0.097 0.048 0.142 0.061 0.007 0 0.005-0.007 0-0.015s-0.016-0.024-0.021-0.021c-0.031 0.013-0.058-0.045-0.088-0.058 0.007-0.029 0.031-0.021 0.061-0.006 0.012 0.006 0.017 0.004 0.018-0.006s-0.009-0.016-0.017-0.019-0.026-0.008-0.026-0.024 0.016-0.007 0.030 0.003 0.031 0.034 0.047 0.034c-0.021-0.060-0.050-0.111-0.087-0.157l0.001 0.001c-0.003-0.004-0.005-0.010-0.005-0.015v-0c0-0 0-0.001 0-0.001 0-0.044-0.032-0.081-0.075-0.088l-0.001-0zM11.3 20.599c0.029 0.047 0.051 0.089 0.079 0.129 0.066 0.096 0.096 0.105 0.115 0.042 0.007-0.024 0-0.042-0.035-0.068-0.046-0.040-0.098-0.075-0.155-0.102l-0.004-0.002zM11.609 21.076c0-0.012 0.015-0.015 0.009-0.034-0.003-0.009-0.011-0.016-0.020-0.018l-0-0c-0.024-0.009-0.053-0.015-0.082-0.015-0.006 0-0.012 0-0.017 0.001l0.001-0c-0.026 0.007 0.015 0.051 0.018 0.075 0 0.002 0 0.005 0 0.007s-0 0.005-0 0.008l0-0c-0.006 0.018 0.015 0.039 0.028 0.048s0.029 0.007 0.028-0.011c-0.001-0.036 0.004-0.063 0.036-0.061zM11.261 20.807c-0.018-0.028-0.036-0.048-0.031-0.056 0.021-0.028-0.015-0.074-0.035-0.111-0.025-0.048-0.061-0.094-0.092-0.143 0.034 0.099 0.043 0.195 0.158 0.31zM10.557 21.289c0.027 0.007 0.058 0.012 0.090 0.012 0.001 0 0.002 0 0.003 0h-0c0.024 0 0.017-0.018 0.003-0.038-0.018-0.025-0.035-0.047-0.054-0.068l0 0c-0.018-0.020-0.028-0.020-0.030 0-0.003 0.029-0.007 0.060-0.012 0.094zM11.712 21.036c0.049 0.027 0.096 0.056 0.133 0.044 0.024-0.008 0.027-0.046 0.067-0.031 0 0 0.004-0.007 0-0.011-0.003-0.010-0.012-0.017-0.023-0.017v0c-0.056 0.009-0.118 0.010-0.177 0.015zM10.364 20.883c0.033 0.041 0.069 0.077 0.109 0.108l0.001 0.001c0.039 0.029 0.046 0.021 0.028-0.024-0.008-0.020-0.022-0.036-0.039-0.048l-0-0c-0.028-0.021-0.062-0.034-0.1-0.037l-0.001-0zM10.643 21.149c0.012 0.020 0.021 0.042 0.026 0.067l0 0.001c0.009 0.027 0.021 0.051 0.037 0.072l-0.001-0.001c0.004 0.009 0.014 0.016 0.025 0.016 0.001 0 0.001-0 0.002-0h-0c0.009 0 0.006-0.009 0-0.019-0.023-0.052-0.053-0.097-0.090-0.136l0 0zM11.085 20.916c0.020 0.017 0.042 0.030 0.067 0.040l0.002 0.001c0.015 0.009 0.026 0.007 0.018-0.013s-0.025-0.032-0.033-0.028-0.039-0.009-0.055 0z"></path>
<path fill="#fff" d="M10.064 21.272c-0.053 0.019-0.123 0.010-0.174 0.033l-0.009-0.010c0.031-0.023 0.070-0.036 0.112-0.036 0.025 0 0.050 0.005 0.072 0.014l-0.001-0z"></path>
<path fill="#fff" d="M12.336 21.717l0.354 0.15 0.004 0.015c-0.139-0.047-0.257-0.098-0.369-0.157l0.014 0.007z"></path>
<path fill="#fff" d="M10.518 19.83c0.048 0.035 0.096 0.061 0.113 0.131 0.013 0.055 0.039 0.116 0.061 0.191-0.070-0.118-0.067-0.223-0.174-0.322z"></path>
<path fill="#fff" d="M10.918 19.987c-0.031-0.055-0.057-0.119-0.075-0.185l-0.001-0.006c-0.006-0.032-0.021-0.059-0.042-0.080l0 0c-0.013-0.012-0.020-0.032-0.014-0.040s0-0.039 0-0.061c0.043 0.097 0.088 0.22 0.127 0.346l0.006 0.024z"></path>
<path fill="#fff" d="M11.945 21.562c0.1 0.031 0.184 0.065 0.264 0.104l-0.011-0.005c-0.017 0.024-0.051 0-0.072-0.013-0.041-0.021-0.090-0.040-0.14-0.055l-0.006-0.002c-0.015-0.006-0.027-0.017-0.034-0.031l-0-0z"></path>
<path fill="#fff" d="M10.238 19.696c0.025 0.038 0.048 0.082 0.066 0.128l0.002 0.005c0.003 0.010 0.014 0.026 0 0.021s-0.034-0.017-0.032-0.031c0.003-0.036-0.026-0.083-0.036-0.122z"></path>
<path fill="#fff" d="M10.22 19.651c-0.028-0.044-0.045-0.097-0.045-0.154 0-0.005 0-0.010 0-0.015l-0 0.001c0.014 0.068 0.030 0.124 0.048 0.18l-0.003-0.011z"></path>
<path fill="#fff" d="M10.213 18.999c0.009 0.061 0.009 0.061-0.027 0.061-0.004-0.029 0.002-0.048 0.027-0.061z"></path>
<path fill="#fff" d="M9.724 19.404l0.094 0.019c-0.023 0.029-0.056 0.013-0.094-0.019z"></path>
</svg>
