<!-- Generated by IcoMoon.io -->
<svg version="1.1" xmlns="http://www.w3.org/2000/svg" width="18" height="32" viewBox="0 0 18 32">
<title>8</title>
<rect fill="#fff" x="0" y="0" width="18" height="32"></rect>
<path fill="#1d1d1b" d="M10.179 1.695c-0.006 0.009-0.077 0.066-0.115 0.103-0.090 0.088-0.332 0.096-0.368 0.109-0.058 0.022-0.34-0.081-0.368-0.014-0.306 0.534 0.055 0.456-0.207 1.024-0.034 0.202-0.067 0.406-0.101 0.609-0.013 0.084-0.028 0.168-0.042 0.251 0.002 0.004 0.003 0.009 0.005 0.013l0 0.001c0.057 0.374-0.083 0.771-0.241 1.138-0.081 0.332-0.173 0.66-0.282 0.981-0.124 0.379-0.28 0.708-0.473 1.012l0.011-0.018c-0.211 0.327-0.414 0.681-0.688 0.96-0.059 0.059-0.121 0.114-0.186 0.165l-0.004 0.003c-0.066 0.109-0.135 0.216-0.21 0.319-0.306 0.429-0.683 0.829-0.946 1.293-0.046 0.471-0.144 0.938-0.233 1.41 0.011 0.061 0.023 0.123 0.036 0.189 0.010 0.054 0.020 0.107 0.028 0.161 0.074-0.061 0.175-0.070 0.256-0.117 0.061-0.034 0.098 0.029 0.102 0.084 0.011 0.152 0.053 0.298 0.051 0.455 0 0.306 0.012 0.613 0.161 0.895 0.076-0.037 0.086-0.17 0.191-0.096 0.036 0.025 0.080 0.040 0.127 0.040 0.040 0 0.078-0.011 0.111-0.029l-0.001 0.001c0.038 0.093-0.068 0.16-0.021 0.245 0.069-0.021 0.058-0.104 0.111-0.129 0.052 0.039 0 0.115 0.069 0.164-0.009-0.027-0.014-0.059-0.014-0.091 0-0.108 0.055-0.204 0.139-0.259l0.001-0.001c0.037-0.028 0.055-0.123 0.111-0.074 0.040 0.034 0.107 0.075 0.097 0.156-0.016 0.129 0.013 0.257 0 0.388s-0.036 0.202-0.203 0.184c0.154 0.074 0.113 0.143 0.022 0.184-0.295 0.132-0.403 0.391-0.474 0.686-0.036 0.15-0.083 0.292-0.010 0.463 0.014-0.048 0.023-0.078 0.031-0.109 0.075 0.040 0.056 0.128 0.117 0.199-0.012-0.106-0.024-0.189-0.030-0.273-0.012-0.197-0.061-0.401 0.132-0.552 0.061-0.046 0.129-0.083 0.189-0.057 0.070 0.031 0.016 0.112 0.016 0.172 0 0.18-0.093 0.329-0.146 0.49-0.061 0.191 0.101 0.411-0.065 0.613-0.034 0.042 0.11 0.207 0.132 0.339 0.011 0.065 0.15 0.102 0.113 0.195s-0.135 0.093-0.221 0.105c-0.074 0.011-0.147 0.027-0.22 0.044s-0.070 0.020-0.123 0.123c0.112-0.046 0.242-0.072 0.378-0.072 0.015 0 0.030 0 0.044 0.001l-0.002-0c-0.116 0.205-0.287 0.343-0.373 0.555-0.076 0.189-0.195 0.356-0.188 0.574 0 0.005 0.001 0.011 0.001 0.017 0 0.050-0.015 0.096-0.040 0.135l0.001-0.001c-0.136 0.195-0.096 0.436-0.199 0.662 0.108-0.026 0.065-0.129 0.137-0.138s0.042 0.091 0.085 0.104c0.051-0.061-0.028-0.127 0.024-0.193 0.085 0.055 0.095 0.123 0.061 0.214-0.053 0.144-0.099 0.286-0.011 0.441 0.039 0.067 0.026 0.184-0.034 0.211-0.145 0.061-0.227 0.18-0.321 0.291-0.015 0.018-0.077 0.027-0.044 0.049 0.094 0.061 0.039 0.165 0.086 0.245 0.061 0.106 0.090 0.245-0.076 0.318-0.041 0.018-0.055 0.053-0.034 0.109 0.089-0.086 0.192-0.054 0.306-0.072-0.022 0.036-0.034 0.080-0.034 0.126 0 0.044 0.011 0.084 0.031 0.12l-0.001-0.001c0.104 0.205-0.112 0.343-0.096 0.526 0 0.009-0.024 0.024-0.039 0.031-0.039 0.019-0.065 0.059-0.065 0.104 0 0.010 0.001 0.020 0.004 0.030l-0-0.001c0.015 0.129-0.061 0.216-0.132 0.295-0.069 0.074-0.126 0.162-0.164 0.259l-0.002 0.006c-0.025 0.091-0.107 0.157-0.204 0.157-0.012 0-0.024-0.001-0.035-0.003l0.001 0c-0.068-0.005-0.147-0.007-0.227-0.007-0.291 0-0.573 0.036-0.843 0.102l0.024-0.005c-0.123 0.030-0.245 0.065-0.371 0.083-0.623 0.089-1.251 0.117-1.877 0.166-0.122 0.011-0.263 0.017-0.406 0.017s-0.284-0.006-0.424-0.019l0.018 0.001c-0.372-0.035-0.744-0.068-1.135-0.104 0.052 0.041 0.117 0.069 0.187 0.075l0.001 0c0.428 0.093 0.924 0.152 1.432 0.163l0.009 0c0.029 0 0.063 0 0.098 0 0.971 0 1.919-0.098 2.834-0.284l-0.091 0.015c0.314-0.061 0.639-0.216 0.957 0 0.009 0.006 0.035-0.004 0.047-0.013 0.093-0.073 0.194-0.009 0.284-0.021 0.114-0.017 0.145 0.118 0.223 0.099 0.184-0.044 0.173 0.084 0.194 0.2 0.061 0.357 0.123 0.712 0.324 1.027 0.103 0.158 0.211 0.324 0.245 0.522 0.004 0.018 0.007 0.038 0.007 0.059 0 0.123-0.084 0.227-0.198 0.256l-0.002 0c-0.113 0.035-0.189 0.127-0.141 0.233 0.021 0.049 0.033 0.107 0.033 0.167 0 0.050-0.008 0.098-0.023 0.142l0.001-0.003c0.065-0.010 0.097-0.098 0.147-0.056s-0.007 0.096-0.027 0.141-0.047 0.081-0.068 0.123c-0.055 0.109-0.164 0.184-0.21 0.322 0.114-0.083 0.206-0.19 0.267-0.315l0.002-0.005c0.061-0.113 0.109-0.245 0.218-0.327 0.036-0.048 0.102-0.083 0.071-0.164s0.080-0.045 0.086-0.101c0.029 0.014 0.049 0.043 0.049 0.077 0 0.014-0.003 0.026-0.009 0.038l0-0c-0.010 0.020-0.020 0.037-0.031 0.053l0.001-0.001c0.208 0.104 0.053 0.208 0 0.311 0.079-0.012 0.15-0.035 0.215-0.066l-0.004 0.002c0.027-0.018-0.061-0.123 0.014-0.151s0.023 0.114 0.105 0.105c0.029-0.004 0.061-0.044 0.090 0 0 0.082-0.123 0.099-0.096 0.194 0.119-0.102 0.178 0.013 0.232 0.077 0.157 0.184-0.15 0.115-0.127 0.231 0.115 0.017 0.118 0.018 0.081 0.123-0.123 0.341-0.24 0.681-0.196 1.055 0.010 0.085-0.015 0.098-0.15 0.156-0.010 0.006-0.017 0.015-0.020 0.026l-0 0c-0.029 0.22-0.368 0.332-0.206 0.618 0.001 0.003 0.001 0.006 0.001 0.010 0 0.009-0.003 0.017-0.008 0.024l0-0c-0.077 0.123-0.061 0.261-0.082 0.396-0.034 0.217-0.1 0.412-0.193 0.59l0.005-0.010c0.112-0.017 0.159 0.022 0.149 0.129-0.001 0.018-0.001 0.039-0.001 0.060 0 0.184 0.040 0.359 0.112 0.516l-0.003-0.008c0.11 0.273 0.199 0.54 0.14 0.854s-0.129 0.597-0.312 0.847c-0.091 0.123-0.203 0.231-0.306 0.346 0.091 0.033 0.096-0.020 0.123-0.043 0.039-0.028 0.073-0.059 0.103-0.093l0.001-0.001c0.429-0.54 0.681-1.121 0.391-1.825-0.088-0.213-0.163-0.429-0.132-0.668 0.032-0.259 0.076-0.488 0.134-0.711l-0.008 0.037c0.032-0.123 0.036-0.245 0.226-0.184-0.154-0.215 0.053-0.273 0.123-0.383s0.145-0.054 0.175 0.031c0.066 0.187 0.129 0.376 0.095 0.585-0.067 0.412-0.139 0.82-0.314 1.206-0.052 0.11-0.082 0.24-0.082 0.376 0 0.101 0.017 0.198 0.047 0.289l-0.002-0.006c0.052 0.157 0.028 0.319 0 0.461-0.053 0.294-0.123 0.587-0.17 0.883-0.015 0.084-0.024 0.18-0.024 0.278 0 0.159 0.023 0.312 0.066 0.457l-0.003-0.011c-0.025-0.205 0.135-0.33 0.196-0.498-0.008 0.040-0.012 0.085-0.012 0.131s0.004 0.092 0.013 0.136l-0.001-0.005c0.013-0.028 0.024-0.066 0.034-0.066 0.080 0 0 0.103 0.072 0.123 0.023-0.212 0.108-0.402 0.236-0.553l-0.001 0.002c0.102-0.135 0.349-0.198 0.453-0.135 0.061 0.039 0.082 0.112 0.129 0.162l0.45 0.729c-0.025-0.248-0.079-0.475-0.16-0.69l0.006 0.019c-0.017-0.045-0.104-0.18 0.072-0.112 0.048 0.018 0.058-0.031 0.046-0.042-0.134-0.135-0.006-0.184 0.081-0.237-0.026-0.058-0.081-0.040-0.115-0.074-0.066-0.061-0.175-0.088-0.164-0.213-0.219-0.010-0.101-0.158-0.097-0.256 0-0.053 0.023-0.105 0.025-0.157 0.005-0.126 0-0.245 0.188-0.173 0.050 0.020 0.094-0.048 0.141-0.053 0.088-0.009 0.102-0.217 0.228-0.091s-0.054 0.177-0.068 0.27c0.141 0.026 0.274 0.215 0.264 0.349-0.016 0.203-0.216 0.216-0.318 0.332 0.113-0.021 0.213-0.071 0.323-0.070 0.042 0.002 0.079 0.022 0.103 0.052l0 0c0.031 0.055-0.036 0.037-0.055 0.056s-0.047 0.065-0.021 0.094c0.033 0.040 0.061 0 0.083-0.024s0.046-0.049 0.073-0.021c0.067 0.071 0.107 0.030 0.166-0.018 0.034-0.024 0.076-0.039 0.122-0.039 0.017 0 0.034 0.002 0.050 0.006l-0.001-0c0.034 0.009 0.051 0.085 0.072 0.132 0.030 0.066-0.104 0.017-0.066 0.103 0.052 0.131 0.085 0.283 0.092 0.442l0 0.003c0.014 0.184 0.236 0.407-0.041 0.577-0.027 0.017-0.024 0.088-0.034 0.134-0.004 0.020 0.017 0.035-0.006 0.061-0.053 0.061-0.045 0.082 0.024 0.086 0.014 0.002 0.030 0.003 0.047 0.003 0.116 0 0.22-0.053 0.288-0.136l0.001-0.001c0.108-0.139 0.229-0.26 0.363-0.364l0.005-0.003c0.118-0.085 0.18-0.231 0.321-0.281 0.16-0.056 0.094-0.245 0.196-0.338 0.014-0.018 0.026-0.038 0.036-0.059l0.001-0.002c0.017-0.025 0.048-0.055 0.069-0.024 0.071 0.097 0.101 0.003 0.158-0.018 0.108-0.040 0.067-0.137 0.094-0.202 0.061-0.141 0.189-0.199 0.286-0.297-0.070 0.017-0.123 0.066-0.198 0.057-0.042-0.006-0.102 0.009-0.084-0.072 0.012-0.054 0.003-0.137 0.091-0.111 0.123 0.036 0.262-0.033 0.371 0.086 0.080 0.088 0.224 0.102 0.272 0.232 0.070 0.189 0.118 0.38 0.051 0.583-0.014 0.029-0.023 0.064-0.023 0.101s0.008 0.071 0.023 0.102l-0.001-0.001c0.123-0.289 0.222-0.564 0.134-0.855-0.055-0.184 0.032-0.254 0.144-0.351 0.172-0.144 0.296-0.341 0.346-0.566l0.001-0.007c-0.118 0.149-0.184 0.338-0.335 0.46-0.050 0.040-0.096 0.085-0.148 0.123-0.019 0.018-0.045 0.029-0.073 0.029-0.046 0-0.085-0.029-0.1-0.070l-0-0.001c-0.043-0.074-0.115-0.134-0.159-0.2-0.019-0.032-0.031-0.071-0.031-0.113 0-0.072 0.034-0.135 0.087-0.176l0.001-0c0.156-0.107 0.138-0.286 0.199-0.429 0.018-0.042-0.105-0.123 0-0.158s0.184-0.162 0.312-0.094c0.064 0.034 0.114 0.067 0.199 0.007s0.105 0.026 0.111 0.112c0.012 0.179-0.078 0.342-0.068 0.519 0.113-0.135 0.102-0.306 0.118-0.465 0.014-0.137 0.043-0.184 0.184-0.21 0.289-0.056 0.548-0.194 0.686-0.479 0.061-0.123 0.102-0.003 0.167-0.012-0.061-0.255 0.061-0.429 0.221-0.593 0.050-0.054 0.089-0.074 0.155-0.045 0.013 0.006-0.012 0.101 0.037 0.020 0.021-0.035 0.112-0.026 0.073-0.092-0.055-0.093-0.044-0.161 0.051-0.199 0.112-0.043 0.085 0.094 0.142 0.134 0.045-0.058-0.017-0.132 0.043-0.202 0.030 0.107 0 0.212 0.061 0.338-0.004-0.037-0.007-0.080-0.007-0.124 0-0.002 0-0.003 0-0.005v0c0.005-0.049-0.031-0.126 0.031-0.14s0.087 0.066 0.107 0.118 0.024 0.116 0.091 0.107c0.119-0.017 0.179 0.029 0.195 0.15 0 0.024 0.018 0.058 0.061 0.040 0.013-0.143-0.048-0.273-0.076-0.409-0.006-0.031-0.023-0.116 0.024-0.088 0.162 0.095 0.067-0.050 0.074-0.080 0.036-0.159-0.061-0.34 0.067-0.485s0.093-0.355 0.14-0.531c0.041-0.155 0.131-0.134 0.226-0.143 0.015 0 0.030 0.093 0.051 0 0.012-0.049 0.074-0.089 0.037-0.144-0.024-0.036-0.061-0.005-0.094 0.007-0.053 0.019-0.098 0.069-0.17 0.061 0.037-0.082 0.114-0.092 0.178-0.154-0.089-0.026-0.151-0.075-0.137-0.165 0.032-0.197-0.061-0.396 0.013-0.595 0.007-0.019 0.011-0.042 0.011-0.065 0-0.038-0.011-0.074-0.030-0.105l0.001 0.001c-0.075-0.085-0.040-0.165-0.019-0.245 0.028-0.11 0.078-0.215 0.095-0.325 0.023-0.15 0.080-0.123 0.172-0.061 0.184 0.131 0.332 0.3 0.437 0.495l0.004 0.008c0.009-0.022 0.014-0.047 0.014-0.074 0-0.050-0.018-0.096-0.049-0.13l0 0c-0.116-0.123-0.165-0.295-0.284-0.423-0.097-0.111-0.156-0.257-0.156-0.417 0-0.015 0.001-0.029 0.002-0.044l-0 0.002c0.135 0.116 0.127 0.297 0.245 0.425-0.009-0.15-0.074-0.254-0.126-0.368-0.136-0.297-0.224-0.593-0.026-0.904 0.087-0.137 0.151-0.289 0.225-0.435 0.010-0.005 0.021-0.009 0.034-0.009 0.017 0 0.032 0.006 0.044 0.015l-0-0c0.143 0.123 0.034 0.245-0.015 0.347-0.061 0.134-0.013 0.227 0.054 0.33 0.001-0.231 0.058-0.449 0.157-0.642l-0.004 0.008c0.077 0.042-0.018 0.135 0.076 0.178 0.009-0.143 0.184-0.228 0.13-0.409-0.085 0.044-0.037 0.168-0.145 0.174-0.001-0.008-0.001-0.016-0.001-0.025 0-0.073 0.033-0.138 0.084-0.181l0-0c0.092-0.066 0.155-0.168 0.169-0.284l0-0.002c0.074-0.384 0.132-0.759-0.105-1.12-0.105-0.16-0.142-0.368-0.229-0.539-0.207-0.418-0.355-0.852-0.386-1.323-0.015-0.229-0.031-0.457-0.048-0.704-0.075 0.067-0.028 0.142-0.069 0.204-0.080-0.112-0.165-0.207-0.064-0.338-0.127-0.25-0.045-0.561-0.221-0.797-0.021-0.029-0.047-0.123 0.013-0.103 0.134 0.043 0.055-0.044 0.044-0.066-0.134-0.287-0.223-0.62-0.25-0.971l-0.001-0.010c-0.009-0.090 0.019-0.206-0.026-0.266-0.159-0.214-0.096-0.458-0.089-0.681 0.009-0.279-0.043-0.506-0.245-0.694-0.050 0.029 0.013 0.102-0.069 0.123-0.014-0.066-0.049-0.123-0.012-0.198 0.013-0.026 0.020-0.057 0.020-0.089 0-0.023-0.004-0.046-0.011-0.067l0 0.001c-0.073-0.248-0.233-0.452-0.445-0.579l-0.005-0.002c-0.177-0.112-0.408-0.138-0.521-0.352-0.007-0.012-0.044-0.018-0.061-0.012-0.072 0.024-0.077-0.031-0.108-0.074-0.047-0.065-0.035-0.168-0.085-0.204-0.13-0.095-0.123-0.088-0.147-0.184-0.097-0.392-0.11-0.819-0.429-1.123-0.013-0.012-0.023-0.026-0.032-0.041l-0-0.001c-0.173-0.3-0.191-0.642-0.181-0.967 0.006-0.245 0.028-0.48 0.065-0.71l-0.004 0.029c0.072-0.438-0.108-0.766-0.438-1.027-0.111-0.085-0.198-0.196-0.255-0.323l-0.002-0.005c-0.114-0.265-0.181-0.574-0.181-0.899 0-0.034 0.001-0.067 0.002-0.1l-0 0.005c0.017-0.479-0.037-0.93-0.346-1.319-0.061-0.078-0.061-0.184-0.145-0.271-0.181-0.184-0.345-0.39-0.424-0.65s-0.169-0.525-0.252-0.788c-0.123-0.39-0.254-0.776-0.26-1.196 0.001-0.015 0.002-0.033 0.002-0.050 0-0.093-0.016-0.182-0.046-0.265l0.002 0.006c-0.085-0.205-0.202-0.392-0.288-0.594-0.114-0.268 0.044-0.475-0.118-0.71-0.036-0.074-0.080-0.137-0.132-0.192l0 0c0.030 0.158-0.051 0.423-0.018 0.617M6.488 17.766c0.105 0.147 0.171 0.3 0.081 0.509-0.028-0.19-0.054-0.349-0.079-0.509zM6.597 19.060c-0.051 0.040-0.083 0.102-0.083 0.171 0 0.016 0.002 0.032 0.005 0.047l-0-0.001c-0.132-0.116-0.008-0.202 0.025-0.297 0.007-0.021 0.040-0.015 0.058 0.004 0.009 0.009 0.015 0.022 0.015 0.037 0 0.016-0.007 0.031-0.019 0.041l-0 0zM7.040 22.002c-0.038-0.099-0.060-0.214-0.060-0.333 0-0.113 0.020-0.222 0.056-0.323l-0.002 0.007c0.092 0.236 0.042 0.442 0.006 0.65zM7.339 22.621c0.057-0.119-0.284-0.204-0.012-0.362 0.008 0.077-0.061 0.137 0.013 0.192 0.063 0.047 0.037 0.11-0.002 0.17zM7.961 25.061c-0.034 0.071-0.069 0.131-0.108 0.189l0.003-0.005c-0.038 0.055 0.026 0.134-0.047 0.175-0.154-0.196-0.118-0.606 0.085-0.875 0.053 0.116 0.088 0.222-0.070 0.302 0.185 0 0.215 0.053 0.138 0.215zM7.989 29.646c-0.045-0.045 0.044-0.091-0.019-0.133-0.135 0.309-0.332 0.585-0.49 0.907-0.047-0.327 0.053-0.605 0.118-0.889 0.030-0.131 0.088-0.255 0.084-0.395 0.005-0.036 0.022-0.067 0.047-0.089l0-0c0.006-0.006 0.069 0.023 0.068 0.033-0.012 0.184 0.179 0.226 0.237 0.363 0.036 0.093 0.038 0.149-0.045 0.203zM8.222 26.805c0-0.11-0.018-0.202 0.061-0.276-0.004 0.088 0.077 0.196-0.061 0.277zM9.832 29.242l-0.127-0.281c0.215 0.065 0.216 0.067 0.127 0.281zM10.099 28.572c-0.013 0.093-0.021 0.184-0.029 0.279-0.003 0.034 0.007 0.078-0.045 0.077-0.029-0-0.056-0.012-0.076-0.030l0 0c-0.105-0.123-0.101-0.39 0.020-0.539-0.015 0.108-0.028 0.197-0.041 0.295 0.14-0.061 0.061-0.205 0.129-0.285 0.086 0.056 0.056 0.13 0.042 0.204zM10.397 30.844c-0.047 0.017-0.061-0.025-0.061-0.061-0.009-0.057-0.042-0.123 0.005-0.169s0.061 0.033 0.091 0.047c-0.093 0.031-0.009 0.061 0 0.093 0.005 0.009 0.009 0.020 0.009 0.032 0 0.027-0.018 0.050-0.043 0.058l-0 0zM10.758 30.219c0.046 0.269-0.142 0.355-0.328 0.444v0c-0.061-0.299-0.123-0.6-0.189-0.948 0.161 0.156 0.223 0.344 0.406 0.398 0.024-0.039 0-0.061-0.023-0.078-0.117-0.097-0.18-0.199-0.034-0.327 0.042-0.025 0.069-0.070 0.069-0.122 0-0.017-0.003-0.032-0.008-0.047l0 0.001c-0.030-0.086-0.009-0.199 0.078-0.188s0.208 0.091 0.2 0.198c-0.017 0.215 0 0.447-0.164 0.624-0.005 0.009-0.009 0.020-0.009 0.032 0 0.005 0.001 0.009 0.002 0.014l-0-0zM11.065 30.141c-0.001 0.030-0.026 0.054-0.056 0.054-0.007 0-0.013-0.001-0.019-0.003l0 0c-0.025-0.008-0.067-0.017-0.061-0.051 0.046-0.207 0.097-0.414 0.153-0.647 0.183 0.254 0.001 0.444-0.020 0.647zM12.863 9.344c-0.053-0.235-0.088-0.509-0.097-0.79l-0-0.007c0.186 0.129 0.239 0.55 0.094 0.797zM13.084 9.618c-0.012-0.245 0.061-0.49 0.018-0.735 0.064 0.249 0.036 0.495-0.021 0.736zM13.452 27.027c-0.061 0.183-0.133 0.341-0.221 0.49l0.006-0.012c-0.020-0.222 0.047-0.355 0.214-0.478zM14.039 27.298c-0.036 0.196-0.146 0.362-0.299 0.471l-0.002 0.002c-0.089 0.057-0.192 0.107-0.301 0.144l-0.010 0.003c-0.066 0.023-0.133 0.069-0.192 0.023-0.070-0.053-0.031-0.142-0.028-0.216 0-0 0-0 0-0 0-0.044 0.021-0.082 0.053-0.107l0-0c0.254-0.178 0.313-0.477 0.443-0.735 0.061-0.123 0.055-0.254 0.104-0.413 0.184 0.272 0.078 0.552 0.153 0.811 0.010-0.017 0.026-0.061 0.042-0.061 0.049 0.001 0.044 0.053 0.037 0.080zM14.53 26.406c-0.033 0.069-0.083 0.072-0.132 0.011 0.047 0.184 0.148 0.379-0.077 0.526-0.034 0.022-0.061 0.055-0.104 0.042s-0.031-0.055-0.039-0.087c-0.035-0.143-0.104-0.275-0.088-0.435 0.008-0.079 0.096-0.129 0.058-0.214-0.131 0.011-0.089-0.113-0.12-0.173-0.024-0.049-0.008-0.123-0.010-0.224 0.078 0.145 0.184 0.233 0.129 0.381 0.106 0.023 0.175 0.1 0.245 0.175-0.026-0.064-0.055-0.127-0.076-0.193s0.010-0.086 0.069-0.080c-0.070-0.098-0.156-0.184-0.189-0.306-0.011-0.034-0.017-0.072-0.017-0.113 0-0.112 0.048-0.212 0.125-0.282l0-0c0.090 0.225 0.253 0.429 0.098 0.68 0.061-0.069 0.131-0.108 0.218-0.061 0.035 0.053-0.129 0.097 0.014 0.169 0.060 0.028-0.073 0.116-0.109 0.186zM14.689 13.054c0.257 0.099 0.271 0.321 0.333 0.511-0.135-0.145-0.247-0.314-0.329-0.5l-0.005-0.012zM15.383 14.424c-0.069-0.159-0.123-0.278-0.171-0.401-0.014-0.037-0.091-0.093 0-0.123 0.012-0.005 0.025-0.008 0.040-0.008 0.053 0 0.097 0.042 0.099 0.095v0c0.021 0.13 0.068 0.258 0.032 0.438zM15.878 23.372c-0.011 0.005-0.024 0.007-0.037 0.007-0.029 0-0.055-0.013-0.073-0.033l-0-0c-0.066-0.075-0.123-0.484-0.075-0.596 0.155 0.146 0.145 0.357 0.215 0.533 0.014 0.026 0.020 0.071-0.027 0.085zM15.953 21.634c-0.010-0.056-0.016-0.12-0.016-0.186 0-0.154 0.031-0.301 0.088-0.434l-0.003 0.007c0.042 0.196 0.102 0.396-0.069 0.613zM16.443 19.624c0.037-0.029 0.068 0 0.082 0.032 0.067 0.146 0.129 0.294 0.193 0.441l-0.040 0.016c-0.079-0.135-0.184-0.256-0.23-0.411-0.010-0.025-0.036-0.053-0.007-0.076zM16.457 21.389c-0.066 0.033-0.093 0.146-0.137 0.226-0.112 0.029-0.172 0-0.127-0.13 0.135-0.401 0.113-0.83 0.222-1.236 0.024-0.091 0.048-0.097 0.109-0.041 0.149 0.135 0.245 0.309 0.233 0.508-0.007 0.085 0.055 0.146 0.023 0.235-0.066 0.184-0.135 0.346-0.324 0.438zM16.552 21.639c-0.126-0.251 0.1-0.275 0.164-0.386-0.068 0.108-0.099 0.232-0.169 0.387z"></path>
<path fill="#fff" d="M11.446 23.044c-0.038-0.287-0.052-0.573-0.158-0.862-0.019-0.061-0.034-0.135-0.042-0.21l-0.001-0.006c-0.029-0.119-0.046-0.255-0.046-0.396 0-0.017 0-0.034 0.001-0.051l-0 0.003c0.001-0.027 0.002-0.058 0.002-0.089 0-0.12-0.011-0.238-0.031-0.352l0.002 0.012c-0.032-0.257-0.043-0.514-0.112-0.773-0.023-0.085-0.099-0.163-0.061-0.251-0.061-0.018-0.007 0.061-0.061 0.050-0.015-0.044 0.009-0.069 0.024-0.102 0.029-0.061 0.061-0.126-0.047-0.184-0.047-0.024-0.051-0.061-0.016-0.086 0.023-0.017 0.046-0.040 0.028-0.070-0.031-0.051-0.046 0.022-0.089-0.006 0.056-0.099 0.037-0.215-0.011-0.335-0.009-0.022-0.007-0.051-0.031-0.061-0.047-0.013-0.081-0.055-0.081-0.106 0-0.016 0.004-0.032 0.010-0.046l-0 0.001c-0.051-0.028-0.048 0.036-0.084 0.025-0.043-0.119-0.056-0.123-0.142-0.065-0.029 0.020-0.061 0.034-0.107 0.061 0.001-0.042 0.017-0.079 0.043-0.108l-0 0c0.017-0.026 0.068-0.024 0.024-0.091s-0.078-0.074-0.123-0.058c-0.096 0.028-0.206 0.044-0.319 0.044-0.046 0-0.091-0.003-0.136-0.008l0.005 0c-0.056-0.004-0.123 0.006-0.14 0.072-0.002 0.013-0.013 0.023-0.026 0.023-0.005 0-0.009-0.001-0.013-0.003l0 0c-0.202-0.061-0.404-0.080-0.605-0.116-0.010 0-0.021-0.009-0.034-0.034l0.41 0.017c0.056 0.005 0.122 0.007 0.188 0.007 0.172 0 0.34-0.018 0.502-0.051l-0.016 0.003c0.086-0.020 0.189 0.007 0.276-0.021 0.043-0.014 0.141-0.011 0.017-0.094-0.017-0.012-0.026-0.020 0-0.022 0.061-0.005 0.011-0.039 0-0.061-0.058-0.11-0.165-0.189-0.211-0.306-0.012-0.026-0.038-0.044-0.068-0.044-0.006 0-0.012 0.001-0.018 0.002l0.001-0c-0.061 0.049-0.157 0-0.208 0.061-0.015 0.018-0.037 0.033-0.064 0.006s0.036-0.031 0.011-0.061c-0.113-0.047-0.17 0.044-0.262 0.052-0.226 0.020-0.446 0.068-0.674 0.080-0.189 0.010-0.49-0.306-0.688-0.322 0.075-0.076 0.368 0.223 0.468 0.203 0.225-0.045 0.398 0.003 0.632-0.012 0.145-0.009 0.174-0.118 0.232-0.209 0.010-0.016 0.012-0.040 0.021-0.057 0.087-0.159 0.014-0.317-0.18-0.388-0.024-0.011-0.053-0.021-0.082-0.028l-0.003-0.001c-0.064-0.005-0.113-0.058-0.113-0.122 0-0.004 0-0.009 0.001-0.013l-0 0.001c0.001-0.004 0.001-0.008 0.001-0.012 0-0.036-0.023-0.066-0.054-0.078l-0.001-0c-0.080-0.036-0.015 0.033-0.026 0.047s-0.029 0.010-0.042-0.009-0.031-0.055-0.065-0.061c0 0.045 0.050 0.061 0.061 0.103-0.032 0.012-0.048-0.026-0.061-0.039-0.14-0.173-0.3-0.177-0.463-0.164-0.006 0-0.015 0.007-0.017 0.005-0.138-0.168-0.306-0.096-0.455-0.149s-0.322-0.069-0.481-0.11c-0.257-0.066-0.514-0.1-0.772-0.167-0.101-0.034-0.227-0.067-0.355-0.091l-0.019-0.003c0.037-0.037 0.086-0.022 0.132-0.012q0.552 0.118 1.103 0.24c0.563 0.126 1.126 0.236 1.687 0.391 0.226 0.061 0.319 0.007 0.398-0.169 0.092-0.203 0.159-0.423 0.276-0.613 0.037-0.069 0.082-0.127 0.135-0.177l0-0c0.056-0.035 0.093-0.097 0.093-0.168 0-0.010-0.001-0.019-0.002-0.029l0 0.001c0.039 0.072 0.080 0.16 0.117 0.251l0.006 0.017c0.091 0.263 0.204 0.49 0.342 0.699l-0.007-0.012c0.044 0.070 0.086 0.188 0.2 0.108 0.029-0.021 0.106 0.027 0.153 0.061 0.047 0.030 0.102 0.056 0.16 0.074l0.005 0.001c0.094 0.039 0.065-0.025 0.051-0.068-0.020-0.061-0.17-0.156-0.203-0.123-0.058 0.056-0.123-0.018-0.184-0.006 0.072-0.028 0.082-0.096 0.099-0.164 0.026-0.102 0.123-0.117 0.211-0.123 0.105-0.008 0.142-0.042 0.113-0.164-0.018-0.080-0.009-0.158-0.082-0.232-0.016-0.017-0.025-0.040-0.025-0.065 0-0.022 0.007-0.042 0.020-0.058l-0 0c0.039-0.061 0.027-0.135 0.017-0.211-0.047-0.333-0.091-0.666-0.135-0.999 0-0.017-0.009-0.039 0.012-0.047v0c0.043 0.156 0.076 0.341 0.092 0.53l0.001 0.011c0.013 0.1 0.045 0.149 0.138 0.165 0.023 0.009 0.044 0.020 0.062 0.033l-0.001-0.001c-0.010 0.028-0.031 0.014-0.045 0.012-0.116-0.021-0.135-0.003-0.061 0.097 0.105 0.146 0.137 0.31 0.217 0.462 0.024 0.045 0.031 0.075 0.093 0.072s0.076 0.079 0.107 0.127c0.111-0.037 0.090-0.119 0.028-0.216s-0.091-0.226-0.146-0.336c-0.026-0.052-0.035-0.113-0.091-0.152-0.015-0.010-0.040-0.035-0.012-0.052s0.039-0.004 0.061 0.018c0.024 0.034 0.042 0.074 0.049 0.118l0 0.002c0.056 0.173 0.123 0.245 0.237 0.263 0.094 0.013 0.139-0.061 0.209-0.123 0 0.061-0.015 0.097-0.053 0.116-0.017 0.009-0.042 0.014-0.030 0.043 0.008 0.017 0.026 0.029 0.046 0.029 0.004 0 0.009-0.001 0.013-0.002l-0 0c0.068-0.015 0.177 0.052 0.189-0.091 0.020-0.057 0.073-0.097 0.136-0.097 0.021 0 0.040 0.004 0.058 0.012l-0.001-0c0.050 0.023 0.061-0.010 0.086-0.030s0.034-0.066 0.087-0.078c-0.128 0.215-0.255 0.418-0.393 0.613-0.051 0.072-0.1 0.148-0.15 0.222-0.010 0.013-0.015 0.029-0.015 0.047s0.006 0.034 0.016 0.047l-0-0c0.025 0.035 0.050 0.012 0.077 0.007 0.067-0.014 0.147-0.025 0.228-0.030l0.005-0c0.151-0.006 0.284-0.061 0.426-0.081 0.121-0.024 0.26-0.038 0.402-0.038 0.025 0 0.049 0 0.074 0.001l-0.004-0c0.148 0.009 0.256-0.055 0.368-0.116 0.157-0.091 0.292-0.183 0.419-0.284l-0.007 0.005c-0.148 0.153-0.332 0.257-0.505 0.377-0.096 0.069-0.204 0.131-0.32 0.18l-0.011 0.004c-0.041 0.022-0.090 0.035-0.142 0.035-0.013 0-0.026-0.001-0.039-0.002l0.002 0c-0.089-0.015-0.152 0.061-0.232 0.092-0.103 0.037-0.194 0.094-0.293 0.139-0.168 0.074-0.341 0.144-0.475 0.272-0.018 0.017-0.067 0.021-0.032 0.070 0.020 0.026 0.048 0.061 0.081 0.026 0.012-0.012 0.033-0.012 0.042 0.016 0.009 0.019 0.015 0.042 0.016 0.066v0c-0.004 0.028-0.024 0.023-0.049 0.005-0.008-0.007-0.019-0.011-0.030-0.011-0.015 0-0.028 0.006-0.037 0.017l-0 0c-0.002 0.005-0.003 0.011-0.003 0.017 0 0.008 0.002 0.016 0.007 0.023l-0-0c0.012 0.013 0.030 0.021 0.049 0.021 0.006 0 0.011-0.001 0.016-0.002l-0 0c0.056-0.009 0.115-0.019 0.123 0.086-0.033 0-0.053-0.083-0.084-0.040s0.022 0.050 0.045 0.070c0.061 0.050 0.137 0.085 0.22 0.095l0.002 0c0.146 0.028 0.29 0.018 0.436 0.077v-0.004c-0.017 0.061-0.078 0.047-0.123 0.050-0.109 0.007-0.194 0.037-0.218 0.157 0 0.008-0.014 0.012-0.023 0.016-0.123 0.045-0.026 0.093 0.034 0.146-0.034 0.027-0.101 0.028-0.079 0.103 0 0.006-0.005 0.012-0.007 0.018-0.020 0.061-0.116-0.139-0.112 0.013 0 0.040-0.009 0.039-0.134-0.016 0.032 0.079 0.086 0.144 0.154 0.189l0.002 0.001c0.171 0.145 0.322 0.302 0.457 0.474l0.005 0.007c0.034 0.057 0.087 0.1 0.15 0.119l0.002 0c0.088 0.019 0.021 0.11 0.074 0.156-0.184-0.115-0.306-0.291-0.437-0.462-0.042-0.056-0.080-0.123-0.158-0.072-0.042 0.026-0.050-0.030-0.061-0.066-0.024-0.097-0.24-0.268-0.319-0.252-0.030 0.006-0.017 0.041-0.017 0.061 0 0.235 0.071 0.474 0.144 0.706 0.2 0.633 0.347 1.269 0.504 1.905 0.051 0.208 0.086 0.418 0.158 0.622-0.108-0.061-0.162-0.173-0.223-0.277-0.013-0.019-0.021-0.043-0.021-0.069 0-0.017 0.004-0.034 0.010-0.049l-0 0.001c0.024-0.056 0.038-0.12 0.038-0.188s-0.014-0.133-0.039-0.192l0.001 0.003c-0.103-0.281-0.123-0.567-0.217-0.847-0.085-0.251-0.128-0.511-0.245-0.752-0.078-0.157-0.097-0.314-0.149-0.469-0.005-0.015-0.011-0.038-0.020-0.041-0.078-0.031-0.113-0.080-0.067-0.177-0.115 0.073-0.136 0.19-0.223 0.245-0.029 0.019-0.015 0.081 0 0.089 0.071 0.036 0.051 0.089 0.068 0.14s0.023 0.061-0.025 0.058c-0.021 0-0.023 0.033-0.015 0.043 0.053 0.064 0.007 0.115 0.018 0.173 0.009 0.045 0.006 0.091 0.066 0.118 0.013 0.006 0.066 0.065 0 0.077-0.043 0.008-0.034 0.040-0.026 0.075 0.009 0.057 0.020 0.106 0.034 0.154l-0.002-0.008c0.040 0.092 0.063 0.2 0.063 0.312 0 0.019-0.001 0.039-0.002 0.058l0-0.003c-0.001 0.008-0.002 0.017-0.002 0.026 0 0.048 0.018 0.092 0.047 0.125l-0-0c0.010 0.011 0.026 0.024 0.015 0.039-0.081 0.102-0.046 0.267 0.008 0.352 0.085 0.135 0.034 0.21 0.037 0.319 0.003 0.135 0.005 0.294 0.005 0.453 0 0.614-0.027 1.222-0.078 1.822l0.005-0.078c-0.003 0.038 0.008 0.083-0.024 0.109l-0.061-0.077c0.061-0.079 0.024-0.188 0.026-0.285 0.007-0.381 0.111-0.735 0.028-1.142-0.001-0.003-0.001-0.007-0.001-0.011 0-0.007 0.002-0.014 0.005-0.021l-0 0c0.066-0.123 0.021-0.264-0.005-0.403-0.006-0.030-0.030-0.074-0.010-0.086 0.074-0.045 0-0.15 0.044-0.205 0.008-0.010-0.007-0.044-0.025-0.048-0.126-0.031-0.066-0.072-0.032-0.116 0.013-0.018 0.034-0.045 0.027-0.061-0.056-0.162-0.010-0.306-0.030-0.463-0.033-0.262-0.146-0.526-0.144-0.789 0-0.046 0-0.13-0.055-0.16-0.054-0.032-0.090-0.090-0.090-0.156 0-0.001 0-0.001 0-0.002v0c0.025-0.126-0.090-0.113-0.109-0.105-0.084 0.035-0.143-0.037-0.211-0.074-0.031-0.017-0.061-0.089-0.093-0.027-0.018 0.039-0.070 0.070 0 0.14 0.049 0.051 0.006 0.177-0.061 0.167-0.152-0.024-0.11 0.076-0.090 0.168 0.012 0.061 0.023 0.123 0.036 0.181 0.004 0.021 0 0.042 0.025 0.061 0.061 0.050 0.097 0.151 0.077 0.184-0.046 0.068-0.026 0.142-0.017 0.215 0.025 0.252 0.060 0.475 0.106 0.694l-0.007-0.040c0.039 0.168-0.008 0.343 0.126 0.506 0.017 0.021 0.009 0.061-0.009 0.069-0.056 0.014-0.039 0.067-0.034 0.105 0.020 0.19 0.042 0.379 0.070 0.57 0.036 0.24 0.079 0.48 0.119 0.72zM10.99 19.673c0.051-0.123 0.095-0.216 0.132-0.314 0.052-0.138 0.123-0.16 0.272-0.073 0.099 0.061 0.197 0.123 0.306 0.188-0.018-0.142-0.034-0.265-0.051-0.389-0.034-0.257 0.080-0.406 0.271-0.495 0.040-0.019 0.089-0.039 0.090-0.083 0.004-0.107 0.078-0.123 0.153-0.144 0.077-0.020 0.143-0.044 0.206-0.072l-0.008 0.003c0.107-0.043 0.198-0.103 0.274-0.179l-0 0c-0.194-0.030-0.381-0.047-0.569-0.061-0.001 0-0.002 0-0.003 0-0.058 0-0.11-0.030-0.14-0.075l-0-0.001c-0.123-0.159-0.137-0.343 0.010-0.415 0.061-0.029 0.056-0.061-0.011-0.11-0.126-0.096-0.138-0.137-0.102-0.279 0.005-0.019 0.024-0.042-0.004-0.061-0.065-0.038-0.134-0.113-0.202-0.073s-0.103-0.011-0.131-0.072c-0.015-0.036-0.030-0.083-0.044-0.131l-0.002-0.010c0 0.162 0.016 0.325 0.024 0.487 0.010 0.205-0.013 0.221-0.204 0.159l-0.043-0.012c-0.139-0.032-0.167-0.014-0.188 0.123-0.014 0.123-0.118 0.217-0.244 0.217-0.040 0-0.078-0.010-0.111-0.027l0.001 0.001c-0.174-0.071-0.35-0.123-0.526-0.175-0.123-0.037-0.13-0.026-0.11 0.111s0.102 0.253 0.126 0.378c0.007 0.089 0.072 0.16 0.157 0.178l0.001 0c0.122 0.027 0.221 0.107 0.274 0.214l0.001 0.002c0.068 0.139 0.267 0.245 0.175 0.425 0 0.005 0.003 0.015 0.005 0.022 0.069 0.302 0.142 0.55 0.229 0.793l-0.015-0.049zM10.4 16.816c0.129-0.037 0.068-0.138 0.035-0.221-0.061-0.15-0.103-0.162-0.184-0.061-0.014 0.020-0.028 0.037-0.044 0.053l0-0c-0.199 0.175-0.27 0.439-0.357 0.692-0.012 0.036 0 0.096 0.028 0.101 0.124 0.021 0.235 0.055 0.34 0.102l-0.009-0.003c0.021 0.008 0.050-0.004 0.075 0.023 0.109 0.117 0.213 0.055 0.317 0.056 0.016 0 0.016-0.019 0.010-0.035s-0.026-0.044-0.040-0.037c-0.083 0.046-0.118-0.069-0.184-0.082 0.032-0.070 0.088-0.061 0.148-0.045 0.027 0.009 0.041 0 0.048-0.023s-0.013-0.030-0.031-0.033-0.061-0.004-0.051-0.040c0.007-0.024 0.043-0.026 0.073-0.009s0.057 0.061 0.098 0.051c-0.019-0.116-0.066-0.219-0.134-0.304l0.001 0.001c-0.004-0.007-0.006-0.014-0.006-0.023 0-0.003 0-0.006 0.001-0.008l-0 0c0.020-0.106-0.029-0.151-0.136-0.156zM11.798 16.325c0.046 0.089 0.081 0.17 0.127 0.245 0.112 0.178 0.18 0.184 0.261 0.033 0.032-0.061 0.016-0.091-0.050-0.134-0.097-0.067-0.21-0.117-0.332-0.145l-0.006-0.001zM12.307 17.221c0.014-0.029 0.045-0.043 0.040-0.081-0.004-0.025-0.023-0.030-0.041-0.030-0.019-0.002-0.041-0.003-0.064-0.003-0.061 0-0.12 0.009-0.176 0.026l0.004-0.001c-0.068 0.030 0.009 0.105 0.005 0.157 0 0.011 0 0.024-0.004 0.032-0.024 0.044 0.018 0.078 0.042 0.093 0.008 0.005 0.017 0.009 0.028 0.009 0.026 0 0.048-0.021 0.049-0.047v-0c0.012-0.080 0.037-0.143 0.116-0.154zM11.592 16.809c-0.029-0.053-0.061-0.088-0.046-0.108 0.065-0.072 0-0.155-0.028-0.229-0.036-0.093-0.107-0.175-0.15-0.268 0.031 0.199 0.002 0.409 0.224 0.602zM9.597 18.254c0.002 0 0.005 0 0.008 0 0.075 0 0.149-0.009 0.219-0.025l-0.007 0.001c0.061-0.007 0.051-0.049 0.029-0.086-0.029-0.046-0.062-0.086-0.099-0.122l-0-0c-0.033-0.035-0.058-0.029-0.072 0.010-0.025 0.074-0.051 0.145-0.080 0.222zM12.583 17.075c0.108 0.034 0.208 0.073 0.306 0.028 0.061-0.030 0.091-0.116 0.184-0.103 0.004 0 0.012-0.018 0.009-0.026-0.005-0.014-0.017-0.024-0.033-0.024-0.005 0-0.009 0.001-0.013 0.003l0-0c-0.152 0.047-0.305 0.086-0.454 0.123zM9.335 17.456c0.061 0.072 0.132 0.134 0.211 0.182l0.004 0.002c0.082 0.043 0.103 0.021 0.083-0.069-0.009-0.039-0.036-0.071-0.072-0.085l-0.001-0c-0.075-0.046-0.146-0.031-0.224-0.029zM9.882 17.897c0.018 0.034 0.028 0.075 0.028 0.117 0 0.007-0 0.013-0.001 0.020l0-0.001c-0.007 0.035 0.032 0.092 0.053 0.138 0.013 0.029 0.037 0.026 0.056 0.022s0.018-0.023 0.013-0.042c-0.028-0.101-0.079-0.187-0.148-0.256v0zM11.098 17.143c0.042 0.027 0.092 0.046 0.146 0.053l0.002 0c0.032 0.010 0.061 0 0.052-0.038s-0.045-0.061-0.067-0.045c-0.036 0.022-0.087 0-0.132 0.029z"></path>
<path fill="#fff" d="M8.391 18.479c-0.142 0.070-0.306 0.088-0.447 0.167l-0.015-0.020c0.114-0.092 0.262-0.148 0.422-0.148 0.014 0 0.029 0 0.043 0.001l-0.002-0z"></path>
<path fill="#fff" d="M13.758 18.257l0.797 0.143v0.032c-0.264-0.004-0.531-0.091-0.797-0.146z"></path>
<path fill="#fff" d="M10.279 15.031c0.101 0.053 0.206 0.084 0.209 0.232 0.013 0.148 0.033 0.281 0.060 0.412l-0.004-0.022c-0.119-0.223-0.053-0.458-0.265-0.621z"></path>
<path fill="#fff" d="M11.182 15.168c-0.073-0.126-0.061-0.256-0.088-0.384-0.010-0.054 0-0.11-0.061-0.156-0.014-0.011-0.024-0.029-0.024-0.048 0-0.013 0.004-0.024 0.010-0.034l-0 0c0.032-0.036 0.018-0.086 0.029-0.131 0.058 0.215 0.105 0.471 0.13 0.733l0.001 0.019z"></path>
<path fill="#fff" d="M12.877 18.121c0.211 0.014 0.406 0.045 0.595 0.091l-0.024-0.005c-0.054 0.061-0.123 0.023-0.173 0.010-0.097-0.025-0.211-0.043-0.327-0.048l-0.004-0c-0.031-0.002-0.057-0.023-0.067-0.051l-0-0.001z"></path>
<path fill="#fff" d="M9.661 14.882c0.044 0.074 0.077 0.16 0.095 0.251l0.001 0.005c0 0.020 0.021 0.050-0.013 0.047s-0.074-0.019-0.061-0.053c0.028-0.080-0.021-0.166-0.022-0.25z"></path>
<path fill="#fff" d="M9.639 14.794c-0.028-0.058-0.045-0.127-0.045-0.199 0-0.054 0.009-0.106 0.027-0.155l-0.001 0.003c-0 0.012-0 0.026-0 0.040 0 0.109 0.007 0.217 0.021 0.322l-0.001-0.012z"></path>
<path fill="#fff" d="M9.968 13.351c-0.010 0.128-0.010 0.128-0.101 0.156 0.003-0.068 0.043-0.126 0.099-0.155l0.001-0z"></path>
<path fill="#fff" d="M8.546 14.507l0.221-0.007c-0.073 0.077-0.145 0.058-0.221 0.007z"></path>
</svg>
