<!-- Generated by IcoMoon.io -->
<svg version="1.1" xmlns="http://www.w3.org/2000/svg" width="18" height="32" viewBox="0 0 18 32">
<title>9</title>
<rect fill="#fff" x="0" y="0" width="18" height="32"></rect>
<path fill="#1d1d1b" d="M10.672 2.107c-0.006 0.009-0.078 0.067-0.115 0.103-0.089 0.088-0.332 0.097-0.365 0.109-0.058 0.023-0.34-0.082-0.368-0.014-0.31 0.535 0.055 0.457-0.207 1.024-0.034 0.203-0.067 0.406-0.1 0.609-0.013 0.083-0.028 0.167-0.043 0.251 0.002 0.004 0.004 0.009 0.005 0.014l0 0c0.057 0.373-0.083 0.771-0.241 1.138-0.080 0.332-0.172 0.66-0.281 0.981-0.124 0.379-0.281 0.708-0.473 1.012l0.011-0.018c-0.211 0.327-0.414 0.681-0.688 0.96-0.059 0.059-0.121 0.115-0.186 0.166l-0.004 0.003c-0.066 0.109-0.135 0.216-0.21 0.319-0.306 0.429-0.683 0.83-0.946 1.293-0.046 0.471-0.144 0.939-0.233 1.41 0.012 0.061 0.024 0.123 0.036 0.189 0.010 0.053 0.020 0.107 0.029 0.16 0.074-0.061 0.175-0.070 0.255-0.116 0.061-0.035 0.098 0.028 0.102 0.083 0.011 0.153 0.053 0.298 0.052 0.455-0.004 0.306 0.011 0.613 0.161 0.895 0.076-0.038 0.086-0.171 0.191-0.097 0.035 0.025 0.080 0.040 0.128 0.040 0.040 0 0.078-0.011 0.11-0.029l-0.001 0.001c0.038 0.093-0.067 0.16-0.021 0.245 0.069-0.021 0.058-0.105 0.111-0.129 0.052 0.039 0 0.115 0.069 0.164-0.008-0.027-0.013-0.058-0.013-0.091 0-0.108 0.055-0.204 0.139-0.26l0.001-0.001c0.037-0.027 0.055-0.123 0.112-0.074 0.040 0.034 0.106 0.074 0.096 0.156-0.016 0.129 0.013 0.257 0 0.388s-0.036 0.202-0.203 0.184c0.154 0.074 0.114 0.143 0.023 0.184-0.295 0.132-0.403 0.39-0.474 0.685-0.036 0.15-0.083 0.293-0.010 0.463 0.014-0.049 0.023-0.078 0.031-0.109 0.075 0.039 0.056 0.128 0.118 0.199-0.012-0.105-0.024-0.189-0.030-0.273-0.013-0.197-0.061-0.402 0.132-0.552 0.061-0.047 0.13-0.084 0.189-0.058 0.070 0.032 0.017 0.113 0.017 0.172 0 0.18-0.094 0.329-0.147 0.49-0.061 0.192 0.101 0.411-0.061 0.613-0.034 0.042 0.11 0.207 0.132 0.34 0.010 0.065 0.149 0.102 0.112 0.195s-0.135 0.093-0.221 0.105c-0.074 0.010-0.147 0.026-0.22 0.044s-0.069 0.019-0.123 0.123c0.112-0.046 0.242-0.072 0.378-0.072 0.015 0 0.030 0 0.045 0.001l-0.002-0c-0.116 0.205-0.287 0.343-0.373 0.555-0.076 0.188-0.196 0.355-0.188 0.574 0 0.005 0.001 0.010 0.001 0.016 0 0.050-0.015 0.097-0.041 0.136l0.001-0.001c-0.135 0.195-0.095 0.437-0.199 0.663 0.108-0.026 0.064-0.13 0.137-0.139s0.042 0.091 0.085 0.104c0.051-0.061-0.029-0.127 0.023-0.192 0.085 0.055 0.095 0.123 0.061 0.214-0.054 0.144-0.1 0.286-0.012 0.44 0.039 0.067 0.027 0.184-0.034 0.212-0.145 0.061-0.227 0.18-0.321 0.291-0.015 0.018-0.077 0.027-0.043 0.048 0.094 0.061 0.039 0.165 0.086 0.245 0.061 0.107 0.090 0.245-0.076 0.319-0.041 0.017-0.055 0.053-0.034 0.109 0.089-0.086 0.192-0.055 0.306-0.072-0.021 0.036-0.033 0.079-0.033 0.125 0 0.043 0.011 0.083 0.029 0.118l-0.001-0.001c0.104 0.205-0.111 0.343-0.096 0.526 0 0.009-0.024 0.024-0.040 0.031-0.039 0.019-0.065 0.059-0.065 0.104 0 0.010 0.001 0.020 0.004 0.030l-0-0.001c0.014 0.128-0.061 0.216-0.132 0.295-0.070 0.074-0.126 0.162-0.164 0.259l-0.002 0.006c-0.025 0.091-0.107 0.157-0.204 0.157-0.012 0-0.024-0.001-0.036-0.003l0.001 0c-0.067-0.005-0.144-0.007-0.223-0.007-0.292 0-0.576 0.036-0.847 0.103l0.024-0.005c-0.123 0.030-0.245 0.065-0.371 0.083-0.623 0.089-1.251 0.117-1.877 0.166-0.122 0.011-0.263 0.018-0.406 0.018s-0.284-0.006-0.424-0.019l0.018 0.001c-0.372-0.035-0.744-0.069-1.135-0.104 0.052 0.041 0.117 0.068 0.187 0.074l0.001 0c0.428 0.093 0.924 0.152 1.433 0.163l0.009 0c0.037 0 0.080 0.001 0.123 0.001 0.959 0 1.896-0.096 2.802-0.279l-0.090 0.015c0.314-0.061 0.639-0.215 0.958 0 0.009 0.006 0.034-0.004 0.047-0.014 0.093-0.072 0.194-0.009 0.285-0.021 0.113-0.016 0.144 0.118 0.223 0.1 0.184-0.044 0.173 0.084 0.193 0.199 0.061 0.357 0.123 0.712 0.325 1.027 0.102 0.158 0.211 0.324 0.245 0.522 0.004 0.018 0.007 0.039 0.007 0.060 0 0.123-0.083 0.227-0.197 0.257l-0.002 0c-0.113 0.034-0.189 0.127-0.141 0.233 0.021 0.050 0.032 0.107 0.032 0.168 0 0.050-0.008 0.097-0.023 0.142l0.001-0.003c0.061-0.009 0.096-0.097 0.147-0.055s-0.007 0.096-0.028 0.141-0.047 0.081-0.068 0.123c-0.055 0.11-0.164 0.184-0.21 0.323 0.114-0.083 0.206-0.19 0.267-0.315l0.002-0.005c0.061-0.113 0.109-0.245 0.218-0.327 0.037-0.049 0.102-0.083 0.071-0.165s0.080-0.045 0.086-0.1c0.029 0.014 0.049 0.043 0.049 0.077 0 0.014-0.003 0.026-0.009 0.038l0-0c-0.010 0.020-0.020 0.037-0.031 0.053l0.001-0.001c0.208 0.105 0.053 0.208 0 0.311 0.078-0.011 0.149-0.034 0.214-0.066l-0.004 0.002c0.027-0.018-0.061-0.119 0.015-0.15s0.023 0.113 0.105 0.104c0.029 0 0.061-0.044 0.090 0 0 0.082-0.123 0.099-0.096 0.194 0.123-0.102 0.178 0.013 0.232 0.077 0.157 0.184-0.15 0.115-0.128 0.23 0.115 0.017 0.118 0.018 0.081 0.123-0.119 0.341-0.24 0.681-0.196 1.055 0.010 0.084-0.015 0.097-0.149 0.155-0.010 0.006-0.018 0.015-0.021 0.027l-0 0c-0.028 0.219-0.364 0.332-0.206 0.617 0.001 0.003 0.001 0.006 0.001 0.010 0 0.009-0.003 0.018-0.007 0.025l0-0c-0.078 0.123-0.061 0.26-0.082 0.396-0.035 0.217-0.1 0.412-0.193 0.59l0.005-0.011c0.112-0.017 0.158 0.022 0.149 0.128-0.001 0.019-0.002 0.041-0.002 0.064 0 0.183 0.040 0.357 0.113 0.512l-0.003-0.008c0.11 0.273 0.198 0.54 0.139 0.854s-0.129 0.597-0.312 0.847c-0.091 0.123-0.202 0.23-0.306 0.345 0.091 0.033 0.096-0.020 0.123-0.043 0.039-0.028 0.073-0.058 0.103-0.093l0.001-0.001c0.429-0.541 0.681-1.122 0.391-1.825-0.088-0.213-0.163-0.429-0.132-0.668 0.030-0.259 0.073-0.487 0.131-0.711l-0.008 0.036c0.032-0.123 0.036-0.245 0.226-0.184-0.154-0.216 0.053-0.273 0.123-0.384s0.145-0.053 0.175 0.031c0.066 0.188 0.129 0.376 0.096 0.585-0.067 0.412-0.14 0.82-0.314 1.205-0.052 0.11-0.082 0.24-0.082 0.376 0 0.101 0.017 0.198 0.047 0.289l-0.002-0.006c0.051 0.157 0.027 0.318 0 0.46-0.053 0.295-0.123 0.587-0.17 0.883-0.015 0.084-0.024 0.18-0.024 0.279 0 0.158 0.023 0.311 0.065 0.456l-0.003-0.011c-0.024-0.205 0.135-0.329 0.196-0.498-0.007 0.040-0.012 0.085-0.012 0.131s0.004 0.092 0.012 0.136l-0.001-0.005c0.014-0.028 0.024-0.066 0.034-0.065 0.080 0 0 0.102 0.072 0.119 0.024-0.211 0.108-0.399 0.236-0.55l-0.001 0.002c0.102-0.134 0.349-0.197 0.453-0.135 0.064 0.039 0.083 0.112 0.129 0.162l0.45 0.729c-0.026-0.248-0.080-0.475-0.16-0.69l0.006 0.019c-0.017-0.045-0.105-0.18 0.072-0.112 0.048 0.019 0.057-0.031 0.045-0.042-0.134-0.134-0.006-0.184 0.081-0.236-0.025-0.058-0.081-0.040-0.115-0.074-0.066-0.064-0.174-0.088-0.164-0.213-0.219-0.010-0.1-0.157-0.097-0.256 0-0.053 0.023-0.104 0.026-0.157 0.004-0.126 0.003-0.245 0.188-0.173 0.050 0.020 0.093-0.049 0.141-0.053 0.088-0.008 0.102-0.217 0.227-0.091s-0.053 0.177-0.068 0.27c0.142 0.026 0.274 0.215 0.264 0.349-0.015 0.203-0.216 0.216-0.318 0.333 0.113-0.021 0.214-0.072 0.324-0.070 0.042 0.001 0.078 0.022 0.102 0.052l0 0c0.031 0.054-0.036 0.037-0.055 0.056s-0.047 0.061-0.022 0.094c0.033 0.039 0.061 0 0.084-0.024s0.046-0.050 0.072-0.021c0.067 0.071 0.107 0.030 0.166-0.019 0.034-0.024 0.076-0.038 0.122-0.038 0.017 0 0.034 0.002 0.050 0.006l-0.001-0c0.033 0.009 0.050 0.085 0.072 0.132 0.029 0.066-0.104 0.017-0.067 0.103 0.052 0.131 0.085 0.283 0.092 0.442l0 0.003c0.014 0.184 0.237 0.407-0.040 0.578-0.028 0.017-0.024 0.088-0.034 0.134-0.004 0.019 0.017 0.034-0.007 0.061-0.052 0.061-0.044 0.081 0.025 0.086 0.014 0.002 0.030 0.003 0.046 0.003 0.116 0 0.221-0.053 0.289-0.136l0.001-0.001c0.108-0.139 0.229-0.259 0.363-0.364l0.005-0.003c0.118-0.084 0.18-0.231 0.321-0.281 0.16-0.056 0.094-0.245 0.196-0.338 0.014-0.018 0.026-0.038 0.036-0.059l0.001-0.002c0.018-0.025 0.048-0.054 0.069-0.024 0.071 0.097 0.101 0.004 0.158-0.018 0.108-0.040 0.068-0.137 0.094-0.202 0.061-0.14 0.189-0.199 0.286-0.297-0.071 0.017-0.126 0.066-0.198 0.056-0.042-0.005-0.102 0.009-0.085-0.072 0.012-0.054 0.004-0.137 0.091-0.111 0.123 0.036 0.262-0.033 0.371 0.086 0.080 0.088 0.223 0.102 0.271 0.232 0.071 0.189 0.118 0.38 0.051 0.583-0.014 0.029-0.023 0.064-0.023 0.101s0.008 0.071 0.023 0.102l-0.001-0.001c0.123-0.289 0.222-0.564 0.134-0.858-0.055-0.184 0.033-0.255 0.144-0.352 0.173-0.144 0.296-0.341 0.346-0.566l0.001-0.007c-0.118 0.149-0.184 0.338-0.335 0.461-0.050 0.040-0.096 0.085-0.148 0.123-0.019 0.018-0.044 0.029-0.072 0.029-0.046 0-0.085-0.029-0.1-0.070l-0-0.001c-0.044-0.074-0.115-0.134-0.16-0.199-0.019-0.032-0.030-0.071-0.030-0.112 0-0.072 0.034-0.136 0.086-0.177l0.001-0c0.156-0.107 0.138-0.286 0.199-0.429 0.018-0.043-0.105-0.123 0-0.159s0.184-0.162 0.312-0.093c0.065 0.034 0.114 0.067 0.199 0.006s0.105 0.027 0.11 0.112c0.012 0.18-0.077 0.343-0.068 0.52 0.113-0.135 0.103-0.306 0.119-0.465 0.014-0.137 0.042-0.184 0.184-0.21 0.289-0.056 0.552-0.194 0.686-0.479 0.061-0.123 0.103-0.003 0.168-0.012-0.061-0.254 0.061-0.429 0.22-0.593 0.051-0.053 0.089-0.074 0.155-0.044 0.013 0.006-0.012 0.101 0.037 0.019 0.021-0.034 0.111-0.026 0.072-0.092-0.055-0.093-0.044-0.161 0.051-0.198 0.112-0.044 0.086 0.094 0.142 0.134 0.045-0.058-0.017-0.131 0.043-0.202 0.031 0.107 0 0.212 0.061 0.337-0.004-0.070-0.009-0.099-0.007-0.127 0.005-0.050-0.031-0.126 0.031-0.14s0.087 0.066 0.107 0.118 0.024 0.116 0.091 0.107c0.119-0.016 0.179 0.030 0.195 0.15 0.004 0.024 0.018 0.058 0.061 0.040 0.013-0.143-0.049-0.273-0.076-0.409-0.007-0.031-0.024-0.115 0.024-0.088 0.162 0.095 0.067-0.050 0.074-0.080 0.036-0.16-0.061-0.34 0.068-0.485s0.093-0.355 0.139-0.531c0.041-0.155 0.131-0.134 0.227-0.143 0.015 0 0.029 0.093 0.050 0 0.012-0.050 0.074-0.089 0.037-0.144-0.024-0.036-0.061-0.005-0.094 0.006-0.053 0.020-0.099 0.070-0.17 0.061 0.037-0.081 0.113-0.091 0.178-0.154-0.088-0.026-0.151-0.075-0.137-0.164 0.032-0.198-0.061-0.397 0.012-0.595 0.007-0.019 0.011-0.042 0.011-0.065 0-0.038-0.011-0.074-0.030-0.105l0 0.001c-0.075-0.085-0.040-0.165-0.018-0.245 0.028-0.11 0.078-0.215 0.095-0.326 0.023-0.15 0.079-0.123 0.171-0.061 0.184 0.131 0.333 0.3 0.438 0.495l0.004 0.008c0.009-0.022 0.014-0.047 0.014-0.074 0-0.050-0.019-0.096-0.049-0.131l0 0c-0.116-0.123-0.164-0.295-0.284-0.423-0.097-0.111-0.156-0.257-0.156-0.418 0-0.015 0-0.029 0.001-0.043l-0 0.002c0.135 0.116 0.127 0.297 0.245 0.425-0.009-0.15-0.075-0.255-0.123-0.368-0.137-0.297-0.224-0.593-0.026-0.903 0.087-0.137 0.151-0.289 0.225-0.435 0.010-0.006 0.021-0.009 0.034-0.009 0.017 0 0.032 0.006 0.044 0.016l-0-0c0.144 0.123 0.034 0.242-0.015 0.347-0.061 0.134-0.013 0.227 0.053 0.33 0.001-0.231 0.058-0.449 0.158-0.641l-0.004 0.008c0.077 0.042-0.018 0.135 0.076 0.178 0.008-0.144 0.184-0.229 0.129-0.409-0.085 0.044-0.037 0.167-0.144 0.174-0-0.005-0.001-0.011-0.001-0.017 0-0.076 0.036-0.144 0.091-0.187l0.001-0c0.092-0.066 0.154-0.167 0.169-0.284l0-0.002c0.074-0.384 0.132-0.759-0.106-1.12-0.105-0.159-0.142-0.365-0.229-0.539-0.207-0.418-0.355-0.851-0.386-1.323-0.015-0.228-0.031-0.456-0.047-0.704-0.075 0.067-0.028 0.142-0.069 0.203-0.080-0.112-0.165-0.207-0.061-0.337-0.127-0.25-0.044-0.561-0.221-0.797-0.021-0.029-0.046-0.123 0.013-0.104 0.134 0.043 0.055-0.044 0.044-0.066-0.134-0.287-0.223-0.62-0.249-0.971l-0.001-0.010c-0.009-0.089 0.019-0.205-0.026-0.266-0.159-0.214-0.096-0.458-0.089-0.681 0.008-0.279-0.044-0.506-0.245-0.693-0.050 0.029 0.013 0.102-0.069 0.123-0.013-0.066-0.048-0.126-0.012-0.199 0.013-0.026 0.020-0.057 0.020-0.089 0-0.023-0.004-0.046-0.011-0.066l0 0.001c-0.073-0.249-0.233-0.452-0.444-0.579l-0.005-0.002c-0.177-0.112-0.408-0.137-0.522-0.351-0.006-0.013-0.044-0.018-0.061-0.012-0.072 0.024-0.077-0.032-0.107-0.074-0.047-0.065-0.036-0.167-0.085-0.203-0.13-0.096-0.123-0.088-0.148-0.184-0.097-0.392-0.11-0.819-0.429-1.123-0.012-0.012-0.023-0.025-0.032-0.040l-0.001-0.001c-0.173-0.3-0.191-0.643-0.181-0.968 0.006-0.246 0.028-0.481 0.065-0.711l-0.004 0.030c0.072-0.438-0.108-0.765-0.437-1.027-0.111-0.085-0.198-0.196-0.255-0.323l-0.002-0.005c-0.119-0.271-0.188-0.586-0.188-0.918 0-0.027 0-0.054 0.001-0.081l-0 0.004c0.017-0.479-0.037-0.93-0.346-1.319-0.061-0.077-0.061-0.184-0.145-0.27-0.184-0.184-0.346-0.39-0.424-0.651s-0.17-0.528-0.254-0.791c-0.123-0.39-0.254-0.777-0.259-1.196 0.001-0.014 0.001-0.031 0.001-0.047 0-0.094-0.016-0.185-0.045-0.269l0.002 0.006c-0.085-0.205-0.202-0.392-0.289-0.593-0.114-0.268 0.044-0.475-0.118-0.71-0.035-0.074-0.079-0.137-0.132-0.192l0 0c0.030 0.158-0.051 0.423-0.017 0.617M6.981 18.178c0.105 0.147 0.172 0.3 0.082 0.509-0.029-0.19-0.055-0.349-0.080-0.509zM7.088 19.472c-0.051 0.040-0.083 0.102-0.083 0.172 0 0.016 0.002 0.032 0.005 0.047l-0-0.001c-0.132-0.116-0.008-0.202 0.025-0.298 0.007-0.021 0.040-0.015 0.058 0.004 0.010 0.009 0.016 0.022 0.016 0.037 0 0.016-0.007 0.030-0.019 0.040l-0 0zM7.531 22.414c-0.038-0.099-0.060-0.214-0.060-0.334 0-0.113 0.020-0.222 0.056-0.323l-0.002 0.007c0.094 0.238 0.043 0.443 0.007 0.651zM7.831 23.033c0.057-0.119-0.284-0.204-0.012-0.362 0.008 0.077-0.061 0.137 0.013 0.192 0.064 0.048 0.039 0.111 0 0.17zM8.452 25.472c-0.033 0.071-0.068 0.131-0.108 0.188l0.003-0.004c-0.038 0.055 0.026 0.134-0.048 0.175-0.154-0.196-0.117-0.607 0.085-0.875 0.053 0.115 0.088 0.221-0.070 0.302 0.186 0.001 0.216 0.053 0.139 0.215zM8.481 30.058c-0.045-0.044 0.043-0.091-0.019-0.132-0.136 0.309-0.332 0.584-0.49 0.906-0.047-0.327 0.054-0.605 0.119-0.888 0.030-0.131 0.088-0.255 0.084-0.395 0.004-0.036 0.021-0.067 0.046-0.089l0-0c0.006-0.007 0.069 0.023 0.068 0.032-0.012 0.184 0.179 0.226 0.237 0.364 0.037 0.093 0.039 0.149-0.043 0.202zM8.713 27.217c0-0.11-0.018-0.202 0.061-0.277-0.002 0.087 0.078 0.197-0.060 0.278zM10.322 29.654l-0.127-0.281c0.217 0.065 0.218 0.067 0.129 0.281zM10.59 28.984c-0.013 0.093-0.020 0.184-0.029 0.279-0.003 0.034 0.007 0.078-0.045 0.076-0.029-0.001-0.056-0.012-0.076-0.030l0 0c-0.105-0.123-0.101-0.39 0.020-0.54-0.015 0.108-0.028 0.197-0.041 0.295 0.14-0.061 0.061-0.204 0.129-0.284 0.087 0.056 0.055 0.131 0.043 0.204zM10.889 31.256c-0.047 0.017-0.058-0.025-0.061-0.061-0.009-0.057-0.042-0.123 0.006-0.169s0.058 0.034 0.091 0.048c-0.093 0.031-0.010 0.061 0 0.093 0.005 0.009 0.009 0.020 0.009 0.031 0 0.028-0.018 0.051-0.043 0.059l-0 0zM11.251 30.632c0.045 0.268-0.142 0.355-0.328 0.443v0c-0.061-0.3-0.12-0.6-0.189-0.948 0.16 0.156 0.223 0.344 0.406 0.398 0.024-0.039 0-0.061-0.023-0.078-0.117-0.098-0.18-0.199-0.034-0.327 0.040-0.026 0.066-0.070 0.066-0.121 0-0.017-0.003-0.033-0.008-0.048l0 0.001c-0.030-0.086-0.009-0.199 0.079-0.188s0.208 0.091 0.199 0.198c-0.017 0.215 0 0.447-0.164 0.624-0.009 0.009-0.008 0.031-0.006 0.045zM11.554 30.554c-0.002 0.030-0.027 0.054-0.057 0.054-0.006 0-0.013-0.001-0.018-0.003l0 0c-0.025-0.008-0.067-0.018-0.061-0.051 0.047-0.207 0.097-0.413 0.154-0.646 0.186 0.253 0.004 0.443-0.017 0.646zM13.353 9.756c-0.053-0.235-0.088-0.509-0.097-0.789l-0-0.007c0.19 0.129 0.242 0.55 0.097 0.797zM13.573 10.031c-0.012-0.245 0.061-0.49 0.018-0.735 0.067 0.248 0.040 0.492-0.018 0.735zM13.945 27.441c-0.062 0.183-0.135 0.341-0.223 0.489l0.007-0.012c-0.019-0.222 0.048-0.359 0.216-0.477zM14.532 27.712c-0.037 0.196-0.147 0.362-0.3 0.471l-0.002 0.002c-0.090 0.058-0.193 0.107-0.302 0.144l-0.010 0.003c-0.066 0.023-0.133 0.069-0.192 0.024-0.070-0.053-0.031-0.142-0.028-0.216 0-0.044 0.021-0.082 0.053-0.107l0-0c0.254-0.178 0.313-0.477 0.443-0.735 0.061-0.123 0.055-0.255 0.104-0.414 0.184 0.272 0.078 0.552 0.153 0.811 0.011-0.017 0.026-0.061 0.042-0.061 0.049 0.001 0.044 0.051 0.037 0.080zM15.019 26.819c-0.033 0.069-0.083 0.072-0.132 0.012 0.048 0.184 0.148 0.379-0.077 0.526-0.034 0.023-0.061 0.056-0.104 0.043s-0.030-0.055-0.039-0.088c-0.035-0.143-0.103-0.275-0.087-0.435 0.007-0.079 0.095-0.129 0.057-0.215-0.13 0.012-0.089-0.112-0.123-0.173-0.024-0.048-0.007-0.123-0.010-0.224 0.078 0.145 0.184 0.232 0.129 0.381 0.105 0.023 0.175 0.1 0.245 0.174-0.026-0.061-0.055-0.127-0.076-0.192s0.011-0.086 0.070-0.080c-0.070-0.097-0.156-0.184-0.189-0.306-0.011-0.033-0.017-0.072-0.017-0.112 0-0.112 0.048-0.212 0.124-0.282l0-0c0.090 0.225 0.253 0.429 0.098 0.68 0.061-0.069 0.131-0.108 0.218-0.061 0.035 0.053-0.128 0.098 0.015 0.169 0.064 0.025-0.069 0.116-0.102 0.184zM15.181 13.465c0.257 0.1 0.271 0.321 0.333 0.512-0.135-0.145-0.247-0.315-0.329-0.5l-0.005-0.012zM15.877 14.836c-0.069-0.159-0.123-0.278-0.17-0.401-0.015-0.037-0.091-0.094 0-0.123 0.012-0.005 0.026-0.009 0.041-0.009 0.053 0 0.097 0.042 0.099 0.095v0c0.017 0.129 0.065 0.258 0.031 0.437zM16.373 23.783c-0.011 0.005-0.024 0.007-0.037 0.007-0.029 0-0.055-0.013-0.073-0.033l-0-0c-0.066-0.075-0.123-0.484-0.075-0.596 0.154 0.146 0.144 0.358 0.215 0.533 0.012 0.027 0.018 0.072-0.029 0.084zM16.446 22.051c-0.010-0.056-0.016-0.121-0.016-0.187 0-0.154 0.031-0.3 0.087-0.434l-0.003 0.007c0.043 0.191 0.103 0.39-0.069 0.61zM16.936 20.041c0.037-0.029 0.069 0 0.082 0.032 0.067 0.146 0.129 0.294 0.194 0.441l-0.040 0.017c-0.078-0.136-0.184-0.256-0.23-0.411-0.010-0.030-0.036-0.059-0.007-0.079zM16.95 21.806c-0.066 0.032-0.094 0.146-0.138 0.226-0.112 0.029-0.171 0-0.127-0.13 0.135-0.4 0.114-0.83 0.222-1.236 0.024-0.091 0.049-0.096 0.11-0.041 0.148 0.136 0.245 0.31 0.232 0.509-0.006 0.085 0.055 0.146 0.024 0.234-0.067 0.18-0.136 0.341-0.325 0.436zM17.045 22.056c-0.126-0.251 0.099-0.276 0.164-0.386-0.069 0.104-0.1 0.227-0.166 0.382z"></path>
<path fill="#fff" d="M11.809 23.293c-0.048-0.368-0.067-0.73-0.203-1.098-0.024-0.079-0.043-0.172-0.054-0.268l-0.001-0.007c-0.035-0.189-0.075-0.387-0.058-0.565 0.001-0.032 0.002-0.071 0.002-0.109 0-0.156-0.014-0.31-0.041-0.458l0.002 0.016c-0.042-0.327-0.056-0.653-0.144-0.981-0.028-0.107-0.126-0.208-0.080-0.32-0.075-0.023-0.009 0.080-0.075 0.061-0.018-0.055 0.010-0.088 0.031-0.129 0.037-0.077 0.078-0.159-0.061-0.232-0.061-0.032-0.066-0.077-0.021-0.11 0.029-0.021 0.061-0.050 0.035-0.089-0.039-0.065-0.061 0.028-0.114-0.007 0.072-0.126 0.047-0.272-0.015-0.426-0.011-0.028-0.009-0.064-0.039-0.077-0.060-0.016-0.104-0.070-0.104-0.135 0-0.021 0.005-0.040 0.013-0.058l-0 0.001c-0.066-0.036-0.061 0.046-0.107 0.032-0.055-0.151-0.071-0.158-0.181-0.083-0.037 0.023-0.082 0.048-0.128 0.070l-0.009 0.004c0.001-0.053 0.021-0.101 0.055-0.137l-0 0c0.022-0.034 0.086-0.032 0.030-0.116s-0.099-0.094-0.154-0.075c-0.18 0.061-0.373 0.061-0.572 0.046-0.070-0.004-0.153 0.008-0.178 0.092-0.002 0.017-0.016 0.030-0.034 0.030-0.005 0-0.011-0.001-0.015-0.004l0 0c-0.259-0.082-0.515-0.103-0.772-0.148-0.013 0-0.026-0.012-0.043-0.044 0.174 0.007 0.348 0.014 0.522 0.023 0.073 0.006 0.158 0.010 0.244 0.010 0.217 0 0.429-0.022 0.634-0.065l-0.020 0.003c0.109-0.025 0.241 0.009 0.351-0.026 0.056-0.018 0.18-0.013 0.022-0.119-0.022-0.015-0.034-0.025 0-0.028 0.077-0.007 0.014-0.049 0-0.075-0.074-0.14-0.211-0.241-0.269-0.393-0.015-0.033-0.048-0.056-0.087-0.056-0.007 0-0.015 0.001-0.022 0.003l0.001-0c-0.074 0.061-0.2 0-0.265 0.079-0.008 0.015-0.025 0.025-0.043 0.025-0.016 0-0.029-0.007-0.038-0.019l-0-0c-0.036-0.036 0.045-0.040 0.014-0.075-0.144-0.061-0.218 0.056-0.334 0.066-0.288 0.025-0.567 0.086-0.858 0.101-0.241 0.013-0.628-0.392-0.876-0.411 0.096-0.096 0.471 0.285 0.596 0.26 0.287-0.056 0.507 0.005 0.805-0.013 0.184-0.012 0.221-0.15 0.294-0.266 0.013-0.021 0.015-0.051 0.028-0.073 0.11-0.203 0.017-0.404-0.229-0.494-0.031-0.015-0.067-0.027-0.105-0.036l-0.004-0.001c-0.081-0.005-0.145-0.071-0.145-0.153 0-0.007 0-0.013 0.001-0.020l-0 0.001c0.001-0.005 0.001-0.010 0.001-0.016 0-0.046-0.029-0.085-0.070-0.099l-0.001-0c-0.101-0.047-0.018 0.042-0.032 0.061s-0.037 0.013-0.055-0.010-0.040-0.070-0.082-0.082c0 0.058 0.061 0.077 0.079 0.131-0.041 0.015-0.061-0.032-0.075-0.050-0.178-0.221-0.382-0.226-0.59-0.209-0.008 0-0.020 0.009-0.021 0.006-0.176-0.214-0.387-0.123-0.58-0.191s-0.41-0.088-0.613-0.14c-0.328-0.085-0.655-0.127-0.981-0.213-0.129-0.045-0.289-0.087-0.452-0.119l-0.024-0.004c0.047-0.047 0.11-0.027 0.167-0.015q0.7 0.151 1.402 0.306c0.716 0.162 1.433 0.303 2.145 0.501 0.287 0.080 0.406 0.009 0.506-0.215 0.116-0.259 0.201-0.538 0.349-0.776 0.047-0.087 0.104-0.162 0.172-0.226l0-0c0.061-0.052 0.137-0.123 0.116-0.249 0.050 0.092 0.102 0.204 0.148 0.32l0.008 0.022c0.116 0.334 0.261 0.624 0.438 0.89l-0.009-0.014c0.056 0.090 0.11 0.24 0.254 0.139 0.037-0.026 0.134 0.036 0.195 0.082 0.060 0.039 0.129 0.072 0.203 0.094l0.006 0.002c0.12 0.050 0.083-0.032 0.065-0.086-0.026-0.077-0.216-0.199-0.259-0.158-0.074 0.071-0.155-0.023-0.232-0.008 0.092-0.035 0.105-0.123 0.126-0.207 0.033-0.131 0.158-0.149 0.268-0.158 0.132-0.010 0.18-0.053 0.143-0.208-0.024-0.102-0.012-0.201-0.104-0.295-0.020-0.022-0.032-0.051-0.032-0.083 0-0.028 0.010-0.054 0.026-0.075l-0 0c0.049-0.076 0.034-0.172 0.020-0.269-0.061-0.424-0.117-0.848-0.174-1.272 0-0.022-0.011-0.049 0.015-0.061h-0.004c0.055 0.199 0.097 0.434 0.118 0.675l0.001 0.015c0.017 0.127 0.058 0.189 0.177 0.211 0.029 0.011 0.054 0.025 0.077 0.043l-0.001-0.001c-0.013 0.036-0.039 0.017-0.058 0.013-0.148-0.027-0.172-0.004-0.079 0.123 0.135 0.184 0.176 0.395 0.277 0.587 0.031 0.057 0.040 0.096 0.118 0.092s0.097 0.101 0.135 0.162c0.142-0.047 0.115-0.151 0.036-0.275-0.086-0.135-0.116-0.288-0.184-0.429-0.034-0.067-0.045-0.144-0.116-0.194-0.020-0.014-0.052-0.045-0.016-0.066 0.025-0.015 0.049-0.005 0.074 0.023 0.031 0.043 0.054 0.094 0.064 0.149l0 0.002c0.072 0.221 0.153 0.315 0.301 0.336 0.123 0.017 0.177-0.077 0.265-0.154-0.003 0.080-0.018 0.123-0.066 0.148-0.021 0.011-0.053 0.018-0.038 0.055 0.011 0.022 0.033 0.037 0.059 0.037 0.005 0 0.010-0.001 0.015-0.002l-0 0c0.087-0.020 0.226 0.066 0.24-0.115 0.026-0.073 0.094-0.124 0.174-0.124 0.026 0 0.050 0.005 0.073 0.015l-0.001-0c0.061 0.029 0.082-0.012 0.109-0.039s0.043-0.083 0.111-0.1c-0.163 0.274-0.324 0.532-0.499 0.778-0.066 0.092-0.126 0.188-0.189 0.283-0.012 0.016-0.020 0.037-0.020 0.059s0.008 0.043 0.020 0.059l-0-0c0.032 0.045 0.061 0.015 0.097 0.009 0.085-0.017 0.187-0.031 0.29-0.037l0.006-0c0.192-0.007 0.361-0.074 0.542-0.103 0.153-0.030 0.328-0.048 0.507-0.048 0.033 0 0.065 0.001 0.097 0.002l-0.005-0c0.189 0.012 0.325-0.069 0.464-0.148 0.2-0.115 0.372-0.232 0.534-0.36l-0.009 0.007c-0.188 0.194-0.422 0.328-0.642 0.479-0.122 0.088-0.26 0.166-0.407 0.227l-0.014 0.005c-0.052 0.028-0.114 0.044-0.18 0.044-0.017 0-0.033-0.001-0.049-0.003l0.002 0c-0.113-0.018-0.194 0.081-0.295 0.117-0.131 0.046-0.245 0.123-0.373 0.175-0.214 0.094-0.434 0.184-0.604 0.346-0.022 0.021-0.086 0.027-0.040 0.089 0.026 0.034 0.061 0.076 0.102 0.034 0.015-0.015 0.042-0.015 0.055 0.020 0.012 0.025 0.020 0.054 0.020 0.084v0c-0.006 0.035-0.031 0.029-0.061 0.006-0.010-0.008-0.024-0.014-0.039-0.014-0.019 0-0.035 0.008-0.047 0.021l-0 0c-0.003 0.006-0.005 0.014-0.005 0.022 0 0.011 0.003 0.021 0.008 0.029l-0-0c0.015 0.017 0.038 0.028 0.063 0.028 0.010 0 0.019-0.002 0.027-0.005l-0.001 0c0.072-0.010 0.147-0.023 0.158 0.11-0.042 0-0.066-0.105-0.107-0.051s0.028 0.061 0.058 0.089c0.077 0.065 0.174 0.109 0.28 0.122l0.003 0c0.184 0.036 0.368 0.024 0.556 0.099v-0.005c-0.021 0.076-0.099 0.061-0.152 0.061-0.14 0.009-0.248 0.047-0.277 0.199 0 0.010-0.018 0.016-0.029 0.020-0.156 0.058-0.033 0.118 0.045 0.184-0.044 0.035-0.129 0.036-0.101 0.131 0 0.007-0.006 0.016-0.009 0.024-0.025 0.076-0.147-0.177-0.142 0.016 0 0.052-0.010 0.050-0.171-0.020 0.034 0.116 0.123 0.178 0.199 0.241 0.218 0.184 0.411 0.385 0.582 0.604l0.007 0.009c0.053 0.067 0.099 0.132 0.194 0.152 0.112 0.024 0.026 0.141 0.094 0.199-0.238-0.147-0.394-0.371-0.557-0.59-0.053-0.071-0.102-0.154-0.2-0.093-0.053 0.033-0.061-0.038-0.075-0.083-0.031-0.123-0.306-0.342-0.406-0.322-0.039 0.008-0.021 0.053-0.021 0.083 0 0.3 0.091 0.603 0.184 0.898 0.255 0.807 0.444 1.617 0.644 2.427 0.066 0.265 0.111 0.533 0.203 0.792-0.138-0.076-0.207-0.22-0.285-0.352-0.017-0.025-0.027-0.055-0.027-0.088 0-0.022 0.004-0.043 0.012-0.062l-0 0.001c0.031-0.071 0.048-0.154 0.048-0.24s-0.018-0.169-0.050-0.244l0.002 0.004c-0.132-0.358-0.156-0.722-0.278-1.079-0.109-0.32-0.164-0.65-0.317-0.959-0.099-0.2-0.123-0.399-0.189-0.598-0.006-0.018-0.015-0.048-0.025-0.052-0.099-0.039-0.145-0.102-0.086-0.226-0.145 0.093-0.173 0.245-0.283 0.312-0.037 0.024-0.019 0.104 0 0.114 0.091 0.046 0.065 0.114 0.087 0.178s0.029 0.077-0.032 0.074c-0.026 0-0.029 0.042-0.019 0.055 0.069 0.082 0.010 0.147 0.023 0.221 0.011 0.056 0.008 0.116 0.085 0.15 0.016 0.007 0.083 0.082 0 0.097-0.055 0.010-0.043 0.050-0.033 0.096 0.011 0.072 0.026 0.134 0.044 0.194l-0.003-0.010c0.051 0.118 0.081 0.255 0.081 0.399 0 0.024-0.001 0.047-0.002 0.071l0-0.003c-0.001 0.010-0.002 0.021-0.002 0.033 0 0.061 0.023 0.117 0.061 0.16l-0-0c0.013 0.014 0.034 0.031 0.020 0.049-0.102 0.129-0.058 0.34 0.011 0.449 0.107 0.172 0.043 0.268 0.048 0.406 0.005 0.183 0.007 0.399 0.007 0.615 0 0.772-0.033 1.536-0.097 2.291l0.007-0.098c-0.004 0.049 0.010 0.107-0.031 0.14l-0.077-0.098c0.076-0.101 0.031-0.238 0.032-0.363 0.009-0.485 0.14-0.94 0.034-1.454-0.001-0.005-0.002-0.010-0.002-0.015 0-0.009 0.002-0.018 0.006-0.026l-0 0c0.083-0.154 0.027-0.336-0.007-0.514-0.007-0.038-0.038-0.095-0.013-0.11 0.094-0.057 0-0.191 0.056-0.261 0.010-0.013-0.009-0.056-0.032-0.061-0.161-0.039-0.085-0.092-0.041-0.148 0.018-0.022 0.043-0.057 0.035-0.081-0.072-0.207-0.014-0.392-0.039-0.59-0.043-0.334-0.187-0.669-0.184-1.004 0-0.061-0.004-0.165-0.070-0.203-0.069-0.041-0.115-0.115-0.115-0.2 0-0.001 0-0.001 0-0.002v0c0.032-0.16-0.115-0.144-0.139-0.134-0.107 0.045-0.184-0.047-0.269-0.094-0.039-0.021-0.080-0.114-0.118-0.035-0.024 0.049-0.089 0.089 0 0.18 0.061 0.064 0.008 0.226-0.076 0.212-0.193-0.031-0.139 0.097-0.115 0.213 0.017 0.077 0.029 0.154 0.047 0.23 0.006 0.026 0 0.053 0.032 0.078 0.080 0.061 0.123 0.192 0.097 0.231-0.058 0.086-0.033 0.18-0.021 0.273 0.032 0.322 0.077 0.606 0.137 0.885l-0.009-0.052c0.050 0.214-0.009 0.436 0.162 0.645 0.022 0.027 0.010 0.082-0.012 0.088-0.072 0.019-0.049 0.085-0.044 0.135 0.026 0.241 0.055 0.484 0.091 0.726 0.046 0.306 0.101 0.613 0.153 0.919zM11.223 18.999c0.066-0.155 0.123-0.275 0.167-0.4 0.067-0.175 0.16-0.203 0.347-0.093 0.123 0.075 0.25 0.153 0.391 0.24-0.024-0.18-0.045-0.338-0.066-0.495-0.044-0.327 0.101-0.517 0.344-0.63 0.052-0.024 0.113-0.049 0.115-0.105 0.005-0.137 0.099-0.156 0.194-0.184 0.097-0.025 0.181-0.055 0.261-0.092l-0.010 0.004c0.123-0.061 0.252-0.117 0.348-0.227-0.245-0.039-0.485-0.061-0.724-0.080-0.001 0-0.003 0-0.004 0-0.075 0-0.141-0.038-0.179-0.096l-0.001-0.001c-0.153-0.203-0.175-0.436 0.012-0.528 0.075-0.037 0.070-0.076-0.015-0.14-0.161-0.123-0.175-0.175-0.13-0.355 0.006-0.024 0.031-0.054-0.005-0.075-0.083-0.048-0.171-0.145-0.257-0.093-0.096 0.056-0.132-0.015-0.167-0.092-0.020-0.048-0.040-0.108-0.056-0.169l-0.002-0.011c0 0.207 0.020 0.414 0.031 0.62 0.013 0.262-0.017 0.283-0.259 0.202l-0.055-0.015c-0.177-0.041-0.212-0.018-0.239 0.153-0.034 0.219-0.235 0.331-0.449 0.245s-0.446-0.157-0.67-0.224c-0.158-0.048-0.165-0.033-0.14 0.141s0.131 0.321 0.162 0.481c0.009 0.113 0.092 0.204 0.2 0.226l0.002 0c0.155 0.035 0.282 0.137 0.349 0.273l0.001 0.003c0.088 0.176 0.34 0.312 0.224 0.541-0.003 0.006 0.004 0.019 0.006 0.029 0.089 0.384 0.183 0.7 0.294 1.008l-0.020-0.063zM10.467 15.36c0.164-0.047 0.086-0.176 0.044-0.282-0.077-0.191-0.132-0.207-0.236-0.078-0.018 0.025-0.036 0.047-0.056 0.067l0-0c-0.252 0.222-0.342 0.558-0.452 0.881-0.016 0.047 0 0.123 0.035 0.128 0.158 0.026 0.3 0.069 0.433 0.127l-0.012-0.005c0.026 0.011 0.061-0.004 0.096 0.030 0.139 0.15 0.27 0.070 0.405 0.072 0.020 0 0.020-0.024 0.013-0.044s-0.034-0.056-0.051-0.047c-0.106 0.058-0.15-0.088-0.235-0.105 0.040-0.089 0.112-0.080 0.188-0.057 0.034 0.010 0.051 0 0.061-0.029s-0.017-0.039-0.039-0.042c-0.032-0.004-0.077-0.005-0.065-0.052 0.009-0.031 0.055-0.032 0.093-0.011s0.073 0.076 0.123 0.066c-0.023-0.147-0.082-0.277-0.167-0.385l0.001 0.002c-0.005-0.008-0.008-0.019-0.008-0.029 0-0.003 0-0.007 0.001-0.010l-0 0c0.024-0.134-0.037-0.191-0.173-0.198zM12.244 14.739c0.061 0.115 0.103 0.218 0.162 0.312 0.142 0.227 0.229 0.234 0.333 0.043 0.040-0.075 0.020-0.116-0.061-0.17-0.124-0.085-0.269-0.149-0.425-0.184l-0.008-0.002zM12.895 15.88c0.018-0.037 0.058-0.055 0.051-0.103-0.005-0.032-0.029-0.039-0.052-0.038-0.102 0-0.212-0.012-0.3 0.026s0.012 0.134 0.007 0.201c0 0.002 0 0.005 0 0.007 0 0.012-0.002 0.023-0.005 0.034l0-0.001c-0.032 0.055 0.022 0.099 0.054 0.119 0.010 0.007 0.022 0.011 0.036 0.011 0.034 0 0.061-0.027 0.061-0.061v0c0.015-0.101 0.047-0.18 0.148-0.197zM11.983 15.354c-0.037-0.067-0.082-0.113-0.061-0.138 0.083-0.092 0-0.197-0.036-0.291-0.047-0.118-0.136-0.222-0.191-0.342 0.045 0.254 0.006 0.523 0.289 0.77zM9.447 17.193c0.005 0 0.011 0 0.017 0 0.094 0 0.185-0.011 0.272-0.030l-0.008 0.002c0.074-0.010 0.061-0.061 0.037-0.11-0.037-0.058-0.077-0.108-0.123-0.153l-0-0c-0.042-0.045-0.074-0.037-0.091 0.012-0.034 0.089-0.069 0.18-0.104 0.278zM13.247 15.697c0.137 0.043 0.265 0.093 0.387 0.036 0.082-0.038 0.116-0.148 0.231-0.131 0.005 0 0.015-0.024 0.012-0.034-0.006-0.018-0.023-0.030-0.042-0.030-0.006 0-0.011 0.001-0.016 0.003l0-0c-0.189 0.058-0.383 0.103-0.573 0.154zM9.116 16.176c0.078 0.092 0.168 0.169 0.269 0.231l0.005 0.003c0.104 0.054 0.131 0.026 0.106-0.088-0.012-0.049-0.046-0.088-0.090-0.108l-0.001-0c-0.1-0.061-0.191-0.042-0.29-0.039zM9.813 16.738c0.017 0.061 0.050 0.108 0.036 0.174-0.010 0.044 0.040 0.117 0.067 0.176 0.017 0.037 0.047 0.032 0.072 0.028s0.023-0.029 0.016-0.054c-0.036-0.129-0.102-0.239-0.192-0.326l-0-0zM11.358 15.781c0.071 0.055 0.131 0.049 0.188 0.069 0.040 0.013 0.076 0 0.066-0.048s-0.057-0.074-0.085-0.057c-0.048 0.026-0.114-0.002-0.17 0.035z"></path>
<path fill="#fff" d="M7.914 17.475c-0.18 0.090-0.394 0.112-0.569 0.211l-0.020-0.024c0.17-0.121 0.355-0.206 0.589-0.187z"></path>
<path fill="#fff" d="M14.743 17.202l1.012 0.184v0.040c-0.335-0.005-0.674-0.117-1.014-0.188z"></path>
<path fill="#fff" d="M10.31 13.088c0.127 0.067 0.261 0.107 0.266 0.295 0.016 0.189 0.042 0.358 0.077 0.525l-0.005-0.028c-0.152-0.284-0.069-0.582-0.338-0.792z"></path>
<path fill="#fff" d="M11.461 13.264c-0.093-0.161-0.080-0.325-0.112-0.49-0.013-0.069 0-0.141-0.079-0.199-0.019-0.014-0.030-0.036-0.030-0.061 0-0.016 0.005-0.031 0.013-0.043l-0 0c0.040-0.046 0.023-0.11 0.036-0.167 0.075 0.274 0.134 0.599 0.166 0.933l0.002 0.025z"></path>
<path fill="#fff" d="M13.621 17.028c0.268 0.018 0.517 0.058 0.757 0.117l-0.030-0.006c-0.069 0.078-0.159 0.029-0.22 0.012-0.124-0.032-0.269-0.054-0.417-0.061l-0.005-0c-0.040-0.003-0.073-0.030-0.086-0.066l-0-0.001z"></path>
<path fill="#fff" d="M9.522 12.897c0.057 0.095 0.099 0.205 0.122 0.323l0.001 0.006c0.003 0.026 0.027 0.064-0.016 0.061s-0.094-0.024-0.079-0.067c0.037-0.105-0.025-0.217-0.028-0.324z"></path>
<path fill="#fff" d="M9.494 12.785c-0.037-0.074-0.058-0.162-0.058-0.254 0-0.069 0.012-0.135 0.034-0.196l-0.001 0.004c-0 0.014-0 0.031-0 0.048 0 0.14 0.009 0.279 0.028 0.414l-0.002-0.016z"></path>
<path fill="#fff" d="M9.911 10.948c-0.013 0.164-0.013 0.164-0.128 0.199 0.003-0.087 0.054-0.161 0.127-0.199l0.001-0.001z"></path>
<path fill="#fff" d="M8.104 12.418l0.281-0.009c-0.093 0.098-0.184 0.074-0.281 0.009z"></path>
<path fill="#fff" d="M11.332 27.089c-0.046-0.166-0.1-0.307-0.163-0.442l0.007 0.017c-0.013-0.028-0.026-0.063-0.038-0.099l-0.002-0.008c-0.026-0.061-0.048-0.133-0.063-0.208l-0.001-0.008c-0.015-0.080-0.034-0.149-0.059-0.216l0.003 0.009c-0.043-0.156-0.087-0.281-0.136-0.404l0.009 0.026c-0.018-0.042-0.061-0.088-0.053-0.126-0.027-0.015 0.004 0.029-0.020 0.017-0.003-0.007-0.005-0.015-0.005-0.023s0.002-0.016 0.005-0.023l-0 0c0.007-0.025 0.013-0.053-0.038-0.091-0.023-0.017-0.028-0.034-0.016-0.043 0.006-0.003 0.010-0.010 0.010-0.017 0-0.005-0.002-0.010-0.005-0.013v0c-0.019-0.028-0.018 0.006-0.039-0.012 0.001-0.009 0.002-0.019 0.002-0.030 0-0.048-0.015-0.093-0.042-0.13l0 0.001c-0.006-0.012-0.008-0.025-0.019-0.032-0.028-0.014-0.047-0.042-0.047-0.075 0-0.001 0-0.003 0-0.004v0c-0.024-0.018-0.017 0.012-0.033 0.004-0.031-0.061-0.036-0.065-0.067-0.045-0.011 0.006-0.024 0.012-0.038 0.016l-0.002 0.001c-0.001-0.005-0.002-0.010-0.002-0.015 0-0.012 0.004-0.023 0.009-0.032l-0 0c0.005-0.011 0.026-0.005 0-0.041s-0.041-0.042-0.058-0.040c-0.008 0-0.017 0.001-0.027 0.001-0.058 0-0.114-0.011-0.165-0.031l0.003 0.001c-0.024-0.007-0.051-0.009-0.053 0.020 0 0.010-0.006 0.010-0.014 0.006-0.072-0.037-0.161-0.077-0.253-0.111l-0.018-0.006c-0.004 0-0.010-0.006-0.018-0.020l0.177 0.050c0.084 0.029 0.181 0.047 0.282 0.050l0.002 0c0.034 0 0.082 0.023 0.115 0.018 0.017 0 0.061 0.010 0-0.043-0.008-0.007-0.013-0.012 0-0.010 0.025 0.004 0-0.017-0.006-0.028-0.036-0.058-0.090-0.107-0.123-0.168-0.010-0.021-0.037-0.032-0.040-0.029-0.020 0.017-0.067-0.016-0.083 0.008-0.004 0.007-0.013 0.012-0.027-0.004s0.012-0.012 0-0.027c-0.053-0.034-0.068 0.003-0.107 0-0.095-0.013-0.184-0.013-0.279-0.031-0.080-0.015-0.245-0.196-0.327-0.223 0.024-0.028 0.181 0.143 0.221 0.144 0.092 0 0.171 0.043 0.27 0.061 0.061 0.011 0.061-0.038 0.077-0.075 0.003-0.007 0-0.018 0.004-0.025 0.020-0.066-0.027-0.149-0.116-0.202-0.011-0.007-0.024-0.015-0.038-0.021l-0.002-0.001c-0.032-0.013-0.056-0.041-0.061-0.075l-0-0.001c-0.003-0.021-0.015-0.038-0.032-0.048l-0-0c-0.037-0.025 0 0.014-0.006 0.020s-0.012 0-0.019-0.009c-0.009-0.015-0.020-0.027-0.034-0.037l-0-0c0.004 0.021 0.028 0.034 0.037 0.055-0.013 0-0.023-0.017-0.029-0.024-0.050-0.068-0.126-0.114-0.213-0.122l-0.001-0s-0.006 0-0.007 0c-0.076-0.094-0.14-0.077-0.21-0.118s-0.145-0.066-0.217-0.101c-0.117-0.058-0.23-0.1-0.347-0.158-0.045-0.025-0.1-0.053-0.158-0.078l-0.012-0.005c0.012-0.013 0.035 0 0.055 0.008 0.165 0.075 0.33 0.15 0.495 0.227 0.254 0.117 0.506 0.227 0.761 0.358 0.102 0.053 0.137 0.036 0.153-0.039 0.013-0.099 0.032-0.188 0.058-0.274l-0.003 0.012c0.008-0.027 0.022-0.051 0.040-0.071l-0 0c0.016-0.012 0.027-0.031 0.027-0.053 0-0.011-0.003-0.022-0.008-0.031l0 0c0.026 0.047 0.058 0.094 0.079 0.14 0.069 0.139 0.14 0.257 0.22 0.369l-0.006-0.008c0.026 0.038 0.056 0.098 0.096 0.072 0.010-0.007 0.048 0.024 0.072 0.047 0.023 0.019 0.048 0.036 0.075 0.051l0.002 0.001c0.044 0.028 0.025-0.006 0.015-0.027s-0.088-0.091-0.099-0.080-0.054-0.021-0.078-0.021c0.028-0.006 0.025-0.037 0.026-0.067 0-0.046 0.041-0.043 0.077-0.037s0.056-0.006 0.032-0.066c-0.012-0.046-0.034-0.085-0.062-0.119l0 0c-0.011-0.010-0.018-0.025-0.018-0.042 0-0.007 0.001-0.014 0.004-0.020l-0 0c0.001-0.008 0.002-0.017 0.002-0.026 0-0.026-0.006-0.051-0.017-0.073l0 0.001c-0.055-0.162-0.107-0.325-0.161-0.49 0-0.008-0.007-0.019 0-0.021v0c0.033 0.072 0.065 0.161 0.091 0.252l0.004 0.015c0.009 0.042 0.038 0.076 0.076 0.092l0.001 0c0.011 0.007 0.020 0.014 0.029 0.022l-0-0c0 0.013-0.012 0.004-0.018 0-0.051-0.022-0.061-0.015-0.017 0.040 0.061 0.080 0.091 0.161 0.14 0.241 0.015 0.024 0.021 0.039 0.047 0.044s0.040 0.045 0.061 0.072c0.043-0.006 0.026-0.047-0.010-0.1s-0.061-0.116-0.097-0.174c-0.014-0.032-0.032-0.058-0.055-0.082l0 0c-0.007-0.007-0.021-0.021-0.010-0.026s0.016 0 0.026 0.015c0.014 0.018 0.025 0.038 0.033 0.060l0.001 0.002c0.042 0.088 0.077 0.13 0.128 0.15 0.042 0.016 0.053-0.015 0.077-0.036 0.006 0.029 0.004 0.044-0.010 0.050s-0.016 0-0.008 0.017c0.005 0.010 0.015 0.018 0.027 0.019h0c0.028 0 0.081 0.043 0.071-0.024 0-0.017 0.024-0.055 0.074-0.021 0.024 0.016 0.026 0 0.034-0.006s0.008-0.028 0.029-0.028c-0.037 0.102-0.072 0.184-0.112 0.264l0.006-0.014c-0.015 0.029-0.028 0.061-0.041 0.090-0.002 0.004-0.003 0.009-0.003 0.014 0 0.011 0.005 0.022 0.012 0.029v0c0.015 0.020 0.023 0.011 0.033 0.012 0.035 0.001 0.068 0.004 0.101 0.010l-0.004-0.001c0.036 0.004 0.077 0.006 0.118 0.006 0.020 0 0.039-0 0.058-0.002l-0.003 0c0.072 0.003 0.139 0.014 0.204 0.032l-0.006-0.001c0.016 0.005 0.033 0.008 0.052 0.008 0.034 0 0.066-0.009 0.093-0.026l-0.001 0c0.056-0.026 0.105-0.056 0.149-0.091l-0.002 0.001c-0.051 0.050-0.109 0.093-0.174 0.125l-0.004 0.002c-0.035 0.024-0.076 0.042-0.12 0.052l-0.002 0c-0.010 0.003-0.021 0.005-0.032 0.005-0.015 0-0.029-0.003-0.041-0.008l0.001 0c-0.040-0.016-0.061 0.015-0.089 0.020-0.045 0.012-0.082 0.024-0.118 0.038l0.007-0.002c-0.068 0.011-0.127 0.040-0.176 0.081l0.001-0c-0.006 0.006-0.027 0.004-0.006 0.030 0.011 0.015 0.026 0.034 0.037 0.021s0.013 0 0.020 0.012c0.005 0.009 0.010 0.021 0.013 0.032l0 0.001c0 0.012-0.009 0.008-0.021-0.003s-0.023-0.010-0.028-0.004 0 0.014 0.006 0.019c0.007 0.010 0.019 0.016 0.032 0.017h0c0.023 0 0.048 0 0.061 0.053-0.014-0.004-0.031-0.045-0.040-0.028s0.015 0.026 0.027 0.039c0.029 0.028 0.064 0.051 0.102 0.067l0.002 0.001c0.076 0.024 0.14 0.052 0.202 0.084l-0.007-0.003c0 0.026-0.028 0.014-0.046 0.011-0.046-0.007-0.079 0-0.077 0.052 0 0.004-0.004 0.004-0.008 0.005-0.048 0.009 0 0.042 0.030 0.073-0.012 0.010-0.040 0.003-0.023 0.040 0 0.003 0 0.006 0 0.009 0 0.026-0.061-0.078-0.047-0.006 0.005 0.020 0 0.018-0.061-0.021 0.022 0.041 0.051 0.076 0.086 0.105l0.001 0c0.086 0.085 0.166 0.175 0.24 0.27l0.005 0.006c0.020 0.030 0.046 0.055 0.076 0.072l0.001 0.001c0.040 0.018 0.020 0.055 0.048 0.081-0.088-0.078-0.165-0.165-0.231-0.259l-0.003-0.005c-0.023-0.031-0.047-0.066-0.075-0.050-0.015 0.008-0.024-0.020-0.032-0.037-0.020-0.048-0.13-0.152-0.162-0.152-0.012 0 0 0.018 0 0.029 0.036 0.133 0.082 0.25 0.139 0.359l-0.005-0.009c0.15 0.321 0.278 0.638 0.41 0.955 0.043 0.104 0.080 0.208 0.132 0.311-0.049-0.043-0.090-0.094-0.121-0.151l-0.002-0.003c-0.011-0.014-0.018-0.031-0.018-0.050 0-0.003 0-0.005 0-0.008l-0 0c0.001-0.010 0.002-0.021 0.002-0.032 0-0.054-0.015-0.105-0.041-0.148l0.001 0.001c-0.073-0.144-0.11-0.281-0.18-0.424-0.061-0.127-0.107-0.255-0.184-0.382-0.049-0.083-0.074-0.159-0.112-0.238-0.003-0.008-0.007-0.015-0.012-0.022l0 0c-0.029-0.012-0.049-0.040-0.049-0.073 0-0.006 0.001-0.013 0.002-0.019l-0 0.001c-0.042 0.023-0.039 0.077-0.070 0.094-0.010 0.006 0 0.037 0.009 0.042 0.034 0.024 0.031 0.048 0.043 0.073s0.016 0.031-0.004 0.025c-0.009 0-0.007 0.013 0 0.019 0.029 0.036 0.015 0.056 0.026 0.084 0.005 0.025 0.020 0.047 0.040 0.061l0 0c0.006 0.004 0.035 0.037 0.009 0.037s-0.011 0.015-0.004 0.033 0.017 0.048 0.029 0.072c0.029 0.052 0.050 0.113 0.061 0.177l0 0.003c0.004 0.030 0.016 0.056 0.035 0.076l-0-0c0.006 0.007 0.013 0.015 0.010 0.020-0.024 0.040 0.007 0.123 0.039 0.168 0.029 0.044 0.047 0.097 0.049 0.155v0c0.085 0.355 0.145 0.698 0.196 1.036 0 0.018 0.012 0.041 0 0.050l-0.034-0.043c0.017-0.031-0.009-0.086-0.018-0.132-0.036-0.18-0.028-0.339-0.105-0.539-0.001-0.002-0.001-0.005-0.001-0.007s0-0.005 0.001-0.008l-0 0c0.015-0.050-0.018-0.123-0.043-0.192-0.006-0.015-0.020-0.038-0.013-0.042 0.027-0.013-0.015-0.071 0-0.093 0-0.004-0.007-0.021-0.015-0.025-0.057-0.028-0.036-0.041-0.026-0.061 0.004-0.005 0.007-0.012 0.007-0.019 0-0.003-0-0.006-0.001-0.009l0 0c-0.041-0.083-0.036-0.147-0.061-0.222-0.041-0.128-0.116-0.265-0.142-0.389-0.005-0.032-0.019-0.060-0.040-0.082l0 0c-0.027-0.021-0.047-0.050-0.055-0.084l-0-0.001c0-0.002 0-0.004 0-0.006 0-0.031-0.025-0.056-0.056-0.056-0.001 0-0.001 0-0.002 0h0c-0.032 0.008-0.065-0.032-0.098-0.057-0.015-0.011-0.036-0.048-0.042-0.022-0.004 0.016-0.023 0.026 0.013 0.066 0.026 0.029 0.021 0.085-0.009 0.074-0.067-0.027-0.039 0.024-0.021 0.070l0.034 0.089c0.003 0.012 0.009 0.023 0.017 0.032v0c0.032 0.030 0.057 0.081 0.051 0.094-0.012 0.028 0.004 0.065 0.015 0.101 0.034 0.106 0.065 0.212 0.109 0.32 0.034 0.084 0.032 0.162 0.106 0.253 0.010 0.012 0.010 0.032 0 0.032-0.023 0-0.010 0.028-0.004 0.047 0.028 0.092 0.057 0.184 0.088 0.277 0.040 0.118 0.083 0.236 0.123 0.354zM10.791 25.442c0.010-0.053 0.018-0.093 0.024-0.135 0.008-0.061 0.037-0.061 0.109-0.007l0.15 0.123c-0.022-0.069-0.042-0.13-0.061-0.19-0.041-0.123-0.007-0.184 0.065-0.207 0.015-0.005 0.034-0.009 0.030-0.030-0.009-0.051 0.021-0.050 0.051-0.053 0.028-0.001 0.054-0.006 0.080-0.013l-0.002 0.001c0.039-0.008 0.073-0.028 0.099-0.056l0-0c-0.086-0.034-0.168-0.061-0.249-0.088-0.029-0.008-0.053-0.026-0.068-0.050l-0-0c-0.067-0.088-0.094-0.177-0.039-0.195 0.022-0.008 0.018-0.023-0.016-0.054-0.061-0.058-0.073-0.078-0.072-0.143 0-0.008 0.006-0.017-0.007-0.028-0.032-0.024-0.069-0.067-0.094-0.055s-0.045-0.016-0.061-0.047-0.023-0.048-0.034-0.072c0.017 0.077 0.040 0.156 0.061 0.233 0.025 0.099 0.017 0.104-0.071 0.055l-0.020-0.010c-0.061-0.029-0.073-0.024-0.068 0.038 0.006 0.078-0.052 0.104-0.132 0.055s-0.162-0.094-0.245-0.137c-0.057-0.031-0.058-0.026-0.036 0.042s0.069 0.13 0.093 0.192c0.014 0.045 0.045 0.080 0.085 0.1l0.001 0c0.059 0.029 0.107 0.074 0.139 0.129l0.001 0.002c0.043 0.073 0.139 0.144 0.118 0.22 0.001 0.004 0.003 0.008 0.005 0.011l-0-0.001c0.044 0.115 0.101 0.234 0.167 0.371zM10.246 24.024c0.051-0.004 0.015-0.058-0.008-0.101-0.041-0.078-0.061-0.088-0.085-0.048-0.004 0.008-0.009 0.015-0.014 0.021l0-0c-0.067 0.061-0.070 0.18-0.082 0.292 0 0.016 0.009 0.045 0.022 0.050 0.058 0.025 0.108 0.051 0.155 0.082l-0.003-0.002c0.010 0.006 0.021 0.004 0.035 0.019 0.061 0.067 0.096 0.048 0.142 0.061 0.007 0 0.005-0.007 0-0.015s-0.016-0.024-0.021-0.021c-0.031 0.013-0.058-0.045-0.087-0.058 0.006-0.030 0.031-0.021 0.058-0.006 0.012 0.007 0.018 0.005 0.018-0.006s-0.009-0.016-0.017-0.019-0.026-0.008-0.026-0.024 0.015-0.008 0.030 0.003 0.031 0.034 0.047 0.034c-0.022-0.060-0.051-0.111-0.087-0.157l0.001 0.001c-0.003-0.004-0.005-0.010-0.005-0.015l-0-0c0-0.001 0-0.001 0-0.002 0-0.044-0.031-0.080-0.073-0.088l-0.001-0zM10.794 23.935c0.029 0.047 0.052 0.089 0.080 0.129 0.066 0.096 0.096 0.105 0.115 0.042 0.008-0.025 0-0.042-0.035-0.069-0.046-0.040-0.098-0.075-0.155-0.102l-0.004-0.002zM11.1 24.412c0.003-0.012 0.015-0.015 0.009-0.034-0.003-0.010-0.010-0.017-0.020-0.018l-0-0c-0.024-0.009-0.053-0.015-0.082-0.015-0.006 0-0.012 0-0.017 0.001l0.001-0c-0.026 0.007 0.015 0.051 0.018 0.075 0 0.005 0.003 0.012 0 0.015-0.006 0.018 0.015 0.039 0.028 0.048s0.030 0.007 0.029-0.010c0.002-0.036 0.006-0.064 0.039-0.062zM10.752 24.143c-0.018-0.028-0.037-0.048-0.031-0.056 0.020-0.028-0.016-0.074-0.036-0.112-0.025-0.048-0.061-0.094-0.091-0.142 0.037 0.098 0.046 0.194 0.161 0.309zM10.051 24.625c0.027 0.007 0.058 0.012 0.089 0.012 0.001 0 0.002 0 0.003 0h-0c0.024 0 0.017-0.018 0.004-0.038-0.018-0.025-0.036-0.047-0.055-0.068l0 0c-0.018-0.020-0.028-0.020-0.029 0-0.004 0.029-0.007 0.060-0.012 0.094zM11.206 24.371c0.050 0.028 0.096 0.056 0.133 0.044 0.024-0.007 0.027-0.045 0.067-0.030 0 0 0.004-0.007 0-0.012-0.004-0.009-0.012-0.015-0.022-0.015h-0c-0.056 0.007-0.118 0.009-0.178 0.012zM9.858 24.219c0.034 0.040 0.070 0.076 0.109 0.108l0.001 0.001c0.039 0.029 0.046 0.020 0.029-0.024-0.008-0.020-0.022-0.036-0.039-0.048l-0-0c-0.028-0.021-0.062-0.035-0.1-0.037l-0.001-0zM10.137 24.484c0.012 0.019 0.021 0.042 0.026 0.066l0 0.001c0.009 0.027 0.022 0.051 0.037 0.072l-0-0.001c0.004 0.010 0.014 0.017 0.025 0.017 0 0 0.001 0 0.001-0h-0c0.009 0 0.005-0.009 0-0.019-0.023-0.052-0.053-0.097-0.090-0.136l0 0zM10.579 24.252c0.020 0.016 0.042 0.030 0.067 0.040l0.002 0.001c0.015 0.008 0.026 0.007 0.018-0.013s-0.025-0.032-0.033-0.028-0.039-0.009-0.055 0.001z"></path>
<path fill="#fff" d="M9.561 24.608c-0.053 0.019-0.123 0.010-0.174 0.034l-0.009-0.011c0.031-0.022 0.070-0.036 0.113-0.036 0.025 0 0.049 0.005 0.071 0.013l-0.001-0z"></path>
<path fill="#fff" d="M11.828 25.053l0.354 0.15 0.004 0.015c-0.139-0.047-0.256-0.098-0.369-0.158l0.013 0.006z"></path>
<path fill="#fff" d="M10.012 23.166c0.048 0.035 0.096 0.061 0.113 0.131 0.013 0.055 0.039 0.116 0.061 0.191-0.071-0.118-0.067-0.223-0.174-0.322z"></path>
<path fill="#fff" d="M10.412 23.322c-0.031-0.055-0.058-0.118-0.075-0.185l-0.001-0.006c-0.007-0.032-0.022-0.059-0.043-0.080v0c-0.013-0.012-0.020-0.032-0.014-0.040s0-0.039 0-0.061c0.044 0.097 0.089 0.219 0.127 0.344l0.006 0.023z"></path>
<path fill="#fff" d="M11.439 24.898c0.1 0.032 0.184 0.066 0.264 0.105l-0.011-0.005c-0.017 0.023-0.051 0-0.073-0.013-0.041-0.021-0.090-0.041-0.14-0.055l-0.006-0.002c-0.015-0.006-0.027-0.017-0.034-0.031l-0-0z"></path>
<path fill="#fff" d="M9.732 23.031c0.026 0.038 0.048 0.082 0.066 0.129l0.001 0.004c0 0.010 0.014 0.026 0 0.021s-0.033-0.017-0.032-0.031c0.003-0.036-0.023-0.082-0.036-0.123z"></path>
<path fill="#fff" d="M9.714 22.987c-0.028-0.043-0.045-0.096-0.045-0.152 0-0.006 0-0.011 0.001-0.017l-0 0.001c0.013 0.067 0.029 0.124 0.047 0.179l-0.003-0.010z"></path>
<path fill="#fff" d="M9.707 22.336c0.009 0.061 0.009 0.061-0.027 0.061-0.004-0.028 0.004-0.050 0.027-0.061z"></path>
<path fill="#fff" d="M9.217 22.737l0.094 0.020c-0.023 0.031-0.057 0.015-0.094-0.020z"></path>
</svg>
